<svg width="17" height="16" viewBox="0 0 17 16" fill="none" xmlns="http://www.w3.org/2000/svg">
<path d="M8.5 16C12.9183 16 16.5 12.4183 16.5 8C16.5 3.58172 12.9183 0 8.5 0C4.08172 0 0.5 3.58172 0.5 8C0.5 12.4183 4.08172 16 8.5 16Z" fill="#4570B5"/>
<path opacity="0.5" d="M8.5 16C12.9183 16 16.5 12.4183 16.5 8C16.5 3.58172 12.9183 0 8.5 0C4.08172 0 0.5 3.58172 0.5 8C0.5 12.4183 4.08172 16 8.5 16Z" fill="#4570B5"/>
<path d="M7.06926 11.1275L4.83996 8.85999C4.82013 8.84043 4.80438 8.81713 4.79363 8.79144C4.78288 8.76574 4.77734 8.73816 4.77734 8.71031C4.77734 8.68245 4.78288 8.65488 4.79363 8.62918C4.80438 8.60349 4.82013 8.58018 4.83996 8.56063L6.01512 7.40458C6.05504 7.36529 6.1088 7.34327 6.16481 7.34327C6.22081 7.34327 6.27457 7.36529 6.31449 7.40458L7.08201 8.17846C7.10156 8.1983 7.12487 8.21405 7.15056 8.2248C7.17626 8.23555 7.20383 8.24109 7.23169 8.24109C7.25954 8.24109 7.28712 8.23555 7.31281 8.2248C7.33851 8.21405 7.36181 8.1983 7.38137 8.17846L10.703 4.85999C10.7226 4.84015 10.7459 4.8244 10.7716 4.81365C10.7973 4.8029 10.8249 4.79736 10.8527 4.79736C10.8806 4.79736 10.9081 4.8029 10.9338 4.81365C10.9595 4.8244 10.9828 4.84015 11.0024 4.85999L12.1648 6.02241C12.1877 6.04214 12.2061 6.06658 12.2187 6.09406C12.2313 6.12154 12.2378 6.15142 12.2378 6.18165C12.2378 6.21188 12.2313 6.24175 12.2187 6.26923C12.2061 6.29671 12.1877 6.32115 12.1648 6.34088L7.38774 11.1371C7.36705 11.1589 7.34198 11.1761 7.31417 11.1876C7.28636 11.1991 7.25644 11.2046 7.22636 11.2037C7.19629 11.2028 7.16674 11.1955 7.13967 11.1824C7.11259 11.1693 7.0886 11.1506 7.06926 11.1275Z" fill="white"/>
</svg>
