<svg width="16" height="16" viewBox="0 0 16 16" fill="none" xmlns="http://www.w3.org/2000/svg">
<path d="M5.33594 3.83331C5.0626 3.83331 4.83594 3.60665 4.83594 3.33331V1.33331C4.83594 1.05998 5.0626 0.833313 5.33594 0.833313C5.60927 0.833313 5.83594 1.05998 5.83594 1.33331V3.33331C5.83594 3.60665 5.60927 3.83331 5.33594 3.83331Z" fill="#353535"/>
<path d="M10.6641 3.83331C10.3907 3.83331 10.1641 3.60665 10.1641 3.33331V1.33331C10.1641 1.05998 10.3907 0.833313 10.6641 0.833313C10.9374 0.833313 11.1641 1.05998 11.1641 1.33331V3.33331C11.1641 3.60665 10.9374 3.83331 10.6641 3.83331Z" fill="#353535"/>
<path d="M5.66667 9.66667C5.58 9.66667 5.49333 9.64668 5.41333 9.61335C5.32667 9.58001 5.26 9.53333 5.19333 9.47333C5.07333 9.34667 5 9.18 5 9C5 8.91334 5.02 8.82667 5.05333 8.74667C5.08667 8.66667 5.13333 8.59334 5.19333 8.52668C5.26 8.46668 5.32667 8.42 5.41333 8.38666C5.65333 8.28666 5.95333 8.34001 6.14 8.52668C6.26 8.65334 6.33333 8.82667 6.33333 9C6.33333 9.04 6.32667 9.08668 6.32 9.13335C6.31333 9.17335 6.3 9.21334 6.28 9.25334C6.26667 9.29334 6.24667 9.33334 6.22 9.37334C6.2 9.40667 6.16667 9.44 6.14 9.47333C6.01333 9.59333 5.84 9.66667 5.66667 9.66667Z" fill="#353535"/>
<path d="M8.0026 9.66664C7.91594 9.66664 7.82927 9.64665 7.74927 9.61332C7.6626 9.57999 7.59594 9.5333 7.52927 9.4733C7.40927 9.34664 7.33594 9.17998 7.33594 8.99998C7.33594 8.91331 7.35594 8.82664 7.38927 8.74664C7.42261 8.66664 7.46927 8.59332 7.52927 8.52665C7.59594 8.46665 7.6626 8.41997 7.74927 8.38663C7.98927 8.27997 8.28927 8.33998 8.47594 8.52665C8.59594 8.65332 8.66927 8.82664 8.66927 8.99998C8.66927 9.03998 8.6626 9.08665 8.65594 9.13332C8.64927 9.17332 8.63594 9.21331 8.61594 9.25331C8.6026 9.29331 8.58261 9.33331 8.55594 9.37331C8.53594 9.40664 8.5026 9.43997 8.47594 9.4733C8.34927 9.5933 8.17594 9.66664 8.0026 9.66664Z" fill="#353535"/>
<path d="M10.3307 9.66664C10.2441 9.66664 10.1574 9.64665 10.0774 9.61332C9.99073 9.57999 9.92406 9.5333 9.8574 9.4733C9.83073 9.43997 9.80406 9.40664 9.77739 9.37331C9.75073 9.33331 9.73073 9.29331 9.7174 9.25331C9.6974 9.21331 9.68406 9.17332 9.6774 9.13332C9.67073 9.08665 9.66406 9.03998 9.66406 8.99998C9.66406 8.82664 9.7374 8.65332 9.8574 8.52665C9.92406 8.46665 9.99073 8.41997 10.0774 8.38663C10.3241 8.27997 10.6174 8.33998 10.8041 8.52665C10.9241 8.65332 10.9974 8.82664 10.9974 8.99998C10.9974 9.03998 10.9907 9.08665 10.9841 9.13332C10.9774 9.17332 10.9641 9.21331 10.9441 9.25331C10.9307 9.29331 10.9107 9.33331 10.8841 9.37331C10.8641 9.40664 10.8307 9.43997 10.8041 9.4733C10.6774 9.5933 10.5041 9.66664 10.3307 9.66664Z" fill="#353535"/>
<path d="M5.66667 12C5.58 12 5.49333 11.98 5.41333 11.9467C5.33333 11.9133 5.26 11.8666 5.19333 11.8066C5.07333 11.68 5 11.5066 5 11.3333C5 11.2466 5.02 11.16 5.05333 11.08C5.08667 10.9933 5.13333 10.92 5.19333 10.86C5.44 10.6133 5.89333 10.6133 6.14 10.86C6.26 10.9867 6.33333 11.16 6.33333 11.3333C6.33333 11.5066 6.26 11.68 6.14 11.8066C6.01333 11.9266 5.84 12 5.66667 12Z" fill="#353535"/>
<path d="M8.0026 12C7.82927 12 7.65594 11.9266 7.52927 11.8066C7.40927 11.68 7.33594 11.5066 7.33594 11.3333C7.33594 11.2466 7.35594 11.16 7.38927 11.08C7.42261 10.9933 7.46927 10.92 7.52927 10.86C7.77594 10.6133 8.22927 10.6133 8.47594 10.86C8.53594 10.92 8.5826 10.9933 8.61594 11.08C8.64927 11.16 8.66927 11.2466 8.66927 11.3333C8.66927 11.5066 8.59594 11.68 8.47594 11.8066C8.34927 11.9266 8.17594 12 8.0026 12Z" fill="#353535"/>
<path d="M10.3307 12C10.1574 12 9.98406 11.9267 9.8574 11.8067C9.7974 11.7467 9.75073 11.6733 9.7174 11.5867C9.68406 11.5067 9.66406 11.42 9.66406 11.3333C9.66406 11.2467 9.68406 11.16 9.7174 11.08C9.75073 10.9933 9.7974 10.92 9.8574 10.86C10.0107 10.7067 10.2441 10.6333 10.4574 10.68C10.5041 10.6867 10.5441 10.7 10.5841 10.72C10.6241 10.7333 10.6641 10.7533 10.7041 10.78C10.7374 10.8 10.7707 10.8333 10.8041 10.86C10.9241 10.9867 10.9974 11.16 10.9974 11.3333C10.9974 11.5067 10.9241 11.68 10.8041 11.8067C10.6774 11.9267 10.5041 12 10.3307 12Z" fill="#353535"/>
<path d="M13.6693 6.56H2.33594C2.0626 6.56 1.83594 6.33333 1.83594 6.06C1.83594 5.78666 2.0626 5.56 2.33594 5.56H13.6693C13.9426 5.56 14.1693 5.78666 14.1693 6.06C14.1693 6.33333 13.9426 6.56 13.6693 6.56Z" fill="#353535"/>
<path d="M10.6667 15.1666H5.33333C2.9 15.1666 1.5 13.7666 1.5 11.3333V5.66665C1.5 3.23331 2.9 1.83331 5.33333 1.83331H10.6667C13.1 1.83331 14.5 3.23331 14.5 5.66665V11.3333C14.5 13.7666 13.1 15.1666 10.6667 15.1666ZM5.33333 2.83331C3.42667 2.83331 2.5 3.75998 2.5 5.66665V11.3333C2.5 13.24 3.42667 14.1666 5.33333 14.1666H10.6667C12.5733 14.1666 13.5 13.24 13.5 11.3333V5.66665C13.5 3.75998 12.5733 2.83331 10.6667 2.83331H5.33333Z" fill="#353535"/>
</svg>
