<svg width="21" height="20" viewBox="0 0 21 20" fill="none" xmlns="http://www.w3.org/2000/svg">
<path d="M15.043 18.9584C14.1013 18.9584 13.1096 18.7334 12.0846 18.3C11.0846 17.875 10.0763 17.2917 9.09297 16.5834C8.11797 15.8667 7.1763 15.0667 6.28464 14.1917C5.4013 13.3 4.6013 12.3584 3.89297 11.3917C3.1763 10.3917 2.6013 9.39169 2.19297 8.42502C1.75964 7.39169 1.54297 6.39169 1.54297 5.45002C1.54297 4.80002 1.65964 4.18335 1.88464 3.60835C2.11797 3.01669 2.49297 2.46669 3.0013 1.99169C3.64297 1.35835 4.3763 1.04169 5.15964 1.04169C5.48464 1.04169 5.81797 1.11669 6.1013 1.25002C6.4263 1.40002 6.7013 1.62502 6.9013 1.92502L8.83464 4.65002C9.00964 4.89169 9.14297 5.12502 9.23464 5.35835C9.34297 5.60835 9.4013 5.85835 9.4013 6.10002C9.4013 6.41669 9.30964 6.72502 9.13464 7.01669C9.00964 7.24169 8.81797 7.48335 8.5763 7.72502L8.00964 8.31669C8.01797 8.34169 8.0263 8.35835 8.03464 8.37502C8.13464 8.55002 8.33464 8.85002 8.71797 9.30002C9.1263 9.76669 9.50964 10.1917 9.89297 10.5834C10.3846 11.0667 10.793 11.45 11.1763 11.7667C11.6513 12.1667 11.9596 12.3667 12.143 12.4584L12.1263 12.5L12.7346 11.9C12.993 11.6417 13.243 11.45 13.4846 11.325C13.943 11.0417 14.5263 10.9917 15.1096 11.2334C15.3263 11.325 15.5596 11.45 15.8096 11.625L18.5763 13.5917C18.8846 13.8 19.1096 14.0667 19.243 14.3834C19.368 14.7 19.4263 14.9917 19.4263 15.2834C19.4263 15.6834 19.3346 16.0834 19.1596 16.4584C18.9846 16.8334 18.768 17.1584 18.493 17.4584C18.018 17.9834 17.5013 18.3584 16.9013 18.6C16.3263 18.8334 15.7013 18.9584 15.043 18.9584ZM5.15964 2.29169C4.7013 2.29169 4.2763 2.49169 3.86797 2.89169C3.48464 3.25002 3.21797 3.64169 3.0513 4.06669C2.8763 4.50002 2.79297 4.95835 2.79297 5.45002C2.79297 6.22502 2.9763 7.06669 3.34297 7.93335C3.71797 8.81669 4.24297 9.73335 4.90964 10.65C5.5763 11.5667 6.33464 12.4584 7.16797 13.3C8.0013 14.125 8.9013 14.8917 9.8263 15.5667C10.7263 16.225 11.6513 16.7584 12.568 17.1417C13.993 17.75 15.3263 17.8917 16.4263 17.4334C16.8513 17.2584 17.2263 16.9917 17.568 16.6084C17.7596 16.4 17.9096 16.175 18.0346 15.9084C18.1346 15.7 18.1846 15.4834 18.1846 15.2667C18.1846 15.1334 18.1596 15 18.093 14.85C18.068 14.8 18.018 14.7084 17.8596 14.6L15.093 12.6334C14.9263 12.5167 14.7763 12.4334 14.6346 12.375C14.4513 12.3 14.3763 12.225 14.093 12.4C13.9263 12.4834 13.7763 12.6084 13.6096 12.775L12.9763 13.4C12.6513 13.7167 12.1513 13.7917 11.768 13.65L11.543 13.55C11.2013 13.3667 10.8013 13.0834 10.3596 12.7084C9.95964 12.3667 9.5263 11.9667 9.0013 11.45C8.59297 11.0334 8.18464 10.5917 7.75964 10.1C7.36797 9.64169 7.08464 9.25002 6.90964 8.92502L6.80964 8.67502C6.75964 8.48335 6.74297 8.37502 6.74297 8.25835C6.74297 7.95835 6.8513 7.69169 7.05964 7.48335L7.68464 6.83335C7.8513 6.66669 7.9763 6.50835 8.05964 6.36669C8.1263 6.25835 8.1513 6.16669 8.1513 6.08335C8.1513 6.01669 8.1263 5.91669 8.08464 5.81669C8.0263 5.68335 7.93464 5.53335 7.81797 5.37502L5.88464 2.64169C5.8013 2.52502 5.7013 2.44169 5.5763 2.38335C5.44297 2.32502 5.3013 2.29169 5.15964 2.29169ZM12.1263 12.5084L11.993 13.075L12.218 12.4917C12.1763 12.4834 12.143 12.4917 12.1263 12.5084Z" fill="#2F80ED"/>
</svg>
