<svg width="16" height="16" viewBox="0 0 16 16" fill="none" xmlns="http://www.w3.org/2000/svg">
<path d="M11.6359 15.1666C10.8826 15.1666 10.0893 14.9866 9.26927 14.64C8.46927 14.3 7.6626 13.8333 6.87594 13.2666C6.09594 12.6933 5.3426 12.0533 4.62927 11.3533C3.9226 10.64 3.2826 9.88665 2.71594 9.11331C2.1426 8.31331 1.6826 7.51331 1.35594 6.73998C1.00927 5.91331 0.835938 5.11331 0.835938 4.35998C0.835938 3.83998 0.929271 3.34665 1.10927 2.88665C1.29594 2.41331 1.59594 1.97331 2.0026 1.59331C2.51594 1.08665 3.1026 0.833313 3.72927 0.833313C3.98927 0.833313 4.25594 0.893313 4.4826 0.99998C4.7426 1.11998 4.9626 1.29998 5.1226 1.53998L6.66927 3.71998C6.80927 3.91331 6.91594 4.09998 6.98927 4.28665C7.07594 4.48665 7.1226 4.68665 7.1226 4.87998C7.1226 5.13331 7.04927 5.37998 6.90927 5.61331C6.80927 5.79331 6.65594 5.98665 6.4626 6.17998L6.00927 6.65331C6.01594 6.67331 6.0226 6.68665 6.02927 6.69998C6.10927 6.83998 6.26927 7.07998 6.57594 7.43998C6.9026 7.81331 7.20927 8.15331 7.51594 8.46665C7.90927 8.85331 8.23594 9.15998 8.5426 9.41331C8.9226 9.73331 9.16927 9.89331 9.31594 9.96665L9.3026 9.99998L9.78927 9.51998C9.99594 9.31331 10.1959 9.15998 10.3893 9.05998C10.7559 8.83331 11.2226 8.79331 11.6893 8.98665C11.8626 9.05998 12.0493 9.15998 12.2493 9.29998L14.4626 10.8733C14.7093 11.04 14.8893 11.2533 14.9959 11.5066C15.0959 11.76 15.1426 11.9933 15.1426 12.2266C15.1426 12.5466 15.0693 12.8666 14.9293 13.1666C14.7893 13.4666 14.6159 13.7266 14.3959 13.9666C14.0159 14.3866 13.6026 14.6866 13.1226 14.88C12.6626 15.0666 12.1626 15.1666 11.6359 15.1666ZM3.72927 1.83331C3.3626 1.83331 3.0226 1.99331 2.69594 2.31331C2.38927 2.59998 2.17594 2.91331 2.0426 3.25331C1.9026 3.59998 1.83594 3.96665 1.83594 4.35998C1.83594 4.97998 1.9826 5.65331 2.27594 6.34665C2.57594 7.05331 2.99594 7.78665 3.52927 8.51998C4.0626 9.25331 4.66927 9.96665 5.33594 10.64C6.0026 11.3 6.7226 11.9133 7.4626 12.4533C8.1826 12.98 8.9226 13.4066 9.65594 13.7133C10.7959 14.2 11.8626 14.3133 12.7426 13.9466C13.0826 13.8066 13.3826 13.5933 13.6559 13.2866C13.8093 13.12 13.9293 12.94 14.0293 12.7266C14.1093 12.56 14.1493 12.3866 14.1493 12.2133C14.1493 12.1066 14.1293 12 14.0759 11.88C14.0559 11.84 14.0159 11.7666 13.8893 11.68L11.6759 10.1066C11.5426 10.0133 11.4226 9.94665 11.3093 9.89998C11.1626 9.83998 11.1026 9.77998 10.8759 9.91998C10.7426 9.98665 10.6226 10.0866 10.4893 10.22L9.9826 10.72C9.7226 10.9733 9.3226 11.0333 9.01594 10.92L8.83594 10.84C8.5626 10.6933 8.2426 10.4666 7.88927 10.1666C7.56927 9.89331 7.2226 9.57331 6.8026 9.15998C6.47594 8.82665 6.14927 8.47331 5.80927 8.07998C5.49594 7.71331 5.26927 7.39998 5.12927 7.13998L5.04927 6.93998C5.00927 6.78665 4.99594 6.69998 4.99594 6.60665C4.99594 6.36665 5.0826 6.15331 5.24927 5.98665L5.74927 5.46665C5.8826 5.33331 5.9826 5.20665 6.04927 5.09331C6.1026 5.00665 6.1226 4.93331 6.1226 4.86665C6.1226 4.81331 6.1026 4.73331 6.06927 4.65331C6.0226 4.54665 5.94927 4.42665 5.85594 4.29998L4.30927 2.11331C4.2426 2.01998 4.1626 1.95331 4.0626 1.90665C3.95594 1.85998 3.8426 1.83331 3.72927 1.83331ZM9.3026 10.0066L9.19594 10.46L9.37594 9.99331C9.3426 9.98665 9.31594 9.99331 9.3026 10.0066Z" fill="#717171"/>
</svg>
