<svg width="20" height="20" viewBox="0 0 20 20" fill="none" xmlns="http://www.w3.org/2000/svg">
<path d="M12.4974 18.9583H7.4974C2.9724 18.9583 1.03906 17.025 1.03906 12.5V7.50001C1.03906 2.97501 2.9724 1.04167 7.4974 1.04167H9.16406C9.50573 1.04167 9.78906 1.32501 9.78906 1.66667C9.78906 2.00834 9.50573 2.29167 9.16406 2.29167H7.4974C3.65573 2.29167 2.28906 3.65834 2.28906 7.50001V12.5C2.28906 16.3417 3.65573 17.7083 7.4974 17.7083H12.4974C16.3391 17.7083 17.7057 16.3417 17.7057 12.5V10.8333C17.7057 10.4917 17.9891 10.2083 18.3307 10.2083C18.6724 10.2083 18.9557 10.4917 18.9557 10.8333V12.5C18.9557 17.025 17.0224 18.9583 12.4974 18.9583Z" fill="#505050"/>
<path d="M7.08214 14.7417C6.5738 14.7417 6.10714 14.5583 5.76547 14.225C5.35714 13.8167 5.18214 13.225 5.2738 12.6L5.63214 10.0917C5.69881 9.60834 6.01547 8.98334 6.35714 8.64167L12.9238 2.075C14.5821 0.41667 16.2655 0.41667 17.9238 2.075C18.8321 2.98334 19.2405 3.90834 19.1571 4.83334C19.0821 5.58334 18.6821 6.31667 17.9238 7.06667L11.3571 13.6333C11.0155 13.975 10.3905 14.2917 9.90714 14.3583L7.3988 14.7167C7.29047 14.7417 7.18214 14.7417 7.08214 14.7417ZM13.8071 2.95834L7.24047 9.525C7.08214 9.68334 6.8988 10.05 6.86547 10.2667L6.50714 12.775C6.4738 13.0167 6.5238 13.2167 6.6488 13.3417C6.7738 13.4667 6.9738 13.5167 7.21547 13.4833L9.7238 13.125C9.94047 13.0917 10.3155 12.9083 10.4655 12.75L17.0321 6.18334C17.5738 5.64167 17.8571 5.15834 17.8988 4.70834C17.9488 4.16667 17.6655 3.59167 17.0321 2.95C15.6988 1.61667 14.7821 1.99167 13.8071 2.95834Z" fill="#505050"/>
<path d="M16.5442 8.19167C16.4859 8.19167 16.4276 8.18334 16.3776 8.16667C14.1859 7.55 12.4442 5.80834 11.8276 3.61667C11.7359 3.28334 11.9276 2.94167 12.2609 2.84167C12.5942 2.75 12.9359 2.94167 13.0276 3.275C13.5276 5.05 14.9359 6.45834 16.7109 6.95834C17.0442 7.05 17.2359 7.4 17.1442 7.73334C17.0692 8.01667 16.8192 8.19167 16.5442 8.19167Z" fill="#353535"/>
</svg>
