<svg width="13" height="13" viewBox="0 0 13 13" fill="none" xmlns="http://www.w3.org/2000/svg">
<mask id="path-1-inside-1_10762_10337" fill="white">
<path d="M12.75 6.5C12.75 8.07306 12.1568 9.58826 11.0888 10.7432C10.0209 11.8982 8.55665 12.608 6.98841 12.7309C5.42016 12.8538 3.86323 12.3809 2.62835 11.4064C1.39346 10.432 0.571436 9.02767 0.326334 7.47383C0.0812313 5.91999 0.431076 4.33086 1.30605 3.0236C2.18102 1.71634 3.51676 0.787093 5.0467 0.421314C6.57664 0.0555348 8.18825 0.280126 9.55989 1.05027C10.9315 1.82041 11.9623 3.07945 12.4465 4.57613L10.9599 5.05709C10.5967 3.93459 9.82364 2.9903 8.79491 2.4127C7.76619 1.83509 6.55748 1.66665 5.41003 1.94099C4.26257 2.21532 3.26076 2.91225 2.60454 3.8927C1.94831 4.87315 1.68592 6.06499 1.86975 7.23037C2.05358 8.39576 2.67009 9.44896 3.59626 10.1798C4.52243 10.9106 5.69012 11.2654 6.86631 11.1732C8.04249 11.081 9.14066 10.5486 9.94164 9.68242C10.7426 8.8162 11.1875 7.67979 11.1875 6.5H12.75Z"/>
</mask>
<path d="M12.75 6.5C12.75 8.07306 12.1568 9.58826 11.0888 10.7432C10.0209 11.8982 8.55665 12.608 6.98841 12.7309C5.42016 12.8538 3.86323 12.3809 2.62835 11.4064C1.39346 10.432 0.571436 9.02767 0.326334 7.47383C0.0812313 5.91999 0.431076 4.33086 1.30605 3.0236C2.18102 1.71634 3.51676 0.787093 5.0467 0.421314C6.57664 0.0555348 8.18825 0.280126 9.55989 1.05027C10.9315 1.82041 11.9623 3.07945 12.4465 4.57613L10.9599 5.05709C10.5967 3.93459 9.82364 2.9903 8.79491 2.4127C7.76619 1.83509 6.55748 1.66665 5.41003 1.94099C4.26257 2.21532 3.26076 2.91225 2.60454 3.8927C1.94831 4.87315 1.68592 6.06499 1.86975 7.23037C2.05358 8.39576 2.67009 9.44896 3.59626 10.1798C4.52243 10.9106 5.69012 11.2654 6.86631 11.1732C8.04249 11.081 9.14066 10.5486 9.94164 9.68242C10.7426 8.8162 11.1875 7.67979 11.1875 6.5H12.75Z" stroke="url(#paint0_angular_10762_10337)" stroke-width="32" mask="url(#path-1-inside-1_10762_10337)"/>
<defs>
<radialGradient id="paint0_angular_10762_10337" cx="0" cy="0" r="1" gradientUnits="userSpaceOnUse" gradientTransform="translate(6.5 6.5) rotate(-37.875) scale(5.93841 5.64149)">
<stop stop-color="#EFBBBB" stop-opacity="0.7"/>
<stop offset="0.0001" stop-color="#CB1B1B" stop-opacity="0"/>
<stop offset="0.45" stop-color="white"/>
<stop offset="0.975" stop-color="#E48787" stop-opacity="0.474292"/>
<stop offset="1" stop-color="#DC6464" stop-opacity="0.321667"/>
</radialGradient>
</defs>
</svg>
