<svg width="280" height="145" viewBox="0 0 280 145" fill="none" xmlns="http://www.w3.org/2000/svg">
<g clip-path="url(#clip0_6185_48020)">
<rect width="280" height="145" fill="#F9F9F9"/>
<g clip-path="url(#clip1_6185_48020)">
<path d="M235.631 114.691H212.523V144.741H235.631V114.691Z" fill="#F9D2D2"/>
<path d="M235.639 114.691H224.805V144.741H235.639V114.691Z" fill="#F6BBBB"/>
<path d="M219.445 118.759H217.367V123.736H219.445V118.759Z" fill="#E1E1E1"/>
<path d="M219.445 138.238H217.367V143.215H219.445V138.238Z" fill="#E1E1E1"/>
<path d="M224.797 125.688C224.797 125.731 222.049 125.766 218.662 125.766C215.276 125.766 212.523 125.731 212.523 125.688C212.523 125.644 215.271 125.609 218.662 125.609C222.053 125.609 224.797 125.644 224.797 125.688Z" fill="#E1E1E1"/>
<path d="M219.445 128.572H217.367V133.548H219.445V128.572Z" fill="#E1E1E1"/>
<path d="M224.797 135.504C224.797 135.548 222.049 135.583 218.662 135.583C215.276 135.583 212.523 135.548 212.523 135.504C212.523 135.461 215.271 135.422 218.662 135.422C222.053 135.422 224.797 135.461 224.797 135.504Z" fill="#E1E1E1"/>
<path d="M229.172 118.759H227.094V123.736H229.172V118.759Z" fill="#E1E1E1"/>
<path d="M233.684 118.759H231.605V123.736H233.684V118.759Z" fill="#E1E1E1"/>
<path d="M229.172 128.203H227.094V133.18H229.172V128.203Z" fill="#E1E1E1"/>
<path d="M233.684 128.203H231.605V133.18H233.684V128.203Z" fill="#E1E1E1"/>
<path d="M229.172 137.646H227.094V142.623H229.172V137.646Z" fill="#E1E1E1"/>
<path d="M233.684 137.646H231.605V142.623H233.684V137.646Z" fill="#E1E1E1"/>
<path d="M237.367 113.641H210.785V114.725H237.367V113.641Z" fill="#E1E1E1"/>
<path d="M235.791 114.83C235.791 114.873 230.626 114.908 224.257 114.908C217.888 114.908 212.723 114.873 212.723 114.83C212.723 114.786 217.888 114.751 224.257 114.751C230.626 114.751 235.791 114.786 235.791 114.83Z" fill="#FAFAFA"/>
<path d="M186.874 38.7773H145.676V145.096H186.874V38.7773Z" fill="#FCE8E8"/>
<path d="M186.873 38.7773H166.273V145.096H186.873V38.7773Z" fill="#FDF1F1"/>
<path d="M164.926 26.1406H150.379V38.7779H164.926V26.1406Z" fill="#FDF1F1"/>
<path d="M164.918 26.1406H161.453V38.7779H164.918V26.1406Z" fill="#E1E1E1"/>
<path d="M188.083 38.0405H142.25V38.7778H188.083V38.0405Z" fill="#E1E1E1"/>
<path d="M157.295 44.29H153.809V51.5389H157.295V44.29Z" fill="white"/>
<path d="M166.271 54.3869C166.271 54.4649 161.662 54.5256 155.975 54.5256C150.289 54.5256 145.676 54.4649 145.676 54.3869C145.676 54.3089 150.284 54.2439 155.975 54.2439C161.666 54.2439 166.271 54.3046 166.271 54.3869Z" fill="#E1E1E1"/>
<path d="M178.077 44.29H174.59V51.5389H178.077V44.29Z" fill="#FAFAFA"/>
<path d="M187.048 54.3869C187.048 54.4649 182.439 54.5256 176.753 54.5256C171.066 54.5256 166.453 54.4649 166.453 54.3869C166.453 54.3089 171.062 54.2439 176.753 54.2439C182.444 54.2439 187.048 54.3046 187.048 54.3869Z" fill="#E1E1E1"/>
<path d="M178.077 58.6807H174.59V65.9295H178.077V58.6807Z" fill="#FAFAFA"/>
<path d="M187.048 68.7774C187.048 68.8554 182.439 68.9204 176.753 68.9204C171.066 68.9204 166.453 68.8554 166.453 68.7774C166.453 68.6993 171.062 68.6387 176.753 68.6387C182.444 68.6387 187.048 68.7037 187.048 68.7774Z" fill="#E1E1E1"/>
<path d="M178.077 73.5088H174.59V80.7576H178.077V73.5088Z" fill="#FAFAFA"/>
<path d="M187.048 83.6053C187.048 83.6833 182.439 83.7483 176.753 83.7483C171.066 83.7483 166.453 83.6833 166.453 83.6053C166.453 83.5272 171.062 83.4666 176.753 83.4666C182.444 83.4666 187.048 83.5316 187.048 83.6053Z" fill="#E1E1E1"/>
<path d="M178.077 88.3406H174.59V95.5894H178.077V88.3406Z" fill="#FAFAFA"/>
<path d="M187.048 98.4329C187.048 98.5109 182.439 98.5759 176.753 98.5759C171.066 98.5759 166.453 98.5109 166.453 98.4329C166.453 98.3549 171.062 98.2942 176.753 98.2942C182.444 98.2942 187.048 98.3592 187.048 98.4329Z" fill="#E1E1E1"/>
<path d="M178.077 102.744H174.59V109.993H178.077V102.744Z" fill="#FAFAFA"/>
<path d="M187.048 112.841C187.048 112.915 182.439 112.98 176.753 112.98C171.066 112.98 166.453 112.915 166.453 112.841C166.453 112.767 171.062 112.698 176.753 112.698C182.444 112.698 187.048 112.763 187.048 112.841Z" fill="#E1E1E1"/>
<path d="M178.077 117.203H174.59V124.452H178.077V117.203Z" fill="#FAFAFA"/>
<path d="M178.077 131.854H174.59V139.103H178.077V131.854Z" fill="#FAFAFA"/>
<path d="M187.048 127.3C187.048 127.378 182.439 127.443 176.753 127.443C171.066 127.443 166.453 127.378 166.453 127.3C166.453 127.222 171.062 127.161 176.753 127.161C182.444 127.161 187.048 127.222 187.048 127.3Z" fill="#E1E1E1"/>
<path d="M157.295 58.9038H153.809V66.1526H157.295V58.9038Z" fill="white"/>
<path d="M166.271 69.0002C166.271 69.0739 161.662 69.1389 155.975 69.1389C150.289 69.1389 145.676 69.0739 145.676 69.0002C145.676 68.9265 150.284 68.8572 155.975 68.8572C161.666 68.8572 166.271 68.9222 166.271 69.0002Z" fill="#E1E1E1"/>
<path d="M157.295 73.5173H153.809V80.7662H157.295V73.5173Z" fill="white"/>
<path d="M166.271 83.6137C166.271 83.6874 161.662 83.7524 155.975 83.7524C150.289 83.7524 145.676 83.6874 145.676 83.6137C145.676 83.54 150.284 83.4707 155.975 83.4707C161.666 83.4707 166.271 83.5357 166.271 83.6137Z" fill="#E1E1E1"/>
<path d="M157.295 88.1309H153.809V95.3797H157.295V88.1309Z" fill="white"/>
<path d="M166.271 98.2273C166.271 98.3009 161.662 98.366 155.975 98.366C150.289 98.366 145.676 98.3009 145.676 98.2273C145.676 98.1536 150.284 98.0842 155.975 98.0842C161.666 98.0842 166.271 98.1492 166.271 98.2273Z" fill="#E1E1E1"/>
<path d="M157.295 102.744H153.809V109.993H157.295V102.744Z" fill="white"/>
<path d="M166.271 112.841C166.271 112.915 161.662 112.98 155.975 112.98C150.289 112.98 145.676 112.915 145.676 112.841C145.676 112.767 150.284 112.698 155.975 112.698C161.666 112.698 166.271 112.763 166.271 112.841Z" fill="#E1E1E1"/>
<path d="M157.295 117.357H153.809V124.606H157.295V117.357Z" fill="white"/>
<path d="M166.271 127.455C166.271 127.528 161.662 127.593 155.975 127.593C150.289 127.593 145.676 127.528 145.676 127.455C145.676 127.381 150.284 127.312 155.975 127.312C161.666 127.312 166.271 127.377 166.271 127.455Z" fill="#E1E1E1"/>
<path d="M157.295 131.971H153.809V139.22H157.295V131.971Z" fill="white"/>
<path d="M129.473 103.829H97.8828V144.912H129.473V103.829Z" fill="#F9D2D2"/>
<path d="M129.465 103.829H114.652V144.912H129.465V103.829Z" fill="#FCA197"/>
<path d="M107.331 109.389H104.492V116.192H107.331V109.389Z" fill="#FAFAFA"/>
<path d="M107.331 136.021H104.492V142.824H107.331V136.021Z" fill="#FAFAFA"/>
<path d="M114.66 118.868C114.66 118.942 110.904 119.007 106.269 119.007C101.635 119.007 97.8828 118.942 97.8828 118.868C97.8828 118.794 101.639 118.725 106.269 118.725C110.9 118.725 114.66 118.79 114.66 118.868Z" fill="#FAFAFA"/>
<path d="M107.331 122.806H104.492V129.609H107.331V122.806Z" fill="#FAFAFA"/>
<path d="M114.66 132.281C114.66 132.359 110.904 132.424 106.269 132.424C101.635 132.424 97.8828 132.359 97.8828 132.281C97.8828 132.203 101.639 132.142 106.269 132.142C110.9 132.142 114.66 132.207 114.66 132.281Z" fill="#FAFAFA"/>
<path d="M120.64 109.389H117.801V116.192H120.64V109.389Z" fill="#FAFAFA"/>
<path d="M126.804 109.389H123.965V116.192H126.804V109.389Z" fill="#FAFAFA"/>
<path d="M120.64 122.3H117.801V129.103H120.64V122.3Z" fill="#FAFAFA"/>
<path d="M126.804 122.3H123.965V129.103H126.804V122.3Z" fill="#FAFAFA"/>
<path d="M120.64 135.212H117.801V142.015H120.64V135.212Z" fill="#FAFAFA"/>
<path d="M126.804 135.212H123.965V142.015H126.804V135.212Z" fill="#FAFAFA"/>
<path d="M131.842 102.397H95.5V103.88H131.842V102.397Z" fill="#E1E1E1"/>
<path d="M129.683 104.032C129.683 104.11 122.622 104.175 113.914 104.175C105.206 104.175 98.1406 104.11 98.1406 104.032C98.1406 103.954 105.201 103.893 113.914 103.893C122.627 103.893 129.683 103.945 129.683 104.032Z" fill="#E1E1E1"/>
<path d="M196.789 52.8851L224.775 53.018C224.775 53.018 222.123 47.0166 216.458 47.0166C212.141 47.0166 211.949 49.6658 209.354 50.4245C206.758 51.1833 201.298 46.5451 196.789 52.8851Z" fill="#FCE8E8"/>
<path d="M75.957 23.5039L125.172 23.7054C125.172 23.7054 120.512 13.1901 110.551 13.1858C102.96 13.1858 102.621 17.8454 98.0648 19.1872C93.5085 20.5289 83.9045 12.3542 75.957 23.5039Z" fill="#FCE8E8"/>
<path d="M174.664 7.7761L211.745 7.92613C211.745 7.92613 208.245 0.00428671 200.728 0C195.007 0 194.755 3.51082 191.32 4.51391C187.885 5.517 180.638 -0.625861 174.664 7.7761Z" fill="#FAFAFA"/>
<path d="M240.139 144.755C240.139 144.82 194.437 144.868 138.074 144.868C81.7111 144.868 36 144.82 36 144.755C36 144.69 81.6894 144.642 138.074 144.642C194.458 144.642 240.139 144.694 240.139 144.755Z" fill="#353535"/>
<path d="M219.231 82.5315H195.141V144.702H219.231V82.5315Z" fill="#F6BBBB"/>
<path d="M219.234 82.5317H207.191V144.702H219.234V82.5317Z" fill="#F66262"/>
<path d="M206.403 75.1418H197.895V82.5321H206.403V75.1418Z" fill="#505050"/>
<path d="M206.393 75.1418H204.367V82.5321H206.393V75.1418Z" fill="#353535"/>
<path d="M219.94 82.0989H193.137V82.5318H219.94V82.0989Z" fill="#505050"/>
<path d="M201.937 85.7554H199.898V89.9949H201.937V85.7554Z" fill="#353535"/>
<path d="M207.184 91.6597C207.184 91.7033 204.488 91.7425 201.162 91.7425C197.836 91.7425 195.141 91.7033 195.141 91.6597C195.141 91.6161 197.836 91.5769 201.162 91.5769C204.488 91.5769 207.184 91.5987 207.184 91.6597Z" fill="#353535"/>
<path d="M214.086 85.7554H212.047V89.9949H214.086V85.7554Z" fill="#505050"/>
<path d="M219.332 91.6597C219.332 91.7033 216.636 91.7425 213.311 91.7425C209.985 91.7425 207.289 91.7033 207.289 91.6597C207.289 91.6161 209.985 91.5769 213.311 91.5769C216.636 91.5769 219.332 91.5987 219.332 91.6597Z" fill="#505050"/>
<path d="M214.086 94.1704H212.047V98.41H214.086V94.1704Z" fill="#505050"/>
<path d="M219.332 100.075C219.332 100.122 216.636 100.157 213.311 100.157C209.985 100.157 207.289 100.122 207.289 100.075C207.289 100.027 209.985 99.9917 213.311 99.9917C216.636 99.9917 219.332 100.031 219.332 100.075Z" fill="#505050"/>
<path d="M214.086 102.842H212.047V107.081H214.086V102.842Z" fill="#505050"/>
<path d="M219.332 108.747C219.332 108.79 216.636 108.829 213.311 108.829C209.985 108.829 207.289 108.79 207.289 108.747C207.289 108.703 209.985 108.664 213.311 108.664C216.636 108.664 219.332 108.699 219.332 108.747Z" fill="#505050"/>
<path d="M214.086 111.51H212.047V115.75H214.086V111.51Z" fill="#505050"/>
<path d="M219.332 117.414C219.332 117.462 216.636 117.497 213.311 117.497C209.985 117.497 207.289 117.462 207.289 117.414C207.289 117.366 209.985 117.335 213.311 117.335C216.636 117.335 219.332 117.37 219.332 117.414Z" fill="#505050"/>
<path d="M214.086 119.933H212.047V124.173H214.086V119.933Z" fill="#505050"/>
<path d="M219.332 125.837C219.332 125.885 216.636 125.92 213.311 125.92C209.985 125.92 207.289 125.885 207.289 125.837C207.289 125.79 209.985 125.755 213.311 125.755C216.636 125.755 219.332 125.794 219.332 125.837Z" fill="#505050"/>
<path d="M214.086 128.391H212.047V132.63H214.086V128.391Z" fill="#505050"/>
<path d="M214.086 136.96H212.047V141.2H214.086V136.96Z" fill="#505050"/>
<path d="M219.332 134.295C219.332 134.343 216.636 134.378 213.311 134.378C209.985 134.378 207.289 134.343 207.289 134.295C207.289 134.248 209.985 134.213 213.311 134.213C216.636 134.213 219.332 134.252 219.332 134.295Z" fill="#505050"/>
<path d="M201.937 94.2991H199.898V98.5386H201.937V94.2991Z" fill="#353535"/>
<path d="M207.184 100.203C207.184 100.247 204.488 100.286 201.162 100.286C197.836 100.286 195.141 100.247 195.141 100.203C195.141 100.159 197.836 100.12 201.162 100.12C204.488 100.12 207.184 100.172 207.184 100.203Z" fill="#353535"/>
<path d="M201.937 102.842H199.898V107.081H201.937V102.842Z" fill="#353535"/>
<path d="M207.184 108.747C207.184 108.795 204.488 108.83 201.162 108.83C197.836 108.83 195.141 108.795 195.141 108.747C195.141 108.699 197.836 108.668 201.162 108.668C204.488 108.668 207.184 108.703 207.184 108.747Z" fill="#353535"/>
<path d="M201.937 111.39H199.898V115.629H201.937V111.39Z" fill="#353535"/>
<path d="M207.184 117.294C207.184 117.337 204.488 117.377 201.162 117.377C197.836 117.377 195.141 117.337 195.141 117.294C195.141 117.25 197.836 117.211 201.162 117.211C204.488 117.211 207.184 117.246 207.184 117.294Z" fill="#353535"/>
<path d="M201.937 119.933H199.898V124.173H201.937V119.933Z" fill="#353535"/>
<path d="M207.184 125.837C207.184 125.885 204.488 125.92 201.162 125.92C197.836 125.92 195.141 125.885 195.141 125.837C195.141 125.79 197.836 125.755 201.162 125.755C204.488 125.755 207.184 125.794 207.184 125.837Z" fill="#353535"/>
<path d="M201.937 128.481H199.898V132.721H201.937V128.481Z" fill="#353535"/>
<path d="M207.184 134.385C207.184 134.429 204.488 134.468 201.162 134.468C197.836 134.468 195.141 134.429 195.141 134.385C195.141 134.342 197.836 134.302 201.162 134.302C204.488 134.302 207.184 134.337 207.184 134.385Z" fill="#353535"/>
<path d="M201.937 137.024H199.898V141.264H201.937V137.024Z" fill="#353535"/>
<path d="M158.909 60.3137H126.68V144.728H158.909V60.3137Z" fill="#F6BBBB"/>
<path d="M158.916 60.3137H146.547V144.728H158.916V60.3137Z" fill="#FCA197"/>
<path d="M153.956 66.9749H151.508V72.0675H153.956V66.9749Z" fill="#505050"/>
<path d="M153.956 75.9094H151.508V81.002H153.956V75.9094Z" fill="#505050"/>
<path d="M153.956 85.9141H151.508V91.0067H153.956V85.9141Z" fill="#505050"/>
<path d="M153.956 95.4736H151.508V100.566H153.956V95.4736Z" fill="#505050"/>
<path d="M153.956 105.037H151.508V110.129H153.956V105.037Z" fill="#505050"/>
<path d="M153.956 114.597H151.508V119.689H153.956V114.597Z" fill="#505050"/>
<path d="M153.956 124.16H151.508V129.253H153.956V124.16Z" fill="#505050"/>
<path d="M153.956 134.671H151.508V139.764H153.956V134.671Z" fill="#505050"/>
<path d="M160.521 59.7825H123.879V60.7684H160.521V59.7825Z" fill="#353535"/>
<path d="M152.731 53.8406H139.684V60.2749H152.731V53.8406Z" fill="#353535"/>
<path d="M146.544 53.8406H139.684V59.782H146.544V53.8406Z" fill="#505050"/>
<path d="M133.717 66.7651H131.27V71.8577H133.717V66.7651Z" fill="#353535"/>
<path d="M140.237 66.7654H137.789V71.858H140.237V66.7654Z" fill="#353535"/>
<path d="M133.717 76.4658H131.27V81.5584H133.717V76.4658Z" fill="#353535"/>
<path d="M140.237 76.4661H137.789V81.5587H140.237V76.4661Z" fill="#353535"/>
<path d="M133.717 86.167H131.27V91.2596H133.717V86.167Z" fill="#353535"/>
<path d="M140.237 86.167H137.789V91.2596H140.237V86.167Z" fill="#353535"/>
<path d="M133.717 95.8679H131.27V100.961H133.717V95.8679Z" fill="#353535"/>
<path d="M140.237 95.8682H137.789V100.961H140.237V95.8682Z" fill="#353535"/>
<path d="M133.717 105.569H131.27V110.661H133.717V105.569Z" fill="#353535"/>
<path d="M140.237 105.569H137.789V110.661H140.237V105.569Z" fill="#353535"/>
<path d="M133.717 115.27H131.27V120.362H133.717V115.27Z" fill="#353535"/>
<path d="M140.237 115.27H137.789V120.362H140.237V115.27Z" fill="#353535"/>
<path d="M133.717 124.97H131.27V130.063H133.717V124.97Z" fill="#353535"/>
<path d="M140.237 124.97H137.789V130.063H140.237V124.97Z" fill="#353535"/>
<path d="M133.717 134.671H131.27V139.764H133.717V134.671Z" fill="#353535"/>
<path d="M140.237 134.671H137.789V139.764H140.237V134.671Z" fill="#353535"/>
<path d="M146.544 73.8554C146.544 73.9411 142.096 74.0097 136.614 74.0097C131.132 74.0097 126.68 73.9411 126.68 73.8554C126.68 73.7696 131.127 73.7053 136.614 73.7053C142.101 73.7053 146.544 73.7739 146.544 73.8554Z" fill="#353535"/>
<path d="M146.544 83.5905C146.544 83.6762 142.096 83.7448 136.614 83.7448C131.132 83.7448 126.68 83.6762 126.68 83.5905C126.68 83.5047 131.127 83.4404 136.614 83.4404C142.101 83.4404 146.544 83.509 146.544 83.5905Z" fill="#353535"/>
<path d="M146.544 93.4458C146.544 93.5273 142.096 93.5959 136.614 93.5959C131.132 93.5959 126.68 93.5273 126.68 93.4458C126.68 93.3644 131.127 93.2915 136.614 93.2915C142.101 93.2915 146.544 93.3601 146.544 93.4458Z" fill="#353535"/>
<path d="M146.544 103.228C146.544 103.309 142.096 103.378 136.614 103.378C131.132 103.378 126.68 103.309 126.68 103.228C126.68 103.146 131.127 103.073 136.614 103.073C142.101 103.073 146.544 103.142 146.544 103.228Z" fill="#353535"/>
<path d="M146.544 112.869C146.544 112.95 142.096 113.019 136.614 113.019C131.132 113.019 126.68 112.95 126.68 112.869C126.68 112.787 131.127 112.714 136.614 112.714C142.101 112.714 146.544 112.783 146.544 112.869Z" fill="#353535"/>
<path d="M146.544 122.248C146.544 122.33 142.096 122.398 136.614 122.398C131.132 122.398 126.68 122.33 126.68 122.248C126.68 122.167 131.127 122.094 136.614 122.094C142.101 122.094 146.544 122.162 146.544 122.248Z" fill="#353535"/>
<path d="M146.544 132.644C146.544 132.725 142.096 132.794 136.614 132.794C131.132 132.794 126.68 132.725 126.68 132.644C126.68 132.562 131.127 132.489 136.614 132.489C142.101 132.489 146.544 132.558 146.544 132.644Z" fill="#353535"/>
<path d="M158.771 73.8554C158.771 73.9411 156.123 74.0097 152.858 74.0097C149.593 74.0097 146.945 73.9411 146.945 73.8554C146.945 73.7696 149.589 73.7053 152.858 73.7053C156.128 73.7053 158.771 73.7739 158.771 73.8554Z" fill="#505050"/>
<path d="M158.771 83.5905C158.771 83.6762 156.123 83.7448 152.858 83.7448C149.593 83.7448 146.945 83.6762 146.945 83.5905C146.945 83.5047 149.589 83.4404 152.858 83.4404C156.128 83.4404 158.771 83.509 158.771 83.5905Z" fill="#505050"/>
<path d="M158.771 93.3131C158.771 93.3989 156.123 93.4674 152.858 93.4674C149.593 93.4674 146.945 93.4117 146.945 93.3131C146.945 93.2145 149.589 93.1631 152.858 93.1631C156.128 93.1631 158.771 93.2445 158.771 93.3131Z" fill="#505050"/>
<path d="M158.642 103.228C158.642 103.309 155.994 103.378 152.729 103.378C149.464 103.378 146.816 103.309 146.816 103.228C146.816 103.146 149.464 103.073 152.729 103.073C155.994 103.073 158.642 103.142 158.642 103.228Z" fill="#505050"/>
<path d="M158.642 112.869C158.642 112.95 155.994 113.019 152.729 113.019C149.464 113.019 146.816 112.95 146.816 112.869C146.816 112.787 149.464 112.715 152.729 112.715C155.994 112.715 158.642 112.783 158.642 112.869Z" fill="#505050"/>
<path d="M158.642 122.51C158.642 122.591 155.994 122.66 152.729 122.66C149.464 122.66 146.816 122.591 146.816 122.51C146.816 122.428 149.464 122.355 152.729 122.355C155.994 122.355 158.642 122.424 158.642 122.51Z" fill="#505050"/>
<path d="M158.642 132.644C158.642 132.725 155.994 132.794 152.729 132.794C149.464 132.794 146.816 132.725 146.816 132.644C146.816 132.562 149.464 132.489 152.729 132.489C155.994 132.489 158.642 132.558 158.642 132.644Z" fill="#505050"/>
<path d="M164.862 115.352H151.867V144.755H164.862V115.352Z" fill="#E43434"/>
<path opacity="0.2" d="M164.862 115.352H151.867V144.755H164.862V115.352Z" fill="#505050"/>
<path d="M148.828 115.232H180.892L186.883 106.847L193.161 115.472L200.543 115.356L192.587 104.789L156.836 104.939L148.828 115.232Z" fill="#E43434"/>
<path opacity="0.2" d="M148.828 115.232H180.892L186.883 106.847L193.161 115.472L200.543 115.356L192.587 104.789L156.836 104.939L148.828 115.232Z" fill="white"/>
<path d="M164.859 115.356V144.754H196.88V115.356H193.206L186.88 106.846L180.867 115.223L164.859 115.356Z" fill="#E43434"/>
<g opacity="0.2">
<path d="M169.379 144.754V132.01H176.866V144.754" fill="#505050"/>
</g>
<path opacity="0.7" d="M193.155 131.65H181.355V138.856H193.155V131.65Z" fill="white"/>
<path opacity="0.7" d="M193.155 117.23H181.355V124.436H193.155V117.23Z" fill="white"/>
<path opacity="0.7" d="M176.091 117.294H168.652V124.238H176.091V117.294Z" fill="white"/>
<path d="M184.824 131.65H184.715V138.924H184.824V131.65Z" fill="#E43434"/>
<path d="M189.726 131.65H189.617V138.924H189.726V131.65Z" fill="#E43434"/>
<path d="M189.67 135.452H184.766V135.561H189.67V135.452Z" fill="#E43434"/>
<path d="M184.824 117.23H184.715V124.504H184.824V117.23Z" fill="#E43434"/>
<path d="M189.726 117.23H189.617V124.504H189.726V117.23Z" fill="#E43434"/>
<path d="M189.67 121.032H184.766V121.141H189.67V121.032Z" fill="#E43434"/>
<path d="M172.421 117.294H172.312V124.238H172.421V117.294Z" fill="#E43434"/>
<path d="M176.091 120.882H168.652V120.991H176.091V120.882Z" fill="#E43434"/>
<path opacity="0.7" d="M188.442 112.458C188.442 112.766 188.349 113.067 188.176 113.323C188.002 113.579 187.756 113.778 187.467 113.896C187.179 114.014 186.862 114.044 186.555 113.984C186.249 113.924 185.968 113.776 185.747 113.558C185.527 113.341 185.376 113.064 185.315 112.762C185.255 112.46 185.286 112.147 185.405 111.863C185.525 111.578 185.727 111.335 185.987 111.164C186.246 110.993 186.551 110.902 186.863 110.902C187.282 110.903 187.682 111.068 187.978 111.359C188.274 111.651 188.44 112.046 188.442 112.458Z" fill="white"/>
<path d="M175.608 110.551L177.599 108.129V102.303H173.43V110.594L175.608 110.551Z" fill="#E43434"/>
<path opacity="0.2" d="M175.605 110.551V102.303H177.597V108.129L175.605 110.551Z" fill="#505050"/>
<path d="M177.874 101.446H172.957V102.303H177.874V101.446Z" fill="#E43434"/>
<path d="M165.227 128.216H140.676V144.759H165.227V128.216Z" fill="#E43434"/>
<path opacity="0.2" d="M155.814 128.216H140.676V144.759H155.814V128.216Z" fill="#505050"/>
<path d="M152.626 144.729C152.609 144.659 152.602 144.587 152.604 144.515C152.604 144.347 152.604 144.142 152.604 143.893C152.604 143.319 152.604 142.538 152.569 141.565C152.569 139.551 152.543 136.768 152.526 133.549L152.647 133.669H143.661L143.778 133.549C143.778 136.768 143.748 139.551 143.735 141.565C143.735 142.538 143.709 143.319 143.7 143.893C143.7 144.142 143.7 144.347 143.678 144.515C143.686 144.586 143.686 144.658 143.678 144.729C143.659 144.659 143.651 144.587 143.656 144.515C143.656 144.347 143.656 144.142 143.656 143.893C143.656 143.319 143.656 142.538 143.622 141.565C143.622 139.555 143.596 136.768 143.578 133.549V133.429H152.786V133.549C152.765 136.768 152.752 139.551 152.739 141.565C152.739 142.538 152.713 143.319 152.704 143.893C152.704 144.142 152.704 144.347 152.704 144.515C152.685 144.588 152.658 144.66 152.626 144.729Z" fill="#353535"/>
<path opacity="0.2" d="M164.089 133.125H157.711V134.728H164.089V133.125Z" fill="#505050"/>
<path d="M148.828 115.232V116.085H180.87V115.223L148.828 115.232Z" fill="#E43434"/>
<path d="M180.867 116.084L186.863 107.79L186.88 106.846L180.889 115.231L180.867 116.084Z" fill="#E43434"/>
<path d="M200.381 115.352H193.203V115.901H200.381V115.352Z" fill="#E43434"/>
<path d="M174.32 130.056H171.672V131.05H174.32V130.056Z" fill="#353535"/>
<path opacity="0.3" d="M148.828 115.232V116.085H180.87V115.223L148.828 115.232Z" fill="#505050"/>
<path opacity="0.3" d="M180.867 116.084L186.863 107.79L186.88 106.846L180.889 115.231L180.867 116.084Z" fill="#505050"/>
<path opacity="0.3" d="M200.381 115.352H193.203V115.901H200.381V115.352Z" fill="#505050"/>
<path d="M176.26 138.44C176.239 138.44 176.26 138.277 176.065 138.153C176.015 138.12 175.958 138.099 175.898 138.092C175.838 138.085 175.777 138.093 175.721 138.114C175.655 138.141 175.599 138.186 175.559 138.244C175.52 138.302 175.499 138.37 175.499 138.44C175.499 138.51 175.52 138.579 175.559 138.637C175.599 138.695 175.655 138.74 175.721 138.766C175.777 138.787 175.838 138.795 175.898 138.788C175.958 138.781 176.015 138.761 176.065 138.727C176.243 138.603 176.239 138.436 176.26 138.44C176.282 138.444 176.334 138.624 176.13 138.813C176.067 138.864 175.992 138.898 175.912 138.912C175.833 138.926 175.75 138.92 175.673 138.895C175.577 138.862 175.494 138.801 175.435 138.719C175.376 138.638 175.344 138.54 175.344 138.44C175.344 138.34 175.376 138.242 175.435 138.161C175.494 138.079 175.577 138.018 175.673 137.986C175.75 137.96 175.833 137.954 175.912 137.968C175.992 137.982 176.067 138.017 176.13 138.067C176.334 138.26 176.273 138.453 176.26 138.44Z" fill="#353535"/>
<path d="M115.316 96.0314C115.316 96.0314 108.573 121.323 99.5082 126.073C93.5345 129.202 88.2608 125.468 84.7262 119.553L71.9441 99.2679C71.6183 98.1119 71.7517 96.8768 72.3172 95.8144C72.8826 94.7519 73.8375 93.9419 74.9875 93.5494L85.6436 89.8843L96.2605 108.544L109.847 92.2548" fill="#FFBB9D"/>
<path d="M48.9719 97.7926C49.2067 99.4387 53.4108 111.54 53.4108 111.54C53.4108 111.54 72.4883 106.22 72.2883 105.286C72.1231 104.527 69.1406 92.4728 65.1582 85.6783C64.4116 84.3685 63.3646 83.2491 62.1009 82.4094C60.8372 81.5698 59.3918 81.0334 57.8802 80.8429C57.0368 80.7486 55.1629 81.5202 54.6456 81.7731C50.5849 83.775 47.1546 85.0782 48.9719 97.7926Z" fill="#505050"/>
<path d="M78.8801 80.0245C86.2059 82.035 86.5363 85.3186 90.2057 91.11L95.9837 101.484L86.3581 107.532L84.5929 111.433L83.6408 144.981L44.8555 144.793L51.8117 117.636L49.0379 99.8034C48.7814 96.9914 47.9597 91.7358 48.8379 89.0224C51.59 80.5432 61.8547 79.6387 68.1675 78.3527C69.4718 78.0869 70.7283 78.4942 71.7891 78.8114" fill="#505050"/>
<path d="M84.5028 113.157C84.4727 112.872 84.4639 112.586 84.4767 112.3C84.4767 111.7 84.4767 110.902 84.5072 109.942V109.921C84.9921 109.071 85.4149 108.189 85.7723 107.28C86.2182 106.202 86.3302 105.017 86.094 103.876C85.781 102.59 85.0593 101.51 84.5767 100.447C84.1385 99.4944 83.8455 98.4833 83.7072 97.4462C83.6162 96.7541 83.5973 96.0546 83.6507 95.3586C83.6507 95.11 83.6985 94.9299 83.7202 94.7928C83.7245 94.7262 83.7407 94.6609 83.7681 94.5999C83.7834 94.854 83.7834 95.1088 83.7681 95.3629C83.7502 96.0514 83.7954 96.74 83.9028 97.4205C84.0609 98.4294 84.364 99.4109 84.8028 100.335C85.281 101.381 86.0201 102.479 86.3506 103.808C86.5994 104.995 86.4797 106.229 86.0071 107.349C85.6412 108.263 85.2052 109.149 84.7028 109.998V109.955C84.655 110.915 84.6202 111.712 84.5898 112.313C84.5864 112.596 84.5573 112.879 84.5028 113.157Z" fill="#353535"/>
<path d="M79.1841 78.8457C79.2173 78.9282 79.2392 79.0147 79.2493 79.1029C79.2962 79.3535 79.3253 79.6071 79.3362 79.8617C79.371 80.8051 79.2113 81.7458 78.8667 82.6266C78.356 83.9426 77.4752 85.0876 76.3277 85.9274C74.8897 86.9373 73.1272 87.3946 71.3714 87.2134C70.469 87.1224 69.5878 86.8864 68.7628 86.5147C68.0002 86.1612 67.3 85.6894 66.689 85.1172C65.6671 84.1418 64.8887 82.9459 64.4151 81.6235C64.0945 80.7384 63.9112 79.8106 63.8717 78.8714C63.8553 78.6174 63.8553 78.3625 63.8717 78.1084C63.8688 78.0205 63.8776 77.9326 63.8978 77.8469C63.9282 77.8469 63.8978 78.2113 63.9586 78.8672C64.036 79.7895 64.2423 80.6969 64.5717 81.5635C65.0553 82.8487 65.8317 84.0073 66.8411 84.95C67.4355 85.502 68.1168 85.9551 68.8584 86.2917C69.6561 86.6502 70.5079 86.8775 71.3801 86.9648C73.0694 87.146 74.7682 86.7181 76.1625 85.7602C77.0999 85.0829 77.8634 84.1985 78.3919 83.1779C78.9203 82.1574 79.1991 81.029 79.2058 79.8831C79.2363 79.2101 79.1536 78.85 79.1841 78.8457Z" fill="#353535"/>
<path d="M94.2295 98.3503C93.8682 98.6169 93.4841 98.8521 93.0817 99.0534C92.3644 99.482 91.3644 100.031 90.2775 100.678C89.1906 101.325 88.2211 101.93 87.5167 102.367C87.1496 102.625 86.7596 102.851 86.3516 103.04C86.6805 102.734 87.0387 102.46 87.4211 102.221C88.0993 101.745 89.0601 101.115 90.1514 100.464C91.2427 99.8121 92.2557 99.272 92.9991 98.899C93.389 98.6749 93.8013 98.4911 94.2295 98.3503Z" fill="#353535"/>
<path d="M50.1694 98.7958C50.1694 98.7958 50.1955 98.8729 50.2433 99.023L50.4259 99.6917L51.1085 102.264C51.6868 104.493 52.5128 107.674 53.5171 111.527L53.391 111.459L71.3294 105.933L71.7642 105.775L71.6816 105.916C70.8185 101.955 69.638 98.0675 68.1513 94.2904C66.76 90.8268 65.1644 87.8218 63.3689 85.657C62.5686 84.6719 61.6094 83.8232 60.5299 83.145C59.7193 82.627 58.7953 82.3067 57.8343 82.2105C57.6503 82.1808 57.4643 82.165 57.2778 82.1633L56.7822 82.189C56.63 82.189 56.4909 82.189 56.3474 82.219L56.0083 82.2919L55.5388 82.3862C55.4857 82.3978 55.432 82.4064 55.3779 82.4119C55.4265 82.3892 55.4775 82.3719 55.5301 82.3605L55.9953 82.2447L56.3387 82.159C56.4692 82.1333 56.6126 82.1333 56.7735 82.1162L57.2735 82.0819C57.4623 82.0796 57.6511 82.0896 57.8387 82.1119C58.8181 82.1953 59.7632 82.5084 60.5951 83.0249C61.6913 83.6978 62.6667 84.5452 63.4819 85.5327C65.3383 87.706 66.96 90.7196 68.3643 94.1918C69.8669 97.9782 71.0591 101.877 71.9294 105.852V105.959L71.825 105.993L71.3903 106.152C64.6645 108.257 58.4343 110.113 53.4215 111.634L53.3215 111.664L53.2954 111.566C52.3259 107.708 51.5302 104.514 50.9694 102.281C50.6998 101.179 50.4912 100.313 50.3433 99.7088L50.1868 99.0358C50.1708 98.9568 50.1649 98.8762 50.1694 98.7958Z" fill="#353535"/>
<path d="M71.1395 103.507C71.1395 103.576 67.0179 104.755 61.892 106.148C56.7662 107.541 52.6055 108.613 52.6055 108.548C52.6055 108.484 56.7227 107.301 61.8486 105.908C66.9744 104.515 71.1177 103.443 71.1395 103.507Z" fill="#353535"/>
<path d="M69.5601 48.6331C68.3732 46.0954 65.1081 44.8994 62.3561 45.5724C59.604 46.2454 57.4302 48.4617 56.2694 51.0037C55.1086 53.5457 54.7999 56.4049 54.7781 59.1999C54.7781 60.6788 54.8433 62.1749 54.539 63.6238C54.2347 65.0727 53.513 66.5044 52.2522 67.3103C51.2609 67.9448 50.0436 68.1334 48.9784 68.6392C47.9132 69.145 46.935 70.221 47.2002 71.3613C47.5132 72.7202 49.2436 73.1274 50.6479 73.2689C50.6715 74.1075 50.935 74.9225 51.4082 75.6198C51.8814 76.3172 52.5449 76.8684 53.3221 77.2099C54.0994 77.5513 54.9587 77.6692 55.8009 77.5499C56.6432 77.4305 57.4341 77.0788 58.0823 76.5353C57.6476 78.25 59.1823 80.0162 60.9474 80.2219C62.7126 80.4277 64.4255 79.3389 65.4081 77.8642C66.3907 76.3896 66.6689 74.5892 66.7428 72.8359C66.8167 71.0826 66.6907 69.3079 66.8646 67.5933" fill="#E43434"/>
<path d="M89.5858 51.8265C89.5858 51.8265 90.8901 43.2102 78.8645 43.0516C65.4129 42.8758 62.987 54.197 65.2912 60.1599L71.9779 53.6269L89.5858 51.8265Z" fill="#E43434"/>
<path d="M79.0332 80.0246C79.168 77.7312 79.268 75.8622 79.268 75.8622C79.268 75.8622 86.1547 76.0208 87.1677 70.1351C88.1807 64.2495 89.3415 50.5406 89.3415 50.5406C86.3334 48.6225 82.8148 47.6295 79.233 47.6875C75.6511 47.7455 72.1676 48.852 69.225 50.8664L68.6598 51.2522L64.3121 78.4685C64.002 80.3767 64.4711 82.3284 65.6166 83.8965C66.7622 85.4647 68.491 86.5216 70.4249 86.8362C71.4524 87.0033 72.504 86.9551 73.5114 86.6948C74.5187 86.4344 75.459 85.9677 76.2712 85.325C77.0834 84.6824 77.7491 83.8783 78.225 82.965C78.7009 82.0517 78.9763 81.0498 79.0332 80.0246Z" fill="#FFBB9D"/>
<path d="M86.8905 60.9872C86.8675 61.1315 86.8021 61.2659 86.7023 61.3738C86.6025 61.4818 86.4728 61.5584 86.3293 61.5943C86.1857 61.6303 86.0347 61.6239 85.8948 61.5759C85.7549 61.5279 85.6324 61.4406 85.5424 61.3246C85.4524 61.2086 85.3989 61.0691 85.3886 60.9235C85.3782 60.7778 85.4115 60.6323 85.4842 60.5051C85.5569 60.3779 85.6659 60.2746 85.7977 60.2079C85.9294 60.1412 86.0781 60.114 86.2253 60.1299C86.3266 60.142 86.4244 60.1739 86.5129 60.2238C86.6015 60.2737 86.679 60.3406 86.741 60.4205C86.803 60.5003 86.8481 60.5916 86.8738 60.689C86.8995 60.7863 86.9052 60.8877 86.8905 60.9872Z" fill="#353535"/>
<path d="M87.4475 60.2796C87.3388 60.3696 86.8388 59.8509 86.0345 59.7009C85.2302 59.5509 84.5824 59.8981 84.5128 59.7824C84.4433 59.6666 84.5954 59.5594 84.8824 59.4008C85.2614 59.2047 85.6957 59.1384 86.1171 59.2122C86.5406 59.2831 86.9287 59.4895 87.2214 59.7995C87.4431 60.0438 87.4996 60.241 87.4475 60.2796Z" fill="#353535"/>
<path d="M78.8173 60.2243C78.8142 60.327 78.7895 60.4279 78.7449 60.5208C78.7004 60.6137 78.6368 60.6965 78.5582 60.764C78.4796 60.8316 78.3878 60.8823 78.2884 60.9132C78.1889 60.9441 78.0841 60.9543 77.9805 60.9434C77.8769 60.9324 77.7767 60.9005 77.6861 60.8495C77.5956 60.7986 77.5168 60.7297 77.4545 60.6473C77.3922 60.5649 77.3479 60.4707 77.3243 60.3706C77.3007 60.2705 77.2984 60.1667 77.3174 60.0657C77.3205 59.9629 77.3452 59.862 77.3898 59.7691C77.4343 59.6762 77.4979 59.5934 77.5765 59.5259C77.6551 59.4584 77.7469 59.4076 77.8463 59.3767C77.9458 59.3459 78.0506 59.3356 78.1542 59.3465C78.2578 59.3575 78.358 59.3894 78.4486 59.4404C78.5391 59.4913 78.6179 59.5602 78.6802 59.6426C78.7425 59.725 78.7868 59.8192 78.8104 59.9193C78.834 60.0194 78.8363 60.1232 78.8173 60.2243Z" fill="#353535"/>
<path d="M79.2061 59.5554C79.1017 59.6455 78.5974 59.1053 77.7974 58.9767C76.9975 58.8481 76.3453 59.1739 76.2714 59.0539C76.2366 59.0025 76.3584 58.831 76.6453 58.6767C77.0242 58.4802 77.4586 58.4139 77.88 58.488C78.3038 58.5583 78.692 58.7648 78.9843 59.0753C79.2017 59.3154 79.2582 59.5169 79.2061 59.5554Z" fill="#353535"/>
<path d="M80.2617 65.6855C80.7089 65.6583 81.1578 65.69 81.5964 65.7798C81.8051 65.8098 82.0051 65.8184 82.0747 65.6812C82.1365 65.4639 82.1365 65.234 82.0747 65.0167C82.0095 64.4509 81.9443 63.8593 81.8747 63.2378C81.6182 60.7086 81.4878 58.6553 81.5834 58.6424C81.6791 58.6295 81.966 60.67 82.2269 63.1992C82.2834 63.8207 82.3399 64.4123 82.3921 64.9782C82.4547 65.267 82.4196 65.5682 82.2921 65.8355C82.2466 65.9008 82.1865 65.955 82.1164 65.9936C82.0462 66.0323 81.968 66.0545 81.8877 66.0584C81.7692 66.0605 81.6508 66.0475 81.5356 66.0198C81.0975 65.9662 80.6689 65.8537 80.2617 65.6855Z" fill="#353535"/>
<path d="M79.2974 75.862C76.5171 75.4405 73.9216 74.2294 71.8281 72.377C71.8281 72.377 73.2889 77.058 79.1887 77.4438L79.2974 75.862Z" fill="#FFBB9D"/>
<path d="M79.4724 68.0215C79.4551 67.7653 79.3744 67.5172 79.2372 67.299C79.1 67.0808 78.9105 66.899 78.6855 66.7698C78.5299 66.6784 78.3562 66.6212 78.1761 66.602C77.996 66.5827 77.8139 66.602 77.6421 66.6584C77.4724 66.7206 77.3255 66.8314 77.2202 66.9765C77.1149 67.1216 77.0559 67.2945 77.0508 67.4728C77.0759 67.6706 77.1587 67.8568 77.2891 68.009C77.4196 68.1612 77.592 68.2728 77.7855 68.3302C78.179 68.4368 78.5909 68.4601 78.9942 68.3988C79.1066 68.3955 79.2174 68.3708 79.3203 68.3259C79.3705 68.3016 79.4127 68.2637 79.4419 68.2166C79.4712 68.1696 79.4863 68.1153 79.4855 68.0601" fill="#FFBB9D"/>
<path d="M77.7214 65.8784C77.6649 65.8784 77.5344 66.0756 77.5127 66.4657C77.497 66.9834 77.672 67.4892 78.0053 67.8895C78.3386 68.2898 78.8076 68.5576 79.3257 68.6433C79.7213 68.6991 79.9561 68.6133 79.9517 68.5533C79.9517 68.4204 79.0213 68.3733 78.3735 67.5931C77.7257 66.8129 77.8518 65.8999 77.7214 65.8784Z" fill="#353535"/>
<path d="M67.8214 58.9296C67.7301 58.8653 64.3955 57.4464 63.4433 61.3173C62.4912 65.1882 67.0475 64.7938 67.0823 64.6824C67.1171 64.5709 67.8214 58.9296 67.8214 58.9296Z" fill="#FFBB9D"/>
<path d="M66.1445 63.0577C66.1445 63.0577 66.0619 63.0877 65.9228 63.1134C65.7335 63.1454 65.539 63.1089 65.375 63.0105C64.9663 62.7662 64.7532 62.0418 64.9054 61.3387C64.9743 61.0019 65.1233 60.686 65.3402 60.4171C65.4128 60.3018 65.5122 60.2051 65.6301 60.1351C65.748 60.065 65.8811 60.0236 66.0184 60.0141C66.1049 60.01 66.1902 60.0348 66.2605 60.0847C66.3308 60.1345 66.3818 60.2063 66.4053 60.2885C66.4358 60.4085 66.4053 60.4814 66.4053 60.4943C66.4053 60.5071 66.5097 60.4471 66.5184 60.2799C66.5162 60.1787 66.4777 60.0815 66.4097 60.0056C66.3119 59.899 66.1767 59.8331 66.0314 59.8212C65.8554 59.814 65.6802 59.8493 65.5211 59.924C65.362 59.9987 65.2237 60.1106 65.1184 60.2499C64.8603 60.543 64.6809 60.8953 64.5967 61.2744C64.4315 62.0632 64.6837 62.8819 65.2532 63.1692C65.3602 63.2225 65.4772 63.2535 65.5969 63.2601C65.7167 63.2668 65.8365 63.2489 65.9488 63.2077C66.1141 63.1477 66.1575 63.0663 66.1445 63.0577Z" fill="#FFBB9D"/>
<path d="M87.9815 47.8272C88.6727 48.3204 89.1918 49.0127 89.4675 49.8088C89.7431 50.6049 89.7617 51.4656 89.5206 52.2726C88.9293 54.1244 87.1772 56.1306 82.3078 56.0663L83.4165 54.8532C82.3209 55.6773 81.0405 56.2297 79.6831 56.464C78.3257 56.6982 76.9311 56.6074 75.6168 56.1992L76.982 53.5929C76.982 53.5929 70.8257 60.0272 67.3867 60.3059L67.8215 53.4471C68.6519 46.9742 71.4648 45.0323 75.7211 44.6851C77.302 44.5434 78.8938 44.5707 80.4688 44.7665C83.195 45.1446 85.7797 46.1976 87.9815 47.8272Z" fill="#E43434"/>
<path d="M63.9151 42.22C64.2392 42.2976 64.5468 42.4311 64.8237 42.6143C66.2219 43.4197 67.3323 44.6329 68.0018 46.0866C68.1575 46.3768 68.2605 46.6916 68.3062 47.0168C68.2323 47.0511 67.7453 45.6151 66.4976 44.2733C65.2498 42.9316 63.8716 42.3014 63.9151 42.22Z" fill="#E43434"/>
<path d="M51.5142 64.1638C51.5142 64.1638 51.4316 64.0781 51.2447 63.9623C50.9673 63.7973 50.6466 63.7167 50.323 63.7308C50.0723 63.737 49.826 63.7965 49.6009 63.9052C49.3758 64.014 49.1772 64.1695 49.0187 64.361C48.827 64.6291 48.707 64.9405 48.6698 65.2664C48.6325 65.5924 48.6793 65.9223 48.8056 66.2257C48.9599 66.5902 49.2085 66.9084 49.5267 67.1484C49.8449 67.3884 50.2214 67.5418 50.6186 67.5932C51.0785 67.6621 51.5482 67.6306 51.9944 67.501C52.4406 67.3714 52.8526 67.1468 53.2011 66.843C54.0007 66.1824 54.5532 65.277 54.7706 64.271C54.8858 63.7455 54.8858 63.2018 54.7706 62.6763C54.6393 62.1313 54.4438 61.6033 54.188 61.1031C53.9445 60.5844 53.6837 60.0743 53.4793 59.5384C53.2794 59.0113 53.1493 58.4609 53.0924 57.9009C52.9998 56.8411 53.1256 55.7737 53.462 54.763C54.0447 53.0627 55.0578 51.5371 56.4053 50.3306C57.2912 49.5134 58.2517 48.7786 59.2748 48.1358C59.6356 47.9086 59.9226 47.7371 60.1182 47.6256C60.2151 47.5646 60.3169 47.5116 60.4225 47.467C60.3373 47.5437 60.244 47.6112 60.1443 47.6685L59.3313 48.2172C58.3322 48.8816 57.3913 49.6273 56.5184 50.4463C55.2171 51.651 54.2388 53.1547 53.6706 54.823C53.3528 55.8051 53.236 56.8397 53.3272 57.8666C53.3882 58.4052 53.5137 58.9347 53.7011 59.4441C53.9011 59.9628 54.1619 60.4644 54.4097 60.9916C54.6722 61.5083 54.8722 62.0536 55.0054 62.6163C55.1271 63.1743 55.1271 63.7515 55.0054 64.3095C54.7705 65.366 54.1825 66.314 53.3359 67.0016C52.9617 67.3229 52.5204 67.559 52.0432 67.6931C51.5661 67.8272 51.0649 67.856 50.5751 67.7775C50.1427 67.7171 49.7344 67.5443 49.3921 67.2768C49.0498 67.0094 48.7859 66.657 48.6274 66.2557C48.4963 65.9257 48.4519 65.5684 48.4983 65.2169C48.5447 64.8655 48.6803 64.5312 48.8926 64.2452C49.0665 64.0412 49.2843 63.878 49.5303 63.7676C49.7762 63.6571 50.044 63.602 50.3143 63.6065C50.6525 63.6002 50.9842 63.6992 51.2621 63.8894C51.3639 63.9633 51.4497 64.0566 51.5142 64.1638Z" fill="#E43434"/>
<path d="M67.2739 51.2266C67.1367 50.9946 67.0536 50.7354 67.0304 50.4678C66.9282 49.8305 66.9533 49.1795 67.1043 48.5517C67.2514 47.9224 67.5232 47.328 67.9043 46.8027C68.1999 46.404 68.4434 46.2111 68.4608 46.2326C68.4782 46.254 67.6739 47.1799 67.3478 48.6074C67.0217 50.0349 67.3521 51.2137 67.2739 51.2266Z" fill="#353535"/>
<path d="M63.6763 63.7354C63.4456 63.9334 63.2666 64.1834 63.1546 64.4641C63.107 64.6118 63.0894 64.7674 63.1028 64.9219C63.1162 65.0764 63.1604 65.2267 63.2329 65.3643C63.3346 65.5253 63.4727 65.6609 63.6363 65.7605C63.8 65.8602 63.9848 65.9212 64.1763 65.9387C64.3667 65.9684 64.5613 65.9561 64.7462 65.9027C64.9311 65.8493 65.1018 65.7562 65.2458 65.6301C65.471 65.4085 65.5976 65.1078 65.598 64.7942C65.5843 64.4891 65.4883 64.1931 65.3198 63.9368C65.3198 63.9368 65.4154 63.9711 65.5241 64.104C65.6757 64.2962 65.7637 64.5296 65.7763 64.7727C65.7887 64.9564 65.7627 65.1406 65.6999 65.3139C65.6371 65.4872 65.5387 65.6459 65.4111 65.7801C65.2436 65.9362 65.0421 66.0524 64.8221 66.12C64.6021 66.1877 64.3693 66.2048 64.1415 66.1702C63.9169 66.1493 63.7004 66.0767 63.5094 65.9583C63.3184 65.84 63.1582 65.6791 63.0416 65.4886C62.9597 65.3225 62.9139 65.1414 62.9071 64.9569C62.9004 64.7723 62.9329 64.5884 63.0025 64.4169C63.0881 64.1904 63.2393 63.9937 63.4372 63.8511C63.5764 63.7568 63.672 63.7354 63.6763 63.7354Z" fill="#505050"/>
<path d="M90.5925 53.7989C90.5447 53.7989 90.736 53.1388 90.7403 52.0843C90.7545 50.6854 90.3799 49.3094 89.6571 48.1056C88.9344 46.9018 87.8911 45.9161 86.6405 45.2555C85.6884 44.7454 85.0145 44.5996 85.0275 44.5525C85.1892 44.5552 85.3493 44.5842 85.5014 44.6382C85.923 44.7528 86.3322 44.9078 86.7231 45.1012C88.0329 45.7409 89.1265 46.7416 89.8711 47.9818C90.6158 49.222 90.9797 50.6485 90.9186 52.0885C90.902 52.5217 90.8437 52.9523 90.7447 53.3745C90.7141 53.5223 90.6629 53.6651 90.5925 53.7989Z" fill="#E43434"/>
<path d="M79.6023 58.0466C79.5762 58.0766 79.411 57.9222 79.111 57.7422C78.7254 57.508 78.2917 57.3615 77.8415 57.3135C77.3894 57.2687 76.933 57.3259 76.5067 57.4807C76.172 57.5965 75.9807 57.7122 75.9589 57.6779C75.9372 57.6436 76.1024 57.485 76.4372 57.3178C76.88 57.1016 77.3761 57.0139 77.8675 57.0649C78.3582 57.1178 78.8246 57.3033 79.2153 57.6007C79.5066 57.8322 79.6283 58.0294 79.6023 58.0466Z" fill="#E43434"/>
<path d="M87.267 58.7709C86.7515 58.8534 86.226 58.8534 85.7105 58.7709C85.1895 58.7729 84.6715 58.6933 84.1758 58.5352C84.6899 58.4538 85.2138 58.4538 85.7279 58.5352C86.2504 58.5323 86.77 58.6119 87.267 58.7709Z" fill="#E43434"/>
<path d="M115.316 96.0315C115.316 96.0315 117.781 90.2573 114.446 90.8874C109.338 91.8476 110.099 96.7474 110.099 96.7474L115.316 96.0315Z" fill="#FFBB9D"/>
<path d="M120.066 70.1311C119.636 69.9808 119.186 69.8956 118.731 69.8782C121.505 71.9101 122.257 77.1399 120.314 82.4211C118.418 87.5652 114.583 91.076 111.184 91.0503L110.914 90.9817C108.214 88.9026 107.501 83.7371 109.418 78.5159C111.336 73.2947 115.288 69.7281 118.727 69.8782C118.378 69.6196 117.992 69.4117 117.583 69.2609C113.905 67.9406 109.123 71.6957 106.949 77.6457C104.823 83.4242 105.927 89.1341 109.379 90.6645H109.31L102.51 107.811C102.365 108.176 102.372 108.582 102.531 108.941C102.689 109.3 102.986 109.582 103.356 109.725C103.725 109.869 104.137 109.861 104.501 109.705C104.865 109.549 105.152 109.256 105.297 108.892L112.166 91.6761C115.857 92.9921 120.622 89.2413 122.809 83.2913C124.996 77.3413 123.757 71.4514 120.066 70.1311Z" fill="#353535"/>
<path d="M116.996 85.6402C117.045 85.4584 117.115 85.2829 117.205 85.1172L117.84 83.7326C118.561 82.2216 119.123 80.6415 119.518 79.0172C119.896 77.398 119.896 75.7153 119.518 74.096C119.327 73.4332 119.086 72.7855 118.796 72.1584C118.923 72.2998 119.029 72.4586 119.109 72.63C119.355 73.0804 119.548 73.5563 119.687 74.0489C120.125 75.6914 120.151 77.4143 119.761 79.0686C119.365 80.7035 118.774 82.2863 118 83.784C117.709 84.3584 117.466 84.8214 117.292 85.1343C117.217 85.3152 117.117 85.4853 116.996 85.6402Z" fill="#353535"/>
<path d="M116.285 87.012C116.333 87.0634 116.124 87.3506 115.811 87.655C115.498 87.9593 115.211 88.1651 115.163 88.118C115.115 88.0708 115.324 87.7836 115.637 87.4792C115.95 87.1749 116.237 86.9648 116.285 87.012Z" fill="#353535"/>
<path d="M108.873 93.4505C108.347 92.4689 107.734 91.1143 106.808 90.4798C105.882 89.8454 104.595 89.1124 103.508 90.0512C104.875 91.9754 106.142 93.967 107.303 96.0183L108.873 93.4505Z" fill="#FFBB9D"/>
<path d="M116.114 91.7147C116.114 91.7147 115.91 90.5744 114.214 91.076C112.519 91.5775 107.206 92.6706 108.232 93.7852C109.258 94.8997 111.071 94.3982 111.071 94.3982C111.071 94.3982 108.119 95.0283 108.402 95.637C108.684 96.2457 109.175 97.3003 110.432 96.6401C111.688 95.98 115.175 94.8611 115.175 94.8611L116.114 91.7147Z" fill="#FFBB9D"/>
<path d="M115.927 94.2608C115.927 94.2608 115.927 94.1494 115.927 93.9736C115.923 93.8555 115.882 93.7414 115.811 93.6465C115.739 93.5515 115.64 93.4803 115.527 93.4421C115.149 93.3999 114.767 93.4561 114.418 93.605L113.005 93.9779C112.001 94.2394 111.088 94.458 110.423 94.6038C110.069 94.7073 109.704 94.7719 109.336 94.7967C109.669 94.6379 110.019 94.5171 110.379 94.4366C111.032 94.2437 111.936 94.0079 112.94 93.7422L114.357 93.3864C114.748 93.2327 115.175 93.1939 115.588 93.2749C115.726 93.3316 115.843 93.4302 115.921 93.5566C116 93.6829 116.035 93.8304 116.023 93.9779C116.01 94.1708 115.936 94.2651 115.927 94.2608Z" fill="#353535"/>
<path d="M70.5816 106.396L75.7119 115.776L101.18 103.13C101.18 103.13 104.928 96.031 105.55 96.121C106.171 96.211 108.928 97.3813 108.928 97.3813C108.928 97.3813 112.841 95.298 113.684 95.8638C114.528 96.4296 115.667 103.288 114.928 105.41C114.188 107.532 106.454 111.806 106.454 111.806C106.454 111.806 85.5854 125.318 76.5118 130.063C70.5382 133.193 65.2688 129.459 61.7298 123.543L55.6953 110.953" fill="#FFBB9D"/>
</g>
</g>
<defs>
<clipPath id="clip0_6185_48020">
<rect width="280" height="145" fill="white"/>
</clipPath>
<clipPath id="clip1_6185_48020">
<rect width="222" height="145" fill="white" transform="translate(29)"/>
</clipPath>
</defs>
</svg>
