<svg width="280" height="145" viewBox="0 0 280 145" fill="none" xmlns="http://www.w3.org/2000/svg">
<rect width="280" height="145" fill="#F9F9F9"/>
<path d="M242.878 85.9397L210.203 85.6816L209.924 115.856L242.599 116.114L242.878 85.9397Z" fill="#F6BBBB"/>
<path d="M242.869 89.5308C242.869 89.5308 237.629 92.8313 231.127 96.8672C224.625 100.903 219.385 104.159 219.352 104.146C219.319 104.132 224.592 100.845 231.094 96.8062C237.596 92.767 242.844 89.5139 242.869 89.5308Z" fill="#D9D9D9"/>
<path d="M242.549 96.484C242.549 96.5009 237.309 99.7845 230.807 103.82C224.304 107.856 219.046 111.113 219.031 111.099C219.017 111.086 224.271 107.799 230.774 103.763C237.276 99.7269 242.538 96.467 242.549 96.484Z" fill="#D9D9D9"/>
<path d="M242.736 103.2C242.736 103.217 238.193 106.067 232.568 109.568C226.942 113.068 222.366 115.891 222.355 115.874C222.344 115.857 226.895 113.007 232.524 109.507C238.152 106.006 242.725 103.177 242.736 103.2Z" fill="#D9D9D9"/>
<path d="M235.932 85.8744C235.932 85.8744 232.208 88.2464 227.588 91.103C222.968 93.9596 219.214 96.2944 219.203 96.2774C219.192 96.2605 222.924 93.9054 227.547 91.0454C232.171 88.1854 235.921 85.8574 235.932 85.8744Z" fill="#D9D9D9"/>
<path d="M242.56 110.415C242.56 110.415 240.663 111.703 238.3 113.251C235.937 114.8 234.007 116.05 233.992 116.034C233.978 116.017 235.889 114.749 238.256 113.194C240.623 111.639 242.549 110.398 242.56 110.415Z" fill="#D9D9D9"/>
<path d="M219.589 85.7554L186.914 85.4973L186.635 115.672L219.31 115.93L219.589 85.7554Z" fill="#FCE8E8"/>
<path d="M66.0429 144.389L37.7734 144.44L38.0156 118.063L66.2814 118.283L66.0429 144.389Z" fill="#D9D9D9"/>
<path d="M66.0749 121.712C66.0749 121.712 61.5431 124.565 55.9289 128.059C50.3146 131.553 45.7571 134.369 45.7461 134.352C45.7351 134.335 50.2779 131.495 55.8922 128.005C61.5064 124.515 66.0676 121.699 66.0749 121.712Z" fill="#D9D9D9"/>
<path d="M65.8171 127.727C65.8171 127.727 61.2853 130.584 55.671 134.074C50.0568 137.564 45.4956 140.384 45.4883 140.37C45.481 140.356 50.0201 137.513 55.6343 134.023C61.2486 130.533 65.8097 127.714 65.8171 127.727Z" fill="#D9D9D9"/>
<path d="M65.9677 133.539C65.9677 133.539 62.0377 136.019 57.161 139.045C52.2843 142.071 48.347 144.518 48.336 144.518C48.325 144.518 52.2659 142.037 57.1427 139.011C62.0194 135.985 65.9567 133.525 65.9677 133.539Z" fill="#D9D9D9"/>
<path d="M60.0895 118.547C60.0895 118.547 56.8678 120.58 52.8717 123.074C48.8757 125.568 45.6245 127.561 45.6172 127.547C45.6099 127.534 48.8353 125.514 52.835 123.024C56.8347 120.533 60.0785 118.534 60.0895 118.547Z" fill="#D9D9D9"/>
<path d="M65.8381 139.774C65.8381 139.774 64.1979 140.889 62.1503 142.23C60.1028 143.572 58.4368 144.65 58.4258 144.636C58.4148 144.623 60.0661 143.521 62.1136 142.18C64.1612 140.838 65.8271 139.774 65.8381 139.774Z" fill="#D9D9D9"/>
<path d="M45.9484 118.436L17.6836 118.213L17.4419 144.314L45.7066 144.537L45.9484 118.436Z" fill="#FAFAFA"/>
<path d="M70.6251 11.8127V36.6818H31.9491L30.5547 11.989L70.6251 11.8127Z" fill="#D9D9D9"/>
<path d="M30.5547 11.9891V36.6311H69.2344V11.9891L30.5547 11.9891Z" fill="#FAFAFA"/>
<path d="M69.4139 36.8002H30.3672V11.8193H69.4139V36.8002ZM30.7341 36.4613H69.0469V12.1582H30.7341V36.4613Z" fill="#D9D9D9"/>
<path d="M65.0448 15.0488H34.7461V33.5676H65.0448V15.0488Z" fill="#FAFAFA"/>
<path d="M65.0399 15.0488H64.8968H64.4675H62.8016L56.5635 15.0691L34.7522 15.1098L34.8366 15.0285C34.8366 20.6875 34.8366 26.9564 34.8366 33.5473L34.7412 33.4592L65.0399 33.4761L64.9629 33.5473C64.9629 27.912 64.9959 23.2899 65.0032 20.0741C65.0032 18.4645 65.0032 17.2073 65.0216 16.3466C65.0216 15.9231 65.0216 15.5944 65.0216 15.3673C65.0216 15.1403 65.0216 15.0285 65.0216 15.0285C65.0216 15.0285 65.0216 15.1369 65.0216 15.3673C65.0216 15.5978 65.0216 15.9129 65.0216 16.3331C65.0216 17.1904 65.0216 18.4408 65.0399 20.0606C65.0399 23.2899 65.0619 27.9255 65.0803 33.5778V33.6489H65.0032H34.7045H34.6055V33.5608C34.6055 26.9699 34.6055 20.701 34.6055 15.042V14.9607H34.6935L56.5598 15.0014L62.7979 15.0217H64.4418H64.8638L65.0399 15.0488Z" fill="#D9D9D9"/>
<path d="M30.5547 11.9177C30.7921 12.0255 31.015 12.1586 31.2189 12.3142C31.6152 12.5785 32.1546 12.9546 32.7343 13.385C33.3141 13.8153 33.8352 14.222 34.2021 14.527C34.4093 14.6792 34.5954 14.8545 34.7562 15.0488C34.0131 14.5733 33.2966 14.0632 32.6096 13.5205C31.888 13.0277 31.2016 12.4923 30.5547 11.9177Z" fill="#D9D9D9"/>
<path d="M69.2296 11.9888C68.5915 12.5646 67.911 13.099 67.193 13.5882C66.5132 14.1213 65.7934 14.6093 65.0391 15.0487C65.6751 14.4707 66.3557 13.9362 67.0756 13.4493C67.7532 12.9135 68.4732 12.4254 69.2296 11.9888Z" fill="#D9D9D9"/>
<path d="M69.2029 36.6341L64.9023 33.4048L69.2029 36.6341Z" fill="#FAFAFA"/>
<path d="M64.9023 33.4048C65.6737 33.8727 66.4093 34.389 67.104 34.95C67.8444 35.4689 68.5445 36.0351 69.1993 36.6443C68.4286 36.1755 67.6931 35.6592 66.9976 35.0991C66.2582 34.5791 65.5581 34.013 64.9023 33.4048Z" fill="#D9D9D9"/>
<path d="M30.5547 36.631C31.1831 36.0574 31.8564 35.5273 32.5692 35.0451C33.2423 34.5183 33.9547 34.0359 34.7012 33.6016C34.071 34.1723 33.3978 34.7011 32.6866 35.184C32.0142 35.7126 31.3017 36.1961 30.5547 36.631Z" fill="#D9D9D9"/>
<path d="M40.8906 20.8193V27.0205H59.9571V20.8193H40.8906Z" fill="#D9D9D9"/>
<path d="M245.516 11.1621H206.965V62.7606H245.516V11.1621Z" fill="#D9D9D9"/>
<path d="M243.586 11.1621H205.035V62.7606H243.586V11.1621Z" fill="#FAFAFA"/>
<path d="M238.791 16.7534H209.82V57.1762H238.791V16.7534Z" fill="#FAFAFA"/>
<path d="M238.79 57.1758C238.79 57.1758 238.79 57.1047 238.79 56.9759C238.79 56.8472 238.79 56.654 238.79 56.4032C238.79 55.895 238.79 55.1528 238.79 54.1871C238.79 52.2488 238.79 49.4261 238.764 45.8579C238.764 38.7418 238.738 28.6369 238.716 16.753L238.815 16.8411H209.845L209.951 16.7463C209.951 31.995 209.951 46.0544 209.929 57.1691L209.845 57.0911L230.933 57.1318L236.76 57.1521H238.287H238.819H238.305H236.793H230.985L209.845 57.1928H209.764V57.1182C209.764 46.0036 209.764 31.9442 209.742 16.6954V16.5972H209.838H238.808H238.903V16.7666C238.881 28.6742 238.867 38.7926 238.856 45.9324C238.856 49.4905 238.834 52.3064 238.83 54.2379C238.83 55.1969 238.83 55.9322 238.83 56.4371C238.83 56.6811 238.83 56.8709 238.83 56.9996C238.83 57.1284 238.79 57.1758 238.79 57.1758Z" fill="#D9D9D9"/>
<path d="M243.693 11.1621C243.495 11.489 243.265 11.7986 243.006 12.0872C242.559 12.6395 241.906 13.3918 241.197 14.2051C240.489 15.0184 239.796 15.7367 239.293 16.2383C239.037 16.5276 238.753 16.7953 238.445 17.038C238.663 16.7236 238.908 16.4266 239.179 16.1502L241.036 14.0797L242.871 11.9991C243.121 11.7009 243.396 11.421 243.693 11.1621Z" fill="#D9D9D9"/>
<path d="M238.938 57.0437C240.377 59.1593 242.072 61.1169 243.99 62.8789L238.938 57.0437Z" fill="#FAFAFA"/>
<path d="M243.99 62.8789C243.669 62.6623 243.374 62.4146 243.11 62.1402C242.438 61.5085 241.801 60.8457 241.202 60.1544C240.603 59.4631 240.043 58.7437 239.525 57.9993C239.294 57.7005 239.097 57.3802 238.938 57.0437C239.197 57.3206 239.434 57.6151 239.646 57.9247C240.071 58.4737 240.669 59.2294 241.367 60.0325C242.064 60.8356 242.728 61.5438 243.201 62.0453C243.486 62.305 243.75 62.5836 243.99 62.8789Z" fill="#D9D9D9"/>
<path d="M205.023 62.7233L210.073 56.9626L205.023 62.7233Z" fill="#FAFAFA"/>
<path d="M210.073 56.9692C209.313 57.9868 208.498 58.9674 207.629 59.9072C206.814 60.8868 205.944 61.8267 205.023 62.7231C205.781 61.7046 206.597 60.7239 207.467 59.7852C208.282 58.8055 209.152 57.8656 210.073 56.9692Z" fill="#D9D9D9"/>
<path d="M205.035 11.1621C205.906 12.0232 206.724 12.9283 207.486 13.873C208.305 14.7745 209.069 15.7181 209.772 16.6991C208.903 15.8368 208.085 14.9319 207.321 13.9882C206.504 13.0854 205.741 12.1419 205.035 11.1621Z" fill="#D9D9D9"/>
<path d="M229.768 24.9607H220.066V50.3957H229.768V24.9607Z" fill="#D9D9D9"/>
<path d="M195.343 3.50049H174.328V31.6294H195.343V3.50049Z" fill="#D9D9D9"/>
<path d="M194.296 3.50049H173.281V31.6294H194.296V3.50049Z" fill="#FAFAFA"/>
<path d="M191.688 6.54663H175.895V28.5828H191.688V6.54663Z" fill="#FAFAFA"/>
<path d="M191.688 28.5827C191.688 28.5827 191.688 28.5454 191.688 28.4742C191.688 28.4031 191.688 28.298 191.688 28.1625C191.688 27.8846 191.688 27.4848 191.688 26.9528C191.688 25.8989 191.688 24.3571 191.688 22.4154C191.688 18.5287 191.688 13.0255 191.662 6.54651L191.717 6.59395H175.939L175.997 6.54312C175.997 14.8554 175.997 22.5204 175.997 28.5691L175.95 28.5285L187.446 28.5488H190.624H191.457H190.631H187.464L175.939 28.5725H175.895V28.5285C175.895 22.4696 175.895 14.8046 175.895 6.50246V6.44824H175.953H191.732H191.783V6.49568C191.783 12.9883 191.783 18.5015 191.758 22.3951C191.758 24.3334 191.758 25.8718 191.758 26.9256C191.758 27.4475 191.758 27.8474 191.758 28.1218C191.758 28.2574 191.758 28.359 191.758 28.4302L191.688 28.5827Z" fill="#D9D9D9"/>
<path d="M194.355 3.50049C194.25 3.67816 194.127 3.8461 193.988 4.002C193.745 4.30359 193.397 4.71361 193.001 5.15752C192.604 5.60143 192.23 5.99451 191.955 6.26221C191.817 6.42386 191.663 6.57358 191.496 6.70951C191.616 6.53772 191.751 6.37562 191.9 6.22494C192.179 5.90641 192.527 5.5201 192.909 5.08975L193.922 3.95456C194.052 3.7927 194.197 3.64085 194.355 3.50049Z" fill="#D9D9D9"/>
<path d="M191.773 28.5115C192.557 29.665 193.48 30.7325 194.526 31.6934L191.773 28.5115Z" fill="#FAFAFA"/>
<path d="M194.526 31.6934C194.35 31.5757 194.189 31.4404 194.045 31.2901C193.679 30.9463 193.332 30.5855 193.006 30.2092C192.639 29.7653 192.309 29.3451 192.093 29.0333C191.965 28.8712 191.858 28.6961 191.773 28.5115C191.906 28.6647 192.029 28.8254 192.14 28.9927C192.372 29.2909 192.698 29.7043 193.08 30.1414C193.461 30.5785 193.814 30.9648 194.085 31.2393C194.246 31.379 194.393 31.5309 194.526 31.6934Z" fill="#D9D9D9"/>
<path d="M173.273 31.6093L176.026 28.4714L173.273 31.6093Z" fill="#FAFAFA"/>
<path d="M176.026 28.4714C175.612 29.0265 175.167 29.5614 174.694 30.0742C174.249 30.6079 173.775 31.1202 173.273 31.6093C173.686 31.0536 174.131 30.5185 174.605 30.0065C175.05 29.4729 175.524 28.9606 176.026 28.4714Z" fill="#D9D9D9"/>
<path d="M173.281 3.50049C173.757 3.9674 174.203 4.45958 174.617 4.97454C175.062 5.46791 175.478 5.98256 175.865 6.51636C175.39 6.04691 174.944 5.55368 174.529 5.03892C174.082 4.54837 173.665 4.03473 173.281 3.50049Z" fill="#D9D9D9"/>
<path d="M186.768 11.0198H181.48V24.886H186.768V11.0198Z" fill="#D9D9D9"/>
<path d="M265.31 144.349C265.31 144.396 208.602 144.437 138.662 144.437C68.7224 144.437 12 144.396 12 144.349C12 144.301 68.6968 144.261 138.662 144.261C208.628 144.261 265.31 144.298 265.31 144.349Z" fill="#353535"/>
<path d="M238.165 144.352L207.242 144.362L207.506 115.81L238.425 116.054L238.165 144.352Z" fill="#E43434"/>
<g opacity="0.4">
<path d="M238.393 119.463C238.393 119.463 233.436 122.587 227.297 126.406C221.158 130.225 216.167 133.305 216.156 133.288C216.145 133.271 221.11 130.164 227.253 126.345C233.395 122.526 238.382 119.442 238.393 119.463Z" fill="#FAFAFA"/>
</g>
<g opacity="0.4">
<path d="M238.108 126.041C238.108 126.041 233.151 129.168 227.012 132.997C220.873 136.827 215.882 139.9 215.871 139.883C215.86 139.866 220.829 136.759 226.968 132.94C233.107 129.121 238.09 126.027 238.108 126.041Z" fill="#FAFAFA"/>
</g>
<g opacity="0.4">
<path d="M238.275 132.396C238.275 132.396 233.978 135.107 228.654 138.421C223.329 141.735 219.003 144.406 218.988 144.389C218.974 144.372 223.285 141.678 228.61 138.364C233.934 135.05 238.26 132.379 238.275 132.396Z" fill="#FAFAFA"/>
</g>
<g opacity="0.4">
<path d="M231.861 116.003C231.861 116.003 228.338 118.236 223.964 120.953C219.59 123.671 216.031 125.88 216.02 125.846C216.009 125.813 219.542 123.613 223.916 120.892C228.29 118.171 231.839 115.986 231.861 116.003Z" fill="#FAFAFA"/>
</g>
<g opacity="0.4">
<path d="M238.133 139.221C238.133 139.238 236.339 140.441 234.097 141.908C231.854 143.375 230.023 144.555 230.023 144.541C230.023 144.527 231.814 143.321 234.06 141.85C236.306 140.38 238.122 139.204 238.133 139.221Z" fill="#FAFAFA"/>
</g>
<path d="M216.386 115.888L185.469 115.644L185.204 144.195L216.122 144.44L216.386 115.888Z" fill="#E43434"/>
<path opacity="0.2" d="M216.386 115.888L185.469 115.644L185.204 144.195L216.122 144.44L216.386 115.888Z" fill="#FAFAFA"/>
<path d="M268.485 116.262L238.059 116.022L237.797 144.292L268.223 144.532L268.485 116.262Z" fill="#F9D2D2"/>
<path d="M246.529 144.389L216.102 144.349L216.362 115.84L246.789 116.081L246.529 144.389Z" fill="#E43434"/>
<path d="M268.451 119.605C268.451 119.605 263.574 122.682 257.531 126.44C251.487 130.198 246.577 133.217 246.566 133.217C246.555 133.217 251.443 130.14 257.487 126.382C263.53 122.624 268.44 119.588 268.451 119.605Z" fill="#909090"/>
<path d="M268.182 126.081C268.182 126.098 263.305 129.158 257.261 132.912C251.218 136.667 246.312 139.706 246.297 139.689C246.282 139.672 251.177 136.612 257.221 132.854C263.264 129.097 268.16 126.064 268.182 126.081Z" fill="#909090"/>
<path d="M268.334 132.336C268.334 132.353 264.107 135.006 258.867 138.266C253.627 141.526 249.37 144.152 249.356 144.135C249.341 144.118 253.583 141.465 258.823 138.205C264.063 134.945 268.323 132.319 268.334 132.336Z" fill="#909090"/>
<path d="M261.998 116.199C261.998 116.216 258.531 118.398 254.23 121.072C249.93 123.745 246.429 125.904 246.418 125.88C246.407 125.856 249.886 123.684 254.186 121.007C258.487 118.33 261.987 116.182 261.998 116.199Z" fill="#909090"/>
<path d="M268.177 139.052C268.177 139.069 266.412 140.252 264.21 141.695C262.008 143.139 260.21 144.301 260.199 144.284C260.188 144.267 261.964 143.084 264.166 141.641C266.368 140.197 268.177 139.035 268.177 139.052Z" fill="#909090"/>
<path d="M88.6484 58.0581V88.2676H116.778C116.746 86.2659 117.145 84.2782 117.952 82.4201C118.759 80.5621 119.958 78.8708 121.479 77.4446C123.001 76.0185 124.814 74.8859 126.814 74.1129C128.814 73.3398 130.96 72.9418 133.128 72.9418C135.296 72.9418 137.442 73.3398 139.442 74.1129C141.441 74.8859 143.255 76.0185 144.776 77.4446C146.297 78.8708 147.496 80.5621 148.304 82.4201C149.111 84.2782 149.509 86.2659 149.477 88.2676H177.365V58.0581H88.6484Z" fill="#E43434"/>
<path opacity="0.4" d="M88.6484 58.0581V88.2676H116.778C116.746 86.2659 117.145 84.2782 117.952 82.4201C118.759 80.5621 119.958 78.8708 121.479 77.4446C123.001 76.0185 124.814 74.8859 126.814 74.1129C128.814 73.3398 130.96 72.9418 133.128 72.9418C135.296 72.9418 137.442 73.3398 139.442 74.1129C141.441 74.8859 143.255 76.0185 144.776 77.4446C146.297 78.8708 147.496 80.5621 148.304 82.4201C149.111 84.2782 149.509 86.2659 149.477 88.2676H177.365V58.0581H88.6484Z" fill="#0C0C0C"/>
<path d="M68.4141 58.058V88.2675H96.5441C96.5116 86.2658 96.9105 84.2781 97.7176 82.42C98.5246 80.5619 99.7237 78.8707 101.245 77.4445C102.767 76.0183 104.58 74.8858 106.58 74.1128C108.579 73.3397 110.726 72.9416 112.893 72.9416C115.061 72.9416 117.207 73.3397 119.207 74.1128C121.207 74.8858 123.02 76.0183 124.542 77.4445C126.063 78.8707 127.262 80.5619 128.069 82.42C128.876 84.2781 129.275 86.2658 129.243 88.2675H157.13V58.058H68.4141Z" fill="#E43434"/>
<path d="M177.378 59.6837C177.378 59.6837 172.898 62.564 167.346 66.078C161.794 69.592 157.288 72.4316 157.273 72.4147C157.259 72.3978 161.754 69.5378 167.306 66.0204C172.858 62.503 177.364 59.6667 177.378 59.6837Z" fill="#E43434"/>
<path d="M177.539 65.4515C177.539 65.4684 173.058 68.3284 167.51 71.8458C161.962 75.3632 157.449 78.1995 157.438 78.1825C157.427 78.1656 161.914 75.3022 167.466 71.7882C173.018 68.2742 177.539 65.4345 177.539 65.4515Z" fill="#E43434"/>
<path d="M177.34 71.4359C177.34 71.4359 172.863 74.3128 167.311 77.8302C161.759 81.3476 157.249 84.1805 157.238 84.1669C157.227 84.1533 161.715 81.2866 167.263 77.7624C172.811 74.2383 177.329 71.4189 177.34 71.4359Z" fill="#E43434"/>
<path d="M177.176 77.2135C177.176 77.2304 173.294 79.7143 168.48 82.7606C163.665 85.807 159.765 88.2671 159.75 88.2671C159.735 88.2671 163.632 85.7663 168.447 82.7166C173.261 79.6668 177.176 77.1965 177.176 77.2135Z" fill="#E43434"/>
<path d="M169.071 58.0581L168.954 58.1394L168.613 58.3665L167.343 59.1831L163.145 61.8534L158.933 64.51L157.652 65.3064L157.285 65.5198C157.245 65.5458 157.203 65.5696 157.16 65.591C157.198 65.5617 157.237 65.5346 157.278 65.5097L157.619 65.2826L158.885 64.4694L163.086 61.7957L167.314 59.1255L168.594 58.3292L168.961 58.1157L169.071 58.0581Z" fill="#E43434"/>
<path d="M120.693 74.9295C120.693 74.9295 116.003 77.9386 110.195 81.6186C104.386 85.2987 99.6671 88.2671 99.6524 88.2671C99.6377 88.2671 104.342 85.2546 110.151 81.5746C115.959 77.8946 120.667 74.9126 120.693 74.9295Z" fill="#E43434"/>
<path d="M118.015 82.5066L117.927 82.571L117.666 82.7438L116.698 83.3707L113.491 85.4039L110.272 87.437L109.293 88.0368L109.025 88.1995L108.926 88.2672L109.014 88.2029L109.274 88.03L110.243 87.4031L113.45 85.37L116.668 83.3368L117.648 82.7302L117.916 82.5676L118.015 82.5066Z" fill="#E43434"/>
<path d="M112.388 73.2994C112.388 73.2994 109.133 75.4037 105.093 77.9655C101.053 80.5273 97.7539 82.5876 97.7539 82.5706C97.7539 82.5537 101.009 80.4663 105.052 77.9079C109.096 75.3495 112.377 73.2858 112.388 73.2994Z" fill="#E43434"/>
<path d="M177.476 83.4177C177.476 83.4346 175.858 84.5427 173.836 85.8914C171.815 87.24 170.167 88.3278 170.149 88.3108C170.13 88.2939 171.767 87.1858 173.789 85.8371C175.811 84.4885 177.462 83.4007 177.476 83.4177Z" fill="#E43434"/>
<path d="M181.983 88.2532H153.871V114.213H181.983V88.2532Z" fill="#871212"/>
<path d="M161.952 88.2532H133.84V114.213H161.952V88.2532Z" fill="#5A0C0C"/>
<path d="M181.988 91.3502C181.988 91.3502 177.508 94.2305 171.959 97.7445C166.411 101.258 161.898 104.098 161.887 104.081C161.876 104.064 166.363 101.204 171.915 97.6869C177.467 94.1695 181.977 91.3332 181.988 91.3502Z" fill="#909090"/>
<path d="M181.785 97.3348C181.785 97.3517 177.308 100.215 171.756 103.729C166.204 107.243 161.695 110.083 161.684 110.066C161.673 110.049 166.16 107.189 171.712 103.671C177.264 100.154 181.774 97.3178 181.785 97.3348Z" fill="#909090"/>
<path d="M181.981 103.112C181.981 103.129 178.098 105.613 173.288 108.663C168.477 111.713 164.562 114.169 164.551 114.153C164.54 114.136 168.429 111.648 173.244 108.599C178.058 105.549 181.97 103.095 181.981 103.112Z" fill="#909090"/>
<path d="M175.998 88.2669C175.998 88.2669 172.817 90.3238 168.865 92.828C164.913 95.3322 161.699 97.345 161.688 97.3281C161.677 97.3112 164.869 95.2712 168.821 92.767C172.773 90.2628 175.987 88.2364 175.998 88.2669Z" fill="#909090"/>
<path d="M181.91 109.317C181.91 109.334 180.292 110.442 178.27 111.794C176.248 113.146 174.601 114.227 174.582 114.21C174.564 114.193 176.2 113.089 178.222 111.737C180.244 110.385 181.895 109.304 181.91 109.317Z" fill="#909090"/>
<path d="M120.018 88.2532H91.9062V114.213H120.018V88.2532Z" fill="#871212"/>
<path d="M99.9789 88.2532H71.8672V114.213H99.9789V88.2532Z" fill="#5A0C0C"/>
<path d="M120.011 91.3502C120.011 91.3502 115.527 94.2305 109.979 97.7547C104.431 101.279 99.921 104.108 99.9063 104.091C99.8916 104.074 104.387 101.214 109.939 97.697C115.49 94.1797 119.997 91.3332 120.011 91.3502Z" fill="#909090"/>
<path d="M119.82 97.3348C119.82 97.3517 115.34 100.215 109.791 103.729C104.243 107.243 99.7298 110.083 99.7188 110.066C99.7078 110.049 104.196 107.189 109.747 103.671C115.299 100.154 119.809 97.3178 119.82 97.3348Z" fill="#909090"/>
<path d="M120.012 103.112C120.012 103.129 116.129 105.613 111.315 108.663C106.501 111.713 102.589 114.169 102.578 114.153C102.567 114.136 106.46 111.648 111.275 108.599C116.089 105.549 119.997 103.095 120.012 103.112Z" fill="#909090"/>
<path d="M114.03 88.2668C114.03 88.2668 110.848 90.3237 106.896 92.8279C102.944 95.3321 99.752 97.3314 99.719 97.3144C99.686 97.2975 102.9 95.2575 106.856 92.7533C110.812 90.2492 114.019 88.2363 114.03 88.2668Z" fill="#909090"/>
<path d="M119.938 109.317C119.938 109.334 118.32 110.442 116.298 111.794C114.276 113.146 112.629 114.227 112.629 114.21C112.629 114.193 114.247 113.089 116.269 111.737C118.291 110.385 119.938 109.304 119.938 109.317Z" fill="#909090"/>
<path d="M176.982 114.21H157.148V144.406H176.982V114.21Z" fill="#E43434"/>
<path opacity="0.4" d="M176.982 114.21H157.148V144.406H176.982V114.21Z" fill="#0C0C0C"/>
<path d="M157.145 114.21H68.4141V144.406H157.145V114.21Z" fill="#E43434"/>
<path d="M176.811 115.935C176.811 115.935 172.448 118.798 167.047 122.295C161.645 125.792 157.249 128.611 157.238 128.595C157.227 128.578 161.594 125.735 167.003 122.234C172.411 118.734 176.811 115.918 176.811 115.935Z" fill="#E43434"/>
<path d="M176.983 121.669C176.983 121.686 172.624 124.532 167.219 128.029C161.814 131.526 157.421 134.349 157.41 134.332C157.399 134.315 161.769 131.469 167.175 127.972C172.58 124.475 176.972 121.655 176.983 121.669Z" fill="#E43434"/>
<path d="M176.788 127.622C176.788 127.622 172.425 130.486 167.023 133.983C161.622 137.48 157.226 140.299 157.215 140.282C157.204 140.265 161.574 137.422 166.979 133.922C172.384 130.421 176.773 127.605 176.788 127.622Z" fill="#E43434"/>
<path d="M176.624 133.369C176.624 133.369 172.848 135.857 168.162 138.886C163.476 141.916 159.663 144.366 159.652 144.349C159.641 144.332 163.428 141.861 168.118 138.829C172.807 135.796 176.613 133.353 176.624 133.369Z" fill="#E43434"/>
<path d="M168.737 114.315L168.626 114.397L168.293 114.62L167.056 115.433L162.961 118.087L158.858 120.73L157.611 121.523L157.27 121.736C157.231 121.761 157.19 121.784 157.148 121.804L157.262 121.723L157.596 121.499L158.829 120.689L162.917 118.029L167.019 115.389L168.267 114.596L168.608 114.383L168.737 114.315Z" fill="#E43434"/>
<path d="M176.907 139.54C176.907 139.557 175.333 140.658 173.362 142C171.392 143.342 169.788 144.423 169.774 144.406C169.759 144.389 171.348 143.288 173.318 141.946C175.289 140.604 176.896 139.523 176.907 139.54Z" fill="#E43434"/>
<path d="M86.8086 58.0845L186.977 57.949L136.82 12.0637L114.311 12.0942L86.8086 58.0845Z" fill="#E43434"/>
<path d="M64.3008 58.1149L164.47 57.9794L114.312 12.0941L64.3008 58.1149Z" fill="#E43434"/>
<g opacity="0.4">
<path d="M166.291 39.0198L166.159 39.1079L165.792 39.3586L164.383 40.2702L159.708 43.2522L155.022 46.2172L153.599 47.1084L153.206 47.349C153.118 47.4032 153.07 47.4269 153.07 47.4269C153.111 47.3943 153.154 47.3638 153.199 47.3354L153.566 47.0847L154.978 46.1765L159.65 43.1946L164.339 40.2295L165.767 39.3383L166.156 39.0977C166.199 39.0695 166.245 39.0435 166.291 39.0198Z" fill="#FAFAFA"/>
<path d="M171.08 43.4922L170.952 43.5837L170.585 43.8344L169.172 44.7426L164.497 47.7246L159.812 50.6896L158.388 51.5808L157.999 51.8214L157.859 51.9027L157.988 51.8112L158.355 51.5605L159.767 50.6489L164.442 47.667L169.114 44.7019L170.537 43.8107L170.926 43.5701L171.08 43.4922Z" fill="#FAFAFA"/>
<path d="M175.721 47.7859L175.593 47.8774L175.226 48.1281L173.813 49.0397C172.591 49.8191 170.951 50.8628 169.142 52.0217L164.452 54.9833L163.028 55.8779L162.639 56.1151L162.5 56.1964L162.628 56.1049L162.995 55.8542L164.408 54.9427L169.083 51.9607L173.769 48.999L175.193 48.1044L175.582 47.8672L175.721 47.7859Z" fill="#FAFAFA"/>
<path d="M180.734 52.2319C180.734 52.2319 180.705 52.2557 180.649 52.2963L180.393 52.4657L179.446 53.0825L176.309 55.0885L173.145 57.0912L172.188 57.6876L171.924 57.8469L171.828 57.8977L171.916 57.8333L172.169 57.6639L173.116 57.0505L176.253 55.0411C177.468 54.2787 178.562 53.584 179.406 53.052L180.367 52.4556C180.462 52.398 180.55 52.3471 180.627 52.2963L180.734 52.2319Z" fill="#FAFAFA"/>
<path d="M161.403 34.543L161.271 34.6345L160.904 34.8852L159.495 35.7968L154.798 38.7923L150.112 41.7573C149.529 42.1233 149.048 42.4351 148.689 42.6519L148.296 42.8891L148.16 42.9705C148.201 42.9378 148.244 42.9073 148.289 42.879L148.656 42.6282L150.068 41.7167L154.739 38.7347L159.451 35.7425L160.878 34.8513L161.267 34.6141L161.403 34.543Z" fill="#FAFAFA"/>
<path d="M156.526 30.0703L156.394 30.1618L156.027 30.4126L154.6 31.3377L149.928 34.3196L145.261 37.2677L143.837 38.1589L143.444 38.3995C143.356 38.4537 143.309 38.4775 143.309 38.4775C143.35 38.4449 143.392 38.4143 143.437 38.386L143.804 38.1352L145.217 37.2271L149.888 34.2451L154.574 31.28L156.001 30.3888L156.39 30.1482C156.434 30.12 156.479 30.094 156.526 30.0703Z" fill="#FAFAFA"/>
<path d="M151.635 25.5945C151.635 25.5945 151.591 25.6284 151.503 25.686L151.136 25.9367L149.723 26.8483L145.052 29.8303L140.366 32.7953L138.942 33.6865L138.55 33.9237L138.414 34.005C138.455 33.9724 138.498 33.9419 138.542 33.9135L138.909 33.6628L140.322 32.7512L144.993 29.7693L149.679 26.8076L151.125 25.9164L151.514 25.6792L151.635 25.5945Z" fill="#FAFAFA"/>
<path d="M146.76 21.1211L146.628 21.2126L146.261 21.4633L144.848 22.3715L140.177 25.3535L135.491 28.3185L134.067 29.2097L133.675 29.4503C133.587 29.5045 133.539 29.5283 133.539 29.5283L133.667 29.4401L134.034 29.1894L135.447 28.2779L140.118 25.2959L144.804 22.3308L146.232 21.4396L146.621 21.199C146.666 21.1707 146.712 21.1447 146.76 21.1211Z" fill="#FAFAFA"/>
<path d="M141.872 16.6477L141.74 16.7358L141.373 16.9866L139.96 17.8981L135.289 20.8801L130.581 23.8451L129.157 24.7363L128.764 24.9769C128.72 25.0053 128.673 25.0313 128.625 25.0549L128.757 24.9634L129.124 24.7126L130.537 23.8045L135.23 20.8326L139.916 17.8676L141.343 16.9764L141.732 16.7358C141.777 16.704 141.823 16.6746 141.872 16.6477Z" fill="#FAFAFA"/>
<path d="M136.986 12.1716L136.854 12.2631L136.487 12.5139L135.075 13.4254L130.403 16.404L125.718 19.3691C125.134 19.735 124.653 20.0468 124.294 20.2636L123.901 20.5008L123.762 20.5822C123.762 20.5822 123.806 20.5483 123.894 20.4907L124.261 20.2399L125.674 19.3284L130.345 16.3464L135.031 13.378L136.451 12.4902L136.84 12.253L136.986 12.1716Z" fill="#FAFAFA"/>
<path d="M124.958 12.236C124.958 12.236 123.615 13.1306 121.935 14.2014C120.254 15.2722 118.878 16.1227 118.863 16.1058C118.849 16.0888 120.206 15.2112 121.891 14.1404C123.575 13.0696 124.947 12.219 124.958 12.236Z" fill="#FAFAFA"/>
</g>
<path opacity="0.2" d="M64.3008 58.1149L164.47 57.9794L114.312 12.0941L64.3008 58.1149Z" fill="#FAFAFA"/>
<path d="M204.274 142.824L204.201 139.914L198.289 140.002L198.348 144.265L198.715 144.281C200.348 144.339 207.019 144.475 208.101 144.153C209.312 143.8 204.274 142.824 204.274 142.824Z" fill="#E43434"/>
<g opacity="0.4">
<path d="M206.732 143.388C206.732 143.388 208.501 143.828 208.284 144.099C208.068 144.37 201.312 144.469 198.344 144.272V144.15L206.215 144.099C206.215 144.099 206.387 143.405 206.732 143.388Z" fill="#FAFAFA"/>
</g>
<path d="M198.262 144.146C198.296 144.15 198.33 144.15 198.364 144.146H198.658L199.733 144.173C200.64 144.19 201.894 144.197 203.278 144.173C204.661 144.15 205.92 144.112 206.826 144.072L207.898 144.014L208.191 143.994H207.898L206.823 144.031C205.916 144.061 204.665 144.095 203.278 144.116C201.891 144.136 200.64 144.133 199.733 144.116H198.658H198.262V144.146Z" fill="#353535"/>
<path d="M206.242 144.18C206.284 144.015 206.348 143.854 206.433 143.703C206.54 143.562 206.663 143.433 206.799 143.316C206.622 143.381 206.474 143.501 206.381 143.655C206.264 143.808 206.214 143.995 206.242 144.18Z" fill="#353535"/>
<path d="M204.476 143.39C204.476 143.39 204.576 143.305 204.66 143.177C204.72 143.105 204.762 143.021 204.782 142.933C204.782 142.933 204.682 143.017 204.598 143.143C204.513 143.268 204.458 143.38 204.476 143.39Z" fill="#353535"/>
<path d="M203.977 143.163C203.977 143.163 204.083 143.119 204.186 143.031C204.289 142.943 204.356 142.865 204.341 142.851C204.326 142.838 204.238 142.899 204.135 142.984C204.032 143.068 203.977 143.163 203.977 143.163Z" fill="#353535"/>
<path d="M203.684 142.652C203.684 142.672 203.819 142.686 203.992 142.686C204.096 142.695 204.201 142.684 204.3 142.652C204.3 142.631 204.161 142.618 203.992 142.618C203.888 142.608 203.782 142.619 203.684 142.652Z" fill="#353535"/>
<path d="M203.559 142.292C203.662 142.352 203.782 142.381 203.904 142.378C204.028 142.4 204.157 142.383 204.27 142.33C204.155 142.313 204.038 142.307 203.922 142.313C203.802 142.293 203.68 142.286 203.559 142.292Z" fill="#353535"/>
<path d="M204.66 142.912C204.782 142.931 204.906 142.931 205.027 142.912C205.168 142.896 205.307 142.867 205.442 142.824C205.522 142.803 205.598 142.772 205.669 142.733C205.692 142.721 205.711 142.706 205.727 142.687C205.743 142.668 205.754 142.647 205.761 142.624C205.767 142.598 205.765 142.571 205.754 142.547C205.744 142.522 205.726 142.501 205.702 142.485C205.556 142.421 205.391 142.406 205.234 142.442C205.077 142.479 204.939 142.565 204.844 142.685C204.787 142.754 204.747 142.834 204.726 142.919C204.719 142.95 204.719 142.983 204.726 143.014C204.766 142.906 204.823 142.805 204.895 142.712C204.98 142.619 205.092 142.551 205.218 142.516C205.291 142.491 205.368 142.479 205.446 142.483C205.524 142.486 205.6 142.504 205.669 142.536C205.732 142.577 205.71 142.641 205.64 142.682C205.574 142.718 205.504 142.746 205.431 142.767C205.304 142.809 205.174 142.843 205.042 142.868C204.807 142.899 204.66 142.899 204.66 142.912Z" fill="#353535"/>
<path d="M204.763 142.926C204.809 142.852 204.824 142.765 204.804 142.682C204.789 142.591 204.752 142.505 204.697 142.428C204.665 142.376 204.619 142.332 204.563 142.302C204.507 142.271 204.443 142.255 204.378 142.255C204.339 142.262 204.305 142.284 204.283 142.314C204.261 142.345 204.253 142.382 204.261 142.418C204.272 142.474 204.296 142.527 204.33 142.574C204.381 142.651 204.443 142.722 204.514 142.784C204.573 142.845 204.647 142.893 204.73 142.923C204.73 142.923 204.657 142.862 204.55 142.75C204.487 142.687 204.431 142.618 204.385 142.543C204.334 142.469 204.294 142.336 204.385 142.32C204.477 142.303 204.58 142.394 204.639 142.465C204.694 142.532 204.732 142.61 204.749 142.692C204.763 142.769 204.768 142.848 204.763 142.926Z" fill="#353535"/>
<path d="M198.363 142.652C198.363 142.652 198.532 142.635 198.8 142.652C199.149 142.682 199.482 142.802 199.76 143C200.038 143.197 200.249 143.463 200.37 143.767C200.462 144 200.473 144.156 200.488 144.156C200.496 144.119 200.496 144.081 200.488 144.044C200.477 143.945 200.455 143.848 200.422 143.753C200.309 143.434 200.095 143.153 199.809 142.946C199.521 142.744 199.173 142.626 198.811 142.608C198.702 142.596 198.593 142.596 198.484 142.608C198.442 142.616 198.401 142.631 198.363 142.652Z" fill="#353535"/>
<path d="M198.934 140.371C198.897 140.744 198.886 141.118 198.901 141.492C198.89 141.867 198.904 142.241 198.942 142.614C198.991 141.867 198.991 141.118 198.942 140.371H198.934Z" fill="#353535"/>
<path d="M201.227 143.655C201.51 143.71 201.8 143.732 202.089 143.72C202.379 143.73 202.669 143.705 202.951 143.644C202.951 143.624 202.566 143.644 202.089 143.644C201.612 143.644 201.227 143.634 201.227 143.655Z" fill="#353535"/>
<path d="M200.07 143.669C200.07 143.669 200.103 143.743 200.144 143.824C200.184 143.906 200.207 143.98 200.229 143.977C200.251 143.974 200.258 143.892 200.229 143.797C200.199 143.702 200.081 143.655 200.07 143.669Z" fill="#353535"/>
<path d="M199.629 143.163C199.629 143.163 199.654 143.231 199.717 143.288C199.779 143.345 199.837 143.379 199.852 143.365C199.866 143.352 199.826 143.298 199.764 143.241C199.702 143.184 199.644 143.163 199.629 143.163Z" fill="#353535"/>
<path d="M198.988 142.954C198.988 142.974 199.073 142.971 199.161 142.998C199.25 143.025 199.312 143.066 199.327 143.056C199.342 143.046 199.29 142.967 199.183 142.933C199.077 142.899 198.985 142.936 198.988 142.954Z" fill="#353535"/>
<path d="M198.547 142.851C198.547 142.868 198.573 142.896 198.624 142.913C198.675 142.93 198.719 142.93 198.723 142.913C198.727 142.896 198.697 142.868 198.65 142.851C198.602 142.834 198.554 142.824 198.547 142.851Z" fill="#353535"/>
<g opacity="0.3">
<path d="M198.372 142.506L204.272 142.33L204.254 141.672L198.32 142.16L198.372 142.506Z" fill="#0C0C0C"/>
</g>
<path d="M209.766 142.228L210.768 139.463L205.176 137.698L203.664 141.723L204.002 141.855C205.517 142.421 211.744 144.637 212.882 144.675C214.151 144.719 209.766 142.228 209.766 142.228Z" fill="#E43434"/>
<g opacity="0.4">
<path d="M211.88 143.519C211.88 143.519 213.381 144.492 213.08 144.678C212.779 144.865 206.394 142.845 203.664 141.723L203.715 141.612L211.139 144.028C211.139 144.028 211.55 143.431 211.88 143.519Z" fill="#FAFAFA"/>
</g>
<path d="M203.629 141.581L203.724 141.622L203.992 141.723L204.994 142.086C205.842 142.388 207.019 142.787 208.329 143.204C209.639 143.621 210.836 143.973 211.702 144.221L212.733 144.502L213.015 144.573L213.114 144.597C213.084 144.583 213.052 144.571 213.019 144.563L212.74 144.478L211.72 144.18C210.854 143.923 209.661 143.563 208.351 143.147C207.041 142.73 205.864 142.34 205.012 142.049L204.003 141.71L203.728 141.618C203.697 141.602 203.664 141.589 203.629 141.581Z" fill="#353535"/>
<path d="M211.109 144.109C211.215 143.966 211.338 143.835 211.476 143.719C211.625 143.621 211.785 143.538 211.953 143.472C211.761 143.486 211.577 143.555 211.428 143.669C211.279 143.783 211.172 143.937 211.12 144.109H211.109Z" fill="#353535"/>
<path d="M209.751 142.824C209.751 142.824 209.876 142.774 210 142.682C210.125 142.591 210.221 142.502 210.206 142.486C210.191 142.469 210.081 142.536 209.956 142.628C209.832 142.719 209.74 142.797 209.751 142.824Z" fill="#353535"/>
<path d="M209.375 142.449C209.375 142.465 209.493 142.448 209.618 142.391C209.742 142.333 209.841 142.286 209.834 142.269C209.827 142.252 209.717 142.269 209.592 142.33C209.467 142.391 209.368 142.432 209.375 142.449Z" fill="#353535"/>
<path d="M209.262 141.872C209.262 141.889 209.379 141.943 209.541 141.997C209.634 142.041 209.737 142.063 209.841 142.062C209.841 142.045 209.724 141.987 209.563 141.936C209.469 141.894 209.366 141.872 209.262 141.872Z" fill="#353535"/>
<path d="M209.305 141.497C209.305 141.497 209.411 141.615 209.595 141.686C209.706 141.744 209.835 141.766 209.962 141.751C209.858 141.701 209.75 141.659 209.639 141.625C209.532 141.573 209.42 141.53 209.305 141.497Z" fill="#353535"/>
<path d="M210.102 142.422C210.215 142.48 210.34 142.518 210.469 142.533C210.604 142.56 210.741 142.575 210.879 142.577C210.962 142.587 211.046 142.587 211.129 142.577C211.155 142.573 211.179 142.565 211.201 142.552C211.223 142.539 211.242 142.522 211.257 142.503C211.273 142.481 211.281 142.455 211.281 142.428C211.281 142.402 211.273 142.376 211.257 142.354C211.144 142.248 210.993 142.182 210.833 142.168C210.672 142.153 210.511 142.19 210.377 142.272C210.297 142.319 210.229 142.381 210.179 142.455C210.157 142.481 210.142 142.511 210.135 142.544C210.21 142.454 210.3 142.376 210.402 142.313C210.514 142.253 210.641 142.223 210.769 142.225C210.926 142.227 211.077 142.285 211.188 142.388C211.228 142.445 211.188 142.499 211.107 142.516C211.03 142.523 210.953 142.523 210.876 142.516C210.741 142.517 210.606 142.508 210.472 142.489C210.241 142.455 210.105 142.411 210.102 142.422Z" fill="#353535"/>
<path d="M210.194 142.486C210.194 142.486 210.282 142.425 210.323 142.269C210.347 142.179 210.347 142.085 210.323 141.994C210.31 141.935 210.282 141.88 210.24 141.834C210.198 141.788 210.144 141.752 210.084 141.73C210.045 141.726 210.006 141.736 209.975 141.759C209.944 141.781 209.923 141.813 209.918 141.849C209.902 141.904 209.902 141.963 209.918 142.018C209.938 142.106 209.97 142.192 210.014 142.272C210.049 142.349 210.103 142.417 210.172 142.472C210.172 142.472 210.12 142.387 210.061 142.252C210.027 142.172 210.001 142.089 209.984 142.005C209.962 141.92 209.984 141.784 210.069 141.798C210.154 141.811 210.223 141.93 210.253 142.011C210.281 142.091 210.289 142.176 210.275 142.259C210.256 142.337 210.229 142.413 210.194 142.486Z" fill="#353535"/>
<path d="M204.266 140.205C204.266 140.205 204.431 140.242 204.677 140.347C204.992 140.487 205.259 140.705 205.448 140.978C205.636 141.25 205.737 141.566 205.741 141.889C205.741 142.14 205.697 142.289 205.708 142.292C205.728 142.26 205.742 142.224 205.748 142.187C205.773 142.091 205.786 141.992 205.788 141.892C205.802 141.556 205.704 141.224 205.507 140.94C205.31 140.657 205.024 140.436 204.688 140.307C204.589 140.266 204.485 140.235 204.379 140.215C204.342 140.206 204.304 140.202 204.266 140.205Z" fill="#353535"/>
<path d="M205.647 138.24C205.477 138.579 205.329 138.928 205.203 139.283C205.06 139.633 204.937 139.989 204.836 140.351C205.006 140.011 205.154 139.663 205.28 139.307C205.424 138.958 205.547 138.602 205.647 138.24Z" fill="#353535"/>
<path d="M206.605 142.045C206.852 142.188 207.117 142.302 207.394 142.384C207.664 142.484 207.946 142.551 208.235 142.584C208.235 142.564 207.868 142.469 207.42 142.323C206.972 142.177 206.616 142.028 206.605 142.045Z" fill="#353535"/>
<path d="M205.496 141.696C205.496 141.696 205.496 141.777 205.496 141.866C205.496 141.954 205.496 142.032 205.518 142.035C205.54 142.038 205.577 141.964 205.566 141.859C205.555 141.754 205.511 141.686 205.496 141.696Z" fill="#353535"/>
<path d="M205.258 141.089C205.258 141.089 205.258 141.164 205.295 141.235C205.331 141.306 205.379 141.361 205.394 141.354C205.409 141.347 205.394 141.279 205.361 141.208C205.328 141.137 205.276 141.083 205.258 141.089Z" fill="#353535"/>
<path d="M204.758 140.686C204.758 140.707 204.831 140.727 204.901 140.781C204.971 140.836 205.019 140.893 205.038 140.886C205.056 140.88 205.038 140.791 204.946 140.73C204.854 140.669 204.758 140.669 204.758 140.686Z" fill="#353535"/>
<path d="M204.379 140.452C204.379 140.452 204.379 140.503 204.426 140.534C204.474 140.564 204.51 140.578 204.525 140.564C204.539 140.55 204.525 140.513 204.474 140.483C204.423 140.452 204.39 140.452 204.379 140.452Z" fill="#353535"/>
<g opacity="0.3">
<path d="M204.336 140.07L209.954 141.751L210.178 141.127L204.413 139.728L204.336 140.07Z" fill="#0C0C0C"/>
</g>
<path d="M213.983 88.2915L207.011 88.5694L196.344 88.2915L197.562 142.282L206.156 142.018C206.156 142.018 206.156 141.422 206.156 140.364L210.695 141.449C210.695 141.449 219.248 125.227 221.091 118.315C222.643 112.547 213.983 88.2915 213.983 88.2915ZM206.141 132.116C205.998 119.657 206.6 98.4641 206.798 95.8583C206.798 95.8583 212.06 114.516 212.108 115.987C212.141 116.895 208.446 125.509 206.141 132.116Z" fill="#353535"/>
<path d="M206.092 128.592C206.117 128.765 206.128 128.939 206.125 129.114C206.125 129.476 206.125 129.958 206.155 130.544C206.177 131.747 206.188 133.414 206.195 135.254C206.203 137.094 206.195 138.758 206.195 139.964C206.195 140.547 206.195 141.028 206.173 141.391C206.178 141.565 206.168 141.74 206.144 141.913C206.119 141.74 206.108 141.565 206.111 141.391C206.111 141.028 206.111 140.547 206.077 139.961C206.059 138.758 206.044 137.091 206.041 135.251C206.037 133.411 206.041 131.747 206.041 130.544C206.041 129.958 206.041 129.476 206.063 129.114C206.058 128.94 206.068 128.765 206.092 128.592Z" fill="#909090"/>
<path d="M201.956 89.0234C201.974 89.1153 201.974 89.2094 201.956 89.3013C201.931 89.5549 201.874 89.805 201.788 90.0468C201.502 90.857 200.915 91.5481 200.132 91.9987C199.349 92.4492 198.419 92.6304 197.505 92.5103C197.231 92.4782 196.963 92.4157 196.705 92.3239C196.609 92.2971 196.519 92.2559 196.438 92.202C196.792 92.2901 197.153 92.358 197.516 92.4053C198.4 92.4927 199.29 92.3042 200.044 91.87C200.798 91.4357 201.373 90.7808 201.677 90.0095C201.794 89.6869 201.887 89.3575 201.956 89.0234Z" fill="#909090"/>
<path d="M207.572 89.1045C207.596 89.1965 207.607 89.2911 207.605 89.3857C207.605 89.5687 207.627 89.833 207.638 90.1583C207.638 90.809 207.671 91.7103 207.678 92.7066V94.1095C207.705 94.5041 207.607 94.8974 207.395 95.2413C207.316 95.3549 207.213 95.4521 207.091 95.5268C206.969 95.6014 206.831 95.6519 206.687 95.675C206.478 95.6953 206.375 95.6411 206.379 95.6344C206.479 95.6368 206.578 95.63 206.676 95.614C206.932 95.5486 207.149 95.3928 207.282 95.1803C207.464 94.8485 207.544 94.4769 207.513 94.1061C207.513 93.6723 207.513 93.2013 207.513 92.7066C207.513 91.7103 207.513 90.8123 207.513 90.1583C207.513 89.8195 207.513 89.5687 207.531 89.3891C207.531 89.293 207.545 89.1973 207.572 89.1045Z" fill="#909090"/>
<path d="M214.624 92.4661C214.547 92.4785 214.467 92.4785 214.39 92.4661C214.174 92.4514 213.961 92.4197 213.751 92.3712C213.057 92.214 212.406 91.9281 211.836 91.5309C211.262 91.1369 210.784 90.6373 210.43 90.0636C210.32 89.8914 210.228 89.7099 210.155 89.5214C210.104 89.3893 210.082 89.3147 210.093 89.3113C210.104 89.3079 210.243 89.5892 210.529 90.006C211.284 91.0978 212.439 91.9016 213.784 92.2696C214.294 92.4085 214.624 92.439 214.624 92.4661Z" fill="#909090"/>
<path d="M206.013 89.6436C206.013 89.6673 205.815 89.6978 205.701 89.9384C205.669 90.0026 205.652 90.0726 205.652 90.1434C205.652 90.2143 205.669 90.2843 205.701 90.3484C205.753 90.4152 205.824 90.4672 205.906 90.4987C205.988 90.5301 206.078 90.5396 206.166 90.5262C206.254 90.5128 206.336 90.477 206.403 90.4228C206.47 90.3687 206.519 90.2983 206.545 90.2197C206.554 90.1495 206.547 90.0783 206.524 90.0109C206.5 89.9436 206.461 89.8818 206.409 89.83C206.222 89.6368 206.013 89.6707 206.017 89.6436C206.02 89.6165 206.057 89.6097 206.149 89.6131C206.279 89.6198 206.403 89.669 206.497 89.752C206.571 89.8131 206.628 89.8895 206.664 89.9749C206.7 90.0603 206.713 90.1523 206.703 90.2434C206.674 90.3549 206.61 90.456 206.519 90.534C206.428 90.6119 206.314 90.6632 206.192 90.6814C206.069 90.6995 205.943 90.6837 205.831 90.6359C205.718 90.5881 205.623 90.5104 205.558 90.4128C205.518 90.3293 205.5 90.2382 205.505 90.147C205.51 90.0557 205.538 89.9669 205.587 89.8876C205.647 89.7818 205.746 89.699 205.866 89.6538C205.961 89.6233 206.013 89.6233 206.013 89.6436Z" fill="#909090"/>
<path d="M195.912 89.8873C195.663 87.8541 196.011 80.1179 196.011 80.1179C195.699 76.4345 194.36 72.4258 194.125 69.7488C193.322 60.6944 201.024 60.9587 201.024 60.9587L203.515 60.6978C206.084 62.4124 208.755 63.551 209.192 66.0687L214.626 89.0232L195.912 89.8873Z" fill="#909090"/>
<path d="M197.34 61.5148C197.693 61.5891 198.053 61.6277 198.415 61.63L201.009 61.7825C202.022 61.8401 202.936 61.9011 203.6 61.9587C203.956 62.0045 204.315 62.026 204.675 62.0231C204.334 61.9095 203.979 61.8377 203.618 61.8096C202.958 61.7147 202.04 61.63 201.024 61.5724C200.008 61.5148 199.087 61.4911 198.419 61.4809C198.059 61.4596 197.697 61.4709 197.34 61.5148Z" fill="#353535"/>
<g opacity="0.2">
<path d="M196.77 70.8442L207.749 78.5669L206.567 73.0943L196.77 70.8442Z" fill="#0C0C0C"/>
</g>
<path d="M214.215 87.2954C214.215 87.3463 210.087 87.5191 204.994 87.6851C199.901 87.8512 195.765 87.9461 195.762 87.8986C195.758 87.8512 199.89 87.675 204.987 87.5089C210.084 87.3429 214.212 87.2514 214.215 87.2954Z" fill="white"/>
<path d="M214.012 86.4412C214.012 86.492 209.924 86.6649 204.875 86.8275C199.826 86.9902 195.734 87.0884 195.73 87.0376C195.727 86.9868 199.818 86.8173 204.867 86.6513C209.917 86.4853 214.008 86.3938 214.012 86.4412Z" fill="white"/>
<path d="M202.473 47.9433C202.743 47.5911 202.935 47.193 203.038 46.7719C203.141 46.3508 203.152 45.915 203.071 45.4899C202.983 45.0659 202.785 44.6679 202.495 44.3298C202.204 43.9917 201.829 43.7235 201.402 43.5482C200.969 43.3833 200.495 43.3355 200.034 43.4105C199.573 43.4855 199.145 43.6802 198.8 43.9718C198.213 44.497 197.919 45.3272 197.163 45.6254C196.463 45.8965 195.516 45.6254 194.991 46.1337C194.694 46.4218 194.661 46.8691 194.411 47.1978C194.096 47.6179 193.505 47.7637 193.05 48.0585C192.731 48.2704 192.479 48.5561 192.318 48.8869C192.157 49.2176 192.093 49.5817 192.133 49.9425C192.228 50.7117 192.778 51.3522 193.266 51.9757C193.755 52.5992 194.21 53.3311 194.074 54.1038" fill="#353535"/>
<path d="M197.624 62.1993L192.945 50.6543L193.246 50.2713C195.279 47.6892 196.182 46.2863 199.598 46.6658C200.385 46.8019 201.121 47.1228 201.735 47.5976C202.348 48.0724 202.819 48.6851 203.102 49.3767C203.785 51.0406 204.658 53.233 205.073 54.6054C205.807 57.0418 203.308 58.1363 203.308 58.1363L204.346 62.0332L197.624 62.1993Z" fill="#FFF8E1"/>
<path d="M202.713 51.0571C202.643 51.0252 202.585 50.9748 202.546 50.9123C202.506 50.8498 202.488 50.7779 202.493 50.7058C202.498 50.6337 202.526 50.5646 202.573 50.5071C202.621 50.4496 202.685 50.4063 202.759 50.3828C202.833 50.3592 202.913 50.3564 202.989 50.3747C203.064 50.393 203.133 50.4316 203.185 50.4856C203.237 50.5396 203.27 50.6065 203.281 50.6781C203.292 50.7497 203.279 50.8226 203.245 50.8877C203.199 50.9749 203.117 51.0417 203.017 51.0734C202.918 51.1051 202.808 51.0993 202.713 51.0571Z" fill="#353535"/>
<path d="M203.241 50.2642C203.212 50.3184 202.896 50.2032 202.533 50.3015C202.169 50.3998 201.964 50.6403 201.909 50.6098C201.854 50.5793 201.909 50.5082 201.99 50.3964C202.112 50.2521 202.28 50.1476 202.471 50.0982C202.662 50.0488 202.865 50.0571 203.05 50.1219C203.179 50.1727 203.241 50.2405 203.241 50.2642Z" fill="#353535"/>
<path d="M199.267 51.6707C199.342 51.6905 199.409 51.7304 199.46 51.7853C199.51 51.8402 199.542 51.9076 199.552 51.9792C199.561 52.0508 199.547 52.1234 199.512 52.1877C199.476 52.2521 199.421 52.3054 199.354 52.341C199.286 52.3766 199.208 52.3928 199.13 52.3877C199.052 52.3826 198.977 52.3563 198.916 52.3122C198.854 52.2682 198.808 52.2082 198.783 52.1399C198.758 52.0716 198.755 51.9979 198.775 51.9283C198.803 51.8339 198.871 51.7538 198.963 51.7055C199.055 51.6573 199.165 51.6447 199.267 51.6707Z" fill="#353535"/>
<path d="M199.495 51.5483C199.469 51.6025 199.15 51.4873 198.787 51.5855C198.423 51.6838 198.218 51.9244 198.163 51.8939C198.108 51.8634 198.163 51.7956 198.244 51.6838C198.365 51.5387 198.533 51.4331 198.724 51.3822C198.917 51.3334 199.121 51.3417 199.308 51.406C199.447 51.4602 199.51 51.5246 199.495 51.5483Z" fill="#353535"/>
<path d="M201.778 54.0422C201.945 53.9254 202.13 53.8339 202.328 53.7711C202.42 53.7338 202.49 53.6932 202.479 53.6457C202.454 53.5569 202.403 53.4761 202.332 53.4119C202.167 53.2188 202.002 53.0188 201.829 52.8121C201.374 52.3107 200.974 51.768 200.637 51.1924C201.144 51.647 201.6 52.1477 201.998 52.6868L202.486 53.3001C202.582 53.3926 202.641 53.5118 202.655 53.639C202.652 53.6761 202.639 53.712 202.618 53.7438C202.597 53.7756 202.568 53.8024 202.534 53.822C202.487 53.8512 202.435 53.873 202.38 53.8863C202.191 53.9709 201.987 54.0237 201.778 54.0422Z" fill="#353535"/>
<path d="M203.314 58.1089C202.096 58.4402 200.8 58.4402 199.582 58.1089C199.582 58.1089 200.91 59.6507 203.464 58.7188L203.314 58.1089Z" fill="#F6BBBB"/>
<path d="M201.779 49.9562C201.864 50.0138 201.965 50.0471 202.07 50.0519C202.175 50.0567 202.28 50.0329 202.37 49.9833C202.587 49.8986 202.77 49.7461 202.759 49.5699C202.748 49.3937 202.444 49.2683 202.102 49.4005C201.761 49.5327 201.64 49.8309 201.779 49.9562Z" fill="#353535"/>
<path d="M198.133 51.1249C198.294 51.2231 198.54 51.1486 198.786 51.0706C199.032 50.9927 199.263 50.8843 199.311 50.7114C199.311 50.6267 199.267 50.5318 199.12 50.4742C198.933 50.4115 198.728 50.413 198.542 50.4783C198.356 50.5436 198.202 50.6684 198.107 50.83C198.041 50.9622 198.059 51.0706 198.133 51.1249Z" fill="#353535"/>
<path d="M200.251 54.4321C200.196 54.4524 200.405 54.8421 200.915 55.0251C201.425 55.2081 201.858 55.0624 201.836 55.0082C201.814 54.9539 201.429 55.0082 200.996 54.8286C200.563 54.649 200.302 54.3813 200.251 54.4321Z" fill="#353535"/>
<path d="M202.479 47.9432C201.8 48.6616 200.325 48.8954 199.316 48.6921C198.604 48.5464 197.87 48.1567 197.191 48.4007C196.512 48.6446 196.332 49.1529 196.314 49.7798C196.29 50.119 196.122 50.4359 195.848 50.6626C195.574 50.8893 195.214 51.0079 194.846 50.9929C195.246 52.1722 195.661 53.0261 195.551 54.2155C195.529 54.429 195.268 54.6459 195.136 54.8187C195.074 54.9083 194.982 54.9765 194.874 55.0127C194.766 55.0489 194.648 55.051 194.538 55.0186C194.442 54.9635 194.359 54.8899 194.295 54.8028C194.232 54.7157 194.19 54.6172 194.171 54.5137C193.804 53.3379 193.213 52.118 192.835 50.9421C192.722 50.5099 192.733 50.0576 192.869 49.6307C193.052 49.137 193.387 48.7035 193.834 48.3837C194.608 47.6464 195.477 46.9989 196.421 46.4556C197.376 45.912 198.513 45.7074 199.62 45.8795C200.721 46.093 202.083 46.6555 202.248 47.6721" fill="#353535"/>
<path d="M194.763 53.4292C194.711 53.4292 192.777 53.5444 193.401 55.1913C193.944 56.6145 195.566 55.8859 195.555 55.8385C195.544 55.7911 194.763 53.4292 194.763 53.4292Z" fill="#FFF8E1"/>
<path d="M194.765 55.3C194.765 55.3 194.743 55.3237 194.703 55.3542C194.645 55.395 194.573 55.4143 194.501 55.4084C194.321 55.3915 194.134 55.1814 194.035 54.9239C193.997 54.8016 193.989 54.673 194.013 54.5477C194.015 54.4995 194.03 54.4525 194.057 54.4107C194.083 54.3689 194.119 54.3334 194.163 54.3071C194.193 54.2927 194.226 54.2878 194.259 54.2934C194.292 54.2989 194.321 54.3145 194.343 54.3376C194.376 54.3749 194.372 54.4054 194.38 54.4054C194.387 54.4054 194.409 54.3749 194.38 54.3173C194.361 54.2836 194.33 54.2571 194.292 54.2428C194.241 54.2241 194.185 54.2241 194.134 54.2428C194.073 54.2704 194.021 54.3115 193.982 54.3624C193.943 54.4132 193.918 54.4723 193.91 54.5342C193.874 54.6734 193.874 54.8186 193.91 54.9578C194.002 55.2424 194.237 55.4762 194.479 55.483C194.523 55.4841 194.567 55.4762 194.608 55.4598C194.648 55.4434 194.684 55.4189 194.714 55.3881C194.772 55.3373 194.772 55.3034 194.765 55.3Z" fill="#F6BBBB"/>
<path d="M246.991 65.8555L248.503 65.7166C249.383 65.5641 250.653 65.1981 251.328 64.7C251.695 64.4255 251.923 64.1782 251.849 63.9172C251.814 63.7887 251.728 63.6773 251.607 63.6056C251.487 63.5339 251.341 63.5072 251.2 63.5309C251.2 63.5309 252.106 63.3242 251.816 62.7346C251.618 62.3381 250.932 62.5448 250.932 62.5448C250.932 62.5448 252.062 62.0501 251.915 61.5723C251.891 61.4749 251.834 61.3874 251.751 61.3231C251.668 61.2589 251.565 61.2214 251.457 61.2165C252.022 60.8234 251.978 60.5388 251.78 60.3287C251.53 60.0542 251.046 60.1254 250.679 60.2541L249.442 60.6947C248.675 60.9691 248.117 61.3995 248.811 60.2372C249.505 59.0749 249.545 57.9363 249.343 57.6212C249.286 57.5522 249.207 57.5015 249.117 57.4763C249.027 57.4511 248.931 57.4527 248.842 57.4808C248.753 57.5089 248.676 57.5621 248.622 57.633C248.568 57.7038 248.539 57.7886 248.539 57.8753C248.457 58.3171 248.307 58.746 248.095 59.1495C247.942 59.4804 247.727 59.7843 247.461 60.0474C247.149 60.3558 246.87 60.6032 246.628 60.8099L245.398 62.1213L246.991 65.8555Z" fill="#FFF8E1"/>
<path d="M209.604 84.2165L234.953 79.917L230.297 56.5084L204.949 60.8079L209.604 84.2165Z" fill="#E43434"/>
<path opacity="0.4" d="M209.604 84.2165L234.953 79.917L230.297 56.5084L204.949 60.8079L209.604 84.2165Z" fill="#0C0C0C"/>
<path d="M204.691 63.1478C204.691 63.1309 209.289 65.0116 214.94 67.3463C220.591 69.6811 225.171 71.5889 225.163 71.6092C225.156 71.6295 220.565 69.7455 214.911 67.4107C209.256 65.0759 204.68 63.1682 204.691 63.1478Z" fill="#E43434"/>
<path d="M205.945 68.5355C205.945 68.5186 210.543 70.3959 216.198 72.7306C221.852 75.0654 226.425 76.9766 226.417 76.9935C226.41 77.0104 221.819 75.1331 216.165 72.795C210.51 70.4569 205.938 68.5525 205.945 68.5355Z" fill="#E43434"/>
<path d="M206.797 73.7952C206.797 73.7952 210.786 75.3912 215.688 77.4244C220.59 79.4575 224.557 81.1078 224.55 81.1248C224.542 81.1417 220.561 79.5152 215.655 77.4888C210.749 75.4624 206.786 73.8155 206.797 73.7952Z" fill="#E43434"/>
<path d="M209.551 59.4308C209.551 59.4139 212.831 60.749 216.857 62.4128C220.882 64.0766 224.137 65.4355 224.126 65.4626C224.115 65.4897 220.849 64.1444 216.824 62.484C212.798 60.8235 209.543 59.4647 209.551 59.4308Z" fill="#E43434"/>
<path d="M207.961 79.4035C207.961 79.3832 209.656 80.1117 211.73 81.0266C213.803 81.9416 215.472 82.6972 215.465 82.7209C215.458 82.7447 213.77 82.0127 211.696 81.0978C209.623 80.1829 207.95 79.4204 207.961 79.4035Z" fill="#E43434"/>
<path d="M227.811 81.1587L253.16 76.8591L248.504 53.4505L223.156 57.75L227.811 81.1587Z" fill="#E43434"/>
<path d="M250.797 60.2473L249.271 60.82C249.079 60.8764 248.9 60.9674 248.746 61.0877C248.669 61.1477 248.612 61.2268 248.582 61.3157C248.552 61.4045 248.551 61.4995 248.577 61.5892C248.62 61.6746 248.689 61.747 248.774 61.7979C248.86 61.8489 248.96 61.8764 249.062 61.8772C249.265 61.8743 249.465 61.8352 249.652 61.762L251.311 61.23" fill="#FFF8E1"/>
<path d="M250.557 61.4399L248.928 62.0329C248.722 62.0928 248.532 62.1896 248.367 62.3176C248.284 62.3819 248.223 62.4671 248.192 62.5628C248.16 62.6585 248.16 62.7605 248.19 62.8564C248.236 62.9471 248.308 63.0239 248.399 63.0779C248.49 63.132 248.596 63.1609 248.704 63.1614C248.92 63.1581 249.133 63.1167 249.332 63.0394L251.1 62.4701" fill="#FFF8E1"/>
<path d="M250.578 62.5957L249.209 63.0938C249.036 63.1453 248.875 63.227 248.736 63.3344C248.661 63.3851 248.607 63.4568 248.58 63.5387C248.554 63.6206 248.557 63.7082 248.589 63.7882C248.622 63.8683 248.681 63.9364 248.759 63.9823C248.837 64.0282 248.93 64.0494 249.022 64.0426C249.203 64.0392 249.382 64.0047 249.55 63.941L251.036 63.4632" fill="#FFF8E1"/>
<path d="M251.124 63.4326L249.752 63.9307C249.58 63.9818 249.421 64.0623 249.282 64.1679C249.208 64.2185 249.154 64.2899 249.127 64.3714C249.101 64.4529 249.104 64.5401 249.136 64.6199C249.167 64.6997 249.226 64.7679 249.304 64.8141C249.381 64.8603 249.473 64.8821 249.565 64.8762C249.748 64.8761 249.929 64.8415 250.097 64.7745L251.583 64.2967" fill="#FFF8E1"/>
<path d="M251.584 61.1113C251.246 61.3162 250.874 61.4695 250.483 61.5654C250.112 61.7151 249.719 61.8111 249.316 61.85C249.655 61.6452 250.026 61.4919 250.417 61.396C250.788 61.2463 251.182 61.1503 251.584 61.1113Z" fill="#F6BBBB"/>
<path d="M251.122 62.4568C250.829 62.6619 250.495 62.8095 250.138 62.8905C249.8 63.0235 249.437 63.0938 249.07 63.0972C249.385 62.9267 249.725 62.7999 250.079 62.7211C250.411 62.5856 250.762 62.4965 251.122 62.4568Z" fill="#F6BBBB"/>
<path d="M251.273 63.47C251.291 63.5174 250.961 63.6496 250.539 63.7716C250.29 63.8695 250.02 63.9147 249.75 63.9037C249.75 63.8563 250.062 63.7207 250.484 63.6021C250.732 63.5022 251.002 63.4569 251.273 63.47Z" fill="#F6BBBB"/>
<path d="M236.383 58.0276C235.832 57.4481 233.106 59.4474 232.863 59.5999C232.621 59.7524 232.372 59.4338 232.599 59.3051C232.926 59.1221 236.324 57.116 235.792 56.5433C235.495 56.2248 234.926 56.7704 234.926 56.7704C234.926 56.7704 231.895 58.8612 231.653 58.5833C231.41 58.3054 233.142 57.0177 233.759 56.6213C234.375 56.2248 234.416 55.8046 234.005 55.6996C233.726 55.6284 231.803 56.7941 231.201 57.1973C230.599 57.6006 228.974 58.7358 229.282 57.5735C229.59 56.4112 229.355 55.4115 229.088 55.1811C228.82 54.9507 228.379 55.2116 228.453 55.5776C228.493 55.9794 228.47 56.3845 228.387 56.7805C228.336 57.1017 228.226 57.4124 228.06 57.6989C227.976 57.8446 227.895 57.9733 227.818 58.0987C225.638 59.1932 213.507 65.2792 212.237 65.8485C210.832 66.4754 200.044 63.7645 200.044 63.7645L198.363 69.9928C198.363 69.9928 209.063 73.2289 211.815 73.3814C214.058 73.5068 225.602 65.7231 229.777 62.8496C231.405 62.2647 232.997 61.5996 234.548 60.857C236.232 59.9862 236.151 59.8405 236.016 59.6846C235.649 59.2441 232.992 61.1078 233.307 60.403C233.623 59.6981 236.804 58.4715 236.383 58.0276Z" fill="#FFF8E1"/>
<path d="M197.875 71.1012L207.485 74.151L209.35 65.7167C209.35 65.7167 205.559 64.4596 201.967 63.4531C199.365 62.7246 195.409 63.4531 195.079 65.9472C194.063 68.6852 195.934 70.4167 197.875 71.1012Z" fill="#909090"/>
<path d="M206.883 73.9507C207.012 73.5474 207.111 73.1364 207.18 72.7206C207.349 71.9582 207.602 70.9111 207.914 69.7556C208.226 68.6 208.486 67.5564 208.666 66.7939C208.783 66.3863 208.861 65.9703 208.901 65.5503C208.738 65.943 208.607 66.3462 208.508 66.7566C208.292 67.5089 207.995 68.5492 207.694 69.7081C207.393 70.867 207.165 71.9243 207.037 72.6935C206.94 73.1067 206.888 73.5279 206.883 73.9507Z" fill="#353535"/>
<path d="M195.795 69.9689C195.795 69.9689 195.656 69.7791 195.428 69.4233C195.132 68.917 194.945 68.3622 194.878 67.79C194.766 66.9446 194.939 66.0881 195.373 65.3366C195.914 64.4212 196.795 63.7172 197.854 63.3543C198.403 63.1757 198.981 63.0862 199.563 63.09C200.107 63.0873 200.649 63.1361 201.182 63.2357C202.089 63.4246 202.98 63.6726 203.849 63.9778C204.602 64.2252 205.211 64.4217 205.636 64.5437C205.849 64.6047 206.003 64.6454 206.132 64.6759C206.188 64.695 206.248 64.7053 206.308 64.7064C206.1 64.613 205.886 64.5338 205.666 64.4691L203.904 63.8423C203.034 63.5161 202.137 63.2532 201.222 63.0561C200.085 62.802 198.895 62.8407 197.78 63.1679C196.678 63.5495 195.765 64.2893 195.211 65.2485C194.847 65.9049 194.671 66.6363 194.698 67.3735C194.726 68.1106 194.957 68.829 195.369 69.4606C195.46 69.5969 195.56 69.7271 195.67 69.8503C195.706 69.8944 195.748 69.9342 195.795 69.9689Z" fill="#353535"/>
<path d="M208.083 65.3101C208.134 65.3101 207.598 67.1603 206.883 69.4104C206.167 71.6604 205.547 73.4767 205.496 73.4767C205.444 73.4767 205.984 71.6265 206.699 69.3765C207.415 67.1264 208.035 65.2966 208.083 65.3101Z" fill="white"/>
<path d="M207.168 65.0826C207.216 65.0826 206.651 66.9023 205.906 69.115C205.161 71.3278 204.508 73.1068 204.46 73.0933C204.412 73.0797 204.974 71.2736 205.722 69.0608C206.471 66.8481 207.117 65.069 207.168 65.0826Z" fill="white"/>
<path d="M63.2253 71.7279C51.6922 73.9542 39.9059 73.8288 25.7969 72.2091L32.2698 47.5027C45.8468 49.0242 55.7543 49.3766 68.2305 47.7806L63.2253 71.7279Z" fill="#D9D9D9"/>
<path d="M54.6241 56.0113C54.6241 56.0113 54.6241 56.0893 54.5838 56.2417C54.5434 56.3942 54.503 56.6247 54.4443 56.9195C54.3122 57.5125 54.1251 58.3698 53.8829 59.4575L51.8243 68.6068V68.6644H51.7583L47.5054 68.6983H47.4026L47.421 68.6034C47.8356 66.4313 48.2943 64.0457 48.7714 61.5517C48.7867 61.1454 48.6925 60.7419 48.4971 60.3775C48.3018 60.0132 48.0114 59.6994 47.6522 59.4643C46.8403 59.052 45.8968 58.9176 44.9881 59.0848C44.4806 59.1712 44.0011 59.3636 43.5864 59.6473C43.1804 59.9345 42.841 60.294 42.5883 60.7046C42.4624 60.9076 42.3567 61.1208 42.2727 61.3416C42.1883 61.5585 42.1443 61.7923 42.0819 62.0193L41.7407 63.3748C41.2893 65.1843 40.849 66.9294 40.4343 68.5933V68.6542H40.3646H35.1613H35.0586L35.0843 68.5628C36.1851 64.7336 37.0878 61.5585 37.7263 59.3288L38.4602 56.7568C38.5446 56.4688 38.6143 56.2451 38.662 56.0791C38.7097 55.913 38.7391 55.8521 38.7391 55.8521C38.7391 55.8521 38.7391 55.93 38.684 56.0859C38.629 56.2417 38.5813 56.4756 38.5042 56.7636L37.7997 59.3423C37.1759 61.5754 36.2879 64.7641 35.2311 68.5933L35.154 68.4984H40.3573L40.2692 68.5628C40.6839 66.8989 41.1169 65.1538 41.5645 63.3409C41.6783 62.8902 41.792 62.4327 41.9058 61.9854C41.9577 61.7499 42.0226 61.5169 42.1003 61.2874C42.1893 61.0532 42.2997 60.8265 42.4305 60.6097C42.6938 60.1775 43.0496 59.7993 43.4763 59.4982C43.9108 59.2 44.4125 58.9962 44.9441 58.9018C45.8996 58.7237 46.8926 58.8667 47.7439 59.3051C48.1477 59.5479 48.4695 59.8908 48.6723 60.2945C48.8695 60.6884 48.9697 61.1178 48.9658 61.5517L47.5898 68.6136L47.5054 68.5221L51.7583 68.5018L51.6812 68.5594C52.5656 64.7709 53.2958 61.6364 53.8058 59.4406C54.0627 58.3562 54.2682 57.5023 54.4076 56.9093C54.4761 56.6247 54.5312 56.3988 54.5728 56.2316C54.6241 56.0757 54.6241 56.0113 54.6241 56.0113Z" fill="#353535"/>
<path d="M38.3207 55.9436C38.3498 55.9393 38.3796 55.9393 38.4087 55.9436H38.6656L39.66 55.9267L43.3295 55.8996L48.8336 55.8792C50.9069 55.8792 53.1966 55.8623 55.6148 55.8792L55.5708 56.0453L54.3011 55.4489L47.2778 52.1314H47.3512L40.1921 55.0592L38.1519 55.8725L37.6088 56.0826C37.5467 56.1078 37.483 56.1293 37.418 56.1469C37.4743 56.1116 37.5345 56.0821 37.5978 56.0588L38.1298 55.825L40.1517 54.9711L47.2778 51.9891L47.3145 51.9722L47.3512 51.9891L54.3635 55.2862L55.6332 55.886L56.0001 56.0588H55.5928C53.1746 56.025 50.8849 56.0351 48.8116 56.0283L43.3074 56.008L39.638 55.9809H38.6436H38.3867L38.3207 55.9436Z" fill="#353535"/>
<path d="M54.6198 56.0114C54.6965 55.9928 54.7753 55.9826 54.8546 55.9809L55.5298 55.9301L58.003 55.781H58.0984L58.0764 55.8657L56.5719 62.1347L54.9867 68.6137V68.6645H54.9317L52.6015 68.6137L51.9741 68.59C51.9 68.5917 51.8261 68.5849 51.7539 68.5696C51.8272 68.5639 51.9008 68.5639 51.9741 68.5696H52.6015H54.9096L54.8436 68.6205C55.2472 66.9262 55.794 64.649 56.3958 62.138C56.9939 59.7254 57.5406 57.5295 57.9516 55.8759L58.0213 55.9572L55.5445 56.0487H54.8693C54.7846 56.0468 54.7007 56.0343 54.6198 56.0114Z" fill="#353535"/>
<path d="M58.3835 55.8488C58.2317 55.8057 58.0853 55.7477 57.9468 55.676L56.7836 55.1507C55.8075 54.7001 54.4608 54.0664 52.982 53.3582L50.4464 52.1315H50.4831C49.5364 52.1315 48.7438 52.1315 48.1897 52.101C47.8977 52.1069 47.6057 52.0911 47.3164 52.0536C47.6059 52.0185 47.8978 52.0038 48.1897 52.0095C48.7438 52.0095 49.5364 51.9858 50.4831 51.979H50.5052H50.5235L53.0701 53.1887C54.5379 53.897 55.8846 54.5442 56.846 55.0254L57.9798 55.6014C58.1247 55.6685 58.2602 55.7516 58.3835 55.8488Z" fill="#353535"/>
<path d="M55.9077 65.0451C55.9077 65.0925 54.1904 65.123 52.0731 65.1095C50.7949 65.132 49.5163 65.0946 48.2422 64.9977C48.2422 64.9502 49.9595 64.9197 52.0768 64.9333C53.355 64.9109 54.6336 64.9483 55.9077 65.0451Z" fill="#353535"/>
<path d="M56.6198 61.5584C55.328 61.6451 54.0322 61.6711 52.7375 61.6364C50.5909 61.6364 48.8516 61.5889 48.8516 61.5415C48.8516 61.4941 50.5909 61.4568 52.7375 61.4602C54.8841 61.4636 56.6198 61.4974 56.6198 61.5584Z" fill="#353535"/>
<path d="M44.4996 65.035C44.4996 65.0824 42.6282 65.1129 40.3201 65.0994C38.012 65.0858 36.1406 65.035 36.1406 64.9875C36.1406 64.9401 38.012 64.9096 40.3201 64.9232C42.6282 64.9367 44.5033 64.9842 44.4996 65.035Z" fill="#353535"/>
<path d="M45.326 61.5484C45.326 61.5993 43.4582 61.6332 41.1538 61.6298C38.8494 61.6264 37 61.5789 37 61.5315C37 61.4841 38.8678 61.4468 41.1722 61.4502C43.4766 61.4536 45.326 61.4976 45.326 61.5484Z" fill="#353535"/>
<path d="M47.7996 59.4643C47.7511 59.4791 47.7002 59.486 47.6492 59.4847H47.4694C47.3996 59.4847 47.3189 59.5118 47.2272 59.5253C47.0105 59.5721 46.8036 59.651 46.6144 59.7591C46.3702 59.9102 46.1577 60.1008 45.9869 60.3217C45.7829 60.5934 45.6234 60.8914 45.5135 61.2061C45.3924 61.5449 45.3301 61.9279 45.231 62.3277C45.0402 63.1274 44.8347 64.0051 44.6182 64.9268C44.2879 66.2822 43.9834 67.536 43.7265 68.5967V68.6543H43.6605L41.246 68.6238L40.5708 68.6034C40.4917 68.6056 40.4126 68.5977 40.3359 68.5797C40.4131 68.5643 40.4919 68.5575 40.5708 68.5594L41.246 68.539L43.6605 68.5052L43.5834 68.5628C43.8329 67.5021 44.1265 66.2416 44.4457 64.8895C44.6659 63.9712 44.8787 63.0935 45.0732 62.2938C45.1796 61.8974 45.242 61.5111 45.3778 61.1586C45.4992 60.8323 45.6737 60.525 45.8952 60.2471C46.0806 60.0186 46.3109 59.8243 46.574 59.6744C46.7759 59.5665 46.9971 59.493 47.2272 59.4576C47.3111 59.4456 47.3956 59.4377 47.4804 59.4338H47.6638C47.7101 59.4398 47.7556 59.45 47.7996 59.4643Z" fill="#353535"/>
<path d="M61.8985 52.0601C61.9499 52.0601 61.0362 55.8079 59.8583 60.3995C58.6804 64.991 57.6823 68.7084 57.631 68.6982C57.5796 68.688 58.4933 64.9538 59.6712 60.3588C60.8491 55.7638 61.8472 52.0499 61.8985 52.0601Z" fill="#353535"/>
<path d="M60.8541 68.7217C59.8528 68.7909 58.8477 68.8 57.8451 68.7488C56.8409 68.7549 55.8373 68.704 54.8398 68.5964C55.8413 68.5296 56.8463 68.5217 57.8488 68.5726C58.8529 68.5646 59.8567 68.6144 60.8541 68.7217Z" fill="#353535"/>
<path d="M58.1335 69.2069C58.0858 69.2306 57.917 68.9968 57.7005 68.7223C57.484 68.4479 57.2932 68.2276 57.3336 68.1903C57.3739 68.1531 57.6271 68.3259 57.8583 68.6173C58.0895 68.9087 58.1812 69.1866 58.1335 69.2069Z" fill="#353535"/>
<path d="M62.4616 61.4976C61.4987 61.59 60.5304 61.6239 59.5627 61.5993C58.5945 61.634 57.625 61.6102 56.6602 61.5281C57.6241 61.4337 58.5937 61.3986 59.5627 61.4231C60.5297 61.3904 61.498 61.4153 62.4616 61.4976Z" fill="#353535"/>
<path d="M59.9013 61.2129C59.9343 61.2502 59.7545 61.4332 59.4976 61.6195C59.2408 61.8059 59.0096 61.9245 58.9766 61.8838C58.9435 61.8432 59.1233 61.667 59.3802 61.4806C59.6371 61.2942 59.8682 61.1756 59.9013 61.2129Z" fill="#353535"/>
<path d="M63.3076 56.1571C62.3968 56.2067 61.4834 56.1987 60.5738 56.1334C59.6599 56.1249 58.7477 56.0581 57.8438 55.9334C58.7557 55.8839 59.6703 55.8918 60.5812 55.9571C61.494 55.9634 62.4051 56.0302 63.3076 56.1571Z" fill="#353535"/>
<path d="M61.6497 55.7537C61.6753 55.7977 61.4478 55.9468 61.1433 56.0925C60.8387 56.2382 60.5745 56.3094 60.5488 56.2653C60.5231 56.2213 60.7543 56.0722 61.0552 55.9265C61.3561 55.7808 61.6276 55.7096 61.6497 55.7537Z" fill="#353535"/>
<path d="M63.1337 52.4297C63.1337 52.4771 60.3009 52.4297 56.8112 52.3348C53.3216 52.2399 50.4961 52.1111 50.4961 52.0603C50.4961 52.0095 53.3289 52.0603 56.8186 52.1586C60.3082 52.2568 63.1337 52.3822 63.1337 52.4297Z" fill="#353535"/>
<path d="M62.6895 51.9414C62.7189 51.9821 62.3923 52.2328 61.9557 52.5039C61.7088 52.691 61.4245 52.8315 61.119 52.9173C61.0897 52.8767 61.4162 52.6259 61.8529 52.3548C62.1002 52.1684 62.3844 52.028 62.6895 51.9414Z" fill="#353535"/>
<path d="M34.8854 59.8403C33.6781 57.9563 33.3295 55.4351 33.025 53.2732C32.8819 52.2566 32.6287 50.7961 33.3919 50.1557C34.2286 49.4779 34.3056 48.4173 35.267 47.8887C35.742 47.615 36.2918 47.4725 36.8515 47.4779C37.4113 47.4833 37.9578 47.6364 38.4264 47.9192" fill="#353535"/>
<path d="M42.1384 54.6016C41.9413 54.3357 41.6418 54.1491 41.3009 54.0799C40.9601 54.0106 40.6035 54.0639 40.3037 54.2289C40.0007 54.422 39.7817 54.7081 39.6856 55.0364C39.5895 55.3646 39.6226 55.7136 39.779 56.0214C39.9167 56.2498 40.1043 56.4493 40.3297 56.6074C40.5552 56.7655 40.8137 56.8786 41.089 56.9398C41.3344 56.9886 41.5517 57.1193 41.6993 57.3069C41.8469 57.4944 41.9144 57.7257 41.8889 57.9563C41.8118 58.5765 40.6927 58.8035 40.1899 59.3118C39.401 60.1081 37.68 60.4402 36.5205 60.5656C35.3609 60.6909 35.5187 60.6977 34.8582 59.8302C34.414 59.2435 34.1874 58.5397 34.2124 57.8242C34.1806 56.0034 34.1464 54.1837 34.1097 52.3651C34.0658 51.7083 34.1127 51.049 34.2491 50.4031C34.3896 49.7521 34.7921 49.1745 35.3756 48.7867C36.0251 48.3937 36.8434 48.3632 37.5773 48.1429C38.502 47.8684 39.2909 47.3025 40.1459 46.8959C41.0009 46.4893 42.076 46.2487 42.9457 46.6553C43.5695 46.9433 43.9878 47.5228 44.5933 47.8413C45.4556 48.2988 46.6335 48.1971 47.0482 49.373C47.1889 49.7829 47.1824 50.2239 47.0298 50.6301C46.439 52.2228 44.2961 52.8632 42.7549 52.1686C42.7219 52.4397 43.0081 53.0395 42.6999 53.8934C42.5971 54.1679 42.5641 54.5711 42.1017 54.5914" fill="#353535"/>
<path d="M33.9716 52.9613C33.7477 52.5478 33.4254 52.1864 33.0289 51.9042C32.6324 51.6219 32.1719 51.4261 31.6819 51.3314C31.1907 51.2468 30.6839 51.2852 30.2142 51.4425C29.7444 51.5998 29.3288 51.8703 29.0105 52.226C28.7054 52.5912 28.5295 53.0342 28.5065 53.495C28.4835 53.9557 28.6146 54.4118 28.8821 54.8014C29.5279 55.6722 30.7645 55.9467 31.8947 56.0856C31.4796 56.5222 30.9729 56.8765 30.4053 57.1269C29.8376 57.3774 29.2208 57.5188 28.5922 57.5427C29.0409 57.8178 29.5615 57.9762 30.0994 58.0012C30.6373 58.0263 31.1725 57.9171 31.6489 57.6851L29.8141 59.1286C30.7402 59.3425 31.718 59.2516 32.5793 58.8713C33.4405 58.4911 34.1312 57.8454 34.5323 57.0455C34.9335 56.2456 35.02 55.3415 34.777 54.489C34.534 53.6365 33.9767 52.889 33.201 52.3751" fill="#353535"/>
<path d="M32.2736 55.9811C32.5789 56.0016 32.885 55.9527 33.1652 55.8388C33.489 55.6804 33.7667 55.4524 33.9749 55.174C34.1831 54.8956 34.3157 54.575 34.3615 54.2393C34.4145 53.9033 34.3853 53.5605 34.2761 53.2363C34.1669 52.912 33.9804 52.6144 33.7303 52.3654C33.5114 52.1637 33.2718 51.9821 33.0148 51.8232C33.0148 51.8232 33.1102 51.8232 33.257 51.9012C33.4668 51.9982 33.6587 52.1251 33.8257 52.2773C34.1123 52.5292 34.3286 52.8413 34.4564 53.1871C34.5842 53.5328 34.6196 53.9019 34.5596 54.263C34.5132 54.6267 34.3668 54.9733 34.1343 55.2699C33.9017 55.5664 33.5909 55.8031 33.2313 55.9574C33.0105 56.0447 32.7696 56.0797 32.5304 56.059C32.3543 56.0319 32.2699 55.9912 32.2736 55.9811Z" fill="#E43434"/>
<path d="M28.4121 53.4897C28.3901 53.4897 28.5515 53.1509 29.113 52.9035C29.8402 52.65 30.6339 52.6075 31.388 52.7815C32.1447 52.9232 32.8555 53.2248 33.4649 53.6626C33.6481 53.7934 33.8188 53.9385 33.975 54.0963C34.0814 54.2115 34.1328 54.2793 34.1254 54.2861C34.1181 54.2929 33.8576 54.0624 33.3915 53.7642C32.7796 53.371 32.0883 53.0956 31.3587 52.9543C30.6324 52.7881 29.8705 52.8104 29.157 53.0187C28.8761 53.1265 28.6225 53.2869 28.4121 53.4897Z" fill="#909090"/>
<path d="M29.2109 55.147C29.2109 55.1199 29.4641 55.1741 29.8641 55.1809C30.3866 55.1934 30.9053 55.0948 31.3799 54.8926C31.8546 54.6905 32.2725 54.3903 32.6015 54.0152C32.8547 53.7272 32.9685 53.5205 32.9978 53.5306C32.954 53.7367 32.8542 53.929 32.7079 54.0898C32.393 54.5051 31.9648 54.836 31.4666 55.0491C30.9684 55.2622 30.4181 55.3497 29.8714 55.3029C29.6404 55.3046 29.4128 55.2508 29.2109 55.147Z" fill="#909090"/>
<path d="M33.2773 58.4712C33.2773 58.4475 33.5269 58.295 33.8681 57.9629C34.319 57.5369 34.6417 57.0096 34.8045 56.4332C34.9673 55.8568 34.9646 55.2511 34.7965 54.676C34.6717 54.2321 34.5176 53.9813 34.547 53.9644C34.7244 54.161 34.8501 54.393 34.9139 54.6421C35.1253 55.2361 35.1471 55.8737 34.9766 56.4788C34.8061 57.0839 34.4506 57.6309 33.9525 58.0544C33.764 58.2382 33.5333 58.3806 33.2773 58.4712Z" fill="#909090"/>
<path d="M38.911 48.6885C38.5919 48.471 38.2139 48.3395 37.8188 48.3084C37.4237 48.2773 37.027 48.3478 36.6726 48.5123C36.224 48.7244 35.8442 49.0424 35.5718 49.434C35.0978 50.1707 34.8035 50.9941 34.7095 51.8467C34.6728 52.2053 34.6015 52.5603 34.4967 52.9073C34.4918 52.5468 34.5176 52.1865 34.5737 51.8297C34.6347 50.9484 34.9228 50.0934 35.414 49.3357C35.7029 48.9168 36.1119 48.5801 36.5956 48.3632C36.9948 48.1947 37.4374 48.1336 37.8726 48.1869C38.165 48.2223 38.4435 48.3236 38.6835 48.4818C38.8413 48.5936 38.9184 48.6851 38.911 48.6885Z" fill="#909090"/>
<path d="M46.4327 51.2337C46.5455 51.1848 46.6536 51.127 46.7556 51.0609C46.8847 50.9674 46.9823 50.8419 47.0369 50.6991C47.0915 50.5562 47.1008 50.402 47.0638 50.2544C47.0099 50.0577 46.8792 49.8864 46.6969 49.7732C46.4625 49.6674 46.1997 49.6274 45.941 49.658C45.7755 49.668 45.6094 49.6612 45.4456 49.6376C45.2786 49.6069 45.1216 49.5408 44.9869 49.4445C44.7379 49.2389 44.5106 49.012 44.3081 48.7668C43.8857 48.3511 43.3432 48.056 42.7449 47.9162C42.2561 47.7929 41.7444 47.7675 41.2441 47.8417C40.7882 47.9268 40.349 48.0753 39.9414 48.2822C40.0299 48.1941 40.1341 48.1207 40.2496 48.0653C40.555 47.9006 40.889 47.786 41.2367 47.7265C41.7554 47.6298 42.291 47.6426 42.8036 47.7637C43.4394 47.9036 44.0163 48.2136 44.4622 48.6549C44.6602 48.889 44.8787 49.1078 45.1153 49.3089C45.3504 49.4609 45.6375 49.5284 45.9226 49.4987C46.2145 49.4716 46.5085 49.5259 46.7666 49.6546C46.8757 49.7198 46.9698 49.8042 47.0435 49.9031C47.1171 50.0019 47.1689 50.1133 47.1959 50.2307C47.2441 50.4236 47.2141 50.6261 47.1115 50.7999C47.0409 50.9348 46.9349 51.0513 46.8033 51.1388C46.7228 51.1912 46.6317 51.2281 46.5354 51.2472C46.4657 51.2405 46.4327 51.2405 46.4327 51.2337Z" fill="#909090"/>
<path d="M39.2538 58.0847C39.1151 58.0639 38.9827 58.0165 38.8648 57.9458C38.4383 57.7238 38.108 57.3724 37.9301 56.9512C37.7522 56.5299 37.7376 56.0648 37.8888 55.6348C37.9895 55.3291 38.1682 55.0502 38.4098 54.8215C38.6711 54.5874 38.9662 54.3878 39.2868 54.2285C39.6061 54.0591 39.918 53.8896 40.2005 53.7338C40.4685 53.5712 40.7064 53.3698 40.9051 53.1374C41.2411 52.7367 41.4597 52.2629 41.5399 51.7616C41.6012 51.2942 41.565 50.8203 41.4335 50.3655C41.4335 50.3655 41.4592 50.3926 41.4885 50.4536C41.5322 50.5407 41.5666 50.6315 41.5913 50.7247C41.6948 51.0673 41.7235 51.4256 41.6756 51.7785C41.6099 52.3076 41.392 52.8107 41.0445 53.2356C40.8401 53.4853 40.5921 53.7017 40.3106 53.8761C40.0207 54.0591 39.7015 54.2149 39.3896 54.381C39.0837 54.5333 38.8011 54.7224 38.5493 54.9435C38.3269 55.1529 38.1599 55.4068 38.0612 55.6856C37.9765 55.9227 37.9436 56.173 37.9644 56.422C37.9852 56.6709 38.0593 56.9136 38.1823 57.1359C38.3543 57.4398 38.6068 57.6986 38.9162 57.8882C39.1217 58.0238 39.2611 58.0678 39.2538 58.0847Z" fill="#909090"/>
<path d="M34.625 54.449C34.625 54.4118 35.1277 54.5033 35.9203 54.4253C36.9543 54.33 37.9466 53.9994 38.8082 53.463C39.6881 52.9547 40.3684 52.1993 40.7493 51.3078C40.8786 50.9312 40.8926 50.529 40.7897 50.1455C40.8574 50.237 40.9025 50.3411 40.9218 50.4505C40.9855 50.7476 40.9704 51.0545 40.8778 51.3451C40.6686 52.0872 39.9494 52.9648 38.9146 53.6087C38.0305 54.1651 36.9994 54.4895 35.9313 54.5473C35.6107 54.5669 35.2887 54.5578 34.9699 54.5202C34.8518 54.5125 34.7355 54.4885 34.625 54.449Z" fill="#909090"/>
<path d="M56.4201 142.824L56.3944 142.228L49.8555 142.4L49.9105 144.369H50.3178C52.1159 144.41 59.4694 144.471 60.662 144.129C61.9867 143.742 56.4201 142.824 56.4201 142.824Z" fill="#E43434"/>
<g opacity="0.6">
<path d="M52.2707 144.252C52.1532 143.774 51.842 143.356 51.401 143.083C50.9529 142.797 50.4096 142.666 49.8672 142.713L49.9149 144.276L52.2707 144.252Z" fill="#FAFAFA"/>
</g>
<g opacity="0.6">
<path d="M59.1542 143.349C59.1542 143.349 61.11 143.78 60.8789 144.061C60.6477 144.342 53.2097 144.522 49.9219 144.356V144.23L58.5965 144.081C58.5965 144.081 58.7763 143.37 59.1542 143.349Z" fill="#FAFAFA"/>
</g>
<path d="M49.8125 144.227H49.9263H50.2492L51.4307 144.244C52.4325 144.244 53.8159 144.244 55.3424 144.207C56.8689 144.169 58.2486 144.112 59.2467 144.058L60.4282 143.986L60.7511 143.963H60.4282L59.243 144.01C58.2449 144.051 56.8652 144.102 55.3387 144.139C53.8122 144.176 52.4325 144.19 51.4307 144.196H50.2492H49.9263L49.8125 144.227Z" fill="#353535"/>
<path d="M58.5907 144.18C58.6398 144.01 58.7087 143.845 58.7962 143.688C58.9092 143.543 59.0397 143.41 59.1852 143.292C58.9904 143.359 58.8278 143.487 58.7265 143.655C58.6093 143.807 58.5607 143.995 58.5907 144.18Z" fill="#353535"/>
<path d="M56.6517 143.38C56.6701 143.38 56.7584 143.292 56.8504 143.159C56.9424 143.027 57.0013 142.915 56.9829 142.905C56.9645 142.895 56.8725 142.993 56.7842 143.126C56.6958 143.258 56.6333 143.37 56.6517 143.38Z" fill="#353535"/>
<path d="M56.1139 143.163C56.1139 143.163 56.2317 143.116 56.3421 143.024C56.4525 142.933 56.5261 142.855 56.5114 142.841C56.4967 142.828 56.3973 142.889 56.2869 142.977C56.1764 143.065 56.0881 143.139 56.1139 143.163Z" fill="#353535"/>
<path d="M55.7617 142.635C55.8723 142.665 55.9884 142.674 56.103 142.662C56.2171 142.67 56.3317 142.657 56.4406 142.624C56.2172 142.577 55.9851 142.577 55.7617 142.624V142.635Z" fill="#353535"/>
<path d="M55.6367 142.265C55.7489 142.323 55.8754 142.352 56.0037 142.351C56.1375 142.368 56.2737 142.349 56.3963 142.296C56.2669 142.286 56.1367 142.286 56.0073 142.296C55.885 142.276 55.761 142.265 55.6367 142.265Z" fill="#353535"/>
<path d="M56.8516 142.886C56.9902 142.905 57.1313 142.905 57.2699 142.886C57.4192 142.865 57.5665 142.833 57.7102 142.791C57.798 142.766 57.8829 142.733 57.9634 142.692C57.9874 142.68 58.0085 142.664 58.0255 142.644C58.0425 142.624 58.0551 142.602 58.0625 142.577C58.0685 142.55 58.0654 142.522 58.0536 142.496C58.0418 142.471 58.0219 142.45 57.9964 142.435C57.8351 142.372 57.6558 142.358 57.4856 142.398C57.3155 142.437 57.1637 142.526 57.0534 142.652C56.9905 142.723 56.9465 142.806 56.925 142.896C56.9162 142.928 56.9162 142.962 56.925 142.994C56.9631 142.881 57.0241 142.775 57.1048 142.682C57.2015 142.58 57.3293 142.507 57.4717 142.472C57.6348 142.422 57.8121 142.428 57.9707 142.489C58.0368 142.53 58.0148 142.598 57.9414 142.638C57.8677 142.676 57.7903 142.706 57.7102 142.73C57.5699 142.775 57.4264 142.811 57.2809 142.838C57.0093 142.872 56.8516 142.875 56.8516 142.886Z" fill="#353535"/>
<path d="M56.9625 142.902C57.0076 142.826 57.0207 142.736 56.9992 142.652C56.9847 142.556 56.9429 142.466 56.8781 142.391C56.838 142.335 56.7833 142.29 56.719 142.26C56.6548 142.23 56.5832 142.215 56.5112 142.218C56.4912 142.221 56.4722 142.228 56.4552 142.238C56.4383 142.248 56.4237 142.262 56.4124 142.277C56.4011 142.293 56.3933 142.31 56.3894 142.328C56.3856 142.347 56.3858 142.366 56.3901 142.384C56.4003 142.442 56.4268 142.497 56.4671 142.543C56.5239 142.622 56.5918 142.694 56.669 142.757C56.7372 142.821 56.8217 142.869 56.9148 142.896C56.9148 142.896 56.8304 142.835 56.7093 142.723C56.6402 142.659 56.5787 142.588 56.5258 142.513C56.4671 142.438 56.4231 142.303 56.5258 142.282C56.5808 142.287 56.6341 142.302 56.6821 142.328C56.7302 142.353 56.772 142.387 56.8047 142.428C56.8649 142.495 56.9076 142.574 56.9295 142.658C56.9475 142.739 56.9585 142.82 56.9625 142.902Z" fill="#353535"/>
<path d="M49.8945 142.695C49.8945 142.695 50.078 142.675 50.3752 142.695C50.7548 142.72 51.1205 142.837 51.4357 143.034C51.7373 143.23 51.9737 143.5 52.1182 143.814C52.2246 144.051 52.2393 144.214 52.254 144.21C52.2687 144.207 52.254 144.169 52.254 144.098C52.2401 143.995 52.213 143.894 52.1733 143.797C52.0405 143.466 51.801 143.181 51.4871 142.98C51.1618 142.774 50.7803 142.657 50.3862 142.641C50.2636 142.634 50.1406 142.64 50.0193 142.658C49.9755 142.663 49.9332 142.676 49.8945 142.695Z" fill="#353535"/>
<path d="M53.0703 143.688C53.7014 143.776 54.3437 143.766 54.9711 143.658C54.9711 143.637 54.5454 143.658 54.0207 143.678C53.496 143.699 53.0703 143.668 53.0703 143.688Z" fill="#353535"/>
<path d="M51.793 143.715C51.793 143.715 51.8298 143.793 51.8776 143.875C51.9255 143.956 51.9475 144.03 51.9733 144.03C51.9991 144.03 52.0028 143.942 51.9476 143.847C51.8923 143.753 51.8077 143.702 51.793 143.715Z" fill="#353535"/>
<path d="M51.3164 143.214C51.3164 143.214 51.3456 143.285 51.415 143.342C51.4844 143.399 51.5538 143.433 51.5685 143.419C51.5831 143.406 51.5392 143.348 51.4698 143.291C51.4004 143.234 51.3164 143.2 51.3164 143.214Z" fill="#353535"/>
<path d="M50.6098 142.997C50.6098 143.014 50.7018 143.014 50.7975 143.038C50.8932 143.062 50.9631 143.11 50.9815 143.096C50.9999 143.083 50.941 143.008 50.8196 142.973C50.6981 142.939 50.6024 142.98 50.6098 142.997Z" fill="#353535"/>
<path d="M50.1133 142.899C50.1133 142.899 50.1463 142.943 50.1977 142.96C50.2492 142.977 50.3042 142.977 50.3116 142.96C50.3189 142.943 50.2822 142.916 50.2271 142.899C50.172 142.882 50.1206 142.878 50.1133 142.899Z" fill="#353535"/>
<path d="M26.0351 140.398L25.0664 144.329H31.609L31.8879 141.77L26.0351 140.398Z" fill="#E43434"/>
<path d="M31.7486 143.76C31.4343 143.805 31.116 143.822 30.7982 143.81C30.2074 143.81 29.3928 143.81 28.4975 143.77L26.2004 143.678C25.882 143.682 25.5639 143.66 25.25 143.611C25.5653 143.564 25.8851 143.548 26.2041 143.563C26.7948 143.563 27.6058 143.563 28.5048 143.604L30.7982 143.692C31.1166 143.688 31.4347 143.711 31.7486 143.76Z" fill="#353535"/>
<path d="M28.9846 141.164C29.0454 141.587 29.0454 142.015 28.9846 142.438C28.9819 142.864 28.9213 143.287 28.8043 143.699C28.7423 143.276 28.7423 142.847 28.8043 142.425C28.8037 141.999 28.8644 141.575 28.9846 141.164Z" fill="#353535"/>
<g opacity="0.6">
<path d="M25.0664 144.328H31.609L31.6714 143.758L25.1838 143.609L25.0664 144.26" fill="#FAFAFA"/>
</g>
<path d="M31.177 84.4619C31.177 84.4619 27.1883 90.619 27.1883 94.2889L24.4766 133.888L35.2868 135.03L37.9141 96.2441C37.9141 96.2441 46.7538 135.606 47.1281 135.606C47.5024 135.606 56.9733 135.03 56.9733 135.03L46.7538 84.6585L31.177 84.4619Z" fill="#430909"/>
<path d="M54.9867 135.074C54.9354 135.074 52.7447 123.807 50.0917 109.887C47.4387 95.9663 45.3214 84.6755 45.3801 84.6687C45.4388 84.6619 47.6258 95.9358 50.2788 109.856C52.9318 123.777 55.0344 135.068 54.9867 135.074Z" fill="#D9D9D9"/>
<path d="M51.7957 135.616C51.7443 135.616 49.594 124.224 46.963 110.158C44.332 96.0916 42.2624 84.6754 42.3175 84.6686C42.3725 84.6618 44.5192 96.0577 47.1502 110.127C49.7812 124.197 51.8471 135.606 51.7957 135.616Z" fill="#D9D9D9"/>
<path d="M48.9203 135.522C48.8689 135.522 46.4324 124.089 43.4785 109.972C40.5246 95.8547 38.1725 84.3944 38.2275 84.3843C38.2826 84.3741 40.7117 95.8141 43.6656 109.938C46.6196 124.062 48.9717 135.512 48.9203 135.522Z" fill="#D9D9D9"/>
<path d="M33.8551 134.888C33.8001 134.888 34.3909 123.608 35.1688 109.707C35.9467 95.8073 36.6366 84.53 36.6733 84.53C36.71 84.53 36.1375 95.8073 35.3596 109.714C34.5817 123.621 33.9065 134.888 33.8551 134.888Z" fill="#D9D9D9"/>
<path d="M34.2192 84.4619C34.2192 84.4619 34.2192 84.5026 34.1605 84.5805L33.9844 84.9194C33.8376 85.2244 33.6174 85.6784 33.3862 86.2748C32.7108 87.9598 32.2742 89.7184 32.0872 91.5068C31.7203 96.0476 31.3974 102.35 30.9864 109.277C30.5754 116.203 30.2268 122.492 29.9663 127.057C29.8305 129.324 29.7204 131.16 29.6434 132.441L29.548 133.909L29.5186 134.288C29.524 134.331 29.524 134.374 29.5186 134.417C29.5146 134.374 29.5146 134.331 29.5186 134.288V133.905L29.581 132.438L29.8415 127.05C30.0727 122.499 30.4066 116.206 30.8066 109.267C31.2066 102.327 31.5625 96.051 31.9588 91.4933C32.1622 89.6992 32.625 87.9384 33.3349 86.2579C33.5844 85.6615 33.8082 85.2108 33.9697 84.9024C34.0504 84.7533 34.1165 84.6415 34.1605 84.5636C34.1774 84.5284 34.197 84.4944 34.2192 84.4619Z" fill="#D9D9D9"/>
<path d="M31.6377 84.3843C31.6283 84.4269 31.6122 84.468 31.59 84.5063C31.5533 84.5944 31.5019 84.713 31.4358 84.8451C31.2964 85.1535 31.0689 85.6042 30.8487 86.2006C30.1728 87.8767 29.6643 89.6065 29.3296 91.3682C29.1167 92.4831 28.9406 93.7131 28.8122 95.0381C28.6837 96.363 28.6104 97.7863 28.537 99.284C28.4159 102.283 28.1187 105.57 27.8545 109.02C27.3004 115.922 26.7976 122.167 26.4307 126.698C26.2399 128.951 26.0858 130.764 25.9794 132.052L25.8436 133.509L25.8069 133.885C25.8041 133.929 25.7967 133.972 25.7849 134.014C25.78 133.971 25.78 133.928 25.7849 133.885L25.8069 133.506C25.8289 133.167 25.8619 132.672 25.9023 132.049C25.9977 130.771 26.1298 128.945 26.2949 126.688C26.6619 122.157 27.1316 115.909 27.6636 109.009C27.9278 105.556 28.2324 102.273 28.3608 99.2772C28.4379 97.7795 28.5223 96.3563 28.6544 95.0245C28.7865 93.6928 28.9736 92.4627 29.1938 91.3445C29.5415 89.5845 30.0686 87.8588 30.768 86.1904C31.0065 85.594 31.2377 85.1501 31.3881 84.835L31.5606 84.4961C31.5823 84.4566 31.6081 84.4191 31.6377 84.3843Z" fill="#D9D9D9"/>
<path d="M42.3107 97.2475C42.3107 97.2949 40.1971 96.8612 37.6175 96.2784C35.0379 95.6955 32.9609 95.1872 32.9609 95.1398C32.9609 95.0923 35.0709 95.5261 37.6505 96.1089C40.2301 96.6918 42.3217 97.2001 42.3107 97.2475Z" fill="#909090"/>
<path d="M31.177 84.4619L33.0411 79.4569L31.7458 73.3981L30.733 76.0683L24.4766 73.9471C24.4766 73.9471 28.513 66.465 28.7331 66.0719C30.5679 62.48 35.518 62.48 35.518 62.48L41.8001 62.6325C42.7978 62.5723 43.7977 62.7139 44.73 63.0475C45.6623 63.3811 46.5045 63.8987 47.1978 64.564C48.9959 66.238 52.8488 73.9403 52.8488 73.9403L47.1978 76.6851L45.1796 73.2016L45.5466 77.966L46.8492 85.2244L31.177 84.4619Z" fill="#E43434"/>
<path d="M44.3066 64.2085C44.3066 64.2254 44.1304 64.2322 43.8442 64.3406C43.4456 64.508 43.1116 64.7833 42.8865 65.1302C42.5492 65.6429 42.412 66.2467 42.4975 66.8414C42.6143 67.5723 42.8623 68.2801 43.2314 68.9356C43.9653 70.3757 44.6038 71.6905 45.0661 72.6427L45.6019 73.7745C45.6732 73.9106 45.7309 74.0524 45.7743 74.1981C45.6783 74.0744 45.5971 73.9415 45.5322 73.8016L44.9451 72.6936C44.4497 71.7549 43.7892 70.4537 43.059 69.0101C42.6834 68.3367 42.4352 67.609 42.3251 66.8584C42.2446 66.2305 42.4042 65.5964 42.7764 65.0658C43.0233 64.705 43.3903 64.428 43.8222 64.2762C43.9403 64.2369 44.0638 64.2129 44.1891 64.2051C44.2625 64.2085 44.3066 64.2085 44.3066 64.2085Z" fill="#353535"/>
<path d="M33.1063 79.7418C33.0513 79.7418 32.299 76.6074 31.422 72.7206C30.545 68.8339 29.8772 65.6723 29.9286 65.6621C29.9799 65.652 30.7322 68.7966 31.6092 72.6833C32.4862 76.5701 33.1577 79.7317 33.1063 79.7418Z" fill="#353535"/>
<g opacity="0.2">
<path d="M33.5633 79.3525C34.7412 80.1692 36.4989 79.8947 37.9336 79.6744C39.4063 79.4713 40.7539 78.7944 41.7388 77.7632C42.1986 77.3155 42.4514 76.7199 42.4434 76.1028C42.3883 75.4929 41.8049 74.9066 41.1481 74.9778C40.4142 75.0625 40.0472 75.8419 39.6803 76.4552C39.088 77.4265 38.1842 78.2043 37.0932 78.6813C36.0022 79.1583 34.7779 79.3112 33.589 79.1187C33.589 79.1187 33.3541 79.2068 33.5633 79.3525Z" fill="#0C0C0C"/>
</g>
<path d="M42.5459 75.0249C42.5683 75.1631 42.5683 75.3035 42.5459 75.4417C42.5021 75.8226 42.3996 76.1957 42.2414 76.5498C41.704 77.7257 40.7311 78.6867 39.4966 79.2607C38.2649 79.8093 36.9026 80.06 35.5373 79.9892C35.1264 79.9757 34.717 79.9372 34.3117 79.874C34.1627 79.8578 34.0162 79.826 33.875 79.7791C33.875 79.7453 34.5098 79.8537 35.5409 79.8639C36.8789 79.8964 38.2061 79.6339 39.4122 79.098C40.608 78.5405 41.563 77.6239 42.1203 76.499C42.3284 76.026 42.4714 75.5308 42.5459 75.0249Z" fill="#353535"/>
<g opacity="0.2">
<path d="M42.5469 67.5388C42.9138 70.2734 43.3945 72.5201 44.0147 75.2174C44.3192 76.5424 44.6862 77.9283 45.6806 78.928L45.1082 72.8623L42.5469 67.5388Z" fill="#0C0C0C"/>
</g>
</svg>
