<svg width="280" height="145" viewBox="0 0 280 145" fill="none" xmlns="http://www.w3.org/2000/svg">
<rect width="280" height="145" fill="#F9F9F9"/>
<path d="M155.926 25.1072C155.924 23.6824 156.319 22.2799 157.076 21.0273C157.832 19.7748 158.925 18.712 160.255 17.9359C161.586 17.1598 163.111 16.6949 164.693 16.5836C166.275 16.4723 167.862 16.7182 169.311 17.2988C169.933 16.2042 170.81 15.243 171.884 14.4809C172.957 13.7187 174.201 13.1735 175.53 12.8825C176.859 12.5915 178.243 12.5615 179.586 12.7947C180.93 13.0278 182.201 13.5185 183.314 14.2334C183.779 13.1294 184.493 12.124 185.412 11.2804C186.331 10.4368 187.435 9.77338 188.654 9.33203C189.872 8.89067 191.18 8.68094 192.493 8.71607C193.807 8.7512 195.098 9.03042 196.285 9.53612C197.749 8.20598 199.659 7.34432 201.722 7.08347C203.784 6.82262 205.885 7.17701 207.701 8.09221C209.518 9.00741 210.949 10.4328 211.776 12.1495C212.603 13.8661 212.78 15.7791 212.279 17.5946C214.425 18.3024 216.33 19.4989 217.806 21.0669C219.283 22.6349 220.28 24.5206 220.701 26.539C221.121 28.5574 220.951 30.6393 220.205 32.5806C219.46 34.5219 218.166 36.256 216.45 37.6128C217.095 39.3737 217.085 41.2753 216.421 43.0304C215.756 44.7856 214.475 46.2991 212.768 47.3424C211.062 48.3856 209.024 48.902 206.962 48.8135C204.9 48.725 202.927 48.0364 201.339 46.8518C200.39 48.9324 198.801 50.7276 196.758 52.0277C194.715 53.3279 192.303 54.0794 189.802 54.1945C187.302 54.3097 184.816 53.7837 182.636 52.6779C180.456 51.5722 178.671 49.9324 177.49 47.9498C175.365 48.7323 173.014 48.8717 170.793 48.3467C168.573 47.8218 166.603 46.6613 165.182 45.0408C163.762 43.4204 162.968 41.4284 162.921 39.3665C162.874 37.3046 163.577 35.2852 164.923 33.6141C162.497 33.4964 160.213 32.5495 158.54 30.9676C156.867 29.3858 155.932 27.2889 155.926 25.1072Z" fill="#CBCBCB" stroke="#CBCBCB" stroke-miterlimit="10"/>
<path d="M162.441 51.8905C160.379 50.9867 159.325 49.1189 160.086 47.7186C160.847 46.3183 163.135 45.9158 165.197 46.8196C167.258 47.7234 168.313 49.5912 167.551 50.9915C166.79 52.3918 164.502 52.7942 162.441 51.8905Z" fill="#CBCBCB" stroke="#CBCBCB" stroke-miterlimit="10"/>
<path d="M156.993 25.1043C156.991 23.6795 157.386 22.277 158.142 21.0245C158.899 19.7719 159.992 18.7092 161.322 17.933C162.653 17.1569 164.178 16.692 165.76 16.5807C167.341 16.4695 168.929 16.7153 170.378 17.2959C171.001 16.2021 171.88 15.242 172.954 14.4811C174.028 13.7201 175.273 13.1764 176.602 12.8868C177.932 12.5973 179.316 12.5688 180.659 12.8033C182.002 13.0378 183.273 13.5298 184.385 14.2458C184.849 13.1434 185.563 12.1394 186.481 11.2969C187.399 10.4544 188.501 9.79171 189.718 9.35048C190.936 8.90926 192.241 8.69907 193.553 8.73315C194.865 8.76723 196.155 9.04485 197.342 9.54851C198.805 8.21386 200.716 7.34821 202.781 7.08485C204.846 6.8215 206.95 7.17506 208.769 8.09108C210.588 9.0071 212.022 10.4348 212.849 12.1543C213.676 13.8738 213.85 15.7897 213.346 17.607C215.494 18.3144 217.4 19.5111 218.878 21.0798C220.355 22.6484 221.354 24.535 221.775 26.5546C222.196 28.5743 222.025 30.6575 221.279 32.5999C220.533 34.5423 219.237 36.2772 217.52 37.6344C218.166 39.3957 218.157 41.2981 217.493 43.0542C216.828 44.8102 215.546 46.3244 213.839 47.3679C212.132 48.4114 210.093 48.9276 208.03 48.8384C205.968 48.7491 203.993 48.0594 202.406 46.8733C201.457 48.9536 199.869 50.7487 197.827 52.0492C195.785 53.3496 193.374 54.1017 190.874 54.2178C188.374 54.3339 185.889 53.8091 183.708 52.7047C181.528 51.6003 179.742 49.9619 178.56 47.9805C176.435 48.763 174.084 48.9024 171.863 48.3774C169.643 47.8525 167.673 46.692 166.252 45.0715C164.832 43.4511 164.038 41.4591 163.991 39.3972C163.945 37.3353 164.647 35.3159 165.993 33.6448C163.56 33.5276 161.27 32.5763 159.596 30.9872C157.921 29.3981 156.989 27.2923 156.993 25.1043Z" fill="white" stroke="#CBCBCB" stroke-miterlimit="10"/>
<path d="M188.945 26.1841H180.516V43.5564H188.945V26.1841Z" fill="#CB1B1B"/>
<path opacity="0.2" d="M188.945 26.1841H180.516V43.5564H188.945V26.1841Z" fill="#717171"/>
<path d="M178.539 26.113H199.339L203.225 21.1589L207.297 26.2548L212.086 26.1864L206.925 19.9431L183.734 20.0318L178.539 26.113Z" fill="#CB1B1B"/>
<path opacity="0.2" d="M178.539 26.113H199.339L203.225 21.1589L207.297 26.2548L212.086 26.1864L206.925 19.9431L183.734 20.0318L178.539 26.113Z" fill="white"/>
<path d="M188.934 26.1863V43.556H209.705V26.1863H207.322L203.218 21.1587L199.318 26.1077L188.934 26.1863Z" fill="#CB1B1B"/>
<g opacity="0.2">
<path d="M191.875 43.5566V36.0266H196.732V43.5566" fill="#717171"/>
</g>
<path opacity="0.7" d="M207.314 35.8132H199.66V40.0708H207.314V35.8132Z" fill="white"/>
<path opacity="0.7" d="M207.314 27.2935H199.66V31.5511H207.314V27.2935Z" fill="white"/>
<path opacity="0.7" d="M196.228 27.3312H191.402V31.4343H196.228V27.3312Z" fill="white"/>
<path d="M201.887 35.8132H201.816V40.1114H201.887V35.8132Z" fill="#CB1B1B"/>
<path d="M205.075 35.8132H205.004V40.1114H205.075V35.8132Z" fill="#CB1B1B"/>
<path d="M205.021 38.0605H201.84V38.1239H205.021V38.0605Z" fill="#CB1B1B"/>
<path d="M201.887 27.2935H201.816V31.5916H201.887V27.2935Z" fill="#CB1B1B"/>
<path d="M205.075 27.2935H205.004V31.5916H205.075V27.2935Z" fill="#CB1B1B"/>
<path d="M205.021 29.5393H201.84V29.6026H205.021V29.5393Z" fill="#CB1B1B"/>
<path d="M193.872 27.3311H193.801V31.4342H193.872V27.3311Z" fill="#CB1B1B"/>
<path d="M196.228 29.4513H191.402V29.5146H196.228V29.4513Z" fill="#CB1B1B"/>
<path opacity="0.7" d="M204.227 24.4736C204.227 24.6554 204.167 24.8332 204.055 24.9844C203.942 25.1356 203.782 25.2534 203.595 25.323C203.408 25.3926 203.202 25.4108 203.004 25.3753C202.805 25.3399 202.623 25.2523 202.48 25.1237C202.336 24.9951 202.239 24.8313 202.199 24.653C202.16 24.4746 202.18 24.2898 202.258 24.1218C202.335 23.9538 202.466 23.8102 202.635 23.7091C202.803 23.6081 203.001 23.5542 203.203 23.5542C203.475 23.5549 203.735 23.652 203.927 23.8242C204.118 23.9965 204.226 24.23 204.227 24.4736Z" fill="white"/>
<path d="M195.921 23.3477L197.212 21.9167V18.4746H194.508V23.373L195.921 23.3477Z" fill="#CB1B1B"/>
<path opacity="0.2" d="M195.91 23.3477V18.4746H197.202V21.9167L195.91 23.3477Z" fill="#717171"/>
<path d="M197.381 17.9675H194.191V18.4741H197.381V17.9675Z" fill="#CB1B1B"/>
<path d="M189.18 33.7848H173.254V43.5588H189.18V33.7848Z" fill="#CB1B1B"/>
<path opacity="0.2" d="M183.074 33.7848H173.254V43.5588H183.074V33.7848Z" fill="#717171"/>
<path d="M181.01 43.5414C180.999 43.4999 180.994 43.4573 180.996 43.4148C180.996 43.316 180.996 43.1944 180.996 43.0475C180.996 42.7081 180.996 42.2471 180.973 41.6722C180.973 40.4818 180.956 38.838 180.945 36.9359L181.024 37.0068H175.194L175.27 36.9359C175.27 38.838 175.251 40.4818 175.242 41.6722C175.242 42.2471 175.225 42.7081 175.22 43.0475C175.22 43.1944 175.22 43.316 175.205 43.4148C175.21 43.4569 175.21 43.4993 175.205 43.5414C175.193 43.5002 175.188 43.4574 175.191 43.4148C175.191 43.316 175.191 43.1944 175.191 43.0475C175.191 42.7081 175.191 42.2471 175.169 41.6722C175.169 40.4843 175.152 38.838 175.141 36.9359V36.865H181.114V36.9359C181.1 38.838 181.091 40.4818 181.083 41.6722C181.083 42.2471 181.066 42.7081 181.06 43.0475C181.06 43.1944 181.06 43.316 181.06 43.4148C181.048 43.4583 181.031 43.5007 181.01 43.5414Z" fill="#CBCBCB"/>
<path opacity="0.2" d="M188.438 36.6843H184.301V37.6316H188.438V36.6843Z" fill="#717171"/>
<path d="M178.539 26.113V26.617H199.325V26.1079L178.539 26.113Z" fill="#CB1B1B"/>
<path d="M199.32 26.6168L203.209 21.7159L203.221 21.1587L199.334 26.1128L199.32 26.6168Z" fill="#CB1B1B"/>
<path d="M211.996 26.1841H207.34V26.5083H211.996V26.1841Z" fill="#CB1B1B"/>
<path d="M195.073 34.8713H193.355V35.4589H195.073V34.8713Z" fill="#CBCBCB"/>
<path opacity="0.3" d="M178.539 26.113V26.617H199.325V26.1079L178.539 26.113Z" fill="#717171"/>
<path opacity="0.3" d="M199.32 26.6168L203.209 21.7159L203.221 21.1587L199.334 26.1128L199.32 26.6168Z" fill="#717171"/>
<path opacity="0.3" d="M211.996 26.1841H207.34V26.5083H211.996V26.1841Z" fill="#717171"/>
<path d="M196.349 39.8259C196.334 39.8259 196.349 39.7296 196.222 39.6562C196.189 39.6366 196.152 39.6242 196.113 39.6203C196.075 39.6163 196.035 39.6208 195.999 39.6334C195.956 39.6489 195.92 39.6755 195.894 39.7098C195.868 39.7441 195.854 39.7845 195.854 39.8259C195.854 39.8672 195.868 39.9076 195.894 39.9419C195.92 39.9762 195.956 40.0028 195.999 40.0184C196.035 40.0309 196.075 40.0355 196.113 40.0315C196.152 40.0275 196.189 40.0152 196.222 39.9956C196.337 39.9221 196.334 39.8233 196.349 39.8259C196.363 39.8284 196.396 39.9348 196.264 40.0462C196.223 40.0762 196.175 40.0963 196.123 40.1047C196.071 40.1131 196.018 40.1095 195.968 40.0943C195.905 40.0752 195.851 40.0391 195.813 39.9909C195.775 39.9428 195.754 39.8851 195.754 39.8259C195.754 39.7667 195.775 39.709 195.813 39.6608C195.851 39.6127 195.905 39.5765 195.968 39.5574C196.018 39.5422 196.071 39.5386 196.123 39.5471C196.175 39.5555 196.223 39.5756 196.264 39.6055C196.396 39.7195 196.357 39.8335 196.349 39.8259Z" fill="#CBCBCB"/>
<path d="M161.323 50.077C159.262 49.1732 158.208 47.3054 158.969 45.9051C159.73 44.5048 162.018 44.1023 164.08 45.0061C166.141 45.9099 167.195 47.7777 166.434 49.178C165.673 50.5783 163.385 50.9808 161.323 50.077Z" fill="white" stroke="#CBCBCB" stroke-miterlimit="10"/>
<path d="M113.769 35.808L116.241 73.4663C116.666 79.8685 118.748 89.1965 129.99 88.1176C139.665 86.5326 141.588 78.0704 141.187 72.0944C140.994 69.2618 140.841 66.8954 140.841 66.6068C140.841 66.6068 151.46 65.1328 151.599 55.605C151.668 50.9965 150.951 41.5043 150.19 32.9177C149.79 28.4727 147.543 24.3254 143.895 21.3001C140.247 18.2747 135.465 16.5926 130.499 16.5881H129.476C118.456 17.1742 112.83 25.9117 113.769 35.808Z" fill="#FFBB9D"/>
<path d="M140.859 66.6244C140.859 66.6244 134.17 66.9707 127.051 62.9438C127.051 62.9438 130.413 69.9054 141.002 69.0574L140.859 66.6244Z" fill="#F2832A"/>
<path d="M132.49 37.9838C132.298 38.1881 131.007 37.3889 129.238 37.4599C127.468 37.531 126.212 38.3967 126.009 38.2014C125.91 38.117 126.103 37.7574 126.647 37.3534C127.386 36.8373 128.287 36.5437 129.223 36.5143C130.147 36.4775 131.059 36.7112 131.823 37.1802C132.372 37.5443 132.589 37.8906 132.49 37.9838Z" fill="#353535"/>
<path d="M131.156 42.5966C131.161 42.9323 131.018 43.2562 130.759 43.4986C130.5 43.7409 130.146 43.8825 129.772 43.893C129.589 43.9075 129.405 43.8888 129.231 43.8379C129.056 43.787 128.895 43.705 128.756 43.5969C128.618 43.4887 128.505 43.3565 128.425 43.2083C128.345 43.0601 128.298 42.8988 128.289 42.7342C128.286 42.399 128.428 42.076 128.686 41.8333C128.943 41.5906 129.296 41.4471 129.668 41.4333C129.852 41.4194 130.036 41.4387 130.211 41.4901C130.386 41.5414 130.548 41.6238 130.686 41.7322C130.825 41.8407 130.938 41.9731 131.019 42.1216C131.1 42.2701 131.147 42.4316 131.156 42.5966Z" fill="#353535"/>
<path d="M137.816 48.7367C137.816 48.6523 138.805 48.4969 140.466 48.2927C140.881 48.2527 141.277 48.1772 141.346 47.9242C141.383 47.5374 141.286 47.1499 141.069 46.8142L139.838 43.9683C138.132 39.9103 136.901 36.5761 137.084 36.5183C137.267 36.4606 138.795 39.6928 140.501 43.7508C140.911 44.7497 141.306 45.7043 141.677 46.6144C141.94 47.066 142.016 47.587 141.89 48.084C141.83 48.2157 141.737 48.3334 141.619 48.4281C141.501 48.5228 141.36 48.5919 141.208 48.6301C140.976 48.6841 140.739 48.7139 140.501 48.7189C138.839 48.8121 137.816 48.821 137.816 48.7367Z" fill="#353535"/>
<path d="M132.513 32.9573C132.335 33.3081 130.921 33.0061 129.225 33.0417C127.53 33.0772 126.116 33.3791 125.933 33.0417C125.849 32.8774 126.126 32.5577 126.709 32.2558C127.482 31.8898 128.342 31.6963 129.215 31.692C130.085 31.6692 130.947 31.8384 131.727 32.1848C132.315 32.4778 132.592 32.793 132.513 32.9573Z" fill="#353535"/>
<path d="M148.711 35.2527C148.548 35.5501 147.144 35.3193 145.468 35.3814C143.792 35.4436 142.422 35.7277 142.225 35.4391C142.136 35.3015 142.388 35.0262 142.951 34.7599C143.713 34.4272 144.546 34.247 145.393 34.2315C146.248 34.2004 147.101 34.332 147.895 34.6178C148.493 34.8486 148.78 35.1106 148.711 35.2527Z" fill="#353535"/>
<path d="M114.632 42.8625C114.454 42.7959 107.345 40.9223 107.568 47.4355C107.79 53.9486 115.033 52.4036 115.038 52.2171C115.043 52.0307 114.632 42.8625 114.632 42.8625Z" fill="#FFBB9D"/>
<path d="M112.712 49.8113C112.678 49.8113 112.589 49.8956 112.376 49.9889C112.08 50.1131 111.741 50.1291 111.432 50.0333C110.656 49.8024 109.949 48.728 109.899 47.5514C109.861 46.9938 109.963 46.4355 110.196 45.9176C110.258 45.7138 110.374 45.5265 110.534 45.3719C110.694 45.2172 110.894 45.0998 111.115 45.0296C111.259 44.9917 111.413 44.9997 111.551 45.0524C111.689 45.105 111.802 45.1989 111.872 45.3182C111.976 45.5002 111.936 45.629 111.976 45.6423C112.015 45.6556 112.124 45.5269 112.06 45.2605C112.012 45.1005 111.906 44.9597 111.758 44.8609C111.658 44.7957 111.544 44.7492 111.424 44.7241C111.303 44.6989 111.178 44.6956 111.056 44.7144C110.759 44.7748 110.485 44.903 110.26 45.0866C110.035 45.2701 109.866 45.5029 109.771 45.7622C109.48 46.3335 109.351 46.9602 109.395 47.5869C109.484 48.9189 110.275 50.1088 111.333 50.3529C111.53 50.3968 111.736 50.4008 111.935 50.3647C112.134 50.3286 112.322 50.2534 112.485 50.1443C112.702 49.9711 112.737 49.8246 112.712 49.8113Z" fill="#F2832A"/>
<path d="M104.162 32.971C105.487 30.5824 105.621 27.8253 106.239 25.2147C106.857 22.6041 108.216 19.8559 110.95 18.7815L111.015 18.8037C113.447 17.7337 116.537 17.5206 118.722 18.9502C118.959 15.5404 122.039 12.6545 125.643 11.5535C129.247 10.4524 135.175 10.5856 138.794 11.629C141.592 12.437 144.385 14.2928 147.821 17.0366C149.272 18.1953 150.614 19.459 151.835 20.8149L155.736 29.4592L153.373 34.2719C153.234 34.6004 153.091 34.9245 152.913 35.2531L151.232 45.1938C150.861 42.5299 150.332 33.2463 149.961 30.5869C147.724 30.6721 145.491 30.3502 143.396 29.6406C141.301 28.9311 139.388 27.8485 137.77 26.4579C136.02 24.9483 134.581 23.0081 132.332 22.1868C129.44 21.1212 126.177 22.2445 123.305 23.3544L123.418 23.2435C121.933 23.9832 120.619 24.9718 119.547 26.156C120.631 31.383 120.451 36.7583 119.018 41.9172C118.801 42.6942 118.173 44.3014 117.372 44.6388C115.79 45.3092 115.237 43.853 114.193 43.1248C113.427 42.5921 112.354 42.5876 111.188 42.6809C110.191 40.5119 109.341 38.2909 108.642 36.0301C107.681 36.365 106.647 36.4942 105.621 36.4074L106.392 34.3385C106.026 34.6197 105.598 34.8285 105.136 34.9512C104.904 35.0088 104.658 35.001 104.43 34.9287C104.203 34.8565 104.006 34.7233 103.866 34.5472C103.559 34.0677 103.886 33.4683 104.162 32.971Z" fill="#353535"/>
<path d="M122.123 19.825C121.764 20.1115 121.433 20.4249 121.134 20.7617C120.372 21.7204 119.9 22.8402 119.765 24.0117C119.651 24.8156 119.626 25.6275 119.69 26.4358C119.755 27.3238 119.908 28.2384 120.061 29.2196C120.241 30.2486 120.352 31.2864 120.392 32.3274C120.4 32.8796 120.364 33.4315 120.284 33.979C120.237 34.5636 120.024 35.1277 119.666 35.6173C119.497 35.8137 119.274 35.9674 119.019 36.0631C118.765 36.1589 118.486 36.1934 118.212 36.1634C117.687 36.111 117.197 35.9033 116.818 35.5729C116.081 34.9025 115.829 34.0101 115.612 33.2287H115.834C115.573 33.9639 115.193 34.6609 114.707 35.2976C114.235 35.8909 113.527 36.298 112.73 36.4342C112.359 36.4907 111.977 36.4554 111.627 36.3321C111.3 36.2076 111.023 35.9951 110.836 35.7238C110.656 35.4797 110.555 35.1953 110.544 34.9025C110.535 34.6282 110.633 34.3596 110.821 34.1433L110.94 34.2232C110.22 35.0901 109.254 35.7665 108.142 36.1811C108.062 36.2113 107.979 36.235 107.895 36.2522C107.965 36.2082 108.041 36.1724 108.122 36.1456C108.275 36.079 108.503 35.9769 108.784 35.826C109.591 35.3925 110.293 34.8171 110.846 34.1344L110.965 34.2188C110.808 34.429 110.727 34.678 110.735 34.9311C110.743 35.1842 110.839 35.4287 111.009 35.6306C111.18 35.8692 111.429 36.055 111.721 36.1634C112.036 36.2726 112.378 36.3018 112.71 36.2477C113.45 36.1106 114.105 35.7247 114.539 35.1689C115.005 34.5444 115.368 33.8625 115.617 33.1443L115.745 32.8335L115.844 33.1576C116.076 33.9391 116.338 34.7959 116.996 35.3775C117.334 35.6735 117.773 35.8595 118.242 35.9059C118.473 35.9355 118.709 35.91 118.926 35.8321C119.143 35.7542 119.333 35.6266 119.478 35.4619C119.808 35.0026 120.004 34.4756 120.046 33.9302C120.127 33.3931 120.163 32.8515 120.155 32.3096C120.12 31.2792 120.015 30.2516 119.839 29.2329C119.695 28.2517 119.547 27.3193 119.488 26.4358C119.432 25.6147 119.468 24.7907 119.596 23.9762C119.755 22.7831 120.268 21.6501 121.08 20.6951C121.371 20.3552 121.724 20.0612 122.123 19.825Z" fill="#505050"/>
<path d="M155.518 26.9329C155.494 26.9571 155.468 26.9794 155.439 26.9995L155.187 27.1904C155.053 27.2959 154.911 27.3923 154.762 27.479C154.564 27.6046 154.358 27.7188 154.144 27.8209C152.779 28.4893 151.249 28.8403 149.695 28.842C147.378 28.8564 145.106 28.2673 143.154 27.146C140.794 25.7506 138.775 23.9377 137.221 21.8183C136.361 20.7217 135.644 19.5984 134.868 18.5417C134.153 17.5257 133.281 16.6063 132.278 15.8112C131.372 15.0937 130.281 14.5915 129.104 14.3506C128.572 14.2551 128.026 14.2342 127.487 14.2884C126.991 14.3467 126.505 14.4647 126.044 14.6391C124.63 15.1782 123.493 16.1751 122.86 17.4318C122.652 17.9 122.508 18.3889 122.43 18.888C122.43 18.888 122.43 18.8569 122.43 18.7903C122.43 18.7237 122.43 18.6128 122.43 18.4973C122.485 18.1215 122.591 17.7532 122.746 17.4007C123.004 16.8462 123.363 16.3344 123.809 15.8867C124.403 15.2894 125.133 14.8139 125.95 14.4926C126.424 14.3104 126.922 14.185 127.433 14.1197C127.991 14.0558 128.557 14.0738 129.109 14.173C130.324 14.4121 131.453 14.9221 132.391 15.6559C133.415 16.4586 134.305 17.3902 135.031 18.4218C135.817 19.4696 136.539 20.6062 137.39 21.6895C138.93 23.7873 140.928 25.583 143.263 26.9684C145.177 28.0828 147.408 28.6793 149.69 28.6866C151.224 28.6963 152.738 28.3734 154.104 27.7454C154.592 27.4983 155.064 27.227 155.518 26.9329Z" fill="#505050"/>
<path d="M148.631 37.5395C148.438 37.7437 147.148 36.9446 145.378 37.0156C143.608 37.0866 142.353 37.9524 142.15 37.757C142.051 37.6727 142.244 37.3131 142.788 36.909C143.527 36.393 144.428 36.0994 145.363 36.0699C146.288 36.0331 147.2 36.2669 147.964 36.7359C148.527 37.0955 148.73 37.4463 148.631 37.5395Z" fill="#353535"/>
<path d="M146.223 42.2946C146.227 42.6304 146.084 42.9542 145.825 43.1966C145.567 43.4389 145.212 43.5805 144.839 43.591C144.656 43.6055 144.472 43.5868 144.297 43.5359C144.122 43.485 143.961 43.403 143.823 43.2949C143.684 43.1867 143.571 43.0545 143.491 42.9063C143.411 42.7581 143.365 42.5968 143.356 42.4322C143.353 42.097 143.495 41.774 143.752 41.5313C144.01 41.2886 144.362 41.1451 144.735 41.1313C144.918 41.1174 145.103 41.1367 145.278 41.1881C145.452 41.2394 145.614 41.3218 145.753 41.4302C145.892 41.5387 146.005 41.6711 146.085 41.8196C146.166 41.9681 146.213 42.1296 146.223 42.2946Z" fill="#353535"/>
<path d="M150.849 19.7808C151.838 20.7975 153.267 21.6943 154.735 21.4723C155.264 21.3426 155.782 21.1764 156.283 20.9751C156.816 21.2281 156.802 22.8265 156.475 23.2838C156.163 23.6727 155.814 24.0367 155.432 24.3715C157.227 25.1174 158.779 24.6201 160.589 23.9275C160.501 25.354 159.999 26.7349 159.131 27.9323C158.264 29.1298 157.062 30.1019 155.645 30.7515C154.735 31.1511 153.618 31.4041 152.733 30.9557C151.957 30.5606 151.596 29.7437 151.319 28.9845C150.299 26.182 149.67 23.277 149.445 20.3357L150.849 19.7808Z" fill="#353535"/>
<path d="M146.489 71.9255L140.408 69.9099L117.152 69.2927L111.754 70.6113L112.461 82.4212L124.667 89.4139L136.502 89.2008L143.948 83.1094L145.599 77.0757L146.489 71.9255Z" fill="#FFBB9D"/>
<path d="M77.4949 90.0225C78.9335 87.3284 80.56 84.7186 82.3645 82.2085C85.2125 78.1876 89.716 75.3418 94.892 74.2923L114.41 69.5417C114.41 69.5417 115.735 81.3605 129.152 81.3605C142.57 81.3605 142.847 70.4119 142.847 70.4119L167.417 78.479C168.193 78.7499 173.429 80.3793 179.524 92.1137C185.328 103.289 187.864 108.985 187.864 108.985L164.688 114.579L163.151 133.808L163.645 144.539L93.0381 144.397L93.4336 132.129L93.1123 111.849L91.6291 114.348L69.5898 106.41C69.5898 106.41 71.7997 100.589 77.4949 90.0225Z" fill="#505050"/>
<path d="M92.8192 101.375C92.7154 101.375 92.7796 108.173 92.9626 116.551C93.1455 124.929 93.3729 131.717 93.4569 131.717C93.541 131.717 93.4965 124.924 93.3136 116.542C93.1306 108.159 92.8983 101.375 92.8192 101.375Z" fill="#353535"/>
<g opacity="0.3">
<path d="M161.582 103.356C160.485 102.272 158.779 101.913 157.183 101.62C139.014 98.2676 120.282 99.6839 101.877 101.753C99.5926 102.006 97.0713 102.441 95.692 104.097C94.7033 105.291 95.3361 106.881 95.2421 108.373C94.7477 116.031 95.8749 124.192 97.5607 131.717L160.258 130.829C162.403 124.995 162.927 115.099 162.957 108.373C162.967 106.597 162.902 104.656 161.582 103.356Z" fill="#505050"/>
</g>
<path d="M165.669 94.5154C165.68 94.6113 165.68 94.7081 165.669 94.804V95.6298C165.669 96.3446 165.644 97.379 165.609 98.6621C165.54 101.224 165.387 104.762 165.149 108.665C164.912 112.568 164.625 116.102 164.398 118.655C164.279 119.911 164.18 120.932 164.111 121.678C164.072 122.015 164.037 122.286 164.017 122.499C164.012 122.596 163.994 122.691 163.963 122.784C163.95 122.688 163.95 122.591 163.963 122.495C163.963 122.282 163.988 122.011 164.002 121.674C164.057 120.928 164.126 119.898 164.21 118.646C164.383 116.057 164.62 112.541 164.878 108.652C165.135 104.762 165.298 101.215 165.421 98.6577C165.481 97.4012 165.53 96.3712 165.565 95.6253C165.565 95.2879 165.599 95.0171 165.614 94.7995C165.621 94.7033 165.639 94.6081 165.669 94.5154Z" fill="#353535"/>
<path d="M185.869 109.531L195.326 126.584C196.384 128.489 196.88 130.606 196.765 132.733C196.592 135.924 195.058 138.933 192.48 141.135C189.903 143.338 186.48 144.564 182.922 144.56L155.791 143.149L154.609 132.049L175.255 127.578L167.256 114.001L185.869 109.531Z" fill="#FFBB9D"/>
<path d="M175.285 127.561C175.285 127.636 176.225 127.498 177.718 127.507C179.666 127.533 181.598 127.833 183.443 128.395C185.29 128.947 187.021 129.772 188.564 130.837C189.741 131.672 190.295 132.356 190.359 132.307C190.423 132.258 190.265 132.111 190.018 131.796C189.648 131.366 189.233 130.969 188.777 130.611C187.254 129.445 185.492 128.557 183.591 127.996C181.702 127.41 179.71 127.139 177.713 127.197C177.112 127.218 176.514 127.28 175.923 127.383C175.503 127.476 175.276 127.534 175.285 127.561Z" fill="#F2832A"/>
<path d="M69.9775 106.596C69.9775 106.596 64.8805 119.387 58.4832 133.621C58.3552 133.909 58.2527 134.206 58.1767 134.509C57.188 138.354 60.4756 144.827 64.8607 144.827L101.598 144.503V133.705L80.4187 129.532L88.5907 113.3L69.9775 106.596Z" fill="#FFBB9D"/>
<path d="M63.9509 132.488C64.0003 132.542 64.7221 132.044 66.0025 131.37C69.3519 129.65 73.2007 128.876 77.0469 129.15C78.53 129.247 79.415 129.434 79.4347 129.363C79.4545 129.292 79.2271 129.265 78.8217 129.159C78.2508 129.018 77.6691 128.916 77.0815 128.852C73.1489 128.416 69.1699 129.225 65.8295 131.139C65.3295 131.424 64.8536 131.741 64.4057 132.089C64.0893 132.315 63.9311 132.466 63.9509 132.488Z" fill="#F2832A"/>
<path d="M159.935 131.384H154.611C154.611 131.384 142.622 127.499 140.16 127.867C137.94 128.205 129.813 133.053 128.221 134.012C128.042 134.119 127.907 134.274 127.835 134.456C127.681 134.838 127.698 135.259 127.882 135.63C128.067 136.001 128.404 136.293 128.824 136.445L128.992 136.507L128.923 136.725C128.822 137.011 128.78 137.312 128.799 137.613C128.821 137.835 128.921 138.045 129.084 138.212C129.247 138.38 129.465 138.497 129.707 138.547C129.949 138.596 130.202 138.575 130.43 138.487C130.657 138.399 130.848 138.248 130.975 138.057L130.668 138.545C130.544 138.745 130.485 138.973 130.5 139.202L130.53 139.646C130.543 139.887 130.638 140.118 130.801 140.309C130.964 140.501 131.189 140.642 131.444 140.716C131.687 140.788 131.948 140.795 132.195 140.737C132.443 140.679 132.666 140.557 132.838 140.388C133.872 139.371 136.096 137.329 137.604 137.107C139.244 136.93 140.896 136.855 142.548 136.885C142.883 136.886 143.21 136.977 143.486 137.148C143.762 137.318 143.974 137.559 144.095 137.839C143.201 137.897 136.971 140.814 134.766 141.857C134.426 142.011 134.132 142.236 133.909 142.513C133.686 142.791 133.541 143.113 133.486 143.451C133.407 144.068 133.753 144.721 135.118 144.432C138.049 143.82 143.319 141.644 143.319 141.644C143.319 141.644 146.033 140.947 147.798 142.061C150.27 143.633 151.407 144.206 153.533 143.571C154.827 143.186 156.068 142.669 157.231 142.03L161.418 141.657C161.418 141.657 165.354 132.747 159.935 131.384Z" fill="#FFBB9D"/>
<path d="M144.126 133.204C144.126 133.244 143.275 133.004 141.871 132.924C140.045 132.814 138.217 133.093 136.534 133.738C134.851 134.383 133.361 135.376 132.186 136.636C131.282 137.599 130.896 138.31 130.852 138.288C130.923 138.115 131.012 137.948 131.119 137.79C131.395 137.352 131.711 136.935 132.063 136.543C133.227 135.236 134.733 134.208 136.447 133.551C138.161 132.894 140.03 132.628 141.886 132.778C142.443 132.822 142.995 132.907 143.537 133.031C143.74 133.068 143.938 133.126 144.126 133.204Z" fill="#FFBB9D"/>
<path d="M142.856 130.589C142.094 130.382 141.308 130.259 140.513 130.22C138.591 130.217 136.707 130.699 135.075 131.61C133.454 132.543 131.978 133.664 130.685 134.944L129.464 136.077C129.326 136.226 129.172 136.363 129.004 136.485C129.121 136.327 129.254 136.178 129.399 136.041C129.666 135.757 130.052 135.344 130.551 134.847C131.825 133.524 133.305 132.374 134.946 131.432C136.615 130.499 138.553 130.028 140.518 130.078C141.109 130.104 141.694 130.2 142.258 130.362C142.411 130.407 142.561 130.459 142.708 130.518C142.762 130.534 142.812 130.558 142.856 130.589Z" fill="#FFBB9D"/>
<path d="M93.8091 131.721H99.1187C99.1187 131.721 111.112 127.832 113.584 128.205C115.804 128.538 123.927 133.386 125.518 134.345C125.695 134.453 125.83 134.609 125.904 134.789C126.06 135.171 126.044 135.592 125.859 135.964C125.674 136.335 125.336 136.627 124.915 136.778L124.747 136.84L124.821 137.058C124.918 137.345 124.96 137.646 124.945 137.946C124.925 138.169 124.826 138.381 124.662 138.55C124.499 138.719 124.279 138.837 124.036 138.886C123.793 138.936 123.539 138.914 123.31 138.825C123.081 138.736 122.89 138.583 122.765 138.39L123.071 138.878C123.194 139.077 123.254 139.303 123.244 139.531L123.215 139.975C123.2 140.216 123.104 140.448 122.94 140.64C122.776 140.832 122.551 140.974 122.295 141.049C122.052 141.121 121.791 141.128 121.544 141.07C121.297 141.012 121.073 140.89 120.901 140.721C119.873 139.704 117.643 137.662 116.14 137.44C114.509 137.259 112.865 137.185 111.221 137.218C110.886 137.218 110.559 137.309 110.283 137.48C110.007 137.65 109.794 137.892 109.674 138.172C110.568 138.23 116.793 141.147 118.998 142.19C119.339 142.343 119.633 142.568 119.856 142.846C120.079 143.123 120.224 143.445 120.278 143.784C120.362 144.401 120.011 145.049 118.647 144.765C115.72 144.153 110.45 141.977 110.45 141.977C110.45 141.977 107.731 141.28 105.971 142.394C103.499 143.962 102.362 144.539 100.231 143.904C98.9386 143.519 97.6995 143.002 96.5381 142.363L92.3458 141.986C92.3458 141.986 88.4007 133.084 93.8091 131.721Z" fill="#FFBB9D"/>
<path d="M109.645 133.541C110.388 133.412 111.139 133.317 111.894 133.257C113.721 133.149 115.55 133.429 117.234 134.075C118.917 134.72 120.408 135.713 121.584 136.973C122.488 137.937 122.874 138.647 122.914 138.625C122.845 138.451 122.756 138.284 122.647 138.128C122.372 137.69 122.058 137.272 121.707 136.88C120.543 135.573 119.037 134.545 117.323 133.888C115.609 133.231 113.74 132.966 111.884 133.115C111.325 133.157 110.771 133.242 110.228 133.368C110.027 133.406 109.831 133.464 109.645 133.541Z" fill="#FFBB9D"/>
<path d="M110.918 130.926C111.679 130.716 112.467 130.592 113.262 130.557C115.183 130.551 117.068 131.031 118.7 131.943C120.322 132.877 121.8 134 123.095 135.281L124.296 136.431C124.437 136.578 124.591 136.715 124.756 136.84C124.642 136.681 124.511 136.532 124.365 136.396C124.098 136.107 123.708 135.699 123.208 135.201C121.937 133.879 120.458 132.728 118.818 131.787C117.149 130.852 115.209 130.381 113.242 130.433C112.651 130.46 112.066 130.555 111.502 130.717C111.35 130.762 111.202 130.813 111.057 130.873C110.963 130.895 110.913 130.917 110.918 130.926Z" fill="#FFBB9D"/>
<path d="M102.213 144.854H163.189C164.023 144.854 164.825 144.565 165.428 144.048C166.03 143.53 166.387 142.823 166.422 142.074L168.251 104.389C168.271 103.998 168.202 103.607 168.048 103.24C167.895 102.873 167.66 102.537 167.358 102.254C167.057 101.971 166.694 101.745 166.293 101.591C165.892 101.437 165.46 101.357 165.023 101.357H100.517C100.081 101.357 99.6498 101.437 99.2489 101.59C98.848 101.744 98.4858 101.968 98.1839 102.251C97.882 102.533 97.6466 102.867 97.492 103.233C97.3373 103.599 97.2665 103.989 97.2838 104.38L98.9943 142.065C99.0275 142.813 99.3806 143.52 99.9803 144.04C100.58 144.559 101.38 144.851 102.213 144.854Z" fill="#E1E1E1"/>
<path d="M102.21 144.853H102.061C101.912 144.852 101.764 144.84 101.616 144.818C101.038 144.724 100.499 144.493 100.054 144.148C99.6944 143.864 99.4069 143.514 99.2115 143.122C99.0161 142.73 98.9174 142.304 98.9221 141.874C98.8727 140.868 98.8167 139.712 98.754 138.407C98.5019 133.186 98.146 125.638 97.701 116.314L97.3747 108.993C97.3154 107.718 97.2561 106.42 97.1968 105.1C97.1968 104.762 97.1523 104.442 97.1671 104.092C97.1895 103.743 97.2781 103.401 97.4291 103.079C97.7412 102.424 98.3017 101.889 99.0111 101.57C99.3672 101.409 99.7521 101.305 100.148 101.264C100.554 101.232 100.929 101.264 101.325 101.264H118.524H163.24H164.724C165.237 101.242 165.749 101.313 166.231 101.472C166.712 101.639 167.144 101.902 167.495 102.241C167.845 102.581 168.104 102.987 168.253 103.43C168.387 103.863 168.429 104.315 168.377 104.762L168.313 106.072C168.268 106.96 168.229 107.817 168.184 108.682C168.016 112.151 167.851 115.564 167.69 118.921C167.364 125.629 167.047 132.107 166.741 138.274C166.706 139.042 166.666 139.81 166.632 140.569L166.573 141.706C166.578 142.094 166.521 142.481 166.404 142.856C166.151 143.612 165.578 144.25 164.808 144.631C164.431 144.818 164.018 144.937 163.591 144.982C163.161 145.022 162.761 144.982 162.351 144.982H152.878H135.877L111.252 144.942L104.558 144.916H102.818C102.422 144.916 102.225 144.916 102.225 144.916H102.818H104.558L111.252 144.889L135.877 144.849H152.878H162.351C162.756 144.849 163.176 144.849 163.562 144.827C163.953 144.782 164.332 144.672 164.679 144.503C165.391 144.154 165.923 143.569 166.162 142.873C166.269 142.519 166.321 142.153 166.315 141.786C166.315 141.408 166.355 141.031 166.37 140.649C166.409 139.885 166.444 139.122 166.484 138.349C166.78 132.182 167.092 125.709 167.413 118.996C167.578 115.64 167.743 112.227 167.907 108.758C167.947 107.891 167.99 107.022 168.036 106.152L168.095 104.82C168.15 104.397 168.113 103.969 167.986 103.559C167.848 103.157 167.61 102.789 167.291 102.481C166.972 102.174 166.579 101.935 166.142 101.783C165.694 101.635 165.216 101.572 164.738 101.597H163.255H118.539H101.335C100.949 101.597 100.549 101.597 100.188 101.597C99.8195 101.633 99.4614 101.728 99.1298 101.876C98.4646 102.168 97.9382 102.664 97.6466 103.275C97.5059 103.572 97.4223 103.889 97.3994 104.212C97.3994 104.531 97.3994 104.873 97.4242 105.202C97.4835 106.525 97.5412 107.823 97.5972 109.095C97.7109 111.639 97.8197 114.086 97.9235 116.417C98.3239 125.74 98.6502 133.288 98.8776 138.513C98.932 139.819 98.9765 140.978 99.021 141.981C99.0147 142.399 99.1081 142.813 99.2948 143.196C99.4816 143.579 99.7574 143.922 100.104 144.201C100.535 144.548 101.063 144.784 101.631 144.885C102.022 144.858 102.21 144.84 102.21 144.853Z" fill="#353535"/>
<path d="M129.434 123.769C129.433 124.363 129.628 124.944 129.994 125.438C130.361 125.932 130.883 126.317 131.493 126.545C132.104 126.773 132.776 126.833 133.425 126.718C134.073 126.602 134.669 126.317 135.137 125.897C135.605 125.478 135.924 124.943 136.053 124.361C136.182 123.778 136.116 123.175 135.864 122.626C135.611 122.077 135.182 121.608 134.633 121.278C134.083 120.948 133.437 120.772 132.776 120.772C131.89 120.772 131.041 121.088 130.414 121.65C129.788 122.212 129.435 122.974 129.434 123.769Z" fill="white"/>
<path d="M138.427 54.033C138.427 54.0863 138.042 54.2417 137.34 54.2373C136.419 54.2227 135.529 53.9393 134.804 53.4298C134.079 52.9203 133.558 52.2125 133.321 51.4135C133.148 50.8053 133.217 50.419 133.276 50.4146C133.335 50.4102 133.419 50.7787 133.667 51.3025C133.967 51.9942 134.47 52.6004 135.121 53.0575C135.773 53.5145 136.549 53.8055 137.369 53.8998C138.002 53.9975 138.418 53.962 138.427 54.033Z" fill="#353535"/>
</svg>
