<svg width="16" height="16" viewBox="0 0 16 16" fill="none" xmlns="http://www.w3.org/2000/svg">
<path d="M7.28589 15.1667C6.96589 15.1667 6.64591 15.0867 6.35258 14.9267C5.75925 14.5934 5.40588 14 5.40588 13.3267V9.76003C5.40588 9.42003 5.18587 8.92001 4.97921 8.66001L2.44588 6.00002C2.02588 5.58002 1.69922 4.84668 1.69922 4.30668V2.76003C1.69922 1.6867 2.51257 0.84668 3.5459 0.84668H12.4392C13.4592 0.84668 14.2859 1.67336 14.2859 2.69336V4.17336C14.2859 4.87336 13.8659 5.68001 13.4659 6.07334C13.2726 6.26668 12.9526 6.26668 12.7592 6.07334C12.5659 5.88001 12.5659 5.56001 12.7592 5.36668C13.0059 5.12001 13.2859 4.56669 13.2859 4.17336V2.69336C13.2859 2.22669 12.9059 1.84668 12.4392 1.84668H3.5459C3.07257 1.84668 2.69922 2.2467 2.69922 2.76003V4.30668C2.69922 4.55335 2.89922 5.04003 3.15922 5.30003L5.72591 8.00002C6.06591 8.42002 6.39921 9.1267 6.39921 9.76003V13.3267C6.39921 13.7667 6.69923 13.98 6.83256 14.0533C7.11923 14.2133 7.45924 14.2067 7.72591 14.0467L8.65922 13.4467C8.85255 13.3334 9.03923 12.9667 9.03923 12.72C9.03923 12.4467 9.26589 12.22 9.53923 12.22C9.81256 12.22 10.0392 12.4467 10.0392 12.72C10.0392 13.32 9.66588 14.0067 9.19255 14.2934L8.26591 14.8934C7.96591 15.0734 7.62589 15.1667 7.28589 15.1667Z" fill="#505050"/>
<path d="M10.7115 11.5133C9.25813 11.5133 8.07812 10.3333 8.07812 8.87998C8.07812 7.42665 9.25813 6.24664 10.7115 6.24664C12.1648 6.24664 13.3448 7.42665 13.3448 8.87998C13.3448 10.3333 12.1648 11.5133 10.7115 11.5133ZM10.7115 7.24664C9.81147 7.24664 9.07812 7.97998 9.07812 8.87998C9.07812 9.77998 9.81147 10.5133 10.7115 10.5133C11.6115 10.5133 12.3448 9.77998 12.3448 8.87998C12.3448 7.97998 11.6115 7.24664 10.7115 7.24664Z" fill="#505050"/>
<path d="M13.247 11.9134C13.1203 11.9134 12.9937 11.8667 12.8937 11.7667L12.227 11.1C12.0337 10.9067 12.0337 10.5867 12.227 10.3934C12.4204 10.2 12.7404 10.2 12.9337 10.3934L13.6004 11.06C13.7937 11.2534 13.7937 11.5734 13.6004 11.7667C13.507 11.86 13.3737 11.9134 13.247 11.9134Z" fill="#353535"/>
</svg>
