<svg width="381" height="250" viewBox="0 0 381 250" fill="none" xmlns="http://www.w3.org/2000/svg">
<path d="M124.014 45.8242L89.2757 225.639L84.7617 249.179L316.348 248.052C326.75 248.002 335.974 238.695 339.301 224.868L380.378 55.1117C382.919 44.6176 377.345 33.6981 369.456 33.708L135.004 33.9553C129.901 33.9454 125.329 38.8117 124.014 45.8242Z" fill="#F66262"/>
<g opacity="0.5">
<path d="M124.014 45.8252L89.2757 225.64L84.7617 249.18L316.348 248.053C326.75 248.003 335.974 238.696 339.301 224.868L380.378 55.1127C382.919 44.6185 377.345 33.6991 369.456 33.709L135.004 33.9563C129.901 33.9464 125.329 38.8126 124.014 45.8252Z" fill="#212121"/>
</g>
<path d="M294.161 213.434L269.629 14.2231C268.648 6.06316 262.181 -0.0295645 254.556 0.000107914L200.781 0.16825C198.783 0.190954 196.81 0.623602 194.983 1.43983C193.156 2.25605 191.513 3.43874 190.154 4.91582L164.64 32.2837L15.0902 33.0947C5.95433 33.1442 -1.07177 41.8679 0.135228 51.6598L22.9112 235.777C23.8925 243.927 30.3592 250.01 37.9643 250L298.646 249.476C327.673 250.079 330.45 241.444 330.45 241.444C297.125 248.872 294.161 213.483 294.161 213.434Z" fill="#F66262"/>
<g opacity="0.5">
<path d="M181.756 173.594L172.963 183.109L105.254 121.707L114.046 112.192L181.756 173.594Z" fill="white"/>
<path d="M169.284 110.086L178.999 118.899L117.736 185.216L108.012 176.404L169.284 110.086Z" fill="white"/>
</g>
</svg>
