<svg width="718" height="524" viewBox="0 0 718 524" fill="none" xmlns="http://www.w3.org/2000/svg">
<path d="M368 327C415.496 327 454 288.496 454 241C454 193.504 415.496 155 368 155C320.503 155 282 193.504 282 241C282 288.496 320.503 327 368 327Z" fill="#00BA88"/>
<path d="M319.738 245.217C318.105 243.668 318.071 241.077 319.662 239.486L327.398 231.75C328.896 230.252 331.301 230.182 332.884 231.588L352.971 249.442C354.532 250.829 356.897 250.782 358.402 249.334L403.201 206.234C404.813 204.684 407.383 204.756 408.905 206.394L415.793 213.808C417.29 215.419 417.205 217.936 415.604 219.443L356.601 274.979C355.057 276.433 352.646 276.429 351.107 274.969L319.738 245.217Z" fill="white"/>
<path d="M442.048 362.439C441.099 361.464 441.517 358.16 442.964 355.07C444.411 351.98 446.373 350.316 447.322 351.267C448.27 352.218 447.852 355.545 446.405 358.635C444.958 361.725 442.981 363.413 442.048 362.439Z" fill="#ADADAD"/>
<path d="M369.654 350.681C368.689 351.655 365.377 346.925 362.258 340.151C359.139 333.377 357.434 327.102 358.319 326.127C359.203 325.153 362.579 329.883 365.715 336.657C368.85 343.431 370.602 349.73 369.654 350.681Z" fill="#F66262"/>
<path d="M363.674 294.963C363.449 296.65 360.893 297.34 357.966 296.46C355.04 295.581 352.854 293.56 353.143 291.873C353.432 290.185 355.924 289.496 358.851 290.399C361.777 291.302 363.899 293.228 363.674 294.963Z" fill="#ADADAD"/>
<path d="M270.302 424.681C269.337 425.655 266.025 420.925 262.906 414.151C259.787 407.377 258.083 401.102 258.967 400.127C259.851 399.153 263.228 403.883 266.363 410.657C269.498 417.431 271.251 423.73 270.302 424.681Z" fill="#F66262"/>
<path d="M531.595 195.681C530.63 196.655 527.318 191.925 524.199 185.151C521.08 178.377 519.376 172.102 520.26 171.127C521.144 170.153 524.521 174.883 527.656 181.657C530.791 188.431 532.544 194.73 531.595 195.681Z" fill="#F66262"/>
<path d="M307.652 209.41C306.494 209.41 305.497 204.443 305.433 198.264C305.369 192.086 306.253 187.024 307.411 187C308.568 186.976 309.565 191.967 309.629 198.169C309.694 204.372 308.809 209.386 307.652 209.41Z" fill="#F66262"/>
<path d="M314.289 109.635C313.887 111.251 310.044 110.657 305.559 109.113C301.073 107.568 297.52 105.548 297.52 103.837C297.52 102.126 301.7 101.461 306.459 103.077C311.218 104.693 314.691 108.043 314.289 109.635Z" fill="#F66262"/>
<path d="M113.117 415.42C113.407 417.083 111.108 419.412 107.989 420.624C104.869 421.836 102.072 421.48 101.782 419.84C101.493 418.2 103.792 415.848 106.911 414.636C110.03 413.424 112.828 413.78 113.117 415.42Z" fill="#F66262"/>
<path d="M166.77 312.441C167.059 314.105 164.76 316.434 161.641 317.646C158.522 318.858 155.724 318.501 155.435 316.862C155.145 315.222 157.444 312.869 160.564 311.657C163.683 310.445 166.48 310.802 166.77 312.441Z" fill="#F66262"/>
<path d="M131.013 242.226C130.547 243.794 127.122 243.057 123.376 240.586C119.63 238.114 116.945 234.859 117.427 233.29C117.909 231.722 121.318 232.482 125.064 234.93C128.81 237.378 131.479 240.681 131.013 242.226Z" fill="#F66262"/>
<path d="M639.741 117.201C639.05 115.847 640.674 112.235 643.375 109.169C646.076 106.104 648.858 104.678 649.565 106.032C650.272 107.387 648.648 110.975 645.931 114.065C643.214 117.154 640.449 118.556 639.741 117.201Z" fill="#F66262"/>
<path d="M510.253 101.682C509.562 100.327 511.186 96.7152 513.887 93.6497C516.588 90.5841 519.369 89.1582 520.077 90.5128C520.784 91.8674 519.16 95.4558 516.443 98.5451C513.726 101.634 510.96 103.037 510.253 101.682Z" fill="#F66262"/>
<path d="M649.612 198.689C650.303 200.091 648.599 203.68 646.396 207.696C644.193 211.712 642.312 214.992 641.219 214.326C640.126 213.661 640.592 208.623 643.116 203.87C645.641 199.117 649.017 197.335 649.612 198.689Z" fill="#F66262"/>
<path d="M574.044 405.365C574.735 406.767 573.031 410.332 570.924 414.372C568.818 418.412 566.825 421.644 565.747 420.978C564.67 420.313 565.104 415.275 567.628 410.546C570.153 405.817 573.368 403.987 574.044 405.365Z" fill="#F66262"/>
<path d="M645.118 299.388C645.809 300.79 644.105 304.354 641.999 308.394C639.892 312.434 637.899 315.666 636.822 315.001C635.744 314.335 636.178 309.297 638.703 304.568C641.227 299.839 644.443 298.009 645.118 299.388Z" fill="#F66262"/>
<path d="M486.157 291.39C486.848 292.792 485.144 296.356 483.038 300.396C480.932 304.436 478.938 307.668 477.861 307.003C476.783 306.337 477.218 301.299 479.742 296.57C482.266 291.841 485.482 290.011 486.157 291.39Z" fill="#F66262"/>
<path d="M558.608 140.525C557.885 141.88 555.618 140.953 553.528 138.481C551.438 136.01 550.312 132.944 551.052 131.613C551.791 130.283 554.058 131.186 556.132 133.657C558.206 136.129 559.332 139.194 558.608 140.525Z" fill="#ADADAD"/>
<path d="M657.069 257.192C656.008 256.503 655.831 253.699 656.651 250.918C657.471 248.138 659.03 246.45 660.075 247.163C661.12 247.876 661.313 250.657 660.477 253.437C659.641 256.218 658.114 257.905 657.069 257.192Z" fill="#ADADAD"/>
<path d="M385.114 45.4341C384.166 44.4597 384.584 41.1565 386.031 38.0672C387.478 34.9778 389.439 33.3144 390.388 34.2649C391.337 35.2155 390.919 38.5425 389.472 41.6318C388.025 44.7211 386.047 46.4084 385.114 45.4341Z" fill="#ADADAD"/>
<path d="M247.147 289.3C246.922 290.988 244.365 291.677 241.439 290.798C238.513 289.918 236.326 287.898 236.616 286.211C236.905 284.524 239.397 283.835 242.323 284.738C245.249 285.641 247.372 287.566 247.147 289.3Z" fill="#ADADAD"/>
<path d="M203.717 419.877C203.492 421.564 200.936 422.253 198.009 421.374C195.083 420.495 192.896 418.475 193.186 416.787C193.475 415.1 195.967 414.411 198.894 415.314C201.82 416.217 203.942 418.142 203.717 419.877Z" fill="#ADADAD"/>
<path d="M271.276 199.924C271.05 201.612 268.494 202.301 265.568 201.422C262.642 200.542 260.455 198.522 260.744 196.835C261.034 195.148 263.526 194.459 266.452 195.362C269.378 196.265 271.501 198.19 271.276 199.924Z" fill="#ADADAD"/>
<path d="M203.717 378.885C203.492 380.573 200.936 381.262 198.009 380.383C195.083 379.503 192.896 377.483 193.186 375.796C193.475 374.109 195.967 373.42 198.894 374.323C201.82 375.226 203.942 377.151 203.717 378.885Z" fill="#F66262"/>
<path d="M92.4256 326.451C91.4188 328.143 90.1003 329.365 88.6312 329.968C84.6337 332.02 80.2601 331.774 76.3797 329.279C73.6744 327.575 71.3422 324.794 69.643 321.246C68.7345 319.191 68.0357 316.949 67.5689 314.592C66.8657 310.636 66.79 306.493 67.3478 302.487C67.9055 298.48 69.0817 294.718 70.7845 291.494C72.0541 289.049 73.6774 287.055 75.5357 285.657C77.394 284.259 79.4402 283.492 81.5247 283.414C83.7508 283.512 85.8674 284.864 87.4414 287.192C88.2532 288.373 88.851 289.836 89.1798 291.447C89.5085 293.058 89.5576 294.766 89.3225 296.413C88.9622 298.65 88.2091 300.706 87.1392 302.375C86.0693 304.044 84.7205 305.266 83.2289 305.919C82.3008 306.285 81.3439 306.469 80.3831 306.465C76.9046 306.21 73.605 304.109 71.09 300.548C68.9441 297.611 67.2923 293.973 66.2666 289.925C64.7627 284.132 64.5931 277.767 65.7843 271.817C66.1099 269.618 66.8321 267.589 67.8744 265.947C68.0673 266.114 67.2956 268.157 66.7329 272.173C65.9955 277.77 66.4099 283.564 67.9226 288.808C68.9397 292.391 70.5023 295.579 72.4888 298.124C74.669 301.025 77.4677 302.707 80.3992 302.877C81.8793 302.918 83.3269 302.233 84.5152 300.928C85.7376 299.615 86.5948 297.689 86.9269 295.51C87.0754 294.453 87.0396 293.358 86.8231 292.327C86.6065 291.296 86.2162 290.363 85.6889 289.616C84.5055 288.032 82.9607 287.166 81.3639 287.192C79.6718 287.197 78.0096 287.853 76.5405 289.094C75.0555 290.308 73.7362 291.92 72.6496 293.846C70.6192 297.652 69.4343 302.291 69.2571 307.131C69.178 309.381 69.3133 311.637 69.6591 313.832C70.014 315.856 70.5549 317.799 71.2669 319.607C72.7078 322.812 74.7228 325.362 77.0871 326.974C80.592 329.45 84.5692 330.055 88.3418 328.685C90.9946 327.591 92.313 326.166 92.4256 326.451Z" fill="#ADADAD"/>
<path d="M214.27 153.537C212.748 154.489 211.285 155.634 209.896 156.959C208.379 158.639 207.142 160.809 206.279 163.304C205.181 166.578 204.863 170.305 205.378 173.879C205.64 175.999 206.189 178.018 206.993 179.815C207.797 181.613 208.84 183.15 210.057 184.335C211.372 185.519 212.918 186.012 214.446 185.738C215.151 185.611 215.807 185.144 216.313 184.409C216.819 183.674 217.146 182.712 217.244 181.674C217.35 180.506 217.259 179.317 216.979 178.214C216.698 177.111 216.237 176.128 215.636 175.353C214.243 173.581 212.536 172.435 210.716 172.049C208.749 171.62 206.741 171.838 204.837 172.689C202.934 173.539 201.18 175.001 199.703 176.969C198.189 178.823 197.03 181.232 196.341 183.954C195.653 186.677 195.459 189.619 195.78 192.487C196.069 195.136 196.919 197.582 198.208 199.473C198.799 200.336 199.512 200.996 200.296 201.407C201.079 201.817 201.914 201.968 202.742 201.85C204.336 201.711 205.828 200.642 206.89 198.879C207.348 198.076 207.658 197.111 207.791 196.079C207.923 195.046 207.873 193.981 207.645 192.986C207.166 191.011 206.248 189.336 205.041 188.233C203.906 187.165 202.573 186.649 201.23 186.759C198.804 187.085 196.531 188.648 194.799 191.179C193.436 193.175 192.311 195.497 191.471 198.047C190.838 200.362 190.119 202.623 189.316 204.82C189.4 202.263 189.832 199.757 190.587 197.453C191.318 194.601 192.41 191.981 193.802 189.73C195.715 186.605 198.333 184.619 201.166 184.145C202.98 183.909 204.797 184.56 206.336 185.999C207.876 187.437 209.053 189.583 209.687 192.106C210.027 193.572 210.126 195.136 209.977 196.669C209.811 198.271 209.361 199.779 208.674 201.042C207.576 202.895 206.139 204.239 204.536 204.914C202.933 205.589 201.232 205.564 199.639 204.844C198.519 204.308 197.493 203.416 196.632 202.23C194.936 199.842 193.808 196.708 193.416 193.295C192.979 189.84 193.184 186.276 194.011 182.981C194.863 179.639 196.266 176.665 198.095 174.331C199.849 171.993 201.935 170.265 204.199 169.274C206.464 168.283 208.85 168.054 211.183 168.604C213.469 169.141 215.601 170.643 217.324 172.929C218.214 174.104 218.891 175.589 219.295 177.249C219.7 178.908 219.818 180.69 219.64 182.434C219.479 184.24 218.913 185.914 218.032 187.187C217.175 188.345 216.096 189.083 214.945 189.302C212.876 189.612 210.799 188.838 209.076 187.116C207.638 185.673 206.418 183.804 205.493 181.628C204.569 179.451 203.96 177.015 203.706 174.473C203.229 170.344 203.729 166.097 205.121 162.449C206.171 159.78 207.644 157.528 209.414 155.89C212.292 153.157 214.286 153.371 214.27 153.537Z" fill="#ADADAD"/>
<path d="M548.081 264.492C548.948 266.582 549.938 268.554 551.04 270.386C552.404 272.344 554.054 273.816 555.863 274.687C558.222 275.8 560.766 275.699 563.082 274.402C564.459 273.695 565.724 272.583 566.801 271.133C567.879 269.683 568.747 267.925 569.352 265.966C569.945 263.864 570.042 261.528 569.626 259.336C569.428 258.312 569.004 257.416 568.421 256.791C567.838 256.166 567.13 255.849 566.41 255.89C565.612 255.928 564.833 256.259 564.143 256.852C563.452 257.445 562.872 258.282 562.455 259.288C561.475 261.593 560.961 264.265 560.976 266.988C560.991 269.925 561.444 272.822 562.303 275.471C563.161 278.12 564.405 280.457 565.944 282.316C567.415 284.24 569.201 285.562 571.125 286.149C573.048 286.737 575.043 286.571 576.909 285.666C578.642 284.864 580.154 283.255 581.218 281.08C581.696 280.082 582.022 278.942 582.172 277.74C582.322 276.537 582.293 275.301 582.086 274.117C581.926 272.97 581.613 271.881 581.166 270.915C580.719 269.948 580.147 269.122 579.482 268.485C578.872 267.937 578.177 267.632 577.465 267.598C576.752 267.565 576.045 267.805 575.414 268.295C574.147 269.28 573.143 270.872 572.568 272.81C572.023 274.64 571.882 276.677 572.166 278.632C572.741 282.161 574.135 285.281 576.105 287.449C577.651 289.121 579.373 290.406 581.202 291.251C582.836 291.818 584.446 292.524 586.025 293.366C584.306 293.639 582.567 293.396 580.913 292.653C578.896 291.991 576.978 290.791 575.253 289.112C572.879 286.782 571.163 283.249 570.43 279.179C569.998 276.569 570.159 273.822 570.888 271.361C571.618 268.9 572.875 266.862 574.465 265.562C575.4 264.783 576.455 264.374 577.528 264.374C578.601 264.374 579.656 264.783 580.591 265.562C581.525 266.405 582.337 267.513 582.98 268.823C583.623 270.132 584.084 271.616 584.337 273.19C584.614 274.821 584.674 276.516 584.514 278.181C584.323 279.888 583.878 281.511 583.212 282.933C581.865 285.772 579.938 287.896 577.713 288.993C575.477 290.15 573.071 290.388 570.751 289.682C568.371 288.923 566.159 287.288 564.32 284.93C562.489 282.718 561.016 279.929 560.009 276.767C559.002 273.605 558.486 270.15 558.5 266.655C558.519 263.273 559.2 259.971 560.461 257.149C561.113 255.692 561.999 254.495 563.04 253.666C564.081 252.837 565.244 252.4 566.426 252.396C567.636 252.4 568.812 252.993 569.77 254.084C570.673 255.17 571.329 256.637 571.652 258.29C572.182 261.203 572.023 264.297 571.201 267.059C570.458 269.376 569.397 271.439 568.085 273.117C566.773 274.794 565.239 276.049 563.58 276.802C560.89 278.142 557.969 278.058 555.316 276.565C553.368 275.439 551.635 273.628 550.268 271.289C548.129 267.439 547.969 264.492 548.081 264.492Z" fill="#ADADAD"/>
<path d="M227.96 35.5984C228.709 37.4289 229.564 39.1568 230.515 40.7622C231.693 42.4782 233.118 43.7674 234.68 44.531C236.717 45.5057 238.914 45.4177 240.913 44.2811C242.101 43.6614 243.194 42.6869 244.124 41.4165C245.055 40.1461 245.804 38.606 246.327 36.8893C246.839 35.0478 246.922 33.0011 246.563 31.08C246.393 30.1831 246.026 29.398 245.523 28.8506C245.019 28.3032 244.408 28.0251 243.787 28.0608C243.097 28.0944 242.425 28.384 241.829 28.9037C241.233 29.4234 240.732 30.1569 240.371 31.0384C239.525 33.0581 239.082 35.3991 239.094 37.7847C239.107 40.3585 239.498 42.8965 240.24 45.2178C240.981 47.5391 242.055 49.5867 243.384 51.2148C244.654 52.9009 246.196 54.059 247.857 54.5741C249.518 55.0891 251.24 54.9432 252.852 54.1507C254.348 53.4477 255.654 52.0381 256.572 50.1321C256.986 49.258 257.267 48.2594 257.396 47.2057C257.526 46.1521 257.5 45.0688 257.322 44.0313C257.184 43.0263 256.914 42.0725 256.528 41.2254C256.142 40.3782 255.647 39.6546 255.073 39.0965C254.547 38.6165 253.947 38.3488 253.332 38.3197C252.716 38.2905 252.106 38.5007 251.561 38.9299C250.467 39.7929 249.6 41.1878 249.104 42.886C248.633 44.4894 248.512 46.2745 248.757 47.9874C249.253 51.0798 250.457 53.8134 252.158 55.7124C253.493 57.1778 254.98 58.3034 256.559 59.0439C257.969 59.5408 259.36 60.1596 260.723 60.8971C259.239 61.1361 257.737 60.9236 256.309 60.2724C254.568 59.6922 252.912 58.6409 251.422 57.1699C249.372 55.1286 247.891 52.0328 247.257 48.4664C246.884 46.1797 247.024 43.7726 247.653 41.6164C248.283 39.4602 249.368 37.6747 250.742 36.5353C251.549 35.853 252.46 35.4946 253.386 35.4946C254.313 35.4946 255.224 35.853 256.031 36.5353C256.838 37.2743 257.539 38.2454 258.094 39.3925C258.649 40.5396 259.047 41.8402 259.266 43.2192C259.505 44.6481 259.557 46.1332 259.418 47.5918C259.253 49.0875 258.869 50.5097 258.294 51.7562C257.131 54.2431 255.467 56.1043 253.546 57.0658C251.616 58.0792 249.538 58.288 247.535 57.6696C245.48 57.0044 243.57 55.572 241.982 53.5053C240.401 51.5674 239.129 49.1236 238.26 46.3531C237.39 43.5825 236.945 40.5553 236.956 37.4932C236.973 34.5299 237.561 31.6371 238.65 29.1644C239.213 27.8872 239.978 26.8387 240.877 26.1121C241.775 25.3855 242.78 25.0035 243.8 25C244.845 25.0029 245.86 25.5225 246.688 26.4783C247.467 27.4298 248.034 28.7157 248.312 30.1638C248.77 32.7165 248.633 35.4273 247.924 37.8471C247.282 39.8774 246.366 41.6851 245.233 43.1549C244.1 44.6247 242.775 45.7245 241.343 46.3842C239.021 47.5584 236.498 47.4847 234.208 46.1759C232.526 45.1896 231.029 43.6029 229.848 41.5534C228.002 38.1803 227.863 35.5984 227.96 35.5984Z" fill="#ADADAD"/>
<path d="M258.761 372.096C259.628 374.185 260.618 376.157 261.719 377.989C263.084 379.948 264.734 381.419 266.543 382.291C268.902 383.403 271.446 383.303 273.762 382.006C275.138 381.298 276.403 380.186 277.481 378.736C278.559 377.286 279.427 375.529 280.032 373.569C280.625 371.468 280.721 369.132 280.305 366.939C280.108 365.916 279.684 365.02 279.101 364.395C278.518 363.77 277.809 363.453 277.09 363.493C276.292 363.532 275.513 363.862 274.822 364.455C274.132 365.048 273.552 365.886 273.135 366.892C272.154 369.197 271.641 371.869 271.655 374.591C271.671 377.529 272.124 380.425 272.982 383.075C273.841 385.724 275.084 388.061 276.624 389.919C278.095 391.843 279.881 393.165 281.804 393.753C283.728 394.341 285.722 394.174 287.589 393.27C289.322 392.467 290.833 390.859 291.898 388.683C292.376 387.686 292.702 386.546 292.852 385.343C293.002 384.141 292.972 382.905 292.766 381.72C292.606 380.573 292.293 379.485 291.846 378.518C291.399 377.551 290.826 376.725 290.161 376.088C289.552 375.54 288.857 375.235 288.144 375.202C287.432 375.168 286.725 375.408 286.094 375.898C284.826 376.883 283.823 378.475 283.248 380.413C282.703 382.243 282.562 384.281 282.846 386.236C283.421 389.765 284.815 392.885 286.785 395.052C288.331 396.725 290.053 398.009 291.882 398.854C293.516 399.422 295.126 400.128 296.705 400.969C294.986 401.242 293.247 401 291.592 400.256C289.576 399.594 287.658 398.394 285.933 396.716C283.558 394.386 281.843 390.853 281.109 386.782C280.678 384.172 280.839 381.425 281.568 378.964C282.297 376.503 283.554 374.466 285.145 373.165C286.08 372.387 287.135 371.977 288.208 371.977C289.281 371.977 290.336 372.387 291.271 373.165C292.205 374.009 293.017 375.117 293.66 376.426C294.302 377.735 294.764 379.22 295.017 380.794C295.294 382.424 295.354 384.119 295.194 385.784C295.002 387.491 294.558 389.114 293.891 390.537C292.545 393.375 290.617 395.499 288.393 396.597C286.157 397.753 283.751 397.992 281.431 397.286C279.051 396.527 276.839 394.892 275 392.533C273.169 390.321 271.696 387.532 270.689 384.37C269.682 381.208 269.166 377.753 269.179 374.258C269.199 370.876 269.88 367.575 271.141 364.753C271.793 363.295 272.679 362.098 273.72 361.269C274.76 360.44 275.924 360.004 277.106 360C278.316 360.003 279.491 360.596 280.45 361.687C281.353 362.773 282.009 364.241 282.331 365.893C282.862 368.807 282.703 371.901 281.881 374.662C281.138 376.98 280.077 379.043 278.765 380.72C277.453 382.398 275.918 383.653 274.26 384.406C271.57 385.746 268.649 385.662 265.996 384.168C264.048 383.042 262.315 381.232 260.947 378.892C258.809 375.043 258.648 372.096 258.761 372.096Z" fill="#ADADAD"/>
<path d="M482.18 406.447C482.872 407.849 481.167 411.414 479.061 415.454C476.955 419.494 474.961 422.726 473.884 422.06C472.807 421.395 473.241 416.357 475.765 411.628C478.289 406.899 481.505 405.069 482.18 406.447Z" fill="#F66262"/>
<path d="M189.617 472.504C189.907 474.167 187.608 476.496 184.489 477.708C181.369 478.92 178.572 478.564 178.282 476.924C177.993 475.284 180.292 472.932 183.411 471.72C186.53 470.508 189.328 470.864 189.617 472.504Z" fill="#F66262"/>
<path d="M531.856 463.447C532.547 464.849 530.843 468.414 528.737 472.454C526.631 476.494 524.637 479.726 523.56 479.06C522.483 478.395 522.917 473.357 525.441 468.628C527.965 463.899 531.181 462.069 531.856 463.447Z" fill="#ADADAD"/>
<path d="M316.593 456.41C315.436 456.41 314.439 451.443 314.374 445.264C314.31 439.086 315.194 434.024 316.352 434C317.51 433.976 318.506 438.967 318.571 445.169C318.635 451.372 317.751 456.386 316.593 456.41Z" fill="#F66262"/>
<path d="M216.855 173.166C216.855 173.357 215.987 174.141 214.154 174.402C211.52 174.727 208.887 173.785 206.645 171.717C204.953 170.133 203.537 167.983 202.512 165.439C201.486 162.896 200.881 160.032 200.745 157.078C200.543 153.511 201.051 149.934 202.208 146.788C202.855 145.065 203.749 143.573 204.828 142.416C206.016 141.14 207.462 140.502 208.928 140.61C210.439 140.676 211.878 141.575 212.964 143.129C213.5 143.937 213.902 144.917 214.139 145.993C214.376 147.069 214.441 148.211 214.331 149.331C214.131 151.383 213.468 153.276 212.449 154.702C211.493 155.966 210.309 156.792 209.041 157.078C206.828 157.59 204.563 156.987 202.61 155.367C200.981 154.038 199.574 152.187 198.494 149.949C196.925 146.79 196.101 142.959 196.146 139.041C196.227 136.332 196.693 134.954 196.822 135.001C196.95 135.049 196.822 136.498 197.127 138.97C197.424 142.465 198.389 145.762 199.909 148.475C200.916 150.256 202.165 151.705 203.574 152.729C205.125 153.873 206.883 154.255 208.591 153.822C209.416 153.575 210.175 152.981 210.777 152.111C211.381 151.238 211.771 150.093 211.887 148.856C211.945 148.291 211.911 147.714 211.788 147.172C211.665 146.631 211.456 146.141 211.179 145.743C210.536 144.855 209.695 144.347 208.816 144.317C207.876 144.351 206.962 144.769 206.173 145.524C205.384 146.279 204.752 147.342 204.346 148.594C203.397 151.116 202.951 153.983 203.06 156.864C203.128 159.354 203.574 161.788 204.364 163.989C205.155 166.189 206.269 168.099 207.626 169.578C209.545 171.592 211.805 172.776 214.154 173C215.842 173.143 216.807 172.881 216.855 173.166Z" fill="#ADADAD"/>
<path d="M379.788 128.166C379.788 128.357 378.92 129.141 377.087 129.402C374.454 129.727 371.82 128.785 369.579 126.717C367.887 125.133 366.47 122.983 365.445 120.439C364.42 117.896 363.815 115.032 363.678 112.078C363.476 108.511 363.985 104.934 365.141 101.788C365.789 100.065 366.683 98.5729 367.762 97.4156C368.949 96.1397 370.396 95.5024 371.862 95.6095C373.373 95.6762 374.812 96.5746 375.898 98.1285C376.433 98.9368 376.835 99.9172 377.072 100.993C377.309 102.069 377.375 103.211 377.264 104.331C377.065 106.383 376.402 108.276 375.383 109.702C374.427 110.966 373.243 111.792 371.975 112.078C369.762 112.59 367.497 111.987 365.543 110.367C363.915 109.038 362.508 107.187 361.427 104.949C359.859 101.79 359.034 97.9586 359.08 94.0411C359.16 91.332 359.627 89.9537 359.755 90.0012C359.884 90.0487 359.755 91.4983 360.061 93.9698C360.358 97.4646 361.323 100.762 362.842 103.475C363.85 105.256 365.099 106.705 366.508 107.729C368.059 108.873 369.816 109.255 371.524 108.822C372.349 108.575 373.109 107.981 373.711 107.111C374.315 106.238 374.705 105.093 374.82 103.856C374.879 103.291 374.845 102.714 374.722 102.172C374.599 101.631 374.39 101.141 374.113 100.743C373.47 99.8548 372.629 99.3473 371.749 99.3167C370.81 99.3514 369.895 99.7693 369.107 100.524C368.318 101.279 367.686 102.342 367.28 103.594C366.33 106.116 365.885 108.983 365.993 111.864C366.062 114.354 366.508 116.788 367.298 118.989C368.088 121.189 369.203 123.099 370.56 124.578C372.479 126.592 374.739 127.776 377.087 128C378.776 128.143 379.74 127.881 379.788 128.166Z" fill="#ADADAD"/>
<path d="M455.906 111.447C456.602 112.849 454.887 116.414 452.767 120.454C450.647 124.494 448.64 127.726 447.556 127.06C446.471 126.395 446.908 121.357 449.449 116.628C451.99 111.899 455.226 110.069 455.906 111.447Z" fill="#F66262"/>
<path d="M267.906 182.447C268.602 183.849 266.887 187.414 264.767 191.454C262.647 195.494 260.64 198.726 259.556 198.06C258.471 197.395 258.908 192.357 261.449 187.628C263.99 182.899 267.226 181.069 267.906 182.447Z" fill="#F66262"/>
<path d="M406.643 49.6756C405.672 50.6499 402.339 45.9208 399.199 39.148C396.06 32.3753 394.344 26.1015 395.234 25.1272C396.124 24.1529 399.523 28.882 402.679 35.6548C405.834 42.4275 407.598 48.725 406.643 49.6756Z" fill="#F66262"/>
</svg>
