<svg width="40" height="35" viewBox="0 0 40 35" fill="none" xmlns="http://www.w3.org/2000/svg">
<path d="M36.25 32.5H3.75C1.675 32.5 0 30.825 0 28.75V6.25C0 4.175 1.675 2.5 3.75 2.5H36.25C38.325 2.5 40 4.175 40 6.25V28.75C40 30.825 38.325 32.5 36.25 32.5ZM3.75 5C3.05 5 2.5 5.55 2.5 6.25V28.75C2.5 29.45 3.05 30 3.75 30H36.25C36.95 30 37.5 29.45 37.5 28.75V6.25C37.5 5.55 36.95 5 36.25 5H3.75Z" fill="#ADADAD"/>
<path d="M20.0005 22.4001C18.2505 22.4001 16.6505 21.7001 15.4505 20.4251L2.32554 6.47505C1.85054 5.97505 1.87554 5.17505 2.37554 4.70005C2.87554 4.22505 3.67554 4.25005 4.15054 4.75005L17.2755 18.7001C18.7005 20.2251 21.3005 20.2251 22.7255 18.7001L35.8505 4.77505C36.3255 4.27505 37.1255 4.25005 37.6255 4.72505C38.1255 5.20005 38.1505 6.00005 37.6755 6.50005L24.5505 20.4501C23.3505 21.7251 21.7505 22.4251 20.0005 22.4251V22.4001Z" fill="#ADADAD"/>
</svg>
