<svg width="48" height="48" viewBox="0 0 48 48" fill="none" xmlns="http://www.w3.org/2000/svg">
<path d="M18 21.5C14.96 21.5 12.5 19.04 12.5 16C12.5 12.96 14.96 10.5 18 10.5C21.04 10.5 23.5 12.96 23.5 16C23.5 19.04 21.04 21.5 18 21.5ZM18 13.5C16.62 13.5 15.5 14.62 15.5 16C15.5 17.38 16.62 18.5 18 18.5C19.38 18.5 20.5 17.38 20.5 16C20.5 14.62 19.38 13.5 18 13.5Z" fill="#717171"/>
<path d="M30 45.5H18C7.14 45.5 2.5 40.86 2.5 30V18C2.5 7.14 7.14 2.5 18 2.5H26C26.82 2.5 27.5 3.18 27.5 4C27.5 4.82 26.82 5.5 26 5.5H18C8.78 5.5 5.5 8.78 5.5 18V30C5.5 39.22 8.78 42.5 18 42.5H30C39.22 42.5 42.5 39.22 42.5 30V20C42.5 19.18 43.18 18.5 44 18.5C44.82 18.5 45.5 19.18 45.5 20V30C45.5 40.86 40.86 45.5 30 45.5Z" fill="#717171"/>
<path d="M42.5 11.5H31.5C30.68 11.5 30 10.82 30 10C30 9.18 30.68 8.5 31.5 8.5H42.5C43.32 8.5 44 9.18 44 10C44 10.82 43.32 11.5 42.5 11.5Z" fill="#717171"/>
<path d="M37 17C36.18 17 35.5 16.32 35.5 15.5V4.5C35.5 3.68 36.18 3 37 3C37.82 3 38.5 3.68 38.5 4.5V15.5C38.5 16.32 37.82 17 37 17Z" fill="#717171"/>
<path d="M5.33863 39.4C4.85863 39.4 4.37863 39.16 4.09863 38.74C3.63863 38.06 3.81863 37.12 4.49863 36.66L14.3586 30.04C16.5186 28.6 19.4986 28.76 21.4586 30.42L22.1186 31C23.1186 31.86 24.8186 31.86 25.7986 31L34.1186 23.86C36.2586 22.04 39.5786 22.04 41.7186 23.86L44.9786 26.66C45.5986 27.2 45.6786 28.14 45.1386 28.78C44.5986 29.4 43.6586 29.48 43.0186 28.94L39.7586 26.14C38.7586 25.28 37.0586 25.28 36.0786 26.14L27.7586 33.28C25.6386 35.1 22.2986 35.1 20.1586 33.28L19.4986 32.7C18.5786 31.92 17.0586 31.84 16.0386 32.54L6.19863 39.16C5.91863 39.32 5.61863 39.4 5.33863 39.4Z" fill="#717171"/>
</svg>
