<svg width="16" height="16" viewBox="0 0 16 16" fill="none" xmlns="http://www.w3.org/2000/svg">
<path d="M6.63156 15.1667H5.1849C4.9249 15.1667 4.4049 15.0866 4.1049 14.7933L2.97156 13.92L3.58489 13.1266L4.7649 14.04C4.85156 14.1134 5.03156 14.1667 5.1849 14.1667H6.63156C6.87823 14.1667 7.15823 13.96 7.21156 13.7467L8.13823 10.9267C8.1649 10.86 8.1849 10.76 8.13823 10.6867C8.09823 10.6267 8.00489 10.5933 7.89156 10.5933H6.3649C6.1049 10.5933 5.8649 10.48 5.69156 10.2867C5.51823 10.0867 5.4449 9.8333 5.4849 9.55997L5.67823 8.33332C5.70489 8.21999 5.6249 8.07995 5.51823 8.04662C5.43156 8.01329 5.28489 8.07336 5.25156 8.12002L3.6849 10.4467L2.85156 9.88663L4.41157 7.55997C4.7049 7.11997 5.3449 6.92001 5.83823 7.10668C6.4049 7.29334 6.77823 7.93334 6.6449 8.52001L6.47823 9.58666H7.87156C8.31823 9.58666 8.7049 9.77334 8.93823 10.1067C9.1649 10.4267 9.21156 10.8467 9.0649 11.2467L8.15157 14.02C8.01823 14.6467 7.33823 15.1667 6.63156 15.1667Z" fill="#353535"/>
<path d="M2.47984 14.7467H2.09984C1.05984 14.7467 0.839844 14.08 0.839844 13.52V9.78672C0.839844 9.22672 1.05984 8.56 2.09984 8.56H2.47984C3.51984 8.56 3.73984 9.22672 3.73984 9.78672V13.52C3.73984 14.08 3.51984 14.7467 2.47984 14.7467ZM1.85984 13.72C1.86651 13.72 1.93318 13.7467 2.09318 13.7467H2.47317C2.64651 13.7467 2.70651 13.72 2.71984 13.7133C2.71984 13.7067 2.73984 13.66 2.73984 13.52V9.78672C2.73984 9.64672 2.71984 9.59336 2.71318 9.58669C2.71318 9.60002 2.64651 9.56 2.47984 9.56H2.09984C1.92651 9.56 1.86651 9.5867 1.85317 9.59336C1.85317 9.60003 1.83318 9.64672 1.83318 9.78672V13.52C1.83318 13.66 1.85318 13.7133 1.85984 13.72Z" fill="#353535"/>
<path d="M10.5401 8.95994C10.4068 8.95994 10.2735 8.93996 10.1468 8.89329C9.58013 8.70662 9.2068 8.06663 9.34013 7.47996L9.5068 6.41331H8.11346C7.66679 6.41331 7.28013 6.22662 7.0468 5.89329C6.82013 5.57329 6.77346 5.15332 6.92013 4.75332L7.83346 1.97996C7.9868 1.35329 8.67346 0.833313 9.37346 0.833313H10.8201C11.0801 0.833313 11.6001 0.913352 11.9001 1.20669L13.0335 2.07998L12.4201 2.87335L11.2401 1.95994C11.1535 1.88661 10.9735 1.83331 10.8201 1.83331H9.37346C9.12679 1.83331 8.8468 2.03998 8.79346 2.25332L7.8668 5.0733C7.84013 5.13997 7.82013 5.23996 7.8668 5.31329C7.9068 5.37329 8.00013 5.40664 8.11346 5.40664H9.64013C9.90013 5.40664 10.1401 5.51994 10.3135 5.71328C10.4868 5.91328 10.5601 6.16667 10.5201 6.44L10.3268 7.66665C10.3001 7.77998 10.3801 7.92002 10.4868 7.95335C10.5801 7.98668 10.7201 7.93328 10.7535 7.87994L12.3201 5.55328L13.1535 6.11334L11.5935 8.44C11.3535 8.76 10.9401 8.95994 10.5401 8.95994Z" fill="#353535"/>
<path d="M13.9056 7.44004H13.5256C12.4856 7.44004 12.2656 6.77332 12.2656 6.21332V2.48C12.2656 1.92 12.4856 1.25336 13.5256 1.25336H13.9056C14.9456 1.25336 15.1656 1.92 15.1656 2.48V6.21332C15.1656 6.77332 14.9456 7.44004 13.9056 7.44004ZM13.2856 6.41335C13.2923 6.41335 13.359 6.44004 13.519 6.44004H13.899C14.0723 6.44004 14.1323 6.41334 14.1456 6.40668C14.1456 6.40001 14.1656 6.35332 14.1656 6.21332V2.48C14.1656 2.34 14.1456 2.29338 14.139 2.28005C14.1456 2.30672 14.0723 2.25336 13.9056 2.25336H13.5256C13.3523 2.25336 13.2923 2.28006 13.279 2.28672C13.279 2.29339 13.259 2.34 13.259 2.48V6.21332C13.259 6.35332 13.279 6.40002 13.2856 6.41335Z" fill="#353535"/>
</svg>
