<svg width="16" height="16" viewBox="0 0 16 16" fill="none" xmlns="http://www.w3.org/2000/svg">
<path d="M8.00187 9.44667C6.58187 9.44667 5.42188 8.29333 5.42188 6.86667C5.42188 5.44 6.58187 4.29333 8.00187 4.29333C9.42188 4.29333 10.5819 5.44667 10.5819 6.87334C10.5819 8.3 9.42188 9.44667 8.00187 9.44667ZM8.00187 5.29333C7.13521 5.29333 6.42188 6 6.42188 6.87334C6.42188 7.74667 7.12854 8.45333 8.00187 8.45333C8.87521 8.45333 9.58187 7.74667 9.58187 6.87334C9.58187 6 8.86854 5.29333 8.00187 5.29333Z" fill="#505050"/>
<path d="M8.00109 15.1733C7.01443 15.1733 6.02109 14.8 5.24776 14.06C3.28109 12.1666 1.10776 9.14665 1.92776 5.55331C2.66776 2.29331 5.51443 0.833313 8.00109 0.833313C8.00109 0.833313 8.00109 0.833313 8.00776 0.833313C10.4944 0.833313 13.3411 2.29331 14.0811 5.55998C14.8944 9.15331 12.7211 12.1666 10.7544 14.06C9.98109 14.8 8.98776 15.1733 8.00109 15.1733ZM8.00109 1.83331C6.06109 1.83331 3.56776 2.86665 2.90776 5.77331C2.18776 8.91331 4.16109 11.62 5.94776 13.3333C7.10109 14.4466 8.90776 14.4466 10.0611 13.3333C11.8411 11.62 13.8144 8.91331 13.1078 5.77331C12.4411 2.86665 9.94109 1.83331 8.00109 1.83331Z" fill="#505050"/>
</svg>
