<svg width="20" height="21" viewBox="0 0 20 21" fill="none" xmlns="http://www.w3.org/2000/svg">
<path d="M14.537 13.3083C14.3786 13.3083 14.2203 13.25 14.0953 13.125C13.8536 12.8833 13.8536 12.4833 14.0953 12.2417L15.787 10.55L14.0953 8.85835C13.8536 8.61668 13.8536 8.21668 14.0953 7.97501C14.337 7.73335 14.737 7.73335 14.9786 7.97501L17.112 10.1083C17.3536 10.35 17.3536 10.75 17.112 10.9917L14.9786 13.125C14.8536 13.25 14.6953 13.3083 14.537 13.3083Z" fill="#717171"/>
<path d="M16.6078 11.175H8.13281C7.79115 11.175 7.50781 10.8917 7.50781 10.55C7.50781 10.2083 7.79115 9.92499 8.13281 9.92499H16.6078C16.9495 9.92499 17.2328 10.2083 17.2328 10.55C17.2328 10.8917 16.9495 11.175 16.6078 11.175Z" fill="#717171"/>
<path d="M9.79948 17.7916C5.50781 17.7916 2.50781 14.7916 2.50781 10.5C2.50781 6.20831 5.50781 3.20831 9.79948 3.20831C10.1411 3.20831 10.4245 3.49165 10.4245 3.83331C10.4245 4.17498 10.1411 4.45831 9.79948 4.45831C6.24115 4.45831 3.75781 6.94165 3.75781 10.5C3.75781 14.0583 6.24115 16.5416 9.79948 16.5416C10.1411 16.5416 10.4245 16.825 10.4245 17.1666C10.4245 17.5083 10.1411 17.7916 9.79948 17.7916Z" fill="#717171"/>
</svg>
