<svg width="16" height="16" viewBox="0 0 16 16" fill="none" xmlns="http://www.w3.org/2000/svg">
<path d="M3.33333 9.83332C2.32 9.83332 1.5 9.01332 1.5 7.99999C1.5 6.98666 2.32 6.16666 3.33333 6.16666C4.34667 6.16666 5.16667 6.98666 5.16667 7.99999C5.16667 9.01332 4.34667 9.83332 3.33333 9.83332ZM3.33333 7.16666C2.87333 7.16666 2.5 7.53999 2.5 7.99999C2.5 8.45999 2.87333 8.83332 3.33333 8.83332C3.79333 8.83332 4.16667 8.45999 4.16667 7.99999C4.16667 7.53999 3.79333 7.16666 3.33333 7.16666Z" fill="#353535"/>
<path d="M12.6654 9.83332C11.652 9.83332 10.832 9.01332 10.832 7.99999C10.832 6.98666 11.652 6.16666 12.6654 6.16666C13.6787 6.16666 14.4987 6.98666 14.4987 7.99999C14.4987 9.01332 13.6787 9.83332 12.6654 9.83332ZM12.6654 7.16666C12.2054 7.16666 11.832 7.53999 11.832 7.99999C11.832 8.45999 12.2054 8.83332 12.6654 8.83332C13.1254 8.83332 13.4987 8.45999 13.4987 7.99999C13.4987 7.53999 13.1254 7.16666 12.6654 7.16666Z" fill="#353535"/>
<path d="M8.0013 9.83332C6.98797 9.83332 6.16797 9.01332 6.16797 7.99999C6.16797 6.98666 6.98797 6.16666 8.0013 6.16666C9.01464 6.16666 9.83464 6.98666 9.83464 7.99999C9.83464 9.01332 9.01464 9.83332 8.0013 9.83332ZM8.0013 7.16666C7.5413 7.16666 7.16797 7.53999 7.16797 7.99999C7.16797 8.45999 7.5413 8.83332 8.0013 8.83332C8.4613 8.83332 8.83464 8.45999 8.83464 7.99999C8.83464 7.53999 8.4613 7.16666 8.0013 7.16666Z" fill="#353535"/>
</svg>
