<svg width="66" height="66" viewBox="0 0 66 66" fill="none" xmlns="http://www.w3.org/2000/svg">
<path d="M24.75 29.5625H16.5C15.3725 29.5625 14.4375 28.6275 14.4375 27.5C14.4375 26.3725 15.3725 25.4375 16.5 25.4375H24.75C25.8775 25.4375 26.8125 26.3725 26.8125 27.5C26.8125 28.6275 25.8775 29.5625 24.75 29.5625Z" fill="#353535"/>
<path d="M47.4098 62.5625H18.5898C17.4623 62.5625 16.5273 61.6275 16.5273 60.5C16.5273 59.3725 17.4623 58.4375 18.5898 58.4375H47.4098C52.9648 58.4375 55.9623 55.605 56.3198 50.05L57.7498 27.335C57.8873 25.3825 57.3098 23.4575 56.1273 21.89C55.4398 20.9825 55.6323 19.69 56.5398 19.0025C57.4473 18.315 58.7398 18.5075 59.4273 19.415C61.1873 21.78 62.0673 24.6675 61.8748 27.61L60.4448 50.325C59.9498 58.1075 55.1923 62.5625 47.4098 62.5625Z" fill="#353535"/>
<path d="M9.45865 58.3275C8.79865 58.3275 8.13865 57.9975 7.72615 57.3925C6.46115 55.4675 5.71865 53.075 5.55365 50.2975L4.12365 27.61C3.90365 24.1725 5.08615 20.8725 7.45115 18.37C9.78865 15.8675 13.0886 14.4375 16.4986 14.4375C17.3786 14.4375 18.2311 13.915 18.6436 13.09L20.6236 9.1575C22.2461 5.94 26.3161 3.4375 29.8636 3.4375H36.1611C39.7086 3.4375 43.7511 5.94 45.3736 9.13L47.3536 13.145C47.7661 13.915 48.5911 14.4375 49.4986 14.4375C50.6261 14.4375 51.5611 15.3725 51.5611 16.5C51.5611 17.6275 50.6261 18.5625 49.4986 18.5625C47.0511 18.5625 44.8236 17.1875 43.6686 15.015L41.6611 11C40.7536 9.185 38.1686 7.59 36.1336 7.59H29.8361C27.8011 7.59 25.2161 9.185 24.2811 11.0275L22.3286 14.96C21.1736 17.1875 18.9461 18.5625 16.4986 18.5625C14.1886 18.5625 12.0436 19.4975 10.4486 21.175C8.88115 22.8525 8.08365 25.0525 8.24865 27.335L9.67865 50.05C9.78865 52.0575 10.3111 53.8175 11.1911 55.11C11.8236 56.0725 11.5486 57.3375 10.6136 57.97C10.2561 58.2175 9.84365 58.3275 9.45865 58.3275Z" fill="#353535"/>
<path d="M33.0016 51.5625C30.5541 51.5625 28.1616 50.7375 26.2366 49.225C25.3291 48.51 25.1916 47.2175 25.8791 46.3375C26.5941 45.43 27.8866 45.2925 28.7666 45.98C29.9766 46.915 31.4616 47.4375 33.0016 47.4375C36.7966 47.4375 39.8766 44.3575 39.8766 40.5625C39.8766 39.2425 39.5191 37.9775 38.8316 36.905C38.2266 35.9425 38.5016 34.6775 39.4641 34.045C40.4266 33.44 41.6916 33.715 42.3241 34.6775C43.4241 36.41 44.0291 38.445 44.0291 40.535C44.0016 46.64 39.0791 51.5625 33.0016 51.5625Z" fill="#353535"/>
<path d="M5.50094 62.5625C4.97844 62.5625 4.45594 62.37 4.04344 61.9575C3.24594 61.16 3.24594 59.84 4.04344 59.0425L59.0434 4.04246C59.8409 3.24496 61.1609 3.24496 61.9584 4.04246C62.7559 4.83996 62.7559 6.15996 61.9584 6.95746L6.95844 61.9575C6.54594 62.37 6.02344 62.5625 5.50094 62.5625Z" fill="#353535"/>
</svg>
