<svg width="20" height="20" viewBox="0 0 20 20" fill="none" xmlns="http://www.w3.org/2000/svg">
<path d="M16.1859 9.79166H13.3359C12.9943 9.79166 12.7109 9.50832 12.7109 9.16666V3.34166C12.7109 2.72499 12.9526 2.14999 13.3859 1.71666C13.8193 1.28332 14.3943 1.04166 15.0109 1.04166H15.0193C16.061 1.04999 17.0443 1.45832 17.7943 2.19999C18.5443 2.95832 18.9526 3.95832 18.9526 4.99999V7.01666C18.9609 8.67499 17.8443 9.79166 16.1859 9.79166ZM13.9609 8.54166H16.1859C17.1526 8.54166 17.7109 7.98332 17.7109 7.01666V4.99999C17.7109 4.28332 17.4276 3.59999 16.9193 3.08332C16.4109 2.58332 15.736 2.29999 15.0193 2.29166C15.0193 2.29166 15.0193 2.29166 15.0109 2.29166C14.7359 2.29166 14.4693 2.39999 14.2693 2.59999C14.0693 2.79999 13.9609 3.05832 13.9609 3.34166V8.54166Z" fill="#505050"/>
<path d="M7.49687 19.4417C7.1052 19.4417 6.73854 19.2917 6.46354 19.0083L5.08018 17.6167C5.00518 17.5417 4.88855 17.5333 4.80522 17.6L3.3802 18.6667C2.93853 19 2.35518 19.0583 1.85518 18.8083C1.35518 18.5583 1.04688 18.0583 1.04688 17.5V4.99999C1.04688 2.48332 2.48854 1.04166 5.00521 1.04166H15.0052C15.3469 1.04166 15.6302 1.32499 15.6302 1.66666C15.6302 2.00832 15.3469 2.29166 15.0052 2.29166C14.4302 2.29166 13.9635 2.75832 13.9635 3.33332V17.5C13.9635 18.0583 13.6552 18.5583 13.1552 18.8083C12.6635 19.0583 12.0719 19 11.6302 18.6667L10.2052 17.6C10.1219 17.5333 10.0052 17.55 9.93853 17.6167L8.53853 19.0167C8.2552 19.2917 7.88853 19.4417 7.49687 19.4417ZM4.92184 16.3083C5.30518 16.3083 5.68018 16.45 5.96351 16.7417L7.34687 18.1333C7.39687 18.1833 7.46353 18.1917 7.49687 18.1917C7.5302 18.1917 7.59686 18.1833 7.64686 18.1333L9.04685 16.7333C9.56352 16.2167 10.3802 16.1667 10.9552 16.6083L12.3718 17.6667C12.4635 17.7333 12.5469 17.7083 12.5885 17.6833C12.6302 17.6583 12.7052 17.6083 12.7052 17.5V3.33332C12.7052 2.95832 12.7969 2.59999 12.9552 2.29166H4.99687C3.14687 2.29166 2.28853 3.14999 2.28853 4.99999V17.5C2.28853 17.6167 2.36355 17.6667 2.40521 17.6917C2.45521 17.7167 2.53855 17.7333 2.62189 17.6667L4.04685 16.6C4.30519 16.4083 4.61351 16.3083 4.92184 16.3083Z" fill="#505050"/>
<path d="M10 8.125H5C4.65833 8.125 4.375 7.84167 4.375 7.5C4.375 7.15833 4.65833 6.875 5 6.875H10C10.3417 6.875 10.625 7.15833 10.625 7.5C10.625 7.84167 10.3417 8.125 10 8.125Z" fill="#505050"/>
<path d="M9.375 11.4583H5.625C5.28333 11.4583 5 11.175 5 10.8333C5 10.4917 5.28333 10.2083 5.625 10.2083H9.375C9.71667 10.2083 10 10.4917 10 10.8333C10 11.175 9.71667 11.4583 9.375 11.4583Z" fill="#505050"/>
</svg>
