<svg width="12" height="12" viewBox="0 0 12 12" fill="none" xmlns="http://www.w3.org/2000/svg">
<path d="M2.46625 11.375C2.25625 11.375 2.06125 11.325 1.88625 11.225C1.50125 11 1.28125 10.545 1.28125 9.98V2.93C1.28125 1.66 2.31625 0.625 3.58625 0.625H8.41125C9.68125 0.625 10.7163 1.66 10.7163 2.93V9.975C10.7163 10.54 10.4963 10.995 10.1112 11.22C9.72625 11.445 9.22125 11.42 8.72625 11.145L6.28625 9.79C6.14125 9.71 5.85625 9.71 5.71125 9.79L3.27125 11.145C3.00125 11.295 2.72625 11.375 2.46625 11.375ZM3.59125 1.375C2.73625 1.375 2.03625 2.075 2.03625 2.93V9.975C2.03625 10.27 2.12125 10.49 2.27125 10.575C2.42125 10.665 2.65625 10.635 2.91125 10.49L5.35125 9.135C5.72125 8.93 6.28125 8.93 6.65125 9.135L9.09125 10.49C9.34625 10.635 9.58125 10.665 9.73125 10.575C9.88125 10.485 9.96625 10.265 9.96625 9.975V2.93C9.96625 2.075 9.26625 1.375 8.41125 1.375H3.59125Z" fill="#909090"/>
</svg>
