<svg width="24" height="24" viewBox="0 0 24 24" fill="none" xmlns="http://www.w3.org/2000/svg">
<path d="M4.92859 22.75C4.50859 22.75 4.11859 22.65 3.76859 22.45C2.99859 22 2.55859 21.09 2.55859 19.96V5.86C2.55859 3.32 4.62859 1.25 7.16859 1.25H16.8186C19.3586 1.25 21.4286 3.32 21.4286 5.86V19.95C21.4286 21.08 20.9886 21.99 20.2186 22.44C19.4486 22.89 18.4386 22.84 17.4486 22.29L12.5686 19.58C12.2786 19.42 11.7086 19.42 11.4186 19.58L6.53859 22.29C5.99859 22.59 5.44859 22.75 4.92859 22.75ZM7.17859 2.75C5.46859 2.75 4.06859 4.15 4.06859 5.86V19.95C4.06859 20.54 4.23859 20.98 4.53859 21.15C4.83859 21.33 5.30859 21.27 5.81859 20.98L10.6986 18.27C11.4386 17.86 12.5586 17.86 13.2986 18.27L18.1786 20.98C18.6886 21.27 19.1586 21.33 19.4586 21.15C19.7586 20.97 19.9286 20.53 19.9286 19.95V5.86C19.9286 4.15 18.5286 2.75 16.8186 2.75H7.17859Z" fill="#353535"/>
</svg>
