<svg width="64" height="80" viewBox="0 0 64 80" fill="none" xmlns="http://www.w3.org/2000/svg">
<path d="M54.2486 11.894C48.3508 3.78096 39.7771 0 30.8173 0C30.8173 0 8.90635 0 2.41748 19.6157C0.0210924 26.8448 0.55362 34.6943 3.45591 41.7343C4.54554 44.4106 5.91841 46.9627 7.55106 49.3468C13.2198 57.5212 30.8359 79.8368 30.8359 79.8368H34.6648C39.58 73.0098 51.9534 50.332 55.6598 43.0603C60.3061 33.9354 61.0197 21.208 54.2486 11.894ZM34.4837 48.1779C30.7815 48.1779 27.1624 47.0801 24.0841 45.0231C21.0058 42.9662 18.6066 40.0426 17.1899 36.6221C15.7733 33.2016 15.4027 29.4379 16.1252 25.8068C16.8477 22.1757 18.6307 18.8404 21.2488 16.2227C23.8668 13.605 27.2024 11.8224 30.8336 11.1005C34.4648 10.3785 38.2285 10.7496 41.6488 12.1667C45.0691 13.5839 47.9923 15.9835 50.0488 19.0621C52.1053 22.1406 53.2027 25.7599 53.2022 29.4622C53.2014 34.4262 51.229 39.1866 47.7187 42.6964C44.2084 46.2062 39.4477 48.1779 34.4837 48.1779Z" fill="#E43434"/>
<path opacity="0.4" d="M54.2486 11.894C48.3508 3.78096 39.7771 0 30.8173 0C30.8173 0 8.90635 0 2.41748 19.6157C0.0210924 26.8448 0.55362 34.6943 3.45591 41.7343C4.54554 44.4106 5.91841 46.9627 7.55106 49.3468C13.2198 57.5212 30.8359 79.8368 30.8359 79.8368H34.6648C39.58 73.0098 51.9534 50.332 55.6598 43.0603C60.3061 33.9354 61.0197 21.208 54.2486 11.894ZM34.4837 48.1779C30.7815 48.1779 27.1624 47.0801 24.0841 45.0231C21.0058 42.9662 18.6066 40.0426 17.1899 36.6221C15.7733 33.2016 15.4027 29.4379 16.1252 25.8068C16.8477 22.1757 18.6307 18.8404 21.2488 16.2227C23.8668 13.605 27.2024 11.8224 30.8336 11.1005C34.4648 10.3785 38.2285 10.7496 41.6488 12.1667C45.0691 13.5839 47.9923 15.9835 50.0488 19.0621C52.1053 22.1406 53.2027 25.7599 53.2022 29.4622C53.2014 34.4262 51.229 39.1866 47.7187 42.6964C44.2084 46.2062 39.4477 48.1779 34.4837 48.1779Z" fill="#0C0C0C"/>
<path d="M58.1038 12.0467C52.2061 3.93623 43.6323 0.155273 34.6725 0.155273C34.6725 0.155273 12.7616 0.155275 6.27274 19.771C3.87635 27.0001 4.40888 34.8496 7.31383 41.8896C8.402 44.5661 9.774 47.1182 11.4063 49.5021C17.0751 57.6738 34.6832 80.0001 34.6832 80.0001C34.6832 80.0001 55.0285 52.013 59.507 43.2263C64.1614 34.0854 64.8776 21.3633 58.1038 12.0467ZM34.5101 48.3332C30.808 48.3332 27.1889 47.2354 24.1107 45.1786C21.0325 43.1218 18.6333 40.1984 17.2166 36.778C15.7998 33.3577 15.4291 29.594 16.1514 25.963C16.8736 22.332 18.6564 18.9967 21.2742 16.3789C23.892 13.7611 27.2273 11.9783 30.8583 11.2561C34.4894 10.5338 38.253 10.9045 41.6733 12.3212C45.0937 13.738 48.0171 16.1372 50.0739 19.2154C52.1307 22.2936 53.2285 25.9127 53.2285 29.6148C53.2469 32.0781 52.7754 34.5204 51.8412 36.7998C50.907 39.0791 49.5289 41.1499 47.7871 42.8918C46.0453 44.6336 43.9744 46.0117 41.6951 46.9459C39.4157 47.8801 36.9734 48.3516 34.5101 48.3332Z" fill="#E43434"/>
<path d="M34.4796 10.7432C30.6115 10.7431 26.8383 11.9415 23.679 14.1734C20.5197 16.4053 18.1294 19.5612 16.8369 23.207C18.2811 20.0152 20.7308 17.384 23.8115 15.7158C26.8922 14.0476 30.4344 13.434 33.8967 13.969C37.359 14.5039 40.5509 16.1579 42.9845 18.6781C45.4181 21.1983 46.9595 24.4461 47.373 27.925C47.7866 31.4039 47.0495 34.9225 45.2746 37.943C43.4997 40.9634 40.7845 43.3196 37.5441 44.6513C34.3037 45.9831 30.7163 46.2171 27.3304 45.3175C23.9445 44.418 20.9462 42.4345 18.794 39.6702C20.5632 42.3878 23.0083 44.5991 25.8894 46.0873C28.7706 47.5756 31.989 48.2897 35.2292 48.1596C38.4694 48.0296 41.6203 47.0598 44.3729 45.3455C47.1255 43.6312 49.3855 41.231 50.9312 38.3803C52.477 35.5296 53.2556 32.3262 53.1907 29.084C53.1257 25.8419 52.2194 22.6722 50.5607 19.8857C48.902 17.0992 46.5477 14.7915 43.7287 13.1888C40.9096 11.5861 37.7224 10.7433 34.4796 10.7432Z" fill="#E43434"/>
</svg>
