<svg width="126" height="134" viewBox="0 0 126 134" fill="none" xmlns="http://www.w3.org/2000/svg">
<path d="M101.663 120.074C95.5151 116.089 93.956 108.461 94.0216 101.571C94.0216 100.421 93.8739 99.2116 94.4089 98.1911C94.944 97.1706 96.234 96.449 97.2975 96.9106C98.1804 97.2908 98.5875 98.2723 99.0962 99.0848C99.7798 100.166 100.757 101.036 101.916 101.594C102.674 101.955 103.606 102.166 104.338 101.75C105.339 101.178 105.425 99.7998 105.389 98.6623C105.323 96.5346 105.256 94.4047 105.188 92.2727C105.152 91.1287 105.119 89.9619 105.458 88.8699C105.796 87.7779 106.574 86.7476 107.68 86.4194C108.786 86.0911 110.174 86.6826 110.437 87.7941C110.495 88.2664 110.518 88.7421 110.506 89.2177C110.552 89.6922 110.792 90.2122 111.254 90.3324C111.717 90.4527 112.187 90.1212 112.528 89.7767C113.706 88.5936 114.497 87.0889 115.216 85.5906C115.935 84.0923 116.651 82.5648 117.714 81.2778C118.778 79.9907 120.271 78.9605 121.942 78.8272C123.613 78.694 125.428 79.6657 125.881 81.2615C126.334 82.8573 125.421 84.5116 124.407 85.8506C122.901 87.8302 121.112 89.5819 119.096 91.0507C118.705 91.2758 118.395 91.6168 118.21 92.0257C117.977 92.7927 118.735 93.5337 119.523 93.7645C120.402 94.0277 121.344 93.9172 122.26 94.0017C123.176 94.0862 124.174 94.4535 124.538 95.3018C125.047 96.4588 124.075 97.7068 123.114 98.5323C121.178 100.191 118.97 101.51 116.585 102.432C115.732 102.757 114.835 103.053 114.156 103.658C113.477 104.262 113.083 105.302 113.522 106.098C113.962 106.895 115.042 107.125 115.942 106.943C116.841 106.761 117.632 106.261 118.482 105.923C120.077 105.292 122.155 105.351 123.219 106.683C123.918 107.561 124.007 108.803 123.691 109.875C123.323 110.934 122.744 111.909 121.988 112.742C119.504 115.801 116.247 118.156 112.548 119.567C108.852 120.919 105.405 121.341 101.666 120.106" fill="#EDEDED"/>
<path d="M124.161 79.7339C124.161 79.7339 124.125 79.7729 124.049 79.8444L123.721 80.1531C123.419 80.4229 122.976 80.8227 122.408 81.3557C120.835 82.8486 119.379 84.4577 118.052 86.169C117.206 87.248 116.329 88.47 115.427 89.7961C114.524 91.1221 113.549 92.5521 112.59 94.0894C111.577 95.689 110.654 97.3426 109.823 99.0425C109.393 99.9297 109.013 100.853 108.625 101.795C108.238 102.738 107.851 103.693 107.454 104.659C105.945 108.284 104.644 111.99 103.557 115.761C102.684 118.841 102.111 121.997 101.844 125.186C101.67 127.337 101.688 129.499 101.9 131.647C101.982 132.404 102.057 132.996 102.123 133.392C102.152 133.584 102.172 133.737 102.189 133.844C102.205 133.951 102.208 134 102.208 134C102.208 134 102.015 133.175 101.831 131.654C101.595 129.502 101.558 127.334 101.719 125.176C101.971 121.976 102.535 118.808 103.403 115.715C104.481 111.936 105.778 108.221 107.289 104.59C107.688 103.626 108.078 102.672 108.461 101.727C108.849 100.788 109.233 99.855 109.666 98.9677C110.499 97.2622 111.429 95.6042 112.449 94.0016C113.414 92.4644 114.386 91.0408 115.305 89.7116C116.224 88.3823 117.11 87.17 117.964 86.091C119.303 84.3825 120.777 82.7817 122.372 81.3037C122.933 80.7804 123.386 80.3871 123.685 80.1239L124.036 79.8281C124.118 79.7631 124.161 79.7339 124.161 79.7339Z" fill="#F66262"/>
<path d="M109.698 98.9547C109.644 98.796 109.605 98.6328 109.58 98.4672C109.515 98.1421 109.429 97.6936 109.337 97.1281C109.147 95.9906 108.937 94.4176 108.707 92.6788C108.477 90.94 108.244 89.3735 108.028 88.2457C107.923 87.6802 107.831 87.2252 107.765 86.9099C107.721 86.7494 107.692 86.5851 107.68 86.4192C107.744 86.5727 107.795 86.7314 107.831 86.8937C107.919 87.2187 108.028 87.6575 108.159 88.2197C108.405 89.3442 108.664 90.9173 108.891 92.656C109.117 94.3948 109.314 95.9386 109.469 97.1086C109.544 97.6546 109.606 98.1064 109.656 98.4542C109.686 98.6192 109.701 98.7868 109.698 98.9547Z" fill="#F66262"/>
<path d="M124.67 95.8506C124.62 95.8683 124.568 95.8782 124.515 95.8798L124.072 95.9286C123.685 95.9676 123.127 96.0228 122.431 96.1171C121.056 96.2894 119.165 96.6014 117.097 97.0304C115.029 97.4594 113.175 97.9404 111.845 98.3304C111.189 98.5189 110.644 98.6846 110.273 98.7984L109.846 98.9251C109.796 98.9434 109.745 98.9554 109.692 98.9609C109.692 98.9609 109.738 98.9316 109.833 98.8926L110.25 98.7334C110.614 98.6001 111.146 98.4084 111.809 98.2134C113.122 97.8006 114.99 97.3066 117.061 96.8679C119.132 96.4291 121.033 96.1463 122.415 96.0033C123.107 95.9253 123.668 95.8863 124.056 95.8668L124.502 95.8506C124.558 95.8428 124.614 95.8428 124.67 95.8506Z" fill="#F66262"/>
<path d="M103.557 115.439C103.517 115.383 103.483 115.323 103.455 115.26C103.386 115.124 103.298 114.935 103.186 114.734C102.956 114.275 102.641 113.603 102.26 112.784C101.495 111.116 100.511 108.779 99.4604 106.189C98.41 103.599 97.4417 101.259 96.7097 99.5785L95.83 97.596C95.7348 97.375 95.6561 97.1962 95.5937 97.0565C95.562 96.9945 95.5377 96.929 95.5215 96.8615C95.5646 96.916 95.5999 96.9762 95.6265 97.0402L95.8924 97.5667C96.1222 98.025 96.4406 98.6977 96.8213 99.5168C97.5861 101.184 98.5676 103.521 99.6212 106.111C100.675 108.701 101.637 111.041 102.372 112.718C102.736 113.544 103.028 114.217 103.248 114.704C103.347 114.925 103.426 115.104 103.485 115.244C103.516 115.306 103.541 115.371 103.557 115.439Z" fill="#F66262"/>
<path d="M123.379 108.673C123.317 108.707 123.251 108.734 123.182 108.754L122.605 108.952L120.481 109.677C118.686 110.288 116.214 111.162 113.496 112.137C110.778 113.112 108.297 113.97 106.491 114.552C105.589 114.844 104.85 115.072 104.348 115.221L103.76 115.39C103.693 115.416 103.622 115.432 103.55 115.439C103.614 115.406 103.681 115.379 103.751 115.358L104.325 115.156L106.452 114.435C108.244 113.824 110.719 112.946 113.437 111.975C116.155 111.003 118.636 110.142 120.442 109.56C121.344 109.267 122.083 109.04 122.585 108.89L123.173 108.721C123.239 108.697 123.309 108.68 123.379 108.673Z" fill="#F66262"/>
<path d="M20.085 70.2212L25.6519 86.3253H50.8544L50.6673 85.4965L40.4786 85.1845L35.7815 70.2147L20.085 70.2212Z" fill="#EDEDED"/>
<path d="M31.2553 77.7873C31.4194 78.4373 31.1338 79.0873 30.6152 79.2303C30.0966 79.3733 29.5418 78.9443 29.3777 78.2845C29.2136 77.6248 29.4959 76.9845 30.0145 76.8383C30.5331 76.692 31.0878 77.1275 31.2553 77.7873Z" fill="white"/>
<path d="M76.083 105.061L84.4565 133.525H85.4642L79.0372 104.964L76.083 105.061Z" fill="#EDEDED"/>
<path d="M60.6986 105.205L54.2158 133.516H55.3647L64.0434 105.195L60.6986 105.205Z" fill="#EDEDED"/>
<path d="M68.2842 104.551L69.2788 133.516H70.6377L71.2351 104.665L68.2842 104.551Z" fill="#EDEDED"/>
<path d="M60.3964 116.667L79.8414 116.062L79.9727 118.058L58.939 118.854L60.3964 116.667Z" fill="#EDEDED"/>
<path d="M60.6888 105.195L60.3901 106.661H63.6069L64.0106 105.195H60.6888Z" fill="#F66262"/>
<path d="M68.2773 104.632L68.3463 106.66H71.1987L71.2348 104.986L68.2773 104.632Z" fill="#F66262"/>
<path d="M68.6879 116.411L68.7601 118.485L67.2502 118.54L66.7578 116.47L68.6879 116.411Z" fill="#F66262"/>
<path d="M70.9957 116.301L70.9497 118.407L72.1314 118.361L72.4038 116.301H70.9957Z" fill="#F66262"/>
<path d="M75.9551 104.632L76.3851 106.098H79.29L78.9716 104.674L75.9551 104.632Z" fill="#F66262"/>
<path d="M54.2486 103.196C57.0157 101.854 68.1923 102.575 68.1923 102.575C68.1923 102.575 65.0346 63.7889 69.1147 63.4802C73.1947 63.1714 82.438 60.2594 84.1022 66.1257C85.855 72.3008 83.4884 105.243 81.148 104.925C75.8174 104.197 59.3725 106.082 54.4226 104.925C53.149 104.645 54.2486 103.196 54.2486 103.196Z" fill="#EDEDED"/>
<path d="M80.5801 66.7952C80.5998 66.7952 80.6785 66.8927 80.8131 67.1202C80.882 67.2274 80.9543 67.3639 81.0396 67.5264C81.1249 67.6889 81.2169 67.8839 81.312 68.1017C81.8292 69.3544 82.1545 70.6766 82.2771 72.0245C82.453 74.0063 82.5078 75.9968 82.4412 77.9851C82.4018 80.2277 82.2639 82.6912 82.0604 85.2653C81.8569 87.8393 81.6042 90.2931 81.3711 92.5161C81.1381 94.7392 80.9083 96.7412 80.5932 98.4248C80.3587 99.7497 80.0173 101.054 79.5724 102.325C79.432 102.798 79.2301 103.252 78.9717 103.674C79.0676 103.193 79.1981 102.719 79.3623 102.257C79.7194 100.975 79.9967 99.6721 80.1927 98.3565C80.4553 96.6925 80.6424 94.6937 80.8492 92.4674C81.056 90.2411 81.2891 87.7906 81.5057 85.223C81.7223 82.6555 81.8635 80.2049 81.9291 77.9721C82.0201 76.0022 82.007 74.0289 81.8897 72.0603C81.8034 70.7394 81.5453 69.4351 81.1217 68.1797C80.7967 67.2697 80.544 66.8179 80.5801 66.7952Z" fill="#F66262"/>
<path d="M78.4991 103.606C78.4663 103.769 75.9257 103.372 72.7746 103.121C69.6234 102.871 67.05 102.845 67.0435 102.679C67.0369 102.513 69.63 102.295 72.8205 102.559C76.011 102.822 78.5319 103.463 78.4991 103.606Z" fill="#F66262"/>
<path d="M96.0568 86.0875H6.70605V88.9866H96.0568V86.0875Z" fill="#EDEDED"/>
<path d="M13.691 88.9865L6.70605 133.49L10.1985 133.551L22.1892 88.9865H13.691Z" fill="#EDEDED"/>
<path d="M89.5508 88.5055L93.6341 133.525H90.3812L81.5679 90.3711L81.1084 87.1665L89.5508 88.5055Z" fill="#EDEDED"/>
<path d="M81.3682 88.9865L81.6931 90.9885L89.7482 90.6895L89.5939 88.9865H81.3682Z" fill="#F66262"/>
<path d="M13.691 88.9865L13.3628 91.0372L21.687 90.8065L22.1892 88.9865H13.691Z" fill="#F66262"/>
<path d="M9.95586 86.4901V83.019L11.7218 82.6323L9.95586 81.55V78.2675H28.7937V80.237H29.8605C29.6865 80.432 30.1887 80.6693 29.9753 80.7505C29.5946 80.8903 28.6624 81.108 28.6624 81.108L28.8954 82.4763L27.8385 82.7103L29.2499 83.6853L29.4863 86.2854L9.93945 86.6819" fill="#F66262"/>
<path d="M8.23535 86.4901V83.019L10.0079 82.6323L8.24192 81.55V78.2675H27.0764V80.237H28.14C27.966 80.432 28.4846 80.6693 28.2548 80.7505C27.8741 80.8903 26.9419 81.108 26.9419 81.108L27.1782 82.4763L26.118 82.7103L27.5294 83.6853L27.7658 86.2854L8.23535 86.6689" fill="#EDEDED"/>
<path d="M96.3983 81.5697C95.9629 81.2504 95.4253 81.098 94.8851 81.1407C94.8851 80.8515 94.8851 80.6727 94.8851 80.6727H86.6233C86.6233 80.6727 86.364 86.0678 90.5359 86.2596C92.4036 86.3441 93.4737 85.5153 94.0842 84.472C94.3908 84.5444 94.7046 84.5826 95.0197 84.5858C95.4854 84.6066 95.9456 84.479 96.3327 84.2218C96.5419 84.0582 96.7077 83.8467 96.8157 83.6055C96.9238 83.3642 96.971 83.1006 96.9531 82.8373C96.9631 82.5983 96.9185 82.3601 96.8224 82.1406C96.7263 81.9211 96.5814 81.7259 96.3983 81.5697ZM95.8338 83.575C95.4825 83.835 94.849 83.796 94.4387 83.7245C94.6475 83.152 94.7831 82.5559 94.8425 81.95C95.2031 81.9059 95.5679 81.9887 95.8731 82.184C95.9619 82.2666 96.0307 82.3679 96.0744 82.4805C96.1182 82.593 96.1358 82.7138 96.1259 82.834C96.1388 82.9691 96.119 83.1053 96.0682 83.2313C96.0174 83.3574 95.9371 83.4696 95.8338 83.5588V83.575Z" fill="#EDEDED"/>
<path d="M37.83 43.8435L33.7073 39.9011H11.958V27.0082L42.6355 26.3582V39.6444H37.2523L37.83 43.8435ZM12.2862 39.5761H33.8386L37.3771 42.9594L36.8749 39.3194H42.3073V26.7027L12.2862 27.3267V39.5761Z" fill="#F66262"/>
<path d="M26.2529 30.2548H16.002V31.4451H26.2529V30.2548Z" fill="#F66262"/>
<path d="M38.8476 32.975H16.002V34.1653H38.8476V32.975Z" fill="#F66262"/>
<path d="M38.8476 35.3346H16.002V36.525H38.8476V35.3346Z" fill="#F66262"/>
<path d="M26.7847 1.23502L27.4083 17.9891H52.9554L76.4378 10.1954V0L26.7847 1.23502Z" fill="#F66262"/>
<path d="M53.0835 8.09918L53.2903 21.8372H75.0002C75.0002 21.8372 77.0977 31.3891 77.1075 30.8659C77.1174 30.3426 79.7597 21.7072 79.7597 21.7072L107.775 21.4472V7.44592L53.0835 8.09918Z" fill="#EDEDED"/>
<path d="M101.886 12.7531H58.9556V14.0995H101.886V12.7531Z" fill="white"/>
<path d="M101.886 15.9188H58.9556V17.2653H101.886V15.9188Z" fill="white"/>
<path d="M109.633 133.594C109.633 133.64 85.0901 133.679 54.8164 133.679C24.5426 133.679 0 133.64 0 133.594C0 133.549 24.5361 133.51 54.8164 133.51C85.0967 133.51 109.633 133.545 109.633 133.594Z" fill="#353535"/>
<path d="M27.2211 90.3128C25.36 90.6085 24.5295 92.8706 24.6936 94.7264C24.8578 96.5821 25.6258 98.4022 25.4191 100.251C25.1565 102.604 23.361 104.594 23.1509 106.953C22.9047 109.735 24.8906 112.202 25.4847 114.932C25.7736 116.261 25.7342 117.665 26.2331 118.93C26.6586 120.007 27.4481 120.904 28.4671 121.469C29.4861 122.035 30.6715 122.232 31.8214 122.029C32.9712 121.826 34.0143 121.234 34.773 120.355C35.5316 119.476 35.9589 118.363 35.9819 117.207C36.0246 115.072 34.6919 113.06 34.856 110.928C34.9742 109.355 35.9064 107.863 35.7062 106.293C35.4698 104.431 33.7367 103.108 33.1098 101.33C32.4828 99.5527 33.0835 97.5929 32.8734 95.7241C32.4927 92.3733 30.6151 90.0398 27.2211 90.3095" fill="#F66262"/>
<path d="M17.7249 106.534C17.3967 109.638 18.795 113.291 20.41 115.96C22.0413 118.658 24.4998 120.772 27.4278 121.992C27.756 122.128 28.163 122.242 28.4388 122.021C28.5372 121.915 28.6111 121.788 28.6553 121.651C28.6995 121.513 28.713 121.368 28.6948 121.225C28.719 117.929 27.6629 114.714 25.6849 112.063C23.7069 109.412 20.9139 107.467 17.7249 106.521" fill="#F66262"/>
<path opacity="0.2" d="M17.7249 106.534C17.3967 109.638 18.795 113.291 20.41 115.96C22.0413 118.658 24.4998 120.772 27.4278 121.992C27.756 122.128 28.163 122.242 28.4388 122.021C28.5372 121.915 28.6111 121.788 28.6553 121.651C28.6995 121.513 28.713 121.368 28.6948 121.225C28.719 117.929 27.6629 114.714 25.6849 112.063C23.7069 109.412 20.9139 107.467 17.7249 106.521" fill="white"/>
<path d="M31.3831 128.495C31.3478 128.44 31.3182 128.382 31.2945 128.322C31.2354 128.189 31.1632 128.02 31.0713 127.815C30.8842 127.37 30.6019 126.733 30.2408 125.95C29.307 123.909 28.2684 121.918 27.1291 119.983C25.9844 118.05 24.742 116.175 23.4068 114.367C22.8915 113.671 22.468 113.115 22.1726 112.741L21.8444 112.299C21.7689 112.199 21.7295 112.143 21.7361 112.137C21.7849 112.18 21.8299 112.226 21.8706 112.277C21.9658 112.39 22.0873 112.53 22.235 112.699C22.5632 113.066 22.9899 113.612 23.5151 114.298C24.8858 116.089 26.1474 117.959 27.2932 119.898C28.4326 121.837 29.4563 123.84 30.359 125.898C30.7036 126.691 30.9662 127.337 31.1369 127.789C31.2124 128 31.278 128.173 31.3273 128.309C31.3538 128.368 31.3725 128.431 31.3831 128.495Z" fill="#353535"/>
<path d="M29.3741 98.8997C29.3949 98.9981 29.407 99.0981 29.4102 99.1987C29.4102 99.4099 29.4463 99.6927 29.4725 100.053C29.5218 100.811 29.5907 101.883 29.676 103.199C29.8467 105.855 30.0831 109.524 30.3719 113.574C30.6608 117.623 30.9431 121.293 31.1498 123.948C31.2516 125.248 31.3337 126.33 31.3927 127.091C31.419 127.448 31.4387 127.741 31.4518 127.945C31.4605 128.045 31.4605 128.145 31.4518 128.244C31.4276 128.147 31.4122 128.048 31.4059 127.949C31.3829 127.737 31.3534 127.455 31.314 127.097L31.0153 123.958C30.7756 121.306 30.4704 117.64 30.1848 113.587C29.8992 109.534 29.6793 105.865 29.5283 103.206C29.466 101.89 29.4167 100.817 29.3806 100.057C29.3675 99.6948 29.3576 99.4088 29.3511 99.1987C29.3522 99.0986 29.3599 98.9987 29.3741 98.8997Z" fill="#353535"/>
<path d="M26.4824 124.069H34.334V129.776C34.3344 130.266 34.2373 130.751 34.0481 131.205C33.8589 131.658 33.5814 132.069 33.2314 132.416C32.8815 132.763 32.4659 133.038 32.0085 133.226C31.5511 133.413 31.0609 133.51 30.5658 133.51C29.6007 133.511 28.6722 133.144 27.9717 132.487C27.2712 131.83 26.8521 130.931 26.8008 129.977L26.4824 124.069Z" fill="#353535"/>
<path d="M83.5702 45.0949C82.9827 44.9194 81.929 48.0427 81.7649 47.2432C81.6008 46.4436 83.498 43.5673 82.8776 43.4081C82.0702 43.2001 81.0329 46.4924 80.9246 46.7621C80.8163 47.0319 80.4158 46.8889 80.5241 46.6484C80.685 46.3039 82.277 42.6313 81.4859 42.4233C81.046 42.3063 80.9082 43.1058 80.9082 43.1058C80.9082 43.1058 79.674 46.6484 79.3031 46.5379C78.9322 46.4274 79.5821 44.3181 79.8512 43.6128C80.1204 42.9076 79.8972 42.5241 79.4935 42.6573C79.2177 42.7516 78.3348 44.8576 78.0853 45.5499C77.8358 46.2421 77.1761 48.1499 76.7264 46.9506C76.2767 45.7514 75.4692 45.0006 75.1081 44.9356C75.0241 44.9322 74.941 44.9546 74.8703 44.9999C74.7997 45.0451 74.7449 45.111 74.7136 45.1883C74.6823 45.2656 74.676 45.3507 74.6955 45.4317C74.715 45.5128 74.7594 45.5858 74.8226 45.6409C75.0999 45.9773 75.3286 46.3503 75.502 46.7491C75.654 47.0634 75.7516 47.4007 75.7909 47.7469C75.8762 48.4413 75.8927 49.1423 75.8401 49.8399V50.035L71.9472 59.6096L67.6111 50.1845C66.2226 45.6149 60.4883 45.4264 60.4883 45.4264L54.8031 44.8446C52.7483 44.0613 50.4539 44.1946 49.177 44.9161C48.376 45.3862 47.6847 46.0192 47.1489 46.7732C46.613 47.5273 46.2449 48.3853 46.0686 49.2907C44.7556 55.6673 40.1996 78.5022 39.832 88.5026C39.5995 89.5912 39.4264 90.6913 39.3134 91.7982C39.2018 93.5305 39.3593 93.5435 39.5628 93.5207C40.1176 93.4622 39.8911 90.4787 40.3047 91.0897C40.7183 91.7007 40.1701 94.7753 40.7445 94.6908C41.5192 94.5705 41.1909 91.4504 41.1909 91.1839C41.1909 90.9174 41.5717 90.9012 41.5651 91.1417C41.5651 91.4862 41.5389 95.1198 42.2774 95.019C42.6844 94.9638 42.517 94.2455 42.517 94.2455C42.517 94.2455 42.2774 90.8459 42.6286 90.8069C42.9798 90.7679 43.1932 92.757 43.2129 93.4395C43.2326 94.122 43.5641 94.369 43.8694 94.1155C44.0663 93.94 44.0499 91.8665 44.0138 91.1904C43.9777 90.5144 43.8398 88.6879 44.6473 89.5362C45.4548 90.3844 46.4001 90.7387 46.7251 90.6574C46.7968 90.6304 46.8582 90.5821 46.901 90.5191C46.9438 90.4561 46.9658 90.3815 46.964 90.3056C46.9622 90.2296 46.9367 90.1562 46.891 90.0952C46.8452 90.0342 46.7815 89.9888 46.7087 89.9652C46.3558 89.78 46.0301 89.5482 45.7403 89.2762C45.5068 89.0696 45.3084 88.8271 45.1528 88.5579C45.1036 88.4701 45.0642 88.3889 45.0182 88.3076C45.143 86.4064 46.2721 70.0716 49.1803 58.8784L49.7252 57.4841C50.2963 59.7591 49.955 64.4132 48.7405 66.425C46.7481 69.7596 46.9056 77.953 46.9056 77.953L65.2412 78.6452C65.2412 78.6452 65.1001 75.6324 64.9392 71.7843L64.5322 60.4676L64.5781 58.2998L64.6635 58.0723C65.5497 59.4731 66.6592 61.2704 68.028 63.5617C72.5873 71.1766 76.4342 62.1122 76.4342 62.1122L80.3305 51.1985C81.3229 49.8292 82.24 48.4079 83.0779 46.9409C83.9411 45.2379 83.7869 45.1696 83.5702 45.0949Z" fill="#FFBB9D"/>
<path d="M55.3477 132.205V129.28L49.7906 129.245L49.7446 133.544L50.0893 133.567C51.6222 133.661 57.8916 133.938 58.919 133.639C60.0646 133.288 55.3477 132.205 55.3477 132.205Z" fill="#F66262"/>
<path d="M59.0506 133.357C59.0506 133.409 56.9696 133.451 54.406 133.451C51.8424 133.451 49.7646 133.409 49.7646 133.357C49.7646 133.304 51.8424 133.262 54.406 133.262C56.9696 133.262 59.0506 133.304 59.0506 133.357Z" fill="#353535"/>
<path d="M55.4463 132.808C55.4004 132.782 55.4463 132.622 55.561 132.483C55.6757 132.343 55.8232 132.252 55.8593 132.287C55.8954 132.323 55.82 132.457 55.7118 132.596C55.6036 132.736 55.4922 132.831 55.4463 132.808Z" fill="#353535"/>
<path d="M55.8007 132.999C55.7515 132.98 55.7777 132.804 55.8859 132.622C55.9941 132.44 56.1416 132.329 56.1809 132.362C56.2202 132.394 56.1514 132.547 56.0498 132.716C55.9482 132.885 55.8498 133.019 55.8007 132.999Z" fill="#353535"/>
<path d="M51.4384 133.337C51.4154 133.354 51.3334 133.276 51.2119 133.146C51.0637 132.975 50.8988 132.819 50.7196 132.681C50.5437 132.552 50.3385 132.468 50.1222 132.437C49.9548 132.414 49.8464 132.437 49.8366 132.411C49.8267 132.385 49.9285 132.316 50.1254 132.303C50.3797 132.296 50.6288 132.375 50.8312 132.528C51.0265 132.675 51.1924 132.857 51.3202 133.064C51.4154 133.217 51.4581 133.321 51.4384 133.337Z" fill="#353535"/>
<path d="M55.4635 132.27C55.4898 132.313 55.3945 132.417 55.2368 132.472C55.0791 132.527 54.9346 132.508 54.928 132.456C54.9214 132.404 55.0331 132.345 55.1711 132.296C55.3091 132.248 55.4372 132.209 55.4635 132.27Z" fill="#353535"/>
<path d="M55.3777 131.969C55.3777 132.021 55.2332 132.066 55.0492 132.07C54.8653 132.073 54.7207 132.031 54.7207 131.979C54.7207 131.927 54.8751 131.881 55.0492 131.881C55.2233 131.881 55.3712 131.917 55.3777 131.969Z" fill="#353535"/>
<path d="M61.2133 131.166L62.093 128.358L56.7952 126.697L55.4658 130.789L55.7941 130.912C57.2318 131.452 63.1335 133.551 64.2069 133.568C65.3918 133.571 61.2133 131.166 61.2133 131.166Z" fill="#F66262"/>
<path d="M64.4011 133.347C64.4011 133.399 62.389 132.83 59.9403 132.076C57.4916 131.322 55.5188 130.675 55.5353 130.627C55.5517 130.578 57.5474 131.147 59.9961 131.897C62.4448 132.648 64.4175 133.298 64.4011 133.347Z" fill="#353535"/>
<path d="M61.1249 131.767C61.0888 131.728 61.1742 131.592 61.3352 131.478C61.4961 131.364 61.6637 131.335 61.6637 131.38C61.6637 131.426 61.575 131.53 61.4272 131.634C61.2793 131.738 61.1611 131.803 61.1249 131.767Z" fill="#353535"/>
<path d="M61.407 132.056C61.3643 132.024 61.4431 131.861 61.6008 131.731C61.7585 131.601 61.9294 131.526 61.9589 131.569C61.9885 131.611 61.8768 131.738 61.729 131.871C61.5811 132.004 61.4464 132.089 61.407 132.056Z" fill="#353535"/>
<path d="M57.1402 131.099C57.114 131.099 57.0582 131.011 56.9794 130.848C56.8892 130.643 56.7793 130.447 56.6512 130.263C56.522 130.087 56.3505 129.946 56.1522 129.853C56.0013 129.781 55.8896 129.772 55.8896 129.742C55.8896 129.713 56.0045 129.681 56.1982 129.726C56.4426 129.796 56.6563 129.945 56.8054 130.149C56.946 130.346 57.0494 130.566 57.1107 130.799C57.1534 130.972 57.1632 131.092 57.1402 131.099Z" fill="#353535"/>
<path d="M61.3058 131.244C61.3058 131.293 61.1941 131.364 61.0266 131.371C60.859 131.377 60.7309 131.315 60.7408 131.263C60.7506 131.211 60.8722 131.189 61.02 131.182C61.1678 131.176 61.296 131.192 61.3058 131.244Z" fill="#353535"/>
<path d="M61.3095 130.948C61.3095 130.997 61.1419 130.997 60.9809 130.948C60.82 130.9 60.6524 130.812 60.6886 130.763C60.7247 130.714 60.8627 130.718 61.0335 130.763C61.2043 130.809 61.3193 130.896 61.3095 130.948Z" fill="#353535"/>
<path d="M60.3799 45.7896C60.2945 45.1786 60.6261 42.6371 60.6261 42.6371C60.6261 42.6371 62.9861 42.4681 63.2028 40.1638C63.4194 37.8595 63.4489 32.5359 63.4489 32.5359L59.2442 30.3291L54.419 33.7092L53.1553 36.3937L54.7571 42.2438V45.2729L60.3799 45.7896Z" fill="#FFBB9D"/>
<path d="M63.158 36.0854C63.1745 36.0692 63.158 35.9944 63.0529 35.9065C62.9267 35.7948 62.7675 35.7262 62.5989 35.711C62.4303 35.6958 62.2612 35.7347 62.1166 35.822C62.0082 35.8903 61.9655 35.9586 61.9819 35.9781C61.9983 35.9976 62.2612 35.8708 62.5798 35.9033C62.6208 35.9064 62.6615 35.9129 62.7014 35.9228C62.6554 35.9469 62.6166 35.9825 62.589 36.0262C62.5613 36.0698 62.5458 36.1199 62.544 36.1714C62.5422 36.2229 62.5541 36.2739 62.5786 36.3194C62.6031 36.3648 62.6392 36.4031 62.6835 36.4303C62.7277 36.4575 62.7783 36.4726 62.8303 36.4742C62.8823 36.4758 62.9339 36.4638 62.9797 36.4393C63.0255 36.4149 63.064 36.379 63.0913 36.3351C63.1185 36.2912 63.1336 36.241 63.135 36.1895C63.1416 36.1551 63.1416 36.1198 63.135 36.0854C63.135 36.0854 63.1482 36.0952 63.158 36.0854Z" fill="#353535"/>
<path d="M59.5962 35.9749C59.6159 35.9586 59.5962 35.8806 59.4943 35.796C59.3687 35.6834 59.2097 35.6138 59.041 35.5976C58.8712 35.583 58.7011 35.6217 58.5547 35.7082C58.4496 35.7765 58.4069 35.8448 58.4233 35.8643C58.4398 35.8838 58.6993 35.7602 59.0212 35.7895C59.0734 35.7952 59.1251 35.805 59.1757 35.8188C59.1352 35.8377 59.0996 35.8655 59.0716 35.9001C59.0435 35.9346 59.0238 35.975 59.0138 36.0182C59.0039 36.0614 59.004 36.1063 59.0141 36.1495C59.0242 36.1927 59.0441 36.233 59.0722 36.2675C59.1004 36.3019 59.136 36.3296 59.1766 36.3484C59.2171 36.3672 59.2614 36.3767 59.3062 36.3761C59.3509 36.3755 59.395 36.3648 59.435 36.3449C59.475 36.325 59.5098 36.2963 59.537 36.2611C59.5664 36.22 59.5846 36.172 59.5898 36.1218C59.595 36.0717 59.587 36.0211 59.5666 35.9749H59.5962Z" fill="#353535"/>
<path d="M60.6655 38.695C60.8392 38.658 61.0168 38.6417 61.1944 38.6463C61.2766 38.6463 61.3587 38.6463 61.3751 38.578C61.39 38.4898 61.3774 38.3991 61.339 38.318C61.2766 38.11 61.2109 37.8858 61.1386 37.668C60.9517 37.1007 60.8068 36.5206 60.7049 35.9325C60.7872 36.0884 60.8511 36.253 60.8955 36.4233C60.9973 36.732 61.1287 37.1578 61.2667 37.6323L61.454 38.2823C61.4976 38.3852 61.5057 38.4994 61.477 38.6073C61.464 38.6355 61.4444 38.6602 61.4198 38.6794C61.3953 38.6987 61.3664 38.7118 61.3357 38.7178C61.289 38.7257 61.2412 38.7257 61.1944 38.7178C61.0179 38.7326 60.8401 38.725 60.6655 38.695Z" fill="#353535"/>
<path d="M59.5954 38.9651C59.8547 39.0594 60.4751 39.5212 61.1316 39.544C61.0093 39.702 60.8365 39.8141 60.6415 39.8619C60.4464 39.9098 60.2408 39.8906 60.0582 39.8075C59.3821 39.4985 59.5954 38.9651 59.5954 38.9651Z" fill="#EDEDED"/>
<path d="M60.6259 42.6378C59.5207 42.557 58.4618 42.1657 57.5732 41.51C57.5732 41.51 58.2297 43.226 60.557 43.2033L60.6259 42.6378Z" fill="#FCA197"/>
<path d="M65.018 29.0979C64.8455 28.9368 64.635 28.8209 64.4057 28.7608C64.1764 28.7006 63.9356 28.6981 63.7051 28.7534C63.247 28.8678 62.7991 29.0189 62.3659 29.2052C61.9286 29.39 61.4402 29.4187 60.984 29.2864C60.3767 29.0589 60.0419 28.4187 59.52 28.0384C59.2898 27.8721 59.0253 27.7581 58.7455 27.7046C58.4657 27.6511 58.1774 27.6594 57.9011 27.7289C57.6249 27.7985 57.3676 27.9275 57.1476 28.1068C56.9276 28.2862 56.7502 28.5114 56.6282 28.7664C56.3656 29.3157 56.2999 30.0664 55.7616 30.3167C55.3185 30.5279 54.8032 30.3167 54.3338 30.1639C53.9012 30.0145 53.4331 29.9986 52.9913 30.1184C52.772 30.1844 52.5765 30.3113 52.4281 30.4842C52.2797 30.6571 52.1846 30.8686 52.1542 31.0935C52.128 31.503 52.3774 31.893 52.3643 32.3057C52.3446 32.933 51.7472 33.3717 51.2023 33.6903C50.6575 34.0088 50.0437 34.3923 49.9353 35.0098C49.9163 35.2753 49.9625 35.5413 50.07 35.7853C50.1774 36.0292 50.343 36.2438 50.5524 36.4106C50.9711 36.7418 51.3721 37.0944 51.7538 37.4668C52.0984 37.8698 52.3052 38.4646 52.0558 38.9359C51.9278 39.1699 51.698 39.3551 51.6455 39.6151C51.5536 40.0539 51.9737 40.4081 52.3775 40.6291C52.7754 40.8854 53.2223 41.0579 53.6904 41.1361C53.8771 41.1568 54.066 41.1447 54.2484 41.1004C54.5767 42.0267 54.7638 42.8067 54.7638 42.8067C55.1544 43.4339 55.1544 41.3864 55.1544 41.3864C55.1544 41.3864 55.3448 39.4104 55.0264 38.6596C55.0264 38.6596 53.8447 39.1146 53.4508 36.9858C53.2539 35.936 54.8425 35.338 55.3546 36.5926L56.3656 36.6283C56.3656 36.6283 56.2474 32.5235 58.5845 33.232C62.7072 34.4833 64.9163 33.167 65.2019 29.8519C65.234 29.7208 65.2341 29.584 65.2021 29.4529C65.1701 29.3218 65.107 29.2001 65.018 29.0979Z" fill="#353535"/>
<path d="M54.9416 38.0193C54.9416 38.0193 54.9087 38.0453 54.8529 38.0778C54.7722 38.1172 54.6791 38.1242 54.5933 38.0973C54.4609 38.0243 54.3503 37.9179 54.273 37.7888C54.1957 37.6598 54.1543 37.5128 54.1531 37.3628C54.1368 37.1943 54.1593 37.0242 54.2188 36.8655C54.2334 36.8029 54.2632 36.7448 54.3055 36.6961C54.3479 36.6474 54.4016 36.6096 54.4619 36.586C54.5011 36.5733 54.5434 36.5745 54.5818 36.5893C54.6202 36.6041 54.6521 36.6317 54.6722 36.6673C54.7018 36.7225 54.6919 36.7615 54.7018 36.7648C54.7116 36.768 54.7445 36.729 54.7215 36.6478C54.7078 36.6001 54.6775 36.5586 54.6361 36.5308C54.608 36.5119 54.5764 36.4987 54.5431 36.492C54.5098 36.4853 54.4755 36.4852 54.4422 36.4918C54.3643 36.5142 54.2933 36.5558 54.2359 36.6126C54.1784 36.6694 54.1364 36.7396 54.1137 36.8168C54.0398 36.9924 54.0093 37.1829 54.025 37.3725C54.0264 37.5482 54.0801 37.7197 54.1795 37.8653C54.2788 38.011 54.4193 38.1245 54.5835 38.1916C54.64 38.2075 54.6995 38.2092 54.7569 38.1968C54.8142 38.1843 54.8675 38.1579 54.912 38.12C54.9416 38.055 54.9514 38.0193 54.9416 38.0193Z" fill="#FCA197"/>
<path d="M65.0834 74.1665L57.7931 73.6139L46.7412 72.7267L47.9754 131.498L57.5699 131.374C57.5699 131.374 57.5699 130.724 57.5469 129.573L63.1828 131.094C63.1828 131.094 68.6645 112.761 70.5322 105.237C72.0815 98.9579 65.0834 74.1665 65.0834 74.1665ZM57.4452 120.434C57.2975 106.869 57.1005 85.1777 57.3008 82.3566C57.3008 82.3566 62.6741 101.288 62.7233 102.89C62.7561 103.866 59.779 113.239 57.4452 120.434Z" fill="#353535"/>
<path opacity="0.2" d="M57.4453 120.434L57.5471 129.57L59.0964 129.993L58.7222 116.473L57.4453 120.434Z" fill="#353535"/>
<path d="M57.1796 82.2914C57.15 82.2752 57.403 81.8917 57.6165 81.1994C57.8747 80.2916 57.991 79.3502 57.9615 78.4076C57.9615 77.3026 57.8794 76.2918 57.9056 75.5573C57.9089 75.2684 57.9275 74.9798 57.9615 74.6928C57.9649 74.5819 57.986 74.4722 58.0239 74.3678C58.0535 74.3678 58.0239 74.8196 58.0239 75.5443C58.0239 76.2691 58.1258 77.2734 58.1389 78.3946C58.1694 79.3555 58.0316 80.3143 57.7315 81.2287C57.6343 81.5039 57.5088 81.7685 57.357 82.0184C57.3137 82.1186 57.2538 82.2109 57.1796 82.2914Z" fill="#717171"/>
<path d="M56.1654 74.8583C56.1654 74.8583 56.2015 74.7998 56.3066 74.7576C56.461 74.6996 56.6314 74.6996 56.7858 74.7576C56.9064 74.7956 57.0134 74.8674 57.0938 74.9643C57.1741 75.0612 57.2245 75.179 57.2388 75.3036C57.2659 75.4587 57.2408 75.6184 57.1673 75.758C57.0938 75.8977 56.976 76.0095 56.832 76.0764C56.688 76.1432 56.5258 76.1614 56.3704 76.128C56.2149 76.0947 56.0749 76.0117 55.9718 75.8918C55.8837 75.8006 55.8244 75.6859 55.8011 75.5618C55.7778 75.4377 55.7915 75.3096 55.8405 75.1931C55.8969 75.0404 56.0062 74.9125 56.149 74.8323C56.2508 74.7803 56.3164 74.7803 56.3197 74.7933C56.1551 74.8966 56.0311 75.0526 55.9685 75.2353C55.9385 75.3278 55.9345 75.4266 55.9571 75.5211C55.9796 75.6156 56.0278 75.7022 56.0965 75.7716C56.1742 75.8684 56.2824 75.9366 56.4039 75.9652C56.5254 75.9939 56.6531 75.9814 56.7665 75.9297C56.88 75.8781 56.9726 75.7902 57.0297 75.6802C57.0867 75.5702 57.1049 75.4445 57.0812 75.3231C57.0711 75.2272 57.0353 75.1357 56.9777 75.058C56.92 74.9803 56.8424 74.9192 56.753 74.8811C56.5655 74.8072 56.3581 74.7992 56.1654 74.8583Z" fill="#717171"/>
<path d="M65.7827 77.0722C65.5833 77.2193 65.3473 77.3103 65.0999 77.3355C64.5058 77.4435 63.8922 77.3396 63.3682 77.0421C62.8441 76.7445 62.4436 76.2727 62.2377 75.7104C62.1349 75.4879 62.0952 75.2418 62.1228 74.9987C62.1556 74.9987 62.1852 75.2684 62.3624 75.6487C62.5948 76.1573 62.9784 76.5836 63.462 76.8707C63.9557 77.142 64.5221 77.2555 65.0835 77.1957C65.5168 77.1567 65.7696 77.0429 65.7827 77.0722Z" fill="#717171"/>
<path d="M50.8642 73.5416C50.8642 73.5416 50.9167 73.6261 50.9594 73.7919C51.017 74.0269 51.0424 74.2685 51.0349 74.5101C51.0247 75.3245 50.6944 76.1029 50.114 76.68C49.5336 77.2571 48.7488 77.5875 47.9264 77.601C47.6814 77.609 47.4364 77.585 47.1977 77.5295C47.1093 77.5156 47.0246 77.4847 46.9482 77.4385C47.2757 77.4661 47.6044 77.4759 47.933 77.4677C48.7109 77.4219 49.4446 77.0946 49.9948 76.5481C50.5449 76.0016 50.873 75.274 50.9167 74.5037C50.9192 74.1822 50.9017 73.8609 50.8642 73.5416Z" fill="#717171"/>
<path d="M57.6228 129.141C57.6228 129.193 55.4761 129.235 52.8304 129.235C50.1848 129.235 48.0381 129.193 48.0381 129.141C48.0381 129.089 50.1815 129.047 52.8304 129.047C55.4793 129.047 57.6228 129.089 57.6228 129.141Z" fill="#717171"/>
<path d="M49.2957 129.278C49.2431 129.278 49.092 117.688 48.9672 103.391C48.8423 89.094 48.7733 77.5043 48.8259 77.5043C48.8784 77.5043 49.0263 89.0907 49.1544 103.391C49.2825 117.691 49.3482 129.278 49.2957 129.278Z" fill="#717171"/>
<path d="M57.7508 122.732C57.7554 122.694 57.7642 122.657 57.777 122.621L57.8656 122.296C57.9543 122.01 58.0757 121.604 58.23 121.09C58.5582 120.034 59.0309 118.526 59.6086 116.667C60.1863 114.808 60.8953 112.578 61.6733 110.115C62.0639 108.883 62.4742 107.59 62.8976 106.247L63.5541 104.203C63.6558 103.858 63.7904 103.501 63.8823 103.163C63.872 102.805 63.8247 102.449 63.7412 102.1C63.4129 100.647 63.0289 99.2434 62.6514 97.8913C62.2739 96.5393 61.8833 95.236 61.5124 93.9913C60.7706 91.5115 60.0813 89.2884 59.5036 87.4196C58.9259 85.5509 58.4565 84.0526 58.125 82.9963C57.9674 82.4828 57.846 82.0798 57.7573 81.7938L57.6654 81.4688C57.6526 81.433 57.6438 81.396 57.6392 81.3583C57.6562 81.3918 57.6704 81.4265 57.6818 81.4623C57.7114 81.5403 57.7475 81.6443 57.7934 81.771C57.8886 82.057 58.0232 82.4568 58.1972 82.9638C58.5254 84.0168 59.0276 85.5184 59.6316 87.3709C60.2356 89.2234 60.9446 91.4562 61.6798 93.9295C62.054 95.1678 62.4446 96.4678 62.8287 97.8296C63.2127 99.1914 63.6099 100.586 63.925 102.055C63.9644 102.24 64.0005 102.422 64.0267 102.607C64.0454 102.7 64.0575 102.795 64.0629 102.89C64.0762 102.989 64.0762 103.09 64.0629 103.189C63.9742 103.566 63.8462 103.897 63.7346 104.248L63.0781 106.293C62.6481 107.632 62.2345 108.925 61.8407 110.157L59.7366 116.699C59.1327 118.552 58.6436 120.053 58.3022 121.107L57.9018 122.303C57.8591 122.429 57.823 122.53 57.7934 122.611C57.7829 122.653 57.7686 122.693 57.7508 122.732Z" fill="#717171"/>
<path d="M57.541 127.028C57.8409 127.094 58.1342 127.187 58.4174 127.305L60.6134 128.065L62.8093 128.822C63.1197 128.912 63.4208 129.031 63.7087 129.177C63.3889 129.132 63.0744 129.056 62.7699 128.949C62.1955 128.787 61.411 128.54 60.551 128.244C59.691 127.948 58.9098 127.656 58.3715 127.431C58.0775 127.335 57.7982 127.199 57.541 127.028Z" fill="#717171"/>
<path d="M52.5513 99.994C52.5923 99.948 52.6412 99.9094 52.6957 99.8803C52.8457 99.7855 53.0112 99.7173 53.1848 99.6788C53.4631 99.6143 53.7534 99.621 54.0284 99.6983C54.3961 99.8087 54.716 100.037 54.9376 100.348C55.1943 100.733 55.3207 101.188 55.2987 101.648C55.2987 102.129 55.2691 102.623 55.2527 103.163C55.2501 103.725 55.204 104.285 55.1149 104.84C55.0617 105.141 54.9503 105.429 54.7866 105.688C54.6027 105.96 54.3287 106.16 54.012 106.254C53.7005 106.326 53.3752 106.318 53.068 106.229C52.7608 106.14 52.4821 105.974 52.2592 105.747C51.8613 105.32 51.6077 104.782 51.5337 104.206C51.4102 103.258 51.4839 102.294 51.7504 101.375C51.8368 101.017 51.975 100.674 52.1607 100.355C52.3066 100.108 52.5304 99.9166 52.7975 99.8088C52.9658 99.74 53.1511 99.723 53.3292 99.76C53.3906 99.7696 53.449 99.7929 53.4999 99.8283C53.2766 99.768 53.0391 99.7852 52.827 99.877C52.5819 99.9878 52.3802 100.175 52.2526 100.41C52.083 100.724 51.9571 101.06 51.8784 101.408C51.6398 102.312 51.5818 103.254 51.7077 104.18C51.7803 104.717 52.0174 105.218 52.3872 105.617C52.5881 105.819 52.8381 105.967 53.1134 106.047C53.3887 106.127 53.68 106.135 53.9594 106.072C54.2294 105.989 54.4616 105.815 54.6159 105.581C54.777 105.345 54.8887 105.08 54.9442 104.801C55.0311 104.256 55.0783 103.705 55.0853 103.153C55.1083 102.623 55.1477 102.113 55.151 101.648C55.1775 101.222 55.0685 100.798 54.8391 100.436C54.6363 100.146 54.3436 99.9293 54.0054 99.8185C53.749 99.7365 53.4758 99.7197 53.2111 99.7698C52.981 99.8112 52.7586 99.8868 52.5513 99.994Z" fill="#717171"/>
<path d="M66.3276 102.712C65.7345 102.851 65.1283 102.928 64.519 102.943C63.9148 103.019 63.3042 103.032 62.6973 102.982C63.2906 102.844 63.8967 102.768 64.5059 102.754C65.11 102.677 65.7205 102.663 66.3276 102.712Z" fill="#717171"/>
<path d="M65.7009 103.778C64.7645 103.643 63.8511 103.382 62.9863 103.001C63.4592 103.041 63.9249 103.141 64.3715 103.3C64.834 103.401 65.281 103.562 65.7009 103.778Z" fill="#717171"/>
<path d="M70.0763 100.829C70.1297 100.847 70.1797 100.873 70.224 100.907C70.356 101.002 70.4629 101.127 70.5358 101.271C70.7525 101.642 70.805 102.263 70.7919 102.991C70.8115 103.859 70.6541 104.722 70.329 105.529C70.1215 106.009 69.8113 106.44 69.4198 106.79C69.2141 106.986 68.966 107.132 68.6944 107.219C68.5436 107.257 68.3857 107.257 68.2349 107.219C68.0799 107.178 67.942 107.089 67.841 106.966C67.6695 106.727 67.5622 106.45 67.5291 106.16C67.4771 105.893 67.441 105.624 67.4208 105.354C67.3875 104.842 67.4095 104.329 67.4865 103.823C67.6187 102.965 67.9151 102.14 68.3596 101.392C68.5223 101.091 68.7682 100.841 69.0686 100.673C69.1862 100.614 69.3151 100.58 69.4468 100.574C69.5785 100.567 69.7103 100.588 69.8334 100.634C69.9925 100.694 70.1236 100.81 70.201 100.959C70.2288 101.009 70.2445 101.065 70.247 101.122C70.247 101.122 70.224 101.067 70.1682 100.979C70.0813 100.855 69.9555 100.764 69.8104 100.719C69.6971 100.68 69.5768 100.666 69.4574 100.676C69.338 100.687 69.2223 100.722 69.1178 100.781C68.8379 100.946 68.6105 101.186 68.4613 101.473C68.0441 102.213 67.7682 103.023 67.6473 103.862C67.5766 104.356 67.559 104.856 67.5948 105.354C67.6157 105.616 67.6507 105.878 67.6998 106.137C67.7306 106.396 67.8253 106.644 67.9755 106.858C68.0533 106.951 68.1579 107.018 68.2754 107.05C68.3928 107.082 68.5173 107.077 68.632 107.037C68.8783 106.96 69.1031 106.828 69.2885 106.65C69.6585 106.318 69.9527 105.911 70.1518 105.458C70.4729 104.673 70.6379 103.834 70.6376 102.987C70.7043 102.419 70.6403 101.844 70.4505 101.304C70.362 101.121 70.2343 100.959 70.0763 100.829Z" fill="#717171"/>
<path d="M75.5576 41.6171L77.747 51.0195L82.8708 49.9242L81.0786 40.2748L75.5576 41.6171Z" fill="#353535"/>
<path d="M76.165 42.1017L77.8424 49.6289L82.2868 48.5434L80.6981 40.9805L76.165 42.1017Z" fill="white"/>
<path d="M80.7152 49.7192C80.7158 49.8122 80.6885 49.9031 80.6368 49.9807C80.5851 50.0582 80.5112 50.1187 80.4247 50.1546C80.3381 50.1904 80.2427 50.2 80.1506 50.182C80.0586 50.164 79.974 50.1194 79.9076 50.0537C79.8412 49.988 79.7961 49.9042 79.778 49.8131C79.7598 49.7219 79.7695 49.6275 79.8057 49.5418C79.8419 49.4561 79.903 49.3829 79.9813 49.3317C80.0596 49.2805 80.1516 49.2535 80.2454 49.2542C80.37 49.2542 80.4895 49.3032 80.5776 49.3904C80.6657 49.4776 80.7152 49.5959 80.7152 49.7192Z" fill="#717171"/>
<path d="M79.3492 41.0804L77.3174 41.5325L77.3239 41.5618L79.3558 41.1097L79.3492 41.0804Z" fill="#717171"/>
<path d="M80.4598 41.6379L76.543 42.509L77.2451 45.604L81.1619 44.7328L80.4598 41.6379Z" fill="#EDEDED"/>
<path d="M77.3535 45.9558L77.6522 47.0576L81.4959 46.1866L81.2235 44.9873L77.3535 45.9558Z" fill="#F66262"/>
<path d="M77.7798 47.4835L78.131 49.1572L81.9288 48.218L81.5644 46.6222L77.7798 47.4835Z" fill="#EDEDED"/>
<path d="M49.5808 58.2119C49.4758 58.7807 49.3215 59.6387 49.1377 60.6462C51.3796 60.7405 54.0613 60.8575 56.9794 60.9907C60.0419 61.1337 62.8878 61.2702 65.1854 61.3872L65.1625 58.9269C62.8648 58.8327 60.0944 58.7124 57.091 58.5727C54.3206 58.4459 51.7538 58.3224 49.5808 58.2119Z" fill="#F66262"/>
<path d="M46.4166 47.6002C45.9786 48.3894 45.6001 49.2096 45.2842 50.054C47.7296 50.1385 52.2692 50.327 57.4685 50.5675C62.0902 50.7788 66.1965 50.9835 68.7633 51.1233C68.4201 50.2497 68.0188 49.3995 67.562 48.5785C65.0115 48.481 61.4796 48.3282 57.5801 48.1495C53.034 47.9415 48.9933 47.74 46.4166 47.6002Z" fill="#F66262"/>
<path d="M60.4025 45.4418C60.2363 45.6547 60.047 45.8488 59.8379 46.0207C61.5907 46.102 63.2352 46.1801 64.7123 46.2549C63.3155 45.8069 61.8677 45.5338 60.4025 45.4418Z" fill="#F66262"/>
<path d="M52.7583 73.7405L65.3234 75.6905V74.2832C62.8846 74.1825 59.7433 74.0492 56.3427 73.89L52.7583 73.7405Z" fill="#F66262"/>
<path d="M65.6714 60.2144L66.6266 58.9851L65.1758 58.9265L65.6714 60.2144Z" fill="#F66262"/>
<path d="M47.6179 68.5695C47.4177 69.4632 47.2208 70.318 47.0566 71.0135C49.5546 71.111 52.86 71.254 56.4903 71.423C59.8187 71.5758 62.8746 71.722 65.2872 71.8455L65.2642 69.382C62.8746 69.2845 59.8679 69.1545 56.6052 69.005C53.1882 68.8392 50.0535 68.6897 47.6179 68.5695Z" fill="#F66262"/>
<path d="M47.0235 71.1437C46.8069 72.0472 46.6592 72.6452 46.6592 72.6452L51.2546 73.4935C52.8268 73.5617 54.537 73.6365 56.3259 73.721C59.7363 73.877 62.8612 74.0265 65.3 74.1532L65.2771 71.9887C62.8645 71.8879 59.8053 71.7579 56.4703 71.6019C52.84 71.4362 49.5214 71.2737 47.0235 71.1437Z" fill="#F66262"/>
<path d="M48.169 65.9694C48.0147 66.7461 47.8408 67.5944 47.6504 68.4102C50.0859 68.5077 53.2075 68.6442 56.6114 68.8002C59.8741 68.9497 62.8743 69.0959 65.2606 69.2162L65.2376 66.7526C62.871 66.6551 59.9234 66.5284 56.7263 66.3821C53.5292 66.2359 50.5422 66.0994 48.169 65.9694Z" fill="#F66262"/>
<path d="M44.4241 52.7095C44.1451 53.7202 43.9515 54.5945 43.8169 55.2445C45.6682 55.2933 50.9627 55.5078 57.2092 55.797C61.9326 56.0115 66.1078 56.2195 68.6648 56.3625L69.9778 54.653C69.9778 54.653 69.8924 54.3638 69.7414 53.899C67.3617 53.8177 62.6875 53.6227 57.3109 53.3757C51.5601 53.0962 46.6004 52.846 44.4241 52.7095Z" fill="#F66262"/>
<path d="M43.817 55.2866C43.7153 55.8164 43.666 56.1349 43.666 56.1349L49.7254 57.4934C49.7254 57.4934 49.6893 57.6982 49.6236 58.0557C51.7966 58.1467 54.3634 58.2572 57.1174 58.3807C60.8429 58.5529 64.2271 58.7057 66.7447 58.8487L68.6124 56.4469C66.0456 56.3526 61.9031 56.1771 57.2323 55.9626C50.9596 55.6799 45.6584 55.4101 43.817 55.2866Z" fill="#F66262"/>
<path d="M49.1112 60.8019C48.9734 61.5559 48.8257 62.3879 48.6714 63.2394C50.9691 63.3337 53.8051 63.4572 56.8577 63.5969C59.9859 63.7399 62.8744 63.8797 65.2115 63.9999L65.1885 61.5396C62.8744 61.4454 60.0384 61.3186 56.9825 61.1789C54.0578 61.0456 51.3663 60.9156 49.1112 60.8019Z" fill="#F66262"/>
<path d="M45.248 50.1445C44.9198 50.9993 44.6638 51.8508 44.4438 52.6373C46.6332 52.7023 51.5831 52.9071 57.3438 53.1736C62.6974 53.4173 67.3519 53.6513 69.7349 53.7911C69.5248 53.1411 69.2031 52.2148 68.8093 51.2366C66.2424 51.1423 62.1131 50.9668 57.4586 50.7555C52.2363 50.515 47.6836 50.2875 45.248 50.1445Z" fill="#F66262"/>
<path d="M48.6451 63.3893C48.5532 63.8963 48.4613 64.4066 48.3727 64.9071C48.3202 65.1996 48.2611 65.5083 48.1987 65.8301C50.5686 65.9276 53.5261 66.0576 56.733 66.2038C59.9399 66.3501 62.8744 66.4931 65.2378 66.6133L65.2148 64.153C62.8711 64.0555 59.9793 63.9288 56.8479 63.7858C53.7854 63.646 50.956 63.5095 48.6451 63.3893Z" fill="#F66262"/>
<path d="M56.0241 45.8453C55.5523 45.5313 55.1184 45.1649 54.7308 44.7533C54.7308 44.7533 51.5337 43.3655 49.0358 44.7078C48.6466 44.9216 48.2897 45.1885 47.9756 45.5008C50.1256 45.5853 52.9189 45.7023 56.0241 45.8453Z" fill="#F66262"/>
<path d="M47.8473 45.6279C47.314 46.1882 46.8541 46.8128 46.4785 47.487C49.0585 47.5845 53.0762 47.7535 57.5895 47.9615C61.4463 48.137 64.9356 48.3092 67.4827 48.4425C67.2101 47.9371 66.8463 47.4855 66.4094 47.11C66.0327 46.8373 65.6238 46.6113 65.1916 46.4372C63.5307 46.3689 61.6334 46.2877 59.6115 46.1967C58.4987 46.928 57.2941 46.5834 56.3586 46.0472C53.0532 45.8912 50.0892 45.7482 47.8473 45.6279Z" fill="#F66262"/>
<path d="M46.4789 47.4861C46.4561 47.523 46.4353 47.5609 46.4165 47.5999C48.9932 47.7398 53.0339 47.9414 57.5767 48.1496C61.4762 48.3284 65.0081 48.4748 67.5586 48.5789L67.4798 48.4423C64.9326 48.3089 61.4434 48.1366 57.5866 47.9609C53.0765 47.769 49.0687 47.5837 46.4789 47.4861Z" fill="#353535"/>
<path d="M64.7123 46.2549C63.2352 46.1801 61.5907 46.1021 59.8379 46.0208C59.7591 46.0815 59.6803 46.14 59.6016 46.1964C61.6334 46.2874 63.5405 46.3688 65.1817 46.4371C65.034 46.372 64.8731 46.3135 64.7123 46.2549Z" fill="#353535"/>
<path d="M47.9757 45.4938C47.9297 45.5328 47.8903 45.5783 47.8477 45.6206C50.0895 45.741 53.0536 45.8841 56.3491 46.0402C56.2375 45.9751 56.1292 45.9068 56.0209 45.8385C52.919 45.7019 50.1257 45.5848 47.9757 45.4938Z" fill="#353535"/>
<path d="M45.2842 50.0447C45.2741 50.0758 45.262 50.1062 45.248 50.1357C47.6836 50.2788 52.2363 50.5065 57.4586 50.7472C62.1131 50.9586 66.2424 51.1342 68.8093 51.2285C68.8093 51.1928 68.7797 51.1537 68.7633 51.1147C66.1964 50.9749 62.0901 50.77 57.4685 50.5586C52.2691 50.3276 47.7296 50.139 45.2842 50.0447Z" fill="#353535"/>
<path d="M44.4435 52.6443L44.4238 52.7158C46.6001 52.8524 51.5598 53.1029 57.3369 53.3663C62.7135 53.6135 67.3876 53.8086 69.7674 53.8899C69.7674 53.8607 69.7477 53.8314 69.7346 53.7989C67.3515 53.659 62.6971 53.4249 57.3434 53.1809C51.5828 52.9077 46.6329 52.7028 44.4435 52.6443Z" fill="#353535"/>
<path d="M43.8169 55.244C43.8184 55.2635 43.8184 55.2831 43.8169 55.3026C45.6583 55.4261 50.9594 55.6961 57.2157 55.9823C61.8866 56.197 66.029 56.3726 68.5959 56.4669L68.6779 56.3628C66.1209 56.2197 61.9457 56.0116 57.2223 55.7969C50.9759 55.4912 45.6813 55.2765 43.8169 55.244Z" fill="#353535"/>
<path d="M49.6068 58.0557C49.6068 58.1044 49.6068 58.1565 49.5806 58.2118C51.7535 58.3224 54.3302 58.446 57.0907 58.5728C60.0942 58.7126 62.8744 58.833 65.1622 58.9273L66.613 58.9858L66.7148 58.8525C64.1972 58.7224 60.8064 58.5565 57.0875 58.3842C54.3466 58.2573 51.7798 58.1467 49.6068 58.0557Z" fill="#353535"/>
<path d="M49.1376 60.6461C49.1376 60.6982 49.1212 60.7502 49.1113 60.8022C51.3565 60.9161 54.0579 61.0462 56.9694 61.1795C60.0385 61.3194 62.8778 61.4462 65.1755 61.5405V61.3877C62.8778 61.2706 60.0319 61.134 56.9694 60.9909C54.0776 60.8575 51.3664 60.7404 49.1376 60.6461Z" fill="#353535"/>
<path d="M48.6718 63.2394C48.6718 63.2882 48.6718 63.3402 48.6455 63.389C50.9432 63.5093 53.7858 63.6459 56.8516 63.7858C59.983 63.9289 62.8748 64.0557 65.2185 64.1533V64.0004C62.8814 63.8801 59.9928 63.7402 56.8647 63.5971C53.8055 63.4573 50.9793 63.3337 48.6718 63.2394Z" fill="#353535"/>
<path d="M48.199 65.8297L48.1694 65.9793C50.5426 66.0997 53.5067 66.2428 56.7267 66.3924C59.9468 66.542 62.8714 66.6656 65.238 66.7631V66.62C62.8747 66.4997 59.9304 66.3566 56.7333 66.2102C53.5362 66.0639 50.5689 65.9273 48.199 65.8297Z" fill="#353535"/>
<path d="M47.6505 68.4207C47.6505 68.4662 47.6275 68.515 47.6177 68.5638C50.0565 68.6906 53.1978 68.8402 56.6049 68.9996C59.8677 69.1492 62.8744 69.2793 65.264 69.3769V69.2207C62.8776 69.1004 59.8775 68.954 56.6148 68.8044C53.2076 68.6548 50.0861 68.5182 47.6505 68.4207Z" fill="#353535"/>
<path d="M47.0563 71.0076C47.0563 71.0531 47.0333 71.0986 47.0234 71.1442C49.5214 71.2743 52.8399 71.4369 56.4801 71.6028C59.815 71.7589 62.8742 71.889 65.2868 71.9898V71.8434C62.8742 71.7198 59.8183 71.5735 56.4899 71.4206C52.8596 71.2482 49.5542 71.1051 47.0563 71.0076Z" fill="#353535"/>
<path d="M51.2646 73.4937L52.5579 73.7311H52.7582L56.3294 73.897C59.7399 74.0563 62.8713 74.1897 65.3101 74.2905H65.3298V74.1441C62.891 74.0173 59.7497 73.8677 56.3557 73.7116C54.5471 73.6368 52.8369 73.562 51.2646 73.4937Z" fill="#353535"/>
<path d="M65.258 61.3094C65.2055 61.3094 64.9788 59.4244 64.7521 57.0843C64.5254 54.7443 64.3841 52.8593 64.4236 52.8593C64.463 52.8593 64.7028 54.7443 64.9295 57.0843C65.1562 59.4244 65.3106 61.3029 65.258 61.3094Z" fill="#353535"/>
<path d="M65.0449 51.9395C65.0876 51.9688 64.9463 52.2485 64.7163 52.5672C64.4864 52.8859 64.286 53.1234 64.24 53.0941C64.194 53.0648 64.3385 52.7688 64.5685 52.4631C64.7985 52.1574 65.0021 51.9102 65.0449 51.9395Z" fill="#353535"/>
<path d="M62.054 62.0698C62.0802 62.1153 59.7825 63.3698 56.9203 64.8616C54.058 66.3534 51.7209 67.5299 51.6979 67.4844C51.6749 67.4389 53.9726 66.1844 56.8316 64.6959C59.6906 63.2073 62.031 62.0211 62.054 62.0698Z" fill="#353535"/>
<path d="M62.6086 64.3057C62.2507 64.4106 61.8853 64.4889 61.5155 64.5397L58.8896 65.0304L56.2637 65.5602C55.903 65.654 55.5353 65.7192 55.1641 65.7552C55.509 65.612 55.8674 65.5031 56.2341 65.4302C56.8906 65.2579 57.8294 65.0434 58.8601 64.8419C59.8907 64.6404 60.8295 64.4942 61.5188 64.4032C61.8785 64.3391 62.2431 64.3065 62.6086 64.3057Z" fill="#353535"/>
<path d="M50.0246 54.3634C50.0611 54.6417 50.0611 54.9236 50.0246 55.2019C50.0049 55.7187 49.9491 56.4304 49.8472 57.2137C49.7454 57.997 49.6107 58.7022 49.499 59.2092C49.4541 59.4858 49.377 59.7563 49.269 60.0153C49.2693 59.7351 49.3023 59.4559 49.3676 59.1832C49.4464 58.673 49.5549 57.971 49.6567 57.191C49.7585 56.4109 49.8374 55.7024 49.89 55.1922C49.9059 54.9121 49.951 54.6343 50.0246 54.3634Z" fill="#353535"/>
<path d="M60.449 45.3115C60.4127 45.3939 60.3628 45.4697 60.3013 45.5358C60.1542 45.7282 59.9918 45.9086 59.8155 46.0753C59.5534 46.3362 59.2313 46.5302 58.8768 46.6408C58.437 46.7576 57.974 46.7576 57.5343 46.6408C56.7533 46.423 56.0297 46.0393 55.4138 45.5163C55.228 45.3596 55.0546 45.189 54.8952 45.006C54.7836 44.8792 54.7311 44.798 54.7409 44.7915C54.7508 44.785 55.0134 45.0548 55.4926 45.422C56.1111 45.9047 56.8192 46.2625 57.5769 46.475C57.9879 46.5903 58.4219 46.5992 58.8374 46.501C59.1712 46.4028 59.4785 46.2318 59.7368 46.0005C60.1864 45.5878 60.4261 45.292 60.449 45.3115Z" fill="#353535"/>
</svg>
