<svg width="131" height="82" viewBox="0 0 131 82" fill="none" xmlns="http://www.w3.org/2000/svg">
<path d="M36.1455 4.33051C36.4279 4.19956 36.6675 3.98453 36.8349 3.71199C37.0022 3.43946 37.0898 3.12137 37.087 2.79706C37.1012 2.58434 37.0737 2.37083 37.0062 2.16974C36.9387 1.96864 36.8326 1.78425 36.6945 1.62797C36.5565 1.47169 36.3894 1.34685 36.2035 1.26118C36.0177 1.1755 35.8171 1.13082 35.6142 1.1299C35.4113 1.12897 35.2103 1.17182 35.0238 1.2558C34.8373 1.33977 34.6692 1.46309 34.5298 1.6181C34.3905 1.77312 34.2829 1.95654 34.2137 2.15701C34.1446 2.35748 34.1153 2.57073 34.1277 2.78357C34.1212 3.11041 34.2072 3.43192 34.3748 3.70733C34.5424 3.98274 34.7841 4.19964 35.0692 4.33051C32.7925 4.69251 32.8952 7.29174 32.8952 7.29174L38.281 7.31872C38.281 7.31872 38.4029 4.69026 36.1455 4.33051Z" fill="#D9D9D9"/>
<path d="M123.567 18.0126L121.07 15.1863L121.879 14.3971L123.604 16.3465L127.226 12.6006L128.001 13.428L123.567 18.0126Z" fill="#FAFAFA"/>
<path d="M87.3451 33.4462C87.3451 31.5148 85.4193 30.2984 83.4465 31.2607C83.0017 31.4796 82.6378 31.8462 82.4108 32.304C81.9166 33.3113 82.1348 34.4625 82.5842 35.4181L84.1162 39.4946C84.1649 39.6244 84.2496 39.7357 84.3593 39.8142C84.469 39.8927 84.5987 39.9347 84.7314 39.9347C84.8641 39.9347 84.9938 39.8927 85.1035 39.8142C85.2132 39.7357 85.2979 39.6244 85.3466 39.4946L86.8444 35.3956C87.3708 34.141 87.3451 33.4462 87.3451 33.4462ZM85.5006 35.1191C84.1783 35.9263 82.8367 34.4333 83.562 32.9583C83.6595 32.7629 83.808 32.6007 83.99 32.4906C85.3145 31.6812 86.6539 33.1652 85.9286 34.6514C85.8311 34.8468 85.6826 35.009 85.5006 35.1191Z" fill="#D9D9D9"/>
<path d="M112.09 58.0227C112.067 57.9729 112.047 57.9209 112.032 57.8675C111.998 57.7484 111.953 57.5977 111.897 57.4179C111.78 57.0221 111.626 56.4488 111.442 55.736C111.074 54.3082 110.62 52.3251 110.158 50.1261C109.696 47.9271 109.248 45.9417 108.904 44.5049C108.733 43.8034 108.592 43.23 108.489 42.8118C108.444 42.6252 108.408 42.4723 108.378 42.3621C108.362 42.3086 108.352 42.2536 108.348 42.198C108.372 42.2472 108.391 42.2993 108.403 42.3531L108.538 42.8028C108.656 43.1963 108.812 43.7719 108.994 44.4847C109.364 45.9102 109.816 47.8956 110.278 50.0946C110.74 52.2936 111.187 54.2767 111.532 55.7158C111.705 56.4173 111.844 56.9929 111.947 57.4089C111.994 57.5977 112.03 57.7506 112.058 57.8698C112.074 57.9194 112.085 57.9707 112.09 58.0227Z" fill="#D9D9D9"/>
<path d="M19.6966 57.8853C19.6157 57.9254 19.5311 57.9571 19.4442 57.9797C19.2794 58.0337 19.0376 58.1056 18.738 58.1888C18.1411 58.3574 17.3108 58.571 16.3843 58.7689C15.4578 58.9668 14.6169 59.1129 14.0028 59.2029C13.6968 59.2478 13.4486 59.2793 13.2774 59.2973C13.1886 59.3148 13.098 59.3208 13.0078 59.3153C13.0931 59.2844 13.1814 59.2633 13.271 59.2523L13.9921 59.1197C14.5998 59.0095 15.4386 58.8521 16.3629 58.6542C17.2873 58.4564 18.1154 58.2563 18.7166 58.1101L19.4292 57.9347C19.5163 57.9078 19.606 57.8912 19.6966 57.8853Z" fill="#D9D9D9"/>
<path d="M9.22136 39.0842C9.32935 39.0741 9.43315 39.0354 9.52307 38.9717C9.62887 38.8911 9.70456 38.7742 9.73704 38.6412C9.75474 38.5548 9.76122 38.4663 9.7563 38.3781C9.7563 38.2837 9.7563 38.1825 9.7563 38.0746C9.7563 37.2067 9.77556 35.961 9.7884 34.4253C9.7884 34.0401 9.79267 33.6376 9.80123 33.2179C9.80123 33.0065 9.80123 32.7929 9.80123 32.5748C9.80997 32.4686 9.80997 32.3618 9.80123 32.2556C9.78179 32.1539 9.735 32.0603 9.66643 31.9857C9.59757 31.9099 9.50773 31.8588 9.40966 31.8396C9.3021 31.8315 9.19412 31.8315 9.08656 31.8396H8.4104H6.99389H0.690216C0.563569 31.8425 0.442463 31.8947 0.350356 31.9861C0.258248 32.0775 0.201697 32.2016 0.191657 32.3343L0.178819 33.1932C0.178819 33.7665 0.1617 34.3174 0.153141 34.884C0.138163 35.9925 0.123185 37.0605 0.108207 38.0791V38.4591C0.100502 38.5743 0.127449 38.6891 0.185238 38.7874C0.240374 38.884 0.324755 38.9584 0.424889 38.9987C0.530028 39.0329 0.640521 39.0451 0.75013 39.0347H2.08533H4.48398L7.95464 39.0527L8.89826 39.0639H9.14433H9.22778C9.20004 39.0669 9.17208 39.0669 9.14433 39.0639H8.89826H7.95464L4.48398 39.0842H2.08533H0.74371C0.622662 39.0955 0.50067 39.0825 0.384233 39.0459C0.263582 38.9966 0.16145 38.9075 0.0932289 38.7919C0.0252884 38.676 -0.00685312 38.5409 0.00122002 38.4051C0.00122002 38.2792 0.00122002 38.1533 0.00122002 38.0251C0.0140585 37.0066 0.026897 35.9385 0.0397354 34.8301C0.0397354 34.2769 0.0547137 33.7058 0.0632727 33.1392C0.0632727 32.8514 0.063273 32.5636 0.0761114 32.2713C0.100234 32.1191 0.17457 31.9808 0.286079 31.8805C0.397589 31.7801 0.539151 31.7243 0.685937 31.7227H6.98961H9.08442C9.19798 31.7195 9.31163 31.724 9.42464 31.7362C9.54173 31.7591 9.64886 31.8205 9.73062 31.9115C9.81071 31.9995 9.86559 32.1094 9.88896 32.2286C9.89843 32.3415 9.89843 32.4551 9.88896 32.5681C9.88896 32.7929 9.88896 33.0021 9.88896 33.2112C9.88896 33.6316 9.87612 34.0363 9.86971 34.4208C9.83975 35.9565 9.81835 37.1999 9.80123 38.0678C9.80123 38.1758 9.80123 38.277 9.80123 38.3736C9.80383 38.4644 9.7952 38.5551 9.77556 38.6435C9.73684 38.7824 9.65371 38.9031 9.54018 38.9852C9.4709 39.0338 9.39176 39.0646 9.30909 39.0752C9.2806 39.0837 9.25088 39.0867 9.22136 39.0842Z" fill="#717171"/>
<path d="M5.32122 34.8114L6.48951 35.5557L5.29554 36.2932L4.10156 37.0284L4.12724 35.5467L4.15292 34.0649L5.32122 34.8114Z" fill="#717171"/>
<path d="M113.556 13.3099C113.942 13.1305 114.269 12.8362 114.497 12.4633C114.725 12.0904 114.844 11.6554 114.84 11.2121C114.84 9.95971 113.941 8.93891 112.822 8.93216C111.703 8.92542 110.793 9.93948 110.789 11.1919C110.78 11.6386 110.897 12.0782 111.126 12.4551C111.354 12.832 111.684 13.1294 112.073 13.3099C108.957 13.8046 109.099 17.3572 109.099 17.3572L116.466 17.3931C116.466 17.3931 116.646 13.8091 113.556 13.3099Z" fill="#E43434"/>
<path d="M69.8935 5.30461L57.9453 6.49585L58.7095 14.9593L70.6576 13.768L69.8935 5.30461Z" fill="white"/>
<path d="M70.6552 13.7598C70.6552 13.7598 70.6552 13.7058 70.6359 13.6024L70.591 13.1527C70.5525 12.7547 70.4969 12.1814 70.4262 11.4461C70.2872 9.97562 70.0882 7.86656 69.8485 5.29881L69.8956 5.34153L57.9516 6.5647L58.0008 6.50174V6.5647V6.63665L58.0136 6.77605L58.0393 7.05936L58.0906 7.61923L58.1891 8.72772C58.2547 9.46072 58.3196 10.1817 58.3838 10.8907C58.51 12.3073 58.632 13.6698 58.7475 14.9582L58.6919 14.911L67.2937 14.0791L69.7565 13.8542L70.4134 13.7935L70.5846 13.78H70.6552H70.6017L70.4369 13.798L69.795 13.87L67.3472 14.1285L58.7176 15.0144H58.6662V14.9605C58.5485 13.6698 58.4244 12.3095 58.2939 10.893C58.2297 10.1855 58.1648 9.46447 58.0992 8.72997C58.065 8.36347 58.0307 7.99247 57.9986 7.62148L57.9473 7.06161L57.9152 6.78954L57.9023 6.65014V6.57819V6.51298L57.9537 6.44778L69.902 5.26733H69.9469V5.31455C70.1609 7.89579 70.3535 10.0161 70.4819 11.4978C70.5418 12.2263 70.591 12.7974 70.6231 13.1932C70.6381 13.382 70.6488 13.5304 70.6573 13.6429C70.6659 13.7553 70.6552 13.7598 70.6552 13.7598Z" fill="#717171"/>
<path d="M69.8933 5.30811C69.8672 5.35692 69.8356 5.40222 69.7991 5.44301L69.5167 5.78703C69.262 6.09282 68.9047 6.52003 68.4639 7.04392L64.9291 11.1991L64.897 11.2351L64.8584 11.2081L64.5396 10.9945L59.8621 7.84662L58.4585 6.86629L58.0776 6.59872C58.0322 6.56971 57.9892 6.5366 57.9492 6.49979C57.9986 6.52107 58.0459 6.54743 58.0904 6.57849L58.482 6.82807L59.9114 7.76343L64.606 10.8865L64.9248 11.1114H64.852L68.4083 6.98096L69.4888 5.7488L69.7841 5.41828C69.8182 5.37907 69.8546 5.34227 69.8933 5.30811Z" fill="#717171"/>
<path d="M43.3307 15.4058C43.3076 15.1319 43.2669 14.8599 43.2087 14.5918C43.1328 14.2807 43.0123 13.9835 42.8514 13.7104C42.6433 13.3462 42.3701 13.0278 42.0468 12.7728C41.6276 12.4393 41.1353 12.2219 40.6152 12.1406C40.0951 12.0592 39.5639 12.1166 39.0704 12.3074C38.4889 12.5325 37.983 12.932 37.6154 13.4563C37.2193 14.0202 37.0055 14.7026 37.0055 15.4035C37.0055 16.1044 37.2193 16.7868 37.6154 17.3507C37.9821 17.8765 38.4882 18.277 39.0704 18.5019C39.7577 18.7655 40.5108 18.7696 41.2006 18.5136C41.8904 18.2576 42.474 17.7575 42.8514 17.0989C43.0123 16.8258 43.1328 16.5286 43.2087 16.2175C43.2666 15.9501 43.3073 15.6789 43.3307 15.4058C43.333 15.4237 43.333 15.4418 43.3307 15.4597V15.6194C43.3306 15.7059 43.3242 15.7924 43.3114 15.8779C43.2996 15.9962 43.2796 16.1135 43.2515 16.2287C43.1806 16.5451 43.0644 16.8483 42.907 17.1281C42.5281 17.811 41.9329 18.3324 41.2255 18.6012C40.518 18.8699 39.7431 18.869 39.0362 18.5986C38.7418 18.4944 38.4646 18.3426 38.2146 18.1489C37.9502 17.9487 37.7182 17.7049 37.5277 17.4271C37.1165 16.8439 36.8945 16.1372 36.8945 15.4114C36.8945 14.6855 37.1165 13.9789 37.5277 13.3956C37.7182 13.1178 37.9502 12.8741 38.2146 12.6739C38.4646 12.4801 38.7418 12.3284 39.0362 12.2242C39.5448 12.0302 40.0918 11.9744 40.6264 12.0621C41.1609 12.1497 41.6658 12.378 42.0939 12.7256C42.4216 12.9901 42.6971 13.3193 42.9049 13.6947C43.0637 13.974 43.1807 14.2773 43.2515 14.5941C43.2796 14.7093 43.2996 14.8265 43.3114 14.9448C43.3242 15.0304 43.3306 15.1168 43.3307 15.2034V15.363C43.332 15.3772 43.332 15.3916 43.3307 15.4058Z" fill="#353535"/>
<path d="M47.6161 21.0006C47.599 21.0276 46.4692 20.2631 45.0955 19.294C43.7218 18.325 42.6198 17.5155 42.6369 17.4953C42.654 17.475 43.7817 18.2328 45.1575 19.2041C46.5334 20.1754 47.6332 20.9736 47.6161 21.0006Z" fill="#353535"/>
<path d="M57.0734 27.1823L54.5742 24.356L55.383 23.5668L57.1098 25.5162L60.7324 21.7703L61.507 22.5977L57.0734 27.1823Z" fill="#E43434"/>
<path d="M127.192 24.4734H127.312H127.462L127.676 24.5027C128.133 24.5807 128.563 24.7787 128.928 25.0783C129.512 25.5621 129.89 26.2696 129.978 27.0457C130 27.2705 130 27.5066 130 27.745C130 27.9833 130 28.2329 130 28.4892C130 28.9996 130 29.5415 130 30.1081C130 30.6747 130 31.2751 130 31.9069C130 32.2172 130 32.5364 130 32.8602C130.015 33.1953 129.983 33.5309 129.905 33.8563C129.775 34.3821 129.508 34.8598 129.136 35.2367C128.763 35.6136 128.299 35.8751 127.794 35.9923C127.44 36.0563 127.082 36.0797 126.724 36.062H117.172L117.21 36.0463L115.056 38.3105L114.959 38.4117V36.0148L115.015 36.0733C114.779 36.0821 114.542 36.0731 114.307 36.0463C114.071 36.0147 113.84 35.952 113.62 35.8597C113.186 35.6761 112.802 35.3819 112.503 35.0035C112.204 34.6251 112 34.1744 111.908 33.6922C111.868 33.4569 111.85 33.2183 111.852 32.9794V32.2801C111.852 31.3538 111.852 30.4409 111.852 29.5505V28.2284C111.84 27.7955 111.852 27.3622 111.891 26.931C111.955 26.5074 112.106 26.1032 112.332 25.7461C112.55 25.4059 112.833 25.1168 113.162 24.897C113.492 24.6772 113.861 24.5315 114.247 24.469C114.613 24.4325 114.981 24.4205 115.349 24.433H119.337L125.097 24.4532L119.337 24.4734H115.349C114.986 24.4615 114.623 24.4742 114.262 24.5117C113.692 24.6023 113.164 24.882 112.755 25.3099C112.347 25.7378 112.079 26.2916 111.992 26.8905C111.954 27.3166 111.943 27.7446 111.957 28.1722V29.4943C111.957 30.3937 111.957 31.293 111.957 32.2239C111.939 32.6878 111.956 33.1526 112.011 33.6135C112.103 34.0725 112.298 34.5018 112.58 34.8659C113.018 35.4223 113.64 35.7832 114.322 35.8754C114.552 35.9007 114.784 35.909 115.015 35.9001H115.071V38.2633L114.977 38.2206L117.133 35.9564L117.148 35.9406H117.172H126.724C127.078 35.9594 127.433 35.9367 127.783 35.8732C128.119 35.797 128.437 35.6543 128.722 35.4527C129.269 35.0646 129.663 34.4815 129.833 33.8113C129.907 33.5029 129.939 33.185 129.929 32.867C129.929 32.5432 129.929 32.2239 129.929 31.9136C129.929 31.2908 129.929 30.6927 129.929 30.1148C129.929 29.537 129.929 29.0064 129.929 28.496C129.929 28.2396 129.929 27.9923 129.929 27.7517C129.929 27.5111 129.929 27.2795 129.914 27.0592C129.831 26.2961 129.464 25.5985 128.893 25.1188C128.537 24.8179 128.113 24.6161 127.663 24.5319L127.46 24.4959H127.312L127.192 24.4734Z" fill="#353535"/>
<path d="M118.706 30.6202C118.706 30.6202 118.693 30.564 118.665 30.4673C118.625 30.3351 118.546 30.22 118.439 30.139C118.361 30.0811 118.272 30.044 118.178 30.0311C118.084 30.0181 117.988 30.0297 117.899 30.0648C117.791 30.1064 117.697 30.182 117.631 30.2814C117.565 30.3807 117.53 30.499 117.53 30.6202C117.53 30.7414 117.565 30.8597 117.631 30.959C117.697 31.0583 117.791 31.1339 117.899 31.1756C117.988 31.2106 118.084 31.2222 118.178 31.2093C118.272 31.1963 118.361 31.1593 118.439 31.1014C118.546 31.0204 118.625 30.9053 118.665 30.7731C118.693 30.6786 118.695 30.6202 118.706 30.6202C118.72 30.6739 118.72 30.7306 118.706 30.7843C118.682 30.9351 118.606 31.0712 118.492 31.1666C118.406 31.2401 118.304 31.2891 118.195 31.3088C118.086 31.3285 117.974 31.3183 117.869 31.279C117.74 31.2311 117.627 31.1422 117.548 31.0244C117.468 30.9066 117.426 30.7657 117.426 30.6213C117.426 30.4769 117.468 30.3361 117.548 30.2182C117.627 30.1004 117.74 30.0115 117.869 29.9636C117.973 29.9241 118.085 29.9134 118.195 29.9327C118.304 29.952 118.406 30.0006 118.492 30.0738C118.606 30.1699 118.682 30.3068 118.706 30.4583C118.72 30.5113 118.72 30.5672 118.706 30.6202Z" fill="#353535"/>
<path d="M121.538 30.5972C121.522 30.5479 121.509 30.4976 121.5 30.4466C121.459 30.3138 121.38 30.1981 121.273 30.1161C121.195 30.0579 121.105 30.0208 121.011 30.0078C120.916 29.9949 120.82 30.0066 120.731 30.0419C120.624 30.085 120.532 30.1612 120.467 30.2606C120.402 30.36 120.367 30.4777 120.367 30.5984C120.367 30.719 120.402 30.8367 120.467 30.9361C120.532 31.0355 120.624 31.1117 120.731 31.1549C120.821 31.1892 120.917 31.2002 121.011 31.1869C121.105 31.1736 121.195 31.1364 121.273 31.0784C121.379 30.9968 121.459 30.8819 121.5 30.7501C121.51 30.6985 121.523 30.6474 121.538 30.5972C121.538 30.5972 121.557 30.6557 121.538 30.7614C121.512 30.9115 121.436 31.047 121.324 31.1436C121.238 31.2172 121.136 31.2662 121.027 31.2859C120.918 31.3056 120.806 31.2953 120.701 31.256C120.572 31.2082 120.459 31.1192 120.38 31.0014C120.3 30.8836 120.258 30.7428 120.258 30.5984C120.258 30.4539 120.3 30.3131 120.38 30.1953C120.459 30.0775 120.572 29.9885 120.701 29.9407C120.805 29.9011 120.917 29.8905 121.027 29.9098C121.136 29.9291 121.238 29.9777 121.324 30.0509C121.437 30.1483 121.512 30.2846 121.538 30.4353C121.557 30.5388 121.544 30.5972 121.538 30.5972Z" fill="#353535"/>
<path d="M124.378 30.5972C124.362 30.5478 124.348 30.4975 124.337 30.4466C124.301 30.3155 124.226 30.1998 124.123 30.1161C124.046 30.0579 123.956 30.0208 123.861 30.0078C123.767 29.9949 123.671 30.0066 123.582 30.0419C123.475 30.085 123.382 30.1612 123.317 30.2606C123.252 30.36 123.218 30.4777 123.218 30.5984C123.218 30.719 123.252 30.8367 123.317 30.9361C123.382 31.0355 123.475 31.1117 123.582 31.1549C123.671 31.1892 123.767 31.2002 123.862 31.1869C123.956 31.1736 124.046 31.1364 124.123 31.0784C124.225 30.9951 124.3 30.8803 124.337 30.7501C124.367 30.6557 124.369 30.5972 124.378 30.5972C124.386 30.5972 124.397 30.6557 124.378 30.7614C124.352 30.9115 124.276 31.047 124.164 31.1436C124.078 31.2172 123.976 31.2662 123.867 31.2859C123.758 31.3056 123.645 31.2953 123.541 31.256C123.412 31.2082 123.299 31.1192 123.22 31.0014C123.14 30.8836 123.098 30.7428 123.098 30.5984C123.098 30.4539 123.14 30.3131 123.22 30.1953C123.299 30.0775 123.412 29.9885 123.541 29.9407C123.645 29.9011 123.757 29.8905 123.866 29.9098C123.975 29.9291 124.078 29.9777 124.164 30.0509C124.276 30.1483 124.352 30.2846 124.378 30.4353C124.397 30.5388 124.384 30.5972 124.378 30.5972Z" fill="#353535"/>
<path d="M19.8245 15.1595C19.8245 13.2304 17.8987 12.0117 15.928 12.974C15.4833 13.1931 15.1194 13.5597 14.8924 14.0173C14.396 15.0246 14.6163 16.1758 15.0636 17.1314L16.5956 21.2102C16.6443 21.3399 16.7289 21.4513 16.8387 21.5298C16.9484 21.6083 17.078 21.6503 17.2108 21.6503C17.3435 21.6503 17.4732 21.6083 17.5829 21.5298C17.6926 21.4513 17.7773 21.3399 17.826 21.2102L19.3238 17.109C19.848 15.8566 19.8245 15.1595 19.8245 15.1595ZM17.9757 16.8414C16.6534 17.6486 15.3139 16.1556 16.0371 14.6806C16.1337 14.4845 16.2823 14.322 16.4651 14.2129C17.7874 13.4035 19.1291 14.8987 18.4037 16.3715C18.3073 16.5683 18.1586 16.7315 17.9757 16.8414Z" fill="#E43434"/>
<path d="M26.6292 21.8247C26.6292 21.8247 26.6292 21.8494 26.657 21.8989C26.6848 21.9483 26.6955 22.0225 26.7276 22.1237L26.993 22.9736C27.2262 23.7224 27.5664 24.8219 28.0029 26.2317L28.0158 26.2766H27.973L23.6592 25.4469H23.6314V25.4155L23.6892 25.4447C21.8058 26.9234 19.514 27.7146 17.163 27.6977C16.6307 27.6886 16.0995 27.6421 15.5732 27.5583C15.0281 27.4722 14.4897 27.3452 13.9619 27.1783L13.1638 26.8725C13.0285 26.8229 12.8969 26.7627 12.7701 26.6926L12.3807 26.497C11.3145 25.9331 10.342 25.1921 9.50058 24.3025C8.61862 23.3631 7.90213 22.2669 7.38438 21.0647C6.61369 19.3034 6.28596 17.3638 6.43252 15.4314C6.57908 13.4989 7.19504 11.6383 8.22148 10.0276C9.24792 8.41678 10.6505 7.10969 12.2951 6.2313C13.9396 5.35292 15.7712 4.93263 17.6145 5.01064C20.2864 5.11119 22.8269 6.25397 24.7404 8.21611C26.6539 10.1782 27.8033 12.819 27.9644 15.6234C28.046 16.7852 27.947 17.9532 27.6713 19.0815C27.5011 19.7944 27.2631 20.4874 26.9609 21.1501C26.856 21.375 26.7726 21.5481 26.7127 21.656L26.6206 21.8269L26.702 21.656C26.7597 21.5369 26.841 21.366 26.9416 21.1389C27.2347 20.4745 27.4654 19.7817 27.6306 19.0703C27.8969 17.9457 27.9886 16.7833 27.9024 15.6279C27.7999 13.9305 27.3322 12.2796 26.5346 10.7996C25.737 9.31964 24.6302 8.04911 23.2976 7.08373C21.529 5.80862 19.4379 5.1185 17.293 5.10207C15.1482 5.08564 13.0477 5.74366 11.2616 6.99154C9.15074 8.47785 7.61221 10.7051 6.92141 13.2746C6.23062 15.844 6.43266 18.588 7.49137 21.0152C8.00373 22.2059 8.71216 23.2921 9.58403 24.2238C10.4168 25.1046 11.3792 25.8388 12.4342 26.398L12.8215 26.5937C12.9464 26.6646 13.0767 26.7248 13.2109 26.7735L13.9983 27.0771C14.5217 27.244 15.0559 27.371 15.5967 27.4571C16.1181 27.5405 16.6442 27.5878 17.1716 27.5987C19.5033 27.6148 21.7761 26.83 23.6443 25.3638L23.702 25.3188V25.3952L23.6742 25.357L27.9815 26.2069L27.9516 26.2429L26.9673 22.9759L26.7127 22.1215C26.6848 22.027 26.6656 21.9528 26.6506 21.8966C26.6356 21.8404 26.6292 21.8202 26.6292 21.8202V21.8247Z" fill="#353535"/>
<path d="M96.0031 12.3881C95.9736 12.2577 95.9592 12.1241 95.9603 11.9901C95.9534 11.8286 95.9355 11.6678 95.9068 11.5089C95.8813 11.2919 95.8413 11.077 95.787 10.8659C95.6532 10.2821 95.4369 9.72276 95.1451 9.20649C94.7682 8.52137 94.2699 7.91842 93.6772 7.43021C92.9638 6.83612 92.1275 6.4264 91.2358 6.23402C90.2135 6.01299 89.1537 6.08206 88.1653 6.43414C87.6297 6.61821 87.1245 6.88822 86.6674 7.23459C86.185 7.58235 85.76 8.01072 85.4093 8.50272C84.6511 9.53084 84.2259 10.7869 84.1959 12.0872C84.1659 13.3875 84.5326 14.6637 85.2424 15.7293C85.4144 15.9848 85.6032 16.2275 85.8073 16.4555C86.0083 16.6732 86.2227 16.8768 86.4492 17.0649C86.8881 17.4327 87.3781 17.7277 87.9021 17.9395C88.8724 18.3412 89.9269 18.4646 90.9576 18.297C91.8577 18.1495 92.7122 17.7822 93.4526 17.2245C94.0674 16.7679 94.5933 16.1916 95.0017 15.5269C95.3144 15.025 95.5545 14.4772 95.7143 13.9013C95.7781 13.6931 95.8281 13.4805 95.864 13.265C95.8998 13.1083 95.9242 12.9489 95.9368 12.7883C95.9424 12.6535 95.9633 12.5199 95.9988 12.3903C96.0133 12.524 96.0133 12.6591 95.9988 12.7928C95.9971 12.9564 95.9828 13.1195 95.9561 13.2807C95.9307 13.5024 95.8899 13.7218 95.8341 13.9373C95.6916 14.5344 95.4621 15.1047 95.1537 15.6281C94.7007 16.4024 94.0957 17.0663 93.3791 17.5754C92.6626 18.0845 91.8509 18.4271 90.9983 18.5803C89.9183 18.7677 88.8104 18.6489 87.7887 18.2363C87.2369 18.0198 86.7196 17.7166 86.2545 17.3369C86.0133 17.14 85.7845 16.9267 85.5698 16.6984C85.3588 16.4579 85.1629 16.2033 84.9835 15.9361C84.2303 14.8132 83.8409 13.4654 83.8729 12.0919C83.9049 10.7185 84.3565 9.39229 85.1611 8.30935C85.3513 8.05078 85.5587 7.8066 85.7816 7.5786C86.0041 7.35641 86.2415 7.15127 86.492 6.96477C86.9727 6.60337 87.504 6.3227 88.0668 6.13284C89.1062 5.77035 90.2192 5.70822 91.2893 5.95296C92.1332 6.14682 92.9279 6.52796 93.6202 7.07086C94.3125 7.61376 94.8864 8.30587 95.3034 9.10082C95.5896 9.64196 95.7932 10.2269 95.9068 10.8344C95.9545 11.0563 95.9852 11.2819 95.9988 11.5089C96.0186 11.6707 96.0258 11.8339 96.0202 11.9968C96.0281 12.1275 96.0224 12.2587 96.0031 12.3881Z" fill="#717171"/>
<path d="M94.8052 8.46307C94.8181 8.48331 94.7089 8.58224 94.5014 8.74413L94.1162 9.03418C94.0413 9.08815 93.96 9.1511 93.8723 9.20956L93.577 9.37145C92.5079 10.0129 91.2921 10.3348 90.0614 10.3023L89.5286 10.2776L89.0194 10.1921C88.9359 10.1787 88.8525 10.1674 88.7711 10.1494L88.5315 10.082C88.3753 10.037 88.2191 9.99877 88.0715 9.94931C87.5491 9.76464 87.047 9.52193 86.5736 9.2253C85.7734 8.71715 85.3818 8.25397 85.4118 8.22474C85.4417 8.19551 85.8804 8.57325 86.6956 9.01395C87.1671 9.26871 87.659 9.47938 88.1656 9.64352C88.3068 9.68849 88.4566 9.72221 88.6085 9.76269L88.8375 9.82115L89.075 9.85937L89.5628 9.93582L90.07 9.95605C91.2499 9.98261 92.4183 9.70712 93.4743 9.15335L93.7739 9.0162C93.8637 8.96673 93.9472 8.91501 94.0264 8.8678L94.4329 8.64295C94.6576 8.50579 94.7902 8.44508 94.8052 8.46307Z" fill="#717171"/>
<path d="M85.2354 16.1035C85.2226 16.0855 85.3317 15.9866 85.5392 15.8224L85.9244 15.5324C85.9993 15.4784 86.0806 15.4155 86.1683 15.357L86.4636 15.1951C87.5329 14.5545 88.7487 14.2333 89.9792 14.2665L90.512 14.2912L91.0212 14.3744C91.1047 14.3902 91.1881 14.4014 91.2695 14.4194L91.5091 14.4846C91.6653 14.5318 91.8215 14.57 91.9691 14.6195C92.4918 14.8025 92.994 15.0445 93.467 15.3413C94.2672 15.8517 94.6588 16.3148 94.6289 16.3441C94.5989 16.3733 94.1602 15.9956 93.345 15.5549C92.874 15.2983 92.3821 15.0869 91.875 14.923C91.7316 14.8803 91.5819 14.8466 91.4321 14.8061L91.2031 14.7454L90.9656 14.7072L90.4778 14.633L89.9706 14.6105C88.7898 14.5843 87.6206 14.8606 86.5642 15.4155L86.2753 15.5571C86.1854 15.6066 86.102 15.6605 86.0228 15.7055L85.6163 15.9438C85.383 16.063 85.2482 16.1237 85.2354 16.1035Z" fill="#717171"/>
<path d="M95.9967 12.5359C95.9967 12.6325 93.3156 12.6415 90.0054 12.5561C86.6952 12.4706 84.0291 12.3312 84.0313 12.2301C84.0334 12.1289 86.7102 12.1266 90.0225 12.2121C93.3348 12.2975 95.9988 12.4414 95.9967 12.5359Z" fill="#717171"/>
<path d="M89.7414 18.5133C89.6516 18.5133 89.643 15.6983 89.7222 12.2289C89.8013 8.75951 89.9361 5.94892 90.0324 5.95117C90.1287 5.95342 90.1308 8.7685 90.0517 12.2469C89.9725 15.7253 89.8313 18.5156 89.7414 18.5133Z" fill="#717171"/>
<path d="M89.7413 18.5044C89.7199 18.5404 89.0608 18.0704 88.2991 17.0092C87.8549 16.3843 87.4949 15.698 87.2292 14.9698C86.9059 14.0709 86.749 13.1154 86.767 12.1547C86.7886 11.1923 86.9938 10.2442 87.3704 9.36662C87.6727 8.65518 88.0658 7.99027 88.5387 7.39022C89.3433 6.36717 90.0066 5.91523 90.0365 5.9512C90.0665 5.98718 89.4674 6.50433 88.727 7.54087C88.2967 8.14362 87.9374 8.79895 87.6571 9.49254C87.3128 10.3363 87.1247 11.2414 87.103 12.1592C87.0903 13.0783 87.2353 13.9923 87.5309 14.8574C87.7747 15.5666 88.1018 16.2411 88.5045 16.8653C89.1806 17.9378 89.7755 18.4662 89.7413 18.5044Z" fill="#717171"/>
<path d="M90.1673 5.95309C90.1909 5.91711 90.8499 6.38704 91.6095 7.44832C92.0537 8.07318 92.4137 8.75943 92.6794 9.48767C93.0007 10.3879 93.1575 11.3437 93.1416 12.305C93.1189 13.2666 92.9138 14.2137 92.5381 15.0908C92.2343 15.8014 91.8413 16.4661 91.3698 17.0672C90.5653 18.0903 89.8998 18.5445 89.872 18.5063C89.8442 18.468 90.4412 17.9531 91.1794 16.9166C91.6097 16.3138 91.969 15.6585 92.2493 14.9649C92.5919 14.1206 92.7792 13.2158 92.8013 12.2983C92.814 11.3792 92.669 10.4652 92.3734 9.6001C92.1284 8.89096 91.8007 8.21652 91.3977 7.59222C90.7279 6.5197 90.1288 5.99131 90.1673 5.95309Z" fill="#717171"/>
<path d="M84.0442 21.5953L83.9714 21.6155L83.7575 21.6695L82.9272 21.8741L79.7476 22.6386L79.7048 22.6498L79.7176 22.6049L80.8859 18.1664V18.1349H80.9266L80.8923 18.1934C79.9268 16.5618 79.3737 14.6982 79.2854 12.7791C79.2617 12.2423 79.2732 11.7044 79.3196 11.1692C79.3761 10.6133 79.4676 10.062 79.5935 9.5188C79.7231 8.95594 79.8911 8.40363 80.0964 7.86618C80.2162 7.59862 80.336 7.3288 80.458 7.05898C80.5194 6.92143 80.5909 6.78912 80.672 6.66325C80.7447 6.53284 80.8175 6.40243 80.8859 6.27202C81.5154 5.20687 82.3036 4.25489 83.2204 3.45245C84.1891 2.61299 85.2917 1.96059 86.4771 1.52551C88.2157 0.874889 90.0842 0.704121 91.9036 1.02955C93.723 1.35499 95.4325 2.16572 96.8683 3.38416C98.3042 4.60259 99.4184 6.18793 100.104 7.9884C100.79 9.78888 101.025 11.7442 100.786 13.6672C100.454 16.4554 99.145 19.0137 97.115 20.8429C95.0851 22.672 92.4795 23.6409 89.8065 23.5605C88.6979 23.5425 87.5994 23.3351 86.5541 22.9466C85.8945 22.7046 85.2595 22.3943 84.6583 22.0203C84.4443 21.8899 84.2967 21.7954 84.2004 21.7145L84.0463 21.6021L84.2004 21.7032C84.3074 21.7729 84.4636 21.8741 84.669 22C85.2736 22.3628 85.9099 22.664 86.5691 22.8994C87.6117 23.2781 88.7056 23.4777 89.8087 23.4908C91.6863 23.5343 93.542 23.0587 95.1897 22.1115C96.8375 21.1644 98.2195 19.779 99.1974 18.094C100.175 16.409 100.715 14.4837 100.762 12.5107C100.809 10.5377 100.362 8.58641 99.4653 6.85213C98.2475 4.50767 96.2751 2.69541 93.9015 1.73998C91.5278 0.784553 88.908 0.748378 86.5113 1.63793C85.3361 2.06824 84.2424 2.71292 83.2803 3.54238C82.3724 4.33781 81.5921 5.28147 80.9694 6.33723C80.8966 6.46539 80.8239 6.5958 80.7554 6.72396C80.6793 6.84941 80.6114 6.98012 80.5521 7.11519L80.1884 7.91115C79.9832 8.44381 79.8159 8.99168 79.6877 9.55028C79.5612 10.0881 79.469 10.6342 79.4116 11.1849C79.3645 11.7163 79.3523 12.2504 79.3753 12.7836C79.4581 14.6875 80.0016 16.5379 80.9544 18.1597L80.9929 18.2249H80.9202L80.9587 18.1979C80.4986 19.909 80.1028 21.4064 79.769 22.6319L79.739 22.5959L82.923 21.8516L83.7553 21.6628L83.9693 21.6155C83.994 21.6095 84.019 21.605 84.0442 21.6021V21.5953Z" fill="#353535"/>
<path d="M93.0579 26.9995C92.0115 27.2558 91.3461 28.3688 91.1171 29.4728C90.8882 30.5768 91.0037 31.7213 90.9031 32.8455C90.8026 33.9698 90.4281 35.1637 89.5273 35.7685L90.4238 36.0428C90.2466 36.6328 89.8728 37.1357 89.3711 37.4594C89.7215 37.7442 90.1521 37.8984 90.595 37.8978C90.0686 38.044 89.9231 38.8354 90.2142 39.3189C90.5052 39.8023 91.0593 40.0316 91.5879 40.1733C92.206 40.3728 92.8638 40.3938 93.4922 40.234C94.3481 39.9619 95.0072 39.1615 95.3388 38.2756C95.6705 37.3897 95.7325 36.4228 95.7668 35.4717C95.831 33.0906 95.6983 30.6848 95.1249 28.3801C94.9836 27.8225 94.7911 27.2311 94.3396 26.9028C93.8881 26.5746 93.1178 26.7072 92.9808 27.2648" fill="#E43434"/>
<path d="M116.708 61.3651C116.46 60.3713 115.013 54.7726 113.712 51.1166C112.277 47.0581 109.315 46.2194 109.315 46.2194C102.65 43.8293 96.6608 43.8158 90.2715 46.1452C90.0575 46.2127 89.8671 46.2846 89.6767 46.3701H89.6574C84.9136 48.3262 84.4236 53.5921 84.4236 53.5921L82.423 66.3657C82.4021 66.4666 82.3863 66.5687 82.3759 66.6715L82.3566 66.7929C82.3227 67.3899 82.4599 67.9839 82.7506 68.4982C83.0412 69.0124 83.472 69.4233 83.9871 69.6777C86.7688 71.0267 89.4306 70.7052 91.7158 69.7136L90.0554 72.2544H109.824L108.528 68.9019L108.956 66.8783L112.018 70.7502C112.385 71.2136 112.876 71.5498 113.428 71.7148C116.958 72.1465 117.53 66.622 116.866 63.4067" fill="#717171"/>
<path d="M104.184 44.8309C104.184 44.8309 100.993 61.6944 99.8701 61.564C98.7467 61.4336 93.4766 45.1502 93.4766 45.1502C93.4766 45.1502 100.212 43.2615 104.184 44.8309Z" fill="#FFBB9D"/>
<path d="M95.1367 46.0721C95.1196 44.1317 95.0683 42.0878 95.0683 42.0878C95.0683 42.0878 92.6867 41.6898 92.1732 38.4296C91.6853 35.3222 92.1326 28.1338 92.1326 28.1338C93.8171 27.4107 95.6718 27.2461 97.4479 27.662C99.224 28.078 100.837 29.0546 102.07 30.461L101.96 46.2272C101.948 48.0575 100.439 49.5032 98.5753 49.474C96.6902 49.4448 95.1517 47.9293 95.1367 46.0721Z" fill="#FFBB9D"/>
<path d="M92.9219 33.5735C92.9213 33.6825 92.9612 33.7874 93.0331 33.866C93.1051 33.9445 93.2033 33.9904 93.307 33.9939C93.3578 33.9979 93.4087 33.9912 93.4569 33.9741C93.5051 33.957 93.5496 33.93 93.5877 33.8946C93.6258 33.8591 93.6567 33.8161 93.6787 33.7679C93.7007 33.7197 93.7133 33.6673 93.7157 33.6139C93.7163 33.5049 93.6764 33.4 93.6045 33.3215C93.5325 33.2429 93.4343 33.197 93.3306 33.1935C93.2798 33.1895 93.2289 33.1963 93.1807 33.2133C93.1325 33.2304 93.088 33.2575 93.0499 33.2929C93.0118 33.3283 92.9809 33.3714 92.9589 33.4196C92.9369 33.4678 92.9243 33.5201 92.9219 33.5735Z" fill="#353535"/>
<path d="M92.3976 33.2787C92.4468 33.3326 92.7464 33.0966 93.1743 33.0943C93.6023 33.0921 93.9189 33.3192 93.966 33.2607C94.0131 33.2022 93.9361 33.1393 93.7991 33.0358C93.6103 32.9004 93.3858 32.8304 93.1572 32.8357C92.9338 32.841 92.7175 32.9196 92.5388 33.0606C92.4168 33.155 92.3719 33.2539 92.3976 33.2787Z" fill="#353535"/>
<path d="M97.2578 33.7911C97.2572 33.9001 97.2971 34.005 97.3691 34.0835C97.441 34.1621 97.5393 34.208 97.643 34.2115C97.6932 34.2145 97.7435 34.2071 97.7909 34.1896C97.8384 34.1721 97.8821 34.1449 97.9194 34.1096C97.9568 34.0743 97.9872 34.0315 98.0088 33.9838C98.0304 33.9361 98.0428 33.8843 98.0452 33.8315C98.0459 33.7225 98.0059 33.6176 97.934 33.539C97.8621 33.4605 97.7638 33.4146 97.6601 33.4111C97.6099 33.408 97.5596 33.4155 97.5121 33.433C97.4647 33.4505 97.421 33.4777 97.3836 33.513C97.3462 33.5483 97.3158 33.5911 97.2943 33.6388C97.2727 33.6865 97.2603 33.7383 97.2578 33.7911Z" fill="#353535"/>
<path d="M96.8654 33.4139C96.9168 33.4679 97.2163 33.2318 97.6443 33.2296C98.0722 33.2273 98.3889 33.4544 98.4338 33.3959C98.4788 33.3375 98.406 33.2745 98.2691 33.1711C98.0802 33.0356 97.8558 32.9657 97.6271 32.971C97.4034 32.9744 97.1866 33.0532 97.0088 33.1958C96.8868 33.2903 96.8419 33.3892 96.8654 33.4139Z" fill="#353535"/>
<path d="M95.334 36.7576C95.1073 36.6856 94.873 36.6433 94.6365 36.6317C94.5274 36.6317 94.4225 36.598 94.4054 36.5193C94.3949 36.4004 94.4196 36.2811 94.476 36.1775L94.7948 35.3006C95.2356 34.0505 95.5566 33.0252 95.5074 33.0049C95.4581 32.9847 95.0623 33.9853 94.6194 35.2354C94.5145 35.5435 94.4054 35.8358 94.3155 36.1168C94.2478 36.2554 94.2289 36.4147 94.262 36.5665C94.2778 36.6069 94.3022 36.643 94.3333 36.6718C94.3645 36.7007 94.4016 36.7216 94.4418 36.7329C94.5026 36.7495 94.5651 36.7586 94.6279 36.7599C94.8624 36.7906 95.0997 36.7899 95.334 36.7576Z" fill="#353535"/>
<path d="M95.0703 42.0833C96.5323 42.0972 97.9693 41.6847 99.2214 40.8916C99.2214 40.8916 98.2243 43.1401 95.1152 42.8545L95.0703 42.0833Z" fill="#F4B740"/>
<path d="M95.5223 37.8459C95.604 37.7382 95.71 37.6538 95.8308 37.6004C95.9515 37.547 96.0831 37.5262 96.2135 37.5401C96.308 37.5488 96.3999 37.5773 96.4837 37.6241C96.5675 37.6708 96.6415 37.7348 96.7013 37.8121C96.7591 37.887 96.7936 37.9787 96.8001 38.0748C96.8066 38.1709 96.7848 38.2668 96.7377 38.3495C96.6693 38.4307 96.5793 38.4884 96.4794 38.5152C96.3795 38.5421 96.2742 38.5368 96.1771 38.5002C95.9748 38.4265 95.7885 38.3111 95.6293 38.1606C95.5802 38.1252 95.5381 38.0802 95.5052 38.028C95.4891 38.0035 95.4805 37.9745 95.4805 37.9448C95.4805 37.9151 95.4891 37.886 95.5052 37.8616" fill="#F4B740"/>
<path d="M96.597 37.063C96.5264 37.063 96.5285 37.5487 96.1327 37.8972C95.7368 38.2457 95.2404 38.1962 95.2383 38.2637C95.2383 38.2952 95.3495 38.3581 95.5592 38.3626C95.8316 38.3649 96.0961 38.2662 96.306 38.0838C96.5083 37.9095 96.6368 37.6581 96.6633 37.3846C96.6805 37.1822 96.6291 37.0608 96.597 37.063Z" fill="#353535"/>
<path d="M100.395 27.8338C99.2885 29.5561 96.31 31.3639 94.1638 31.8091C94.4099 31.4561 95.7194 30.5747 95.9633 30.2239C95.0005 31.0064 93.6096 32.0564 92.3258 32.1508C92.1738 32.1756 92.0183 32.1529 91.8786 32.0856C91.8045 32.0259 91.7447 31.9489 91.7038 31.8607C91.6629 31.7725 91.6422 31.6756 91.6432 31.5775C91.5551 30.5932 91.5687 29.6019 91.6839 28.6207C91.7736 27.7915 92.1617 27.0297 92.7687 26.4914C93.5882 25.8012 94.7715 25.6145 95.8906 25.5651C96.8278 25.5246 97.795 25.5651 98.6594 25.9046C99.5239 26.2441 100.268 26.9344 100.408 27.7753" fill="#E43434"/>
<path d="M104.064 35.724C104.197 35.002 104.289 34.2721 104.338 33.5384C104.402 31.8521 104.881 25.7722 99.3672 26.3748L99.6796 28.0095C99.6796 28.0095 98.6504 31.7959 101.019 34.3501C101.019 34.3501 100.345 39.6835 101.993 41.4058C101.993 41.4058 103.76 37.543 104.064 35.724Z" fill="#E43434"/>
<path d="M100.95 34.065C101.282 33.9891 101.628 34.0101 101.95 34.1257C102.273 34.2457 102.538 34.4956 102.686 34.8205C102.817 35.1528 102.822 35.5252 102.701 35.8615C102.579 36.1955 102.387 36.4966 102.14 36.7429C101.974 36.932 101.768 37.0775 101.539 37.1679C101.424 37.2103 101.301 37.2226 101.181 37.2038C101.06 37.185 100.946 37.1356 100.848 37.0599" fill="#FFBB9D"/>
<path d="M101.146 36.1774C101.11 36.1909 101.255 36.4023 101.557 36.3146C101.72 36.2554 101.855 36.131 101.931 35.9683C102.021 35.788 102.075 35.5908 102.092 35.3882C102.116 35.1721 102.065 34.9541 101.949 34.7744C101.901 34.6988 101.838 34.6354 101.764 34.589C101.69 34.5427 101.606 34.5146 101.521 34.5068C101.208 34.5068 101.112 34.7317 101.148 34.7317C101.185 34.7317 101.294 34.6395 101.497 34.689C101.623 34.7382 101.728 34.8335 101.792 34.9574C101.857 35.0813 101.876 35.2255 101.848 35.3635C101.814 35.7233 101.683 36.0515 101.501 36.1347C101.319 36.2179 101.168 36.1482 101.146 36.1774Z" fill="#F4B740"/>
<path d="M90.0752 61.7761C90.0452 61.7761 90.0195 60.4517 90.0195 58.8171C90.0195 57.1824 90.0452 55.8604 90.0752 55.8604C90.1051 55.8604 90.1308 57.1847 90.1308 58.8171C90.1308 60.4495 90.1051 61.7761 90.0752 61.7761Z" fill="#353535"/>
<path d="M98.1056 55.7386C98.1056 55.7386 95.3239 55.7724 95.1549 56.4132C94.8639 57.4834 95.3838 63.3587 95.3838 63.3587L97.9408 64.2581C97.9408 64.2581 99.1733 63.959 98.6042 61.4655C98.2325 59.8988 97.664 58.3911 96.9138 56.982C96.9138 56.982 100.312 57.081 100.218 56.2828C100.123 55.4846 98.1056 55.7386 98.1056 55.7386Z" fill="#FFBB9D"/>
<path d="M97.0039 57.4734C97.1558 57.442 100.552 57.1474 100.34 57.7185C100.128 58.2896 97.0039 58.4313 97.0039 58.4313V57.4734Z" fill="#FFBB9D"/>
<path d="M107.914 48.835L107.495 59.9784L105.946 64.2572L96.4281 64.464L96.043 50.6607L107.914 48.835Z" fill="#353535"/>
<path d="M94.9392 59.668C94.9033 59.6938 94.8645 59.7149 94.8237 59.7309L94.4813 59.8928L93.2125 60.4617L89.0143 62.3032L86.7055 63.3037C86.0688 63.5547 85.4508 63.8553 84.8568 64.2031C84.4588 64.4401 84.1073 64.7545 83.8211 65.1295C83.6243 65.3993 83.5537 65.5792 83.543 65.5792C83.5542 65.5341 83.5715 65.4909 83.5943 65.451C83.6474 65.3313 83.7119 65.2175 83.7869 65.1115C84.0634 64.7188 84.4128 64.3891 84.814 64.1424C85.4071 63.7828 86.0268 63.4738 86.667 63.2183L88.9801 62.211L93.1911 60.401L94.4749 59.8658L94.8258 59.7264C94.8612 59.7021 94.8993 59.6825 94.9392 59.668Z" fill="#353535"/>
<path d="M98.0816 64.0352C98.0184 64.1312 97.9467 64.2207 97.8676 64.3027C97.7285 64.4714 97.521 64.7074 97.2535 64.9885C96.7207 65.5551 95.9504 66.3016 95.0646 67.0796C94.1787 67.8575 93.3528 68.5276 92.7365 68.9953C92.4305 69.2201 92.1802 69.4135 92.0047 69.5394C91.9173 69.6086 91.8242 69.6695 91.7266 69.7215C91.8039 69.6385 91.8884 69.5632 91.9791 69.4967L92.6894 68.9233C93.2886 68.4399 94.1081 67.7631 94.994 66.9851C95.8798 66.2072 96.6544 65.4764 97.1979 64.9255C97.4718 64.6535 97.6879 64.4241 97.8398 64.269C97.9138 64.1839 97.9947 64.1056 98.0816 64.0352Z" fill="#353535"/>
<path d="M112.418 71.1658C112.394 71.1883 110.999 69.5064 109.3 67.4109C107.601 65.3153 106.242 63.602 106.266 63.5885C106.289 63.575 107.685 65.2433 109.384 67.3344C111.082 69.4255 112.441 71.1455 112.418 71.1658Z" fill="#353535"/>
<path d="M115.108 63.0689C115.003 63.0396 114.9 63.0012 114.8 62.9542C114.603 62.8733 114.321 62.7473 113.976 62.5855C113.287 62.2594 112.35 61.7738 111.353 61.1667C110.356 60.5596 109.485 59.9503 108.873 59.4848C108.567 59.26 108.323 59.0576 108.158 58.9182C108.069 58.8514 107.986 58.7761 107.91 58.6934C108.007 58.7468 108.098 58.8092 108.184 58.88C108.374 59.0171 108.623 59.197 108.918 59.4151C109.541 59.8648 110.416 60.4584 111.409 61.0632C112.401 61.6681 113.334 62.165 114.011 62.5068L114.817 62.9092C114.919 62.9532 115.016 63.0066 115.108 63.0689Z" fill="#353535"/>
<path d="M110.183 60.623C110.153 60.623 109.986 59.4381 109.811 57.9676C109.635 56.4971 109.518 55.2986 109.548 55.2964C109.578 55.2941 109.747 56.4813 109.922 57.9518C110.098 59.4223 110.215 60.6208 110.183 60.623Z" fill="#353535"/>
<path d="M102.134 36.1575C102.109 36.2078 102.08 36.2552 102.046 36.2992L101.774 36.6814L100.788 38.0305V37.9586L102.395 39.2852L102.538 39.4066H102.461L103.852 37.5763V37.6438L102.806 36.7444L102.519 36.4903C102.483 36.4614 102.451 36.4282 102.423 36.3914C102.423 36.3914 102.466 36.4139 102.536 36.4678L102.838 36.6927L103.908 37.5561L103.944 37.5853L103.914 37.6235C103.518 38.1587 103.048 38.7883 102.541 39.4673L102.506 39.5145L102.461 39.4785L102.324 39.3841C101.745 38.8984 101.199 38.4397 100.726 38.0463L100.688 38.0125L100.717 37.9743L101.736 36.6567L102.027 36.2902C102.091 36.1958 102.13 36.1531 102.134 36.1575Z" fill="#353535"/>
<path d="M106.216 63.4118C104.675 63.3375 103.14 63.1648 101.62 62.8946C99.8201 62.5933 99.8393 62.4202 99.9078 62.2043C100.079 61.6242 103.092 62.6091 102.55 61.9997C102.009 61.3904 98.7459 61.2465 98.9492 60.6506C99.2145 59.8704 102.351 60.9632 102.623 61.0351C102.895 61.1071 102.991 60.6956 102.743 60.6439C102.388 60.5697 98.6582 59.7041 98.9107 58.9351C99.0519 58.5079 99.7537 58.8654 99.7537 58.8654C99.7537 58.8654 103.192 59.9491 103.301 59.5804C103.411 59.2116 101.412 58.4989 100.721 58.3122C100.03 58.1256 99.8393 57.7074 100.16 57.4556C100.374 57.2847 102.514 57.8086 103.179 58.0132C103.845 58.2178 105.709 58.8069 105.003 57.7321L104.973 57.6804C104.249 56.6416 104.02 55.5894 104.151 55.2363C104.187 55.1627 104.241 55.1009 104.309 55.0577C104.376 55.0145 104.453 54.9917 104.532 54.9917C104.611 54.9917 104.688 55.0145 104.755 55.0577C104.822 55.1009 104.877 55.1627 104.913 55.2363C104.947 55.2884 104.971 55.3473 104.983 55.4095C104.99 55.4407 104.999 55.4715 105.009 55.5017C105.179 55.9048 105.389 56.2883 105.634 56.6461C105.846 56.973 106.109 57.2597 106.413 57.4938C106.764 57.7614 107.652 58.7462 107.91 58.9216" fill="#FFBB9D"/>
<path d="M42.5382 50.1559C41.5745 50.1374 40.6546 49.7302 39.9687 49.0187C39.2829 48.3072 38.8836 47.3458 38.8535 46.3335C38.8022 44.582 38.7637 42.8934 38.7637 42.8934C38.7637 42.8934 35.7017 42.5943 35.477 39.4105C35.2523 36.2267 35.3486 28.8765 35.3486 28.8765C37.027 27.9863 38.9011 27.5831 40.7773 27.7084C42.6536 27.8337 44.464 28.483 46.0217 29.5892L46.4924 29.9242L46.3619 46.2481C46.3572 46.7692 46.2543 47.2841 46.0591 47.7632C45.864 48.2423 45.5805 48.676 45.225 49.0393C44.8695 49.4026 44.449 49.6884 43.9879 49.88C43.5267 50.0717 43.034 50.1655 42.5382 50.1559Z" fill="#FFBB9D"/>
<path d="M38.6869 37.4465C38.6869 37.4105 38.4258 37.3723 38.0022 37.3386C37.8909 37.3386 37.8053 37.3139 37.7882 37.2531C37.7789 37.1378 37.7996 37.022 37.8481 36.9181L38.1305 36.012C38.5114 34.7124 38.7725 33.6421 38.7061 33.6219C38.6398 33.6016 38.2782 34.6382 37.9016 35.9378C37.8117 36.2548 37.7261 36.5584 37.6427 36.8574C37.5803 37.0093 37.569 37.179 37.6106 37.3386C37.6291 37.3812 37.6567 37.4187 37.6912 37.4484C37.7257 37.478 37.7662 37.4989 37.8096 37.5095C37.8716 37.5223 37.9348 37.5268 37.9979 37.523C38.4215 37.505 38.6847 37.4802 38.6869 37.4465Z" fill="#353535"/>
<path d="M40.0739 37.8423C39.4308 38.1689 38.7566 38.4229 38.0625 38.6C38.2176 38.8215 38.4396 38.9811 38.6922 39.053C38.9448 39.1249 39.2131 39.1047 39.4533 38.9957C40.3392 38.5865 40.0739 37.8423 40.0739 37.8423Z" fill="white"/>
<path d="M38.7578 42.8447C40.1594 42.7818 41.5115 42.2816 42.6414 41.408C42.6414 41.408 41.8412 43.7621 38.7899 43.6699L38.7578 42.8447Z" fill="#B79999"/>
<path d="M46.3234 33.8569C46.3226 33.7342 46.3664 33.6158 46.446 33.5259C46.5255 33.436 46.6348 33.3815 46.7513 33.3735C47.3183 33.3578 48.2491 33.5983 48.3304 35.233C48.4546 37.5781 46.3084 36.9935 46.302 36.9261C46.2955 36.8586 46.3169 34.7675 46.3234 33.8569Z" fill="#FFBB9D"/>
<path d="M46.8029 36.0132C46.8029 36.0132 46.8414 36.0402 46.9099 36.0671C47.0033 36.1064 47.1075 36.1064 47.2009 36.0671C47.432 35.9615 47.6096 35.5567 47.5968 35.134C47.5929 34.9328 47.5453 34.7352 47.4577 34.5562C47.4332 34.4841 47.3923 34.4193 47.3386 34.3676C47.2849 34.3159 47.22 34.2787 47.1496 34.2594C47.104 34.2495 47.0566 34.2566 47.0155 34.2796C46.9745 34.3026 46.9424 34.34 46.9249 34.3853C46.8992 34.4527 46.9249 34.4977 46.9035 34.5022C46.8821 34.5067 46.8543 34.4662 46.8671 34.3673C46.8767 34.3092 46.9046 34.2561 46.9463 34.2166C46.9756 34.1904 47.0096 34.1705 47.0464 34.1581C47.0831 34.1457 47.1218 34.1412 47.1602 34.1447C47.2533 34.158 47.3415 34.1962 47.4165 34.2557C47.4914 34.3151 47.5505 34.3938 47.5882 34.4842C47.6931 34.6765 47.7525 34.8924 47.7615 35.1138C47.7722 35.586 47.5647 36.0424 47.248 36.1593C47.1892 36.181 47.1265 36.1884 47.0646 36.181C47.0028 36.1736 46.9433 36.1516 46.8906 36.1166C46.8093 36.0626 46.7943 36.0132 46.8029 36.0132Z" fill="#B79999"/>
<path d="M36.3009 34.2717C36.308 34.3845 36.3568 34.4898 36.4367 34.5654C36.5166 34.641 36.6214 34.6808 36.7288 34.6765C36.7813 34.6771 36.8334 34.6666 36.882 34.6456C36.9306 34.6247 36.9746 34.5936 37.0116 34.5544C37.0485 34.5152 37.0775 34.4686 37.097 34.4173C37.1164 34.366 37.1258 34.3112 37.1247 34.256C37.1186 34.1427 37.0703 34.0364 36.9902 33.9602C36.9101 33.8841 36.8047 33.8441 36.6967 33.849C36.6441 33.8487 36.592 33.8595 36.5434 33.8807C36.4948 33.9019 36.4508 33.9332 36.4139 33.9726C36.377 34.012 36.348 34.0588 36.3285 34.1101C36.3091 34.1615 36.2997 34.2165 36.3009 34.2717Z" fill="#353535"/>
<path d="M35.5967 33.8395C35.6524 33.8912 35.9477 33.6146 36.3885 33.5944C36.8292 33.5742 37.1716 33.7698 37.2144 33.7113C37.2572 33.6528 37.178 33.5854 37.0304 33.4865C36.829 33.3616 36.5959 33.3051 36.3628 33.3246C36.133 33.3393 35.9139 33.4316 35.738 33.5876C35.6096 33.7113 35.5625 33.8147 35.5967 33.8395Z" fill="#353535"/>
<path d="M40.6992 34.1925C40.7059 34.3054 40.7544 34.4111 40.8345 34.4868C40.9145 34.5625 41.0196 34.6022 41.1272 34.5972C41.1798 34.5978 41.232 34.5874 41.2807 34.5664C41.3294 34.5455 41.3736 34.5145 41.4107 34.4753C41.4478 34.4361 41.477 34.3895 41.4967 34.3382C41.5164 34.2869 41.526 34.2321 41.5252 34.1768C41.518 34.0641 41.4693 33.9587 41.3894 33.8831C41.3095 33.8076 41.2047 33.7677 41.0972 33.7721C41.0447 33.7717 40.9926 33.7824 40.9441 33.8035C40.8955 33.8245 40.8515 33.8555 40.8144 33.8947C40.7774 33.9338 40.7481 33.9803 40.7283 34.0314C40.7086 34.0826 40.6987 34.1373 40.6992 34.1925Z" fill="#353535"/>
<path d="M40.0864 33.8396C40.1421 33.8913 40.4374 33.6147 40.8781 33.5945C41.3189 33.5742 41.6592 33.7699 41.7041 33.7114C41.749 33.6529 41.6677 33.5855 41.5179 33.4866C41.3174 33.3615 41.0849 33.3049 40.8525 33.3247C40.6227 33.3394 40.4036 33.4317 40.2277 33.5877C40.0993 33.7114 40.0586 33.8148 40.0864 33.8396Z" fill="#353535"/>
<path d="M43.011 27.7755C42.8108 28.2718 42.7519 28.8186 42.8416 29.3494C42.9312 29.8802 43.1655 30.3722 43.516 30.7659C43.8134 31.0897 44.19 31.337 44.4489 31.699C44.9838 32.4478 44.8961 33.4776 44.9817 34.4084C45.0202 34.8401 45.1165 35.3078 45.4096 35.5934C45.7028 35.8789 46.2762 35.9082 46.4795 35.5372C46.5367 35.4196 46.5743 35.2926 46.5908 35.1617C46.7777 34.1229 46.9631 33.0848 47.1471 32.0475C47.2862 31.2673 47.4274 30.4736 47.299 29.6867C47.2241 29.2289 47.0588 28.7928 46.8137 28.4062C46.5687 28.0197 46.2494 27.6913 45.8763 27.4423C45.5033 27.1932 45.0847 27.029 44.6476 26.9601C44.2105 26.8913 43.7645 26.9193 43.3384 27.0425" fill="#353535"/>
<path d="M43.4824 27.1149C42.4532 26.908 41.8754 26.5618 41.1479 26.2155C40.4295 25.8406 39.6086 25.7428 38.8285 25.939C38.3106 26.0918 37.8206 26.4201 37.2878 26.4134C36.755 26.4066 36.2822 26.0784 35.7772 25.9097C35.4315 25.7976 35.0679 25.7597 34.708 25.7984C34.3481 25.837 33.9993 25.9513 33.6824 26.1346C33.1838 26.4224 32.7366 26.9373 32.6938 27.5668C32.651 28.1964 33.186 28.8462 33.723 28.6663C33.1624 28.8709 32.9356 29.7389 33.2138 30.3167C33.3591 30.5884 33.5809 30.8061 33.8487 30.9402C34.1164 31.0742 34.4171 31.118 34.7094 31.0655C35.3016 30.9281 35.8333 30.5871 36.2201 30.0964C36.2329 30.7979 36.9027 31.2903 37.5232 31.2701C38.1437 31.2498 38.7043 30.8586 39.2157 30.4561C39.7271 30.0536 40.245 29.6152 40.8526 29.4735C41.2806 29.3746 41.7085 29.4286 42.1365 29.3746C42.5644 29.3206 43.0245 29.125 43.232 28.7001C43.4396 28.2751 44.2613 27.7759 43.8312 27.7625" fill="#353535"/>
<path d="M37.3829 30.5692C37.457 30.6162 37.5334 30.6589 37.6119 30.6974C37.8348 30.7752 38.0758 30.7752 38.2987 30.6974C38.4536 30.6499 38.6018 30.5811 38.7395 30.4928C38.8893 30.3984 39.0412 30.2679 39.2038 30.1533C39.3731 30.018 39.5527 29.8976 39.7409 29.7935C39.9492 29.6816 40.1789 29.6209 40.4128 29.6159C40.8899 29.6159 41.32 29.7418 41.7095 29.7058C41.8809 29.6949 42.0479 29.6445 42.1988 29.5582C42.3496 29.472 42.4806 29.352 42.5825 29.2067C42.7267 29.0112 42.817 28.7779 42.8435 28.5321C42.8606 28.3567 42.8435 28.2578 42.8542 28.2578C42.8649 28.2578 42.8649 28.2803 42.8735 28.3275C42.8846 28.3958 42.8889 28.4651 42.8863 28.5344C42.8767 28.794 42.7932 29.0446 42.6467 29.2539C42.5483 29.4018 42.4223 29.5273 42.2765 29.6226C42.1079 29.731 41.9172 29.7957 41.7202 29.8115C41.305 29.8542 40.8643 29.7216 40.4171 29.7306C39.9699 29.7396 39.5847 29.9981 39.2637 30.2387C39.099 30.3601 38.9449 30.4793 38.7866 30.5737C38.6403 30.6636 38.4825 30.731 38.318 30.7738C38.0803 30.85 37.825 30.838 37.5947 30.7401C37.5339 30.7101 37.4776 30.6707 37.4278 30.6232C37.3965 30.5902 37.3815 30.5722 37.3829 30.5692Z" fill="#353535"/>
<path d="M43.1633 26.0034C43.1654 26.2536 43.1861 26.5032 43.2253 26.7499C43.3002 26.9878 43.394 27.2187 43.5056 27.4402C43.3151 27.2666 43.1801 27.0356 43.1188 26.7785C43.0576 26.5215 43.0731 26.2509 43.1633 26.0034Z" fill="#353535"/>
<path d="M44.3045 25.9546C44.3281 25.9793 44.0521 26.2536 43.8466 26.6853C43.6412 27.117 43.5835 27.5083 43.5514 27.5015C43.528 27.1972 43.5961 26.8929 43.7461 26.6314C43.8623 26.3513 44.0571 26.1151 44.3045 25.9546Z" fill="#353535"/>
<path d="M58.6108 59.2935L63.269 71.8871H56.1394L52.8164 62.9202L58.6108 59.2935Z" fill="#FFBB9D"/>
<path d="M33.3624 49.0679C33.3624 49.0679 27.2192 55.7121 24.566 55.7121C23.6972 55.7121 23.0168 44.6452 23.0061 41.4546C23.1469 41.0426 23.3483 40.6564 23.6031 40.3101C23.8276 39.9808 24.0867 39.6791 24.3755 39.4107C24.74 39.0826 25.1453 38.808 25.5802 38.5946C25.9953 38.4417 26.0295 37.8458 25.6508 37.7266C25.2721 37.6075 24.1209 38.001 23.0831 39.0285C22.0453 40.0561 22.3599 37.7559 22.4583 36.9172C22.5567 36.0785 22.7429 33.4635 22.5204 33.2342C22.1951 32.8969 21.7821 33.2095 21.7008 34.0504C21.6195 34.8913 21.228 37.4051 20.8 37.3399C20.3721 37.2747 20.9412 33.0049 20.9412 33.0049C20.9412 33.0049 21.2001 32.1055 20.7273 32.0155C19.8542 31.8514 19.5825 36.4293 19.5675 36.8655C19.5675 37.169 19.0968 37.1173 19.1246 36.7913C19.1524 36.4653 19.7665 32.5417 18.8871 32.3641C18.2088 32.2291 18.6303 36.1302 18.0718 36.879C17.5134 37.6277 18.0397 33.8773 17.385 33.7761C17.141 33.7401 16.957 33.7469 16.957 35.9369C16.957 37.1151 17.385 38.8936 17.2181 41.16C17.5005 47.8515 17.1881 66.6419 24.2792 64.4159C32.07 61.9651 37.3937 56.6025 37.3937 56.6025L33.3624 49.0679Z" fill="#FFBB9D"/>
<path d="M50.5601 55.0229C50.5917 55.1086 50.6147 55.1975 50.6285 55.2883C50.6671 55.4592 50.7163 55.7087 50.7719 56.019C50.881 56.6396 51.0116 57.5008 51.1121 58.4564C51.2127 59.412 51.264 60.2821 51.2854 60.9117C51.2854 61.2265 51.3004 61.4828 51.2983 61.6582C51.305 61.7498 51.3007 61.842 51.2854 61.9325C51.2672 61.843 51.2572 61.7519 51.2555 61.6604C51.2426 61.4603 51.2255 61.2107 51.2063 60.9162C51.1656 60.2889 51.1014 59.4232 50.9923 58.4698C50.8832 57.5165 50.7783 56.6553 50.6842 56.0325C50.6414 55.7402 50.6071 55.4951 50.5772 55.2973C50.5613 55.2068 50.5556 55.1148 50.5601 55.0229Z" fill="#353535"/>
<path d="M32.3251 71.888L51.9508 71.9915L51.2896 67.6384C51.4629 65.5726 51.4536 63.4944 51.2618 61.4304L52.2568 64.2612L60.3685 59.9892C60.3685 59.9892 57.42 51.7283 54.9507 48.929C51.8331 45.3921 46.2206 45.7451 46.2206 45.7451L42.429 48.4433L38.939 45.8598C37.067 46.0905 35.2446 46.6475 33.5469 47.5079L33.3672 47.5619V47.6024C31.3087 48.7266 28.3709 51.4855 25.5742 54.1589L28.8031 57.4619L32.3786 60.9627C32.5811 60.9312 32.7862 60.9221 32.9906 60.9358C33.0505 61.3225 32.3251 71.888 32.3251 71.888Z" fill="#717171"/>
<path opacity="0.2" d="M50.6559 53.7036L53.3241 63.7003L52.2543 64.2624L51.2614 61.4316C51.2614 61.4316 50.2921 55.5046 50.6559 53.7036Z" fill="#353535"/>
<path d="M38.7188 45.8286V44.7494C38.7188 44.7494 41.7829 44.4998 42.4034 48.3042C42.4034 48.3042 43.4026 44.7494 46.3769 44.3918L46.8048 46.0535C46.8048 46.0535 45.3947 50.6831 45.1915 50.7235C44.9882 50.764 42.4098 51.5532 42.4098 51.5532L40.912 51.1979L39.2537 49.2126L38.7188 45.8286Z" fill="#717171"/>
<path d="M46.8697 45.9292C46.8191 45.9976 46.7617 46.0601 46.6986 46.1158C46.5873 46.235 46.4247 46.4014 46.2321 46.6195C45.7322 47.1831 45.287 47.7977 44.9033 48.4542C44.8092 48.6161 44.7236 48.7758 44.6423 48.9309L44.5931 49.0253L44.546 48.9309C44.2058 48.2564 43.9041 47.6718 43.673 47.2153C43.6232 47.1273 43.5569 47.0508 43.4783 46.9905C43.415 46.9445 43.341 46.9173 43.2643 46.9118C43.2008 46.9108 43.1377 46.9223 43.0781 46.9455C43.0781 46.9455 43.1273 46.8736 43.2664 46.8713C43.3497 46.87 43.4315 46.8942 43.5018 46.941C43.5932 47.0038 43.6706 47.0866 43.7286 47.1838C43.9704 47.6088 44.2785 48.2047 44.6359 48.8859H44.5503C44.6316 48.7285 44.7172 48.5644 44.8135 48.4025C45.1984 47.7368 45.6574 47.1216 46.1807 46.57C46.3819 46.3587 46.5531 46.199 46.675 46.0911C46.7322 46.0276 46.7978 45.9731 46.8697 45.9292Z" fill="#353535"/>
<path d="M38.5195 46.1294C38.5745 46.1765 38.6234 46.2309 38.665 46.2913C38.7549 46.4015 38.879 46.5611 39.0309 46.7612C39.3369 47.1592 39.752 47.7146 40.2056 48.3351L40.2784 48.4341H40.1842C40.349 48.117 40.3618 47.7595 40.4367 47.4313C40.4844 47.1333 40.6372 46.8651 40.8647 46.6803C40.9451 46.6242 41.0368 46.5884 41.1325 46.5755C41.2282 46.5627 41.3255 46.5731 41.4167 46.6061C41.4647 46.6273 41.5088 46.657 41.5473 46.6938C41.5708 46.723 41.5794 46.7387 41.5772 46.741C41.5228 46.7037 41.4647 46.6727 41.4039 46.6488C41.3193 46.6266 41.2311 46.6239 41.1454 46.641C41.0597 46.6581 40.9785 46.6945 40.9075 46.7477C40.7072 46.9289 40.577 47.1808 40.5416 47.456C40.5019 47.8113 40.4162 48.1593 40.287 48.4903L40.2463 48.569L40.1949 48.497L40.1222 48.3981C39.6686 47.7798 39.2663 47.2154 38.9732 46.8039C38.8298 46.5993 38.7142 46.4307 38.6351 46.3138C38.5892 46.2577 38.5504 46.1958 38.5195 46.1294Z" fill="#353535"/>
<path d="M40.7013 71.8888C40.6985 71.8679 40.6985 71.8467 40.7013 71.8258C40.7013 71.7809 40.7013 71.7202 40.7013 71.6482C40.7013 71.4818 40.7206 71.2525 40.7356 70.9602C40.7719 70.3553 40.8254 69.4942 40.8875 68.4352C41.0287 66.2946 41.2213 63.3536 41.4331 60.1046L42.0087 51.7853C42.0879 50.7262 42.1521 49.8673 42.197 49.2625C42.2205 48.9702 42.2398 48.7409 42.2548 48.5767C42.2548 48.5025 42.2676 48.4441 42.2719 48.3968C42.2695 48.3774 42.2695 48.3578 42.2719 48.3384C42.2756 48.3584 42.2756 48.379 42.2719 48.3991V48.5767C42.2719 48.7431 42.2505 48.9724 42.2355 49.2647C42.1991 49.8696 42.1478 50.7307 42.0836 51.7898C41.9445 53.9303 41.7519 56.8713 41.5401 60.1203C41.3283 63.3694 41.1122 66.3104 40.9624 68.4397C40.8832 69.4987 40.8212 70.3576 40.7762 70.9624C40.7505 71.2547 40.7313 71.4841 40.7184 71.6505C40.7184 71.7224 40.7056 71.7809 40.7013 71.8281C40.7044 71.8482 40.7044 71.8687 40.7013 71.8888Z" fill="#353535"/>
<path d="M33.6544 51.885C33.658 52.0045 33.6516 52.1242 33.6351 52.2425C33.618 52.4921 33.5923 52.8181 33.5623 53.2139C33.5046 54.0323 33.4447 55.1678 33.3783 56.4224C33.312 57.6771 33.2392 58.8103 33.1644 59.631C33.1258 60.0402 33.0873 60.373 33.0552 60.6001C33.0448 60.7195 33.0241 60.8376 32.9932 60.9531C32.9895 60.8335 32.996 60.7139 33.0124 60.5956C33.0317 60.346 33.0552 60.0177 33.0852 59.6242C33.1451 58.8035 33.2029 57.6681 33.2713 56.4157C33.3398 55.1633 33.4083 54.0255 33.4853 53.2049C33.5238 52.7956 33.5623 52.4651 33.5944 52.2358C33.605 52.1173 33.625 52 33.6544 51.885Z" fill="#353535"/>
<path d="M53.4867 47.856C53.4198 47.799 53.3482 47.7486 53.2727 47.7053C53.0638 47.6036 52.8259 47.5891 52.6072 47.6648C52.2869 47.7939 52.0023 48.0049 51.7792 48.2787C51.4847 48.5979 51.2301 48.9553 51.0217 49.3422C50.6457 50.05 50.4263 50.8377 50.3798 51.6469C50.3455 52.2697 50.4204 52.6542 50.3969 52.6564C50.3703 52.5693 50.3517 52.4797 50.3412 52.3889C50.3084 52.1424 50.2955 51.8934 50.3027 51.6446C50.3254 50.8163 50.5391 50.0062 50.9254 49.2837C51.138 48.8878 51.4007 48.524 51.7064 48.2022C51.9435 47.9199 52.2466 47.7075 52.5858 47.5862C52.7029 47.5488 52.8259 47.5365 52.9476 47.55C53.0692 47.5635 53.1871 47.6026 53.2941 47.6648C53.351 47.6995 53.4023 47.7436 53.446 47.7953C53.4781 47.8312 53.4888 47.8537 53.4867 47.856Z" fill="#353535"/>
<path d="M68.7816 29.0508C67.41 29.9344 66.4578 31.4117 65.893 32.9923C65.3281 34.573 65.1141 36.2684 64.9472 37.939C64.5051 42.38 64.3571 46.848 64.5043 51.3106C69.6889 51.9986 74.9141 52.6911 80.1244 52.3179C79.2193 46.0604 78.6458 39.8097 79.3712 33.5252" fill="#353535"/>
<path d="M80.4274 81.05L76.6464 73.0274L78.0886 67.1589C78.2577 68.4023 78.4074 69.4816 78.4074 69.4816L86.5064 69.0319C86.5776 69.028 86.6474 69.0085 86.7111 68.9747C86.7748 68.9409 86.8311 68.8935 86.8764 68.8355C86.9217 68.7775 86.955 68.7103 86.9742 68.638C86.9934 68.5657 86.998 68.4901 86.9878 68.4158L85.4194 56.6789C85.4194 56.6789 84.9123 51.2331 80.0058 49.2095H79.9823C79.7854 49.1285 79.58 49.0566 79.3682 48.9846C72.7542 46.5743 66.5597 46.59 59.6676 49.0611C59.6676 49.0611 56.6056 49.9267 55.1206 54.1246C53.6357 58.3225 52.125 64.4923 52.125 64.4923L58.9936 67.0488L59.0385 65.8279L60.5577 71.9347L57.2261 80.8296L68.8556 81.1309L80.4274 81.05Z" fill="#E43434"/>
<path d="M52.1322 64.415L51.3597 68.2374C50.6964 71.5314 53.018 74.9131 56.202 75.2931L73.1295 77.1189C74.0215 77.2245 74.9245 77.1415 75.7855 76.8748C76.6466 76.6081 77.4481 76.163 78.1429 75.5659C78.8378 74.9688 79.412 74.2316 79.8316 73.3978C80.2513 72.564 80.5079 71.6504 80.5865 70.7107L59.2447 68.5747L59.3774 66.4207L52.1322 64.415Z" fill="#E43434"/>
<path d="M73.3002 68.3244L74.614 68.0681C74.614 68.0681 77.7294 64.4863 78.3136 64.4368C78.795 64.3941 81.4462 64.4211 82.3791 64.4368C82.4635 64.438 82.544 64.474 82.6033 64.5372C82.6625 64.6003 82.6958 64.6854 82.6958 64.7741C82.6958 64.8616 82.6635 64.9457 82.6056 65.0087C82.5477 65.0716 82.4688 65.1084 82.3855 65.1113L79.2551 65.2395L79.2401 65.5048L82.3748 65.5475C82.6958 65.5745 82.899 66.1052 81.8784 66.2019L79.2551 66.2985V66.4694L81.9148 66.8607C82.0496 66.8809 82.4026 66.9528 82.4048 67.0967C82.4048 67.0967 82.5674 67.4452 81.8078 67.5464C81.5489 67.5802 79.2401 67.4992 79.2401 67.4992L79.3278 67.7241L81.72 68.2659C81.8037 68.2849 81.8774 68.3366 81.9262 68.4105C81.9751 68.4843 81.9955 68.5749 81.9832 68.6639C81.9715 68.755 81.9265 68.8378 81.8579 68.8948C81.7893 68.9519 81.7023 68.9787 81.6152 68.9697L79.0625 68.7224L76.5547 70.8247H73.1953L73.3002 68.3244Z" fill="#FFBB9D"/>
<path d="M64.9805 47.3273C64.9805 47.3273 68.2778 65.0452 69.4397 64.917C70.6016 64.7889 76.0515 47.9344 76.0515 47.9344C76.0515 47.9344 69.0866 45.7061 64.9805 47.3273Z" fill="white"/>
<path d="M79.5713 64.4829C79.5413 64.4829 79.5156 63.2597 79.5156 61.7533C79.5156 60.2468 79.5413 59.0259 79.5713 59.0259C79.6012 59.0259 79.6269 60.2468 79.6269 61.7533C79.6269 63.2597 79.6034 64.4829 79.5713 64.4829Z" fill="#353535"/>
<path d="M59.332 64.5957C59.3368 64.3327 59.3597 64.0705 59.4005 63.811C59.4583 63.3253 59.5439 62.6598 59.6466 61.9245C59.7493 61.1893 59.8456 60.5215 59.9226 60.0426C59.9534 59.7805 60.0028 59.5212 60.0702 59.2668C60.0655 59.5306 60.0427 59.7936 60.0018 60.0538C59.944 60.5372 59.8584 61.205 59.7557 61.9403C59.653 62.6755 59.5567 63.3388 59.4797 63.82C59.4488 64.082 59.3995 64.3413 59.332 64.5957Z" fill="#353535"/>
<path d="M68.8561 81.1211C68.8501 81.0666 68.8501 81.0115 68.8561 80.957C68.8561 80.8378 68.8561 80.6827 68.8561 80.4871C68.8561 80.0778 68.8561 79.4865 68.871 78.7557C68.8967 77.2942 68.9716 75.2774 69.0679 73.0514C69.1642 70.8254 69.2498 68.8085 69.2968 67.347C69.3161 66.6275 69.3332 66.0407 69.3461 65.618C69.3461 65.4246 69.3461 65.2672 69.3589 65.148C69.3577 65.093 69.362 65.038 69.3717 64.9839C69.3763 65.0385 69.3763 65.0934 69.3717 65.148C69.3717 65.2664 69.3717 65.4238 69.3717 65.6202C69.3717 66.0272 69.3717 66.6185 69.3589 67.3493C69.3332 68.8108 69.2562 70.8276 69.162 73.0559C69.0679 75.2841 68.978 77.2987 68.9331 78.758C68.9117 79.4797 68.8946 80.0666 68.8839 80.4871C68.8839 80.6827 68.8839 80.8401 68.8689 80.957C68.8678 81.0119 68.8635 81.0667 68.8561 81.1211Z" fill="#353535"/>
<path d="M76.0264 47.9067C76.0264 47.9067 76.0371 47.9832 76.0627 48.1316C76.0995 48.3409 76.1562 48.5457 76.2318 48.7432C76.3523 49.054 76.4954 49.3547 76.6597 49.6426C76.8813 50.0268 77.0835 50.4231 77.2653 50.8297C77.4979 51.3288 77.5871 51.8882 77.522 52.4396C77.4691 52.7458 77.3514 53.0355 77.1775 53.2873C76.9967 53.5493 76.7948 53.7945 76.5741 54.0203C76.103 54.4946 75.6734 55.0123 75.2903 55.5673C74.8819 56.162 74.6517 56.8713 74.6291 57.6044C74.6294 57.9728 74.7068 58.3367 74.8559 58.6701C75.0126 58.998 75.1512 59.3351 75.271 59.6797C75.3251 59.8552 75.3476 60.0397 75.3374 60.2238C75.325 60.4074 75.2699 60.585 75.1769 60.741C74.9826 61.019 74.741 61.2569 74.4643 61.4425L71.7833 63.5201L69.9709 64.9096L69.4745 65.2851L69.3439 65.3796L69.2969 65.4088C69.2969 65.4088 69.3097 65.3931 69.3375 65.3683L69.4616 65.2649L69.9452 64.8737L71.7276 63.4504L74.3937 61.3548C74.6592 61.1765 74.8906 60.9477 75.0763 60.6803C75.1607 60.5401 75.2107 60.3802 75.2218 60.2148C75.2299 60.0435 75.2081 59.8721 75.1576 59.7089C75.0387 59.3694 74.9008 59.0376 74.7447 58.7151C74.5893 58.3676 74.5089 57.9883 74.5093 57.6044C74.5317 56.8483 74.7695 56.1168 75.1919 55.5043C75.5787 54.9431 76.0143 54.4207 76.4928 53.9439C76.9315 53.4942 77.3359 52.9973 77.4215 52.4217C77.4885 51.889 77.4059 51.3474 77.184 50.8635C77.0082 50.4562 76.8118 50.0592 76.5955 49.674C76.4356 49.3791 76.2975 49.0717 76.1826 48.7544C76.1102 48.5527 76.06 48.343 76.0328 48.1293C76.025 48.0742 76.02 48.0187 76.0178 47.9629C76.0177 47.9438 76.0206 47.9249 76.0264 47.9067Z" fill="#353535"/>
<path d="M69.4271 64.7365H69.3757L69.2238 64.7073C69.0303 64.665 68.8396 64.6102 68.6525 64.5432C67.963 64.298 67.3246 63.9164 66.7717 63.4189C65.9452 62.672 65.3449 61.6871 65.0449 60.5859C64.8681 59.9391 64.7957 59.2657 64.8309 58.5937C64.8485 58.2397 64.8935 57.8878 64.9657 57.5415C65.0475 57.197 65.057 56.8379 64.9935 56.4892C64.9491 56.3238 64.859 56.1759 64.7346 56.0642C64.6017 55.9622 64.4524 55.886 64.2938 55.8394C64.1355 55.7832 63.9708 55.7382 63.8103 55.6685C63.6509 55.5992 63.5056 55.4984 63.3823 55.3717C63.1505 55.1153 62.997 54.7919 62.9415 54.4431C62.8822 54.118 62.8649 53.7859 62.8902 53.456C62.9902 52.3268 63.2261 51.2154 63.592 50.1485C63.8363 49.4303 64.1369 48.7346 64.4907 48.0687C64.617 47.8438 64.7197 47.655 64.7945 47.538L64.878 47.4031C64.8864 47.3865 64.8972 47.3713 64.9101 47.3582C64.9101 47.3582 64.9101 47.3761 64.8887 47.4076L64.8138 47.5493C64.7453 47.6707 64.649 47.8551 64.5271 48.0912C64.1923 48.7623 63.9062 49.4591 63.6712 50.1755C63.322 51.2389 63.0957 52.3426 62.9972 53.4627C62.9764 53.7832 62.9951 54.1051 63.0528 54.4206C63.1058 54.7466 63.2486 55.0492 63.4636 55.2907C63.5799 55.4061 63.7156 55.4976 63.8638 55.5606C64.0135 55.6258 64.1762 55.6707 64.3409 55.7292C64.5128 55.7815 64.6738 55.8668 64.8159 55.981C64.9581 56.1076 65.0609 56.2759 65.1112 56.4644C65.1801 56.8299 65.1713 57.2069 65.0856 57.5684C65.015 57.9105 64.97 58.2578 64.9508 58.6072C64.9191 59.2672 64.9914 59.9282 65.1647 60.5634C65.4555 61.6475 66.0389 62.6198 66.8444 63.3627C67.3869 63.8626 68.0121 64.2535 68.6889 64.5162C68.9285 64.6061 69.1168 64.6646 69.2516 64.7006L69.3993 64.741C69.4085 64.7391 69.4178 64.7376 69.4271 64.7365Z" fill="#353535"/>
<path d="M78.3324 68.3498L64.1523 67.8687L64.1737 72.8153L73.5629 74.9828L80.1683 76.0913C84.2723 76.0913 87.5568 72.1317 86.9213 67.8709H86.9042L78.3324 68.3498Z" fill="#E43434"/>
<path d="M82.2367 68.2551C82.1758 68.2653 82.1143 68.2698 82.0527 68.2686L81.5263 68.2843L79.5877 68.3203C77.9508 68.3472 75.6891 68.3765 73.1899 68.3495C70.6906 68.3225 68.4289 68.2303 66.7942 68.1246C65.9768 68.0662 65.3178 68.0122 64.8684 67.9628L64.3442 67.9065C64.2822 67.9031 64.2207 67.894 64.1602 67.8796C64.2214 67.8741 64.2829 67.8741 64.3442 67.8796L64.8705 67.9133C65.3284 67.947 65.9896 67.9897 66.7963 68.037C68.4311 68.1314 70.6906 68.2146 73.1899 68.2393C75.6891 68.2641 77.9465 68.2393 79.5834 68.2393H81.5241H82.0505C82.1129 68.2397 82.1751 68.2449 82.2367 68.2551Z" fill="#353535"/>
<path d="M64.0355 68.3246L62.7217 68.0683C62.7217 68.0683 59.6062 64.4865 59.0199 64.4371C58.5406 64.3943 55.8895 64.4213 54.9651 64.4371C54.8807 64.4382 54.8002 64.4743 54.7409 64.5374C54.6817 64.6005 54.6484 64.6856 54.6484 64.7743C54.6484 64.8615 54.6804 64.9453 54.7379 65.0082C54.7953 65.071 54.8737 65.1081 54.9566 65.1116L58.0891 65.2398L58.1041 65.5051L54.9673 65.5478C54.6484 65.5748 54.443 66.1054 55.4658 66.2021L58.0891 66.2988V66.4697L55.4294 66.8609C55.2946 66.8811 54.9416 66.9531 54.9373 67.097C54.9373 67.097 54.7768 67.4455 55.5343 67.5467C55.7953 67.5804 58.102 67.4995 58.102 67.4995L58.0121 67.7243L55.622 68.2662C55.5385 68.2857 55.4649 68.3373 55.4157 68.411C55.3666 68.4847 55.3456 68.575 55.3567 68.6642C55.369 68.755 55.414 68.8375 55.4825 68.8944C55.551 68.9513 55.6378 68.9784 55.7247 68.97L58.2796 68.7226L60.7874 70.8249H64.1382L64.0355 68.3246Z" fill="#FFBB9D"/>
<path d="M79.9166 76.0092C79.8633 76.0156 79.8094 76.0156 79.7561 76.0092L79.2982 75.9574C78.8981 75.9102 78.3246 75.8338 77.6142 75.7326C76.1934 75.5257 74.2377 75.1997 72.0915 74.759C69.9454 74.3183 68.026 73.8416 66.6267 73.4684C65.9334 73.284 65.3728 73.1266 64.9876 73.0187L64.5447 72.8838C64.4921 72.8698 64.4406 72.8518 64.3906 72.8298C64.4443 72.8345 64.4974 72.845 64.549 72.8613L64.9983 72.9737L66.6459 73.3965C68.0389 73.7472 69.9689 74.2081 72.1129 74.6511C74.257 75.094 76.2106 75.4313 77.6249 75.6584L79.3025 75.9215L79.7582 75.9957C79.8112 75.997 79.8641 76.0015 79.9166 76.0092Z" fill="#353535"/>
<path d="M64.3057 72.8325C64.2432 72.6025 64.2017 72.3669 64.1816 72.1287C64.1259 71.679 64.066 71.0809 64.0318 70.4086C63.9976 69.7363 63.9997 69.1225 64.0125 68.6796C64.0095 68.4408 64.0274 68.2022 64.066 67.9668C64.0914 68.2041 64.1 68.4431 64.0917 68.6818C64.0917 69.1315 64.111 69.7296 64.1431 70.4019C64.1752 71.0742 64.2244 71.679 64.2607 72.1175C64.2908 72.3545 64.3058 72.5934 64.3057 72.8325Z" fill="#353535"/>
<path d="M65.8507 73.0282C65.8222 72.9684 65.8013 72.9049 65.7886 72.8393C65.7565 72.7179 65.7137 72.538 65.6709 72.3154C65.4431 71.1489 65.3711 69.9548 65.457 68.7674C65.4741 68.5425 65.4955 68.3559 65.5147 68.23C65.5182 68.1639 65.5312 68.0987 65.5532 68.0366C65.5612 68.2818 65.5555 68.5273 65.5361 68.7719C65.519 69.2216 65.5126 69.8511 65.5532 70.5414C65.5939 71.2317 65.6709 71.8523 65.7394 72.2997C65.7908 72.5399 65.828 72.7832 65.8507 73.0282Z" fill="#353535"/>
<path d="M64.5407 68.7606C64.5535 68.7741 64.4722 68.8348 64.4743 68.9855C64.4743 69.0236 64.4819 69.0614 64.4967 69.0962C64.5114 69.1311 64.533 69.1623 64.5599 69.1879C64.5951 69.2125 64.6364 69.2257 64.6787 69.2257C64.721 69.2257 64.7623 69.2125 64.7974 69.1879C64.8357 69.1668 64.8671 69.1341 64.8873 69.0939C64.9076 69.0538 64.9158 69.0081 64.9109 68.963C64.9037 68.9257 64.8892 68.8904 64.8682 68.8594C64.8472 68.8284 64.8201 68.8024 64.7889 68.7831C64.6755 68.7112 64.5749 68.7539 64.5749 68.7359C64.5749 68.7179 64.6626 68.6392 64.8231 68.7112C64.8689 68.7309 64.9097 68.7614 64.9423 68.8004C64.975 68.8394 64.9986 68.8858 65.0114 68.936C65.019 69.0027 65.0077 69.0702 64.979 69.1302C64.9503 69.1902 64.9054 69.24 64.85 69.2733C64.7945 69.3066 64.7309 69.3221 64.6672 69.3177C64.6034 69.3133 64.5423 69.2892 64.4915 69.2486C64.4548 69.2125 64.4268 69.1678 64.4097 69.1182C64.3926 69.0686 64.3869 69.0154 64.393 68.963C64.4187 68.7899 64.5407 68.7449 64.5407 68.7606Z" fill="#353535"/>
<path d="M67.1208 73.7572C67.0725 73.7635 67.0236 73.7635 66.9753 73.7572C66.879 73.7572 66.7399 73.7572 66.558 73.7572C66.0483 73.7713 65.54 73.8217 65.0367 73.9079C64.2906 74.0409 63.5515 74.2135 62.8221 74.425C61.994 74.6499 61.091 74.9309 60.1217 75.1535C59.2101 75.3769 58.276 75.4834 57.34 75.4706C56.575 75.4498 55.8182 75.2979 55.0997 75.0209C54.6176 74.8289 54.166 74.5613 53.7603 74.2272C53.6511 74.1358 53.5475 74.0374 53.45 73.9326C53.4132 73.8992 53.3802 73.8615 53.3516 73.8202C53.3516 73.8202 53.4992 73.9641 53.7795 74.1912C54.1893 74.508 54.6404 74.761 55.119 74.9422C55.8355 75.2093 56.5884 75.3528 57.3486 75.3671C58.274 75.3732 59.1969 75.2645 60.0982 75.0434C61.061 74.8185 61.9662 74.5487 62.7964 74.3239C63.5306 74.1171 64.2749 73.952 65.026 73.8292C65.5332 73.7509 66.0454 73.7133 66.558 73.7168C66.7399 73.7168 66.8811 73.7168 66.9753 73.737C67.0243 73.7389 67.073 73.7457 67.1208 73.7572Z" fill="#353535"/>
<path d="M73.3581 49.4191C73.694 47.4449 74.0835 45.3718 74.0835 45.3718C74.0835 45.3718 76.5784 45.3966 77.6376 42.1678C78.6475 39.0874 79.3772 31.6764 79.3772 31.6764C77.7789 30.6325 75.9151 30.1271 74.0357 30.228C72.1563 30.3288 70.3512 31.0312 68.8625 32.2408L66.3761 48.3353C66.0873 50.2038 67.3861 51.9531 69.2926 52.2611C71.2162 52.5737 73.0371 51.3123 73.3581 49.4191Z" fill="#FFBB9D"/>
<path d="M77.5235 37.2229C77.5061 37.3341 77.448 37.4337 77.3617 37.5005C77.2753 37.5673 77.1675 37.596 77.0613 37.5804C77.0088 37.5757 76.9578 37.5599 76.9112 37.5339C76.8646 37.508 76.8236 37.4724 76.7904 37.4294C76.7572 37.3864 76.7327 37.3367 76.7182 37.2835C76.7037 37.2302 76.6996 37.1744 76.7061 37.1195C76.724 37.0081 76.7826 36.9085 76.8693 36.8417C76.956 36.775 77.064 36.7464 77.1705 36.762C77.2227 36.7673 77.2734 36.7835 77.3195 36.8097C77.3657 36.8358 77.4064 36.8714 77.4393 36.9144C77.4722 36.9573 77.4966 37.0067 77.511 37.0597C77.5255 37.1127 77.5298 37.1682 77.5235 37.2229Z" fill="#353535"/>
<path d="M78.2596 36.8686C78.1997 36.9159 77.9322 36.6191 77.4957 36.5404C77.0592 36.4617 76.7018 36.6303 76.6633 36.5651C76.6441 36.5381 76.7125 36.4459 76.8773 36.365C77.0894 36.2631 77.3261 36.2317 77.5556 36.2751C77.7829 36.3172 77.9918 36.4337 78.1526 36.6078C78.2596 36.7405 78.2874 36.8484 78.2596 36.8686Z" fill="#353535"/>
<path d="M73.0417 36.4719C73.0238 36.5828 72.9656 36.6821 72.8794 36.7488C72.7931 36.8155 72.6856 36.8444 72.5795 36.8294C72.4757 36.8191 72.38 36.766 72.3134 36.6817C72.2468 36.5974 72.2148 36.4888 72.2243 36.3797C72.2422 36.2682 72.3007 36.1683 72.3873 36.1012C72.4739 36.0341 72.582 36.005 72.6886 36.02C72.7922 36.0313 72.8874 36.0851 72.9535 36.1697C73.0196 36.2543 73.0513 36.3629 73.0417 36.4719Z" fill="#353535"/>
<path d="M73.6776 36.1922C73.6177 36.2372 73.3502 35.9426 72.9137 35.8617C72.4772 35.7807 72.1199 35.9539 72.0814 35.8886C72.0621 35.8594 72.1284 35.7672 72.2953 35.6863C72.5074 35.5842 72.7443 35.5535 72.9736 35.5986C73.201 35.6391 73.4102 35.7549 73.5706 35.9291C73.6776 36.0618 73.7054 36.172 73.6776 36.1922Z" fill="#353535"/>
<path d="M74.6914 39.8858C74.9345 39.8552 75.1801 39.8552 75.4232 39.8858C75.5366 39.8858 75.6372 39.8858 75.6778 39.8139C75.7076 39.6951 75.7024 39.5697 75.6629 39.4541C75.6051 39.1506 75.5452 38.8336 75.4831 38.5008C75.237 37.1517 75.0808 36.041 75.1343 36.0275C75.1878 36.014 75.4253 37.1067 75.6714 38.4603C75.7292 38.7953 75.7848 39.1124 75.8362 39.4159C75.8819 39.5701 75.8751 39.7363 75.8169 39.8858C75.7938 39.9246 75.7625 39.9571 75.7253 39.9809C75.6882 40.0047 75.6463 40.0191 75.6029 40.023C75.5383 40.0324 75.4728 40.0324 75.4082 40.023C75.1647 40.01 74.9237 39.9639 74.6914 39.8858Z" fill="#353535"/>
<path d="M74.0785 45.3713C72.5859 45.1181 71.1891 44.4356 70.043 43.3994C70.043 43.3994 70.6849 45.8727 73.8945 46.147L74.0785 45.3713Z" fill="#F4B740"/>
<path d="M74.3229 40.9661C74.2591 40.8388 74.1656 40.7307 74.051 40.652C73.9364 40.5733 73.8046 40.5266 73.6681 40.5164C73.5704 40.5077 73.472 40.5199 73.3789 40.5524C73.2859 40.5849 73.2001 40.6369 73.1267 40.7053C73.0552 40.7705 73.0046 40.8574 72.982 40.954C72.9594 41.0506 72.9658 41.1523 73.0005 41.2449C73.0568 41.34 73.1387 41.4154 73.2359 41.4615C73.333 41.5075 73.441 41.5221 73.5461 41.5035C73.765 41.4642 73.9743 41.3802 74.1624 41.2561C74.2178 41.2286 74.2679 41.1905 74.31 41.1437C74.3306 41.1215 74.3442 41.0933 74.3492 41.0628C74.3542 41.0323 74.3502 41.0009 74.3378 40.9728" fill="#F4B740"/>
<path d="M73.3559 39.9673C73.4265 39.9673 73.343 40.4732 73.6897 40.9027C74.0363 41.3321 74.5456 41.3681 74.5456 41.4401C74.5456 41.4715 74.4172 41.5142 74.2032 41.4805C73.9254 41.4343 73.6722 41.2861 73.4885 41.0623C73.3095 40.8513 73.2145 40.5759 73.2232 40.2933C73.2489 40.0685 73.3238 39.9583 73.3559 39.9673Z" fill="#353535"/>
<path d="M71 29.8638C71.8452 31.8222 74.5841 34.2056 76.6981 35.051C76.5056 34.6463 75.318 33.5086 75.1254 33.1061C75.9813 34.0797 77.2117 35.4018 78.5148 35.7323C78.6654 35.7856 78.8277 35.7911 78.9812 35.7481C79.066 35.7002 79.1393 35.6326 79.1953 35.5503C79.2513 35.4681 79.2886 35.3734 79.3043 35.2736C79.5562 34.2854 79.7054 33.2714 79.7494 32.2494C79.797 31.3886 79.529 30.5414 79.0005 29.8818C78.2794 29.0296 77.1025 28.6227 75.9706 28.3686C75.0206 28.1572 74.0277 28.0223 73.0905 28.2112C72.1533 28.4001 71.2803 28.9667 71 29.8009" fill="#353535"/>
<path d="M65.958 37.2386C65.9411 36.4783 65.9682 35.7177 66.0393 34.9609C66.2533 33.2318 66.7647 26.9428 72.2873 28.5617L71.7011 30.1739C71.7011 30.1739 72.129 34.2211 69.2896 36.3931C69.2896 36.3931 69.3024 40.4404 67.3381 41.8906C67.3381 41.8906 65.9687 39.152 65.958 37.2408" fill="#353535"/>
<path d="M69.4098 36.117C69.0835 35.9793 68.7276 35.9381 68.3806 35.9978C68.0347 36.0633 67.7272 36.2693 67.5247 36.5712C67.337 36.8866 67.2705 37.2652 67.3385 37.6302C67.4081 37.9932 67.5544 38.3351 67.7665 38.6308C67.9031 38.8515 68.0871 39.0356 68.3036 39.1682C68.4135 39.2332 68.5371 39.2687 68.6633 39.2714C68.7895 39.2741 68.9143 39.2441 69.0268 39.1839" fill="#FFBB9D"/>
<path d="M68.8614 38.2356C68.8978 38.2559 68.7159 38.4447 68.4206 38.2986C68.3431 38.2542 68.2747 38.1943 68.2192 38.1221C68.1638 38.05 68.1224 37.9671 68.0975 37.8781C68.0349 37.6783 68.0116 37.4671 68.029 37.2576C68.0402 37.033 68.1275 36.8201 68.2751 36.6572C68.3378 36.5878 68.4146 36.5343 68.4999 36.5008C68.5852 36.4673 68.6766 36.4547 68.7672 36.4638C69.0861 36.5156 69.146 36.7651 69.1075 36.7651C69.0689 36.7651 68.9748 36.646 68.7587 36.6595C68.6228 36.6868 68.5008 36.7645 68.4148 36.8784C68.3288 36.9922 68.2845 37.1348 68.2901 37.28C68.2665 37.6533 68.3436 38.013 68.5147 38.13C68.6859 38.2469 68.8464 38.2019 68.8614 38.2356Z" fill="#F4B740"/>
<path d="M68.856 39.1821C68.0001 44.5582 68.6956 50.0535 68.856 55.5037C68.871 56.0254 68.8753 56.5718 68.6421 57.0372C68.3019 57.741 67.5059 58.085 66.7548 58.1322C66.0038 58.1794 65.257 57.9973 64.5102 57.9321C64.4289 57.4104 64.3498 56.8865 64.2684 56.3582C64.0181 56.9607 63.7677 57.5611 63.5195 58.1569C63.8491 54.3345 64.21 50.5121 64.6022 46.6898" fill="#353535"/>
</svg>
