<svg width="96" height="80" viewBox="0 0 96 80" fill="none" xmlns="http://www.w3.org/2000/svg">
<g clip-path="url(#clip0_6185_47829)">
<path d="M95.328 79.0467C95.328 79.0775 74.0782 79.1039 47.8718 79.1039C21.6654 79.1039 0.411133 79.0819 0.411133 79.0467C0.411133 79.0115 21.6566 78.9895 47.8718 78.9895C74.087 78.9895 95.328 79.0203 95.328 79.0467Z" fill="#353535"/>
<path d="M26.1096 3.41944C22.5786 8.97223 22.8096 16.6722 26.6684 22.0028C29.2402 25.558 33.0968 27.9428 36.1592 31.08C39.2216 34.2172 41.5492 38.8482 39.9322 42.927C38.2866 47.0784 33.4664 48.7658 29.8584 51.397C25.8776 54.2964 23.1751 58.6255 22.3186 63.4752C21.462 68.3249 22.518 73.3178 25.2648 77.4054H62.7572C62.7572 77.4054 69.344 64.8544 60.8762 55.2866C52.4084 45.7188 47.861 45.5648 48.1734 39.2904C48.4858 33.016 52.877 30.981 55.3872 28.627C57.8974 26.273 70.1272 20.7884 62.9134 3.41724L26.1096 3.41944Z" fill="white"/>
<path d="M26.105 3.41946H26.7496H28.6504H35.9676L62.9088 3.39966H62.9374V3.42606C63.4897 4.74136 63.9599 6.08961 64.3454 7.46306C64.7503 8.90105 65.0169 10.3744 65.1418 11.8631C65.2716 13.4192 65.1917 14.9856 64.9042 16.5205C64.5885 18.1114 64.0164 19.6406 63.2102 21.0481C62.7925 21.7659 62.3204 22.4507 61.7978 23.0963C61.2645 23.7505 60.6875 24.3679 60.0708 24.9443C59.4463 25.5311 58.792 26.0855 58.1106 26.6053C57.4286 27.1333 56.7158 27.6305 56.0206 28.1585C55.673 28.4203 55.3606 28.7151 55.0218 29.0099C54.683 29.3047 54.3464 29.5797 53.9988 29.8569C53.3058 30.4113 52.6062 30.9569 51.9462 31.5707C50.5687 32.7646 49.5102 34.2828 48.8662 35.9883C48.5568 36.863 48.3616 37.774 48.2854 38.6987C48.2656 38.9187 48.2348 39.1607 48.226 39.3939C48.2172 39.6271 48.2084 39.8603 48.226 40.0935C48.231 40.5617 48.2782 41.0285 48.3668 41.4883C48.5413 42.4199 48.9216 43.3008 49.48 44.0667C50.0547 44.8323 50.7056 45.5378 51.4226 46.1721C52.846 47.4723 54.3574 48.7153 55.8028 50.0573C57.2482 51.3993 58.6628 52.7985 60.0268 54.2791C60.7228 55.0119 61.3737 55.7863 61.976 56.5979C62.582 57.4196 63.1087 58.2969 63.549 59.2181C64.4394 61.0851 64.9864 63.0972 65.1638 65.1581C65.3433 67.2474 65.2202 69.3518 64.7986 71.406C64.5937 72.4439 64.3248 73.4681 63.9934 74.4728C63.6677 75.486 63.2707 76.4748 62.8054 77.4318L62.79 77.4626H25.2294L25.214 77.4384C23.4558 74.7912 22.3775 71.7513 22.0746 68.5878C21.7698 65.5492 22.2155 62.4821 23.3726 59.6558C24.4723 56.9543 26.1655 54.5347 28.327 52.5763C29.3759 51.6503 30.5086 50.824 31.7106 50.1079C32.881 49.3819 34.0624 48.7087 35.1778 47.9739C36.2943 47.276 37.32 46.4424 38.2314 45.4923C39.1018 44.5591 39.7475 43.4394 40.119 42.2187C40.4446 41.0276 40.4958 39.7782 40.2686 38.5645C40.0516 37.3932 39.6608 36.2609 39.1092 35.2051C38.5816 34.1884 37.949 33.2298 37.2216 32.3451C36.5195 31.4963 35.7563 30.6999 34.938 29.9625C33.3518 28.5017 31.726 27.2235 30.2652 25.9101C29.5326 25.2501 28.8396 24.5901 28.1994 23.9147C27.5789 23.2534 27.0069 22.5483 26.4878 21.8049C25.5494 20.4413 24.826 18.9418 24.3428 17.3587C23.9196 15.9915 23.6741 14.5755 23.6124 13.1457C23.5816 12.8201 23.5948 12.4989 23.5948 12.1843C23.5948 11.8697 23.5948 11.5639 23.6234 11.2669C23.652 10.9699 23.6674 10.6795 23.6894 10.3869C23.7114 10.0943 23.7708 9.83246 23.8082 9.56626C24.0512 7.94573 24.5472 6.3734 25.2778 4.90666C25.3768 4.67976 25.4899 4.45932 25.6166 4.24666L25.8872 3.78686C26.0302 3.54266 26.1072 3.41946 26.1072 3.41946L25.8872 3.79346L25.6254 4.24666C25.5017 4.46026 25.3901 4.68061 25.291 4.90666C24.567 6.37696 24.0771 7.95134 23.839 9.57286C23.8016 9.83686 23.7576 10.1097 23.7246 10.3891C23.6916 10.6685 23.6806 10.9611 23.6586 11.2581C23.6366 11.5551 23.6366 11.8609 23.6344 12.1733C23.6322 12.4857 23.6234 12.8069 23.6542 13.1325C23.7178 14.5576 23.9656 15.9685 24.3912 17.3301C24.8738 18.9075 25.5965 20.4013 26.534 21.7587C27.0518 22.4991 27.6231 23.2005 28.2434 23.8575C28.8814 24.5351 29.5744 25.1951 30.307 25.8375C31.7678 27.1575 33.387 28.4225 34.9842 29.8855C35.8088 30.6283 36.5779 31.4305 37.2854 32.2857C38.0168 33.1769 38.6531 34.142 39.184 35.1655C39.7408 36.2278 40.1353 37.3676 40.3544 38.5469C40.5848 39.7736 40.5337 41.0366 40.2048 42.2407C39.8316 43.4756 39.1798 44.6084 38.2996 45.5517C37.3837 46.5073 36.3537 47.3467 35.2328 48.0508C34.113 48.7878 32.9316 49.4611 31.7634 50.1871C30.5665 50.9013 29.4383 51.7247 28.393 52.6467C26.2448 54.595 24.5615 57.0009 23.4672 59.6867C22.3171 62.4985 21.8752 65.5498 22.1802 68.5725C22.4831 71.7178 23.5561 74.7401 25.3042 77.3725L25.2602 77.3483H62.7526L62.702 77.3791C63.1666 76.4245 63.5621 75.4378 63.8856 74.4267C64.2152 73.4263 64.4827 72.4064 64.6864 71.373C65.1062 69.3289 65.2285 67.2349 65.0494 65.1558C64.8754 63.1062 64.3321 61.105 63.4456 59.2489C63.0084 58.3344 62.4862 57.463 61.8858 56.6463C61.2849 55.8389 60.637 55.0675 59.9454 54.3363C58.5888 52.8593 57.183 51.4543 55.728 50.1211C54.2848 48.7812 52.7778 47.5405 51.35 46.2337C50.6273 45.5941 49.9706 44.8836 49.3898 44.1129C48.8205 43.3377 48.4305 42.4457 48.248 41.5015C48.1599 41.0349 48.1121 40.5616 48.105 40.0869C48.094 39.8515 48.105 39.6161 48.105 39.3807C48.105 39.1453 48.1446 38.9121 48.1622 38.6789C48.243 37.7486 48.4426 36.8326 48.7562 35.9531C49.4058 34.2326 50.4742 32.7014 51.8648 31.4981C52.5248 30.8865 53.231 30.3321 53.924 29.7799C54.2716 29.5027 54.6126 29.2233 54.9448 28.9373C55.277 28.6513 55.6048 28.3433 55.948 28.0793C56.6476 27.5513 57.3582 27.0541 58.038 26.5283C58.7174 26.0108 59.3702 25.4594 59.9938 24.8761C60.6065 24.3023 61.1804 23.6886 61.712 23.0391C62.2304 22.3957 62.7003 21.7148 63.1178 21.0019C63.9194 19.6041 64.4886 18.0854 64.803 16.5051C65.0892 14.9827 65.1698 13.4289 65.0428 11.8851C64.9199 10.3966 64.6554 8.92332 64.253 7.48506C63.8729 6.10782 63.4085 4.75521 62.8626 3.43486L62.9 3.45906L35.9742 3.43926H28.6526H26.7474L26.105 3.41946Z" fill="#353535"/>
<path d="M61.4147 13.6032C66.9367 14.5118 58.2313 24.293 53.3011 28.1518C50.4411 30.3848 47.3831 32.8092 46.0279 36.1708C44.4879 39.9856 45.6297 44.2712 44.8861 48.108C44.8622 48.2403 44.789 48.3586 44.6814 48.4392C44.5738 48.5199 44.4397 48.5568 44.306 48.5426C44.1723 48.5283 44.0489 48.4641 43.9606 48.3627C43.8724 48.2612 43.8257 48.1302 43.8301 47.9958C43.8653 45.4768 43.7993 42.96 43.3901 40.4806C42.7983 36.9606 41.4475 33.4868 38.9901 30.9106C36.9771 28.8052 34.3393 27.4082 32.1943 25.4414C29.0615 22.5704 25.8429 18.8678 25.5283 14.6306C25.5283 14.6306 31.5431 9.7906 34.8827 10.3956C38.7855 11.1106 42.6267 17.132 48.6723 16.4434C52.8787 15.9616 55.0105 12.5516 61.4147 13.6032Z" fill="#CB1B1B"/>
<path d="M61.8999 65.9522C61.7613 64.5706 61.3917 63.0086 60.1663 62.3574C59.4249 61.9614 58.5207 62.0054 57.7067 62.2188C56.8927 62.4322 56.1293 62.804 55.3241 63.0438C53.7234 63.5145 52.014 63.4597 50.4467 62.8876C48.9485 62.3376 47.6637 61.3476 46.2667 60.56C44.8697 59.7724 43.2483 59.196 41.6995 59.581C39.0287 60.241 37.6383 63.4618 34.9983 64.2384C33.8235 64.5816 32.5629 64.388 31.3705 64.1196C30.1781 63.8512 28.9791 63.5014 27.7581 63.5476C26.7989 63.5828 25.8023 63.915 25.1313 64.5706L25.1137 64.5904C25.002 64.6998 24.9004 64.8191 24.8101 64.9468C23.9917 66.0468 23.8597 67.5054 24.1127 68.8386C24.3943 70.3324 25.0917 71.7118 25.8397 73.034C26.7197 74.5916 27.7229 76.1404 29.1793 77.1788C30.9789 78.4614 33.2383 77.577 35.4405 77.7508C40.5731 78.1556 46.0951 78.4306 51.2299 78.0346C53.9425 77.8146 56.4835 78.1182 58.6351 76.4528C60.1487 75.2824 61.1343 73.518 61.6095 71.6656C62.0847 69.8132 62.0913 67.8552 61.8999 65.9522Z" fill="#CB1B1B"/>
<g opacity="0.24">
<path d="M52.212 63.3079C51.9238 63.7479 51.7984 64.3463 52.0778 64.7951C52.3572 65.2439 52.7378 65.6553 52.8566 66.1723C53.048 66.9819 52.5596 67.7739 52.1966 68.5241C51.5248 69.8654 51.2711 71.3775 51.4684 72.8647C51.6766 74.3567 52.4471 75.7127 53.6222 76.6553C54.1436 77.0579 54.8212 77.3703 55.4504 77.1723C56.0422 76.9875 56.4228 76.3869 56.5504 75.7775C56.678 75.1681 56.5702 74.5411 56.4932 73.9273C56.1349 71.0666 56.2091 68.1683 56.7132 65.3297C56.7968 64.8567 56.876 64.3155 56.5768 63.9393C56.361 63.7202 56.0869 63.5675 55.787 63.4993C54.643 63.1187 53.4088 63.5411 52.223 63.3167" fill="#353535"/>
</g>
<path d="M22.5134 79.1083C22.5134 79.1083 22.41 77.3879 24.654 76.4287H64.0891C64.0891 76.4287 66.1461 77.4715 66.3991 79.0687L22.5134 79.1083Z" fill="#353535"/>
<path d="M63.2429 3.6285L63.1791 3.65709L26.0981 3.41949C26.0981 3.41949 25.9661 3.3359 25.7703 3.1797C25.5392 2.99861 25.3705 2.74968 25.288 2.46786C25.2056 2.18603 25.2134 1.88545 25.3105 1.60832C25.4075 1.33118 25.589 1.0914 25.8293 0.922627C26.0696 0.753855 26.3567 0.664568 26.6503 0.667297L62.6423 0.957697C64.1229 0.970897 64.5893 2.9949 63.2429 3.6285Z" fill="#353535"/>
<g opacity="0.24">
<path d="M57.3077 17.7746C57.3825 17.9176 57.1031 18.2146 56.5729 18.6986C56.0427 19.1826 55.2529 19.8184 54.2717 20.617C53.0936 21.5903 51.8433 22.4728 50.5317 23.257C49.7169 23.7288 48.8595 24.1228 47.9708 24.4339C47.4893 24.6004 46.9977 24.7363 46.499 24.841C45.9752 24.9522 45.4433 25.0213 44.9084 25.0478C43.8246 25.1067 42.7395 24.9574 41.7118 24.6078C40.8033 24.2773 39.94 23.8338 39.1422 23.2878C38.403 22.7994 37.7672 22.3154 37.1622 21.8512C36.5572 21.387 36.0182 20.9404 35.5298 20.518C33.5828 18.8306 32.5576 17.5897 32.7556 17.3499C32.9536 17.1101 34.3396 17.8912 36.4956 19.2112L38.2556 20.2891C38.887 20.6719 39.5624 21.0965 40.2532 21.4881C40.9387 21.8906 41.6652 22.2187 42.4202 22.4672C43.1929 22.6985 43.9998 22.7938 44.805 22.7488C46.4946 22.6608 48.1336 22.0668 49.5527 21.3804C50.9717 20.694 52.2565 19.8931 53.3697 19.2683C54.2506 18.7485 55.1717 18.2997 56.1241 17.9263C56.8215 17.6821 57.2439 17.636 57.3077 17.7746Z" fill="#353535"/>
</g>
<path d="M43.8524 52.7039C44.0082 52.6419 44.1823 52.6437 44.3368 52.7091C44.4913 52.7745 44.6138 52.898 44.6779 53.0531C44.7419 53.2081 44.7423 53.3822 44.679 53.5375C44.6157 53.6929 44.4937 53.817 44.3395 53.8831C44.1853 53.9492 44.0113 53.9519 43.8551 53.8906C43.699 53.8293 43.5732 53.709 43.5051 53.5557C43.437 53.4024 43.4321 53.2284 43.4913 53.0715C43.5505 52.9145 43.6692 52.7872 43.8216 52.7171" fill="#CB1B1B"/>
<path d="M30.5905 23.9102C30.5423 23.8707 30.498 23.8265 30.4585 23.7782L30.0999 23.3866C29.9481 23.2128 29.7479 23.0104 29.5433 22.753L28.8437 21.873C28.6039 21.5342 28.3333 21.169 28.0605 20.773L27.6579 20.1328C27.5897 20.0228 27.5171 19.9128 27.4511 19.7962L27.2575 19.4398C26.672 18.4022 26.2133 17.2979 25.8913 16.1508C25.5677 15.0047 25.3932 13.8216 25.3721 12.6308C25.3721 12.3558 25.3875 12.0896 25.3919 11.8278C25.3919 11.698 25.3919 11.5704 25.4095 11.445C25.4271 11.3196 25.4359 11.1964 25.4491 11.0754C25.4777 10.8334 25.4953 10.598 25.5283 10.3736C25.5613 10.1492 25.6075 9.93364 25.6449 9.73344C25.7065 9.32204 25.8165 8.96344 25.8935 8.63344C25.9353 8.47504 25.9683 8.32544 26.0101 8.19344L26.1311 7.82604L26.3005 7.32224C26.3167 7.26226 26.3388 7.20404 26.3665 7.14844C26.3574 7.2098 26.3427 7.2702 26.3225 7.32884C26.2851 7.45644 26.2367 7.62584 26.1729 7.83924L26.0629 8.20664C26.0255 8.34084 25.9947 8.49044 25.9551 8.64664C25.8847 8.96564 25.7813 9.32644 25.7351 9.74664C25.6999 9.94904 25.6647 10.1624 25.6273 10.3846C25.5899 10.6068 25.5811 10.84 25.5547 11.082C25.5547 11.203 25.5305 11.324 25.5173 11.4494C25.5041 11.5748 25.5173 11.7024 25.5041 11.83C25.5041 12.0896 25.4865 12.3536 25.4887 12.6264C25.5101 13.8102 25.6824 14.9864 26.0013 16.1266C26.3216 17.2653 26.7742 18.3625 27.3499 19.3958C27.4137 19.5146 27.4775 19.6334 27.5391 19.7522C27.6007 19.871 27.6777 19.9722 27.7437 20.0866L28.1397 20.7268C28.4081 21.1316 28.6743 21.4968 28.9075 21.8268L29.5939 22.7068C29.7919 22.9686 29.9877 23.1732 30.1329 23.3536L30.4761 23.7606C30.5173 23.8081 30.5555 23.858 30.5905 23.9102Z" fill="#353535"/>
<path d="M28.5049 56.5936C28.5158 56.5682 28.529 56.5439 28.5445 56.521L28.6765 56.3142C28.7359 56.2218 28.8085 56.1118 28.8965 55.9798L29.0351 55.7598C29.0901 55.6872 29.1539 55.6146 29.2177 55.5398L29.6577 55.0118C29.8271 54.8292 30.0207 54.64 30.2253 54.4332C30.6997 53.9764 31.2038 53.5516 31.7345 53.1616C32.9027 52.2816 34.4097 51.4016 36.0421 50.3698C36.9005 49.8408 37.7255 49.2597 38.5127 48.6296C39.3571 47.957 40.1029 47.169 40.7281 46.2888C41.8724 44.5307 42.4942 42.4838 42.5211 40.3862C42.549 38.6766 42.2626 36.9764 41.6763 35.3702C41.2879 34.2863 40.8004 33.2406 40.2199 32.2462C40.0153 31.892 39.8481 31.6236 39.7337 31.441L39.6039 31.2342C39.5753 31.188 39.5621 31.1616 39.5621 31.1616C39.5817 31.1814 39.5987 31.2035 39.6127 31.2276L39.7535 31.43C39.8745 31.606 40.0483 31.87 40.2573 32.2242C40.8558 33.2132 41.3568 34.258 41.7533 35.3438C42.3554 36.9567 42.6537 38.667 42.6333 40.3884C42.624 40.8847 42.5836 41.38 42.5123 41.8712C42.441 42.385 42.3329 42.8931 42.1889 43.3914C41.8884 44.4466 41.4212 45.447 40.8051 46.3548C40.1735 47.2446 39.4195 48.0407 38.5655 48.7198C37.7737 49.3505 36.9442 49.9323 36.0817 50.4622C34.4427 51.4852 32.9335 52.3564 31.7653 53.2298C31.2348 53.6146 30.7292 54.0328 30.2517 54.4816C30.0471 54.6862 29.8513 54.871 29.6797 55.0514L29.2397 55.5684C29.1737 55.6476 29.1099 55.7202 29.0549 55.7884L28.9119 55.9974L28.6919 56.3252L28.5511 56.5254C28.5375 56.5494 28.5221 56.5722 28.5049 56.5936Z" fill="#353535"/>
<path d="M26.4629 60.4808C26.4496 60.5166 26.4335 60.5511 26.4145 60.5842L26.2561 60.8636C26.1857 60.9824 26.1021 61.132 26.0163 61.3036C25.9305 61.4752 25.8205 61.6776 25.7281 61.9086C25.6797 62.023 25.6269 62.1418 25.5741 62.265C25.5213 62.3882 25.4773 62.5246 25.4245 62.661C25.3189 62.9338 25.2353 63.233 25.1385 63.541C24.7558 64.9202 24.624 66.3568 24.7491 67.7826C24.7865 68.1082 24.8129 68.4206 24.8701 68.7066C24.8943 68.8496 24.9141 68.9904 24.9427 69.1224C24.9713 69.2544 25.0021 69.382 25.0307 69.503C25.0791 69.7472 25.1517 69.9606 25.2045 70.1498C25.2573 70.339 25.3101 70.5018 25.3585 70.6338L25.4619 70.9374C25.4767 70.9717 25.4864 71.0081 25.4905 71.0452C25.4693 71.0146 25.4523 70.9813 25.4399 70.9462C25.4069 70.8648 25.3673 70.768 25.3167 70.6492C25.2502 70.4926 25.1922 70.3325 25.1429 70.1696C25.0835 69.9804 25.0065 69.767 24.9515 69.5228C24.9207 69.4018 24.8899 69.2742 24.8569 69.1422C24.8239 69.0102 24.8041 68.8672 24.7755 68.7242C24.7139 68.4338 24.6831 68.1214 24.6435 67.7936C24.5058 66.359 24.6386 64.9113 25.0351 63.5256C25.1341 63.2088 25.2221 62.9074 25.3343 62.6346C25.3893 62.4982 25.4333 62.364 25.4905 62.2386L25.6533 61.88C25.7501 61.66 25.8733 61.4554 25.9591 61.2794C26.0366 61.1281 26.1226 60.9812 26.2165 60.8394L26.3925 60.5688C26.4365 60.5094 26.4585 60.4786 26.4629 60.4808Z" fill="#353535"/>
<path d="M53.6635 65.7697L53.6195 65.8005L53.4831 65.8863L52.9485 66.2075L52.5613 66.4275C52.4161 66.5089 52.2555 66.5837 52.0839 66.6695C51.7363 66.8367 51.3535 67.0501 50.9003 67.2217L50.1963 67.5099C49.9521 67.6067 49.6859 67.6837 49.4175 67.7761C48.8829 67.9719 48.2889 68.1127 47.6707 68.2733C44.9564 68.909 42.1408 68.9839 39.3965 68.4933C38.7673 68.3657 38.1689 68.2557 37.6233 68.0885C37.3505 68.0093 37.0821 67.9477 36.8313 67.8685L36.1141 67.6067C35.6543 67.4593 35.2583 67.2679 34.9041 67.1183C34.7281 67.0413 34.5631 66.9731 34.4157 66.8983L34.0153 66.6893L33.4653 66.3967L33.3245 66.3175L33.2783 66.2889C33.2783 66.2889 33.2981 66.2889 33.3311 66.3087L33.4763 66.3769L34.0351 66.6497L34.4377 66.8477C34.5873 66.9181 34.7545 66.9819 34.9305 67.0567C35.2847 67.1975 35.6807 67.3845 36.1427 67.5253L36.8511 67.7827C37.1019 67.8663 37.3703 67.9257 37.6431 68.0027C38.1865 68.1655 38.7827 68.2689 39.4031 68.3943C42.1347 68.8673 44.9331 68.7925 47.6355 68.1743C48.2515 68.0159 48.8433 67.8817 49.3779 67.6903C49.6463 67.6001 49.9103 67.5275 50.1545 67.4307L50.8585 67.1513C51.3117 66.9841 51.6967 66.7773 52.0443 66.6167C52.2159 66.5331 52.3787 66.4605 52.5239 66.3967L52.9155 66.1767L53.4589 65.8731L53.6019 65.7983C53.6459 65.7741 53.6635 65.7675 53.6635 65.7697Z" fill="#353535"/>
<path d="M55.9518 19.2065C55.9384 19.2225 55.9228 19.2365 55.9056 19.2483L55.7604 19.3671C55.6262 19.4749 55.4392 19.6267 55.1994 19.8071C54.711 20.1943 54.0026 20.7553 53.1072 21.4241C52.0653 22.2218 50.9725 22.9508 49.8358 23.6065C49.1599 23.9848 48.4552 24.3092 47.7282 24.5767C46.9441 24.862 46.1262 25.044 45.295 25.1179C43.6792 25.2086 42.0678 24.8733 40.6222 24.1455C39.9971 23.828 39.3937 23.4694 38.816 23.0719C38.2792 22.6935 37.7886 22.3261 37.3552 21.9719C36.4752 21.2723 35.802 20.6805 35.3268 20.2757L34.7834 19.8049L34.6448 19.6817L34.5986 19.6355C34.5986 19.6355 34.6184 19.6355 34.6514 19.6707L34.7988 19.7873L35.3554 20.2405C35.8394 20.6365 36.5302 21.2173 37.4058 21.9081C37.8458 22.2535 38.332 22.6165 38.871 22.9905C39.4467 23.3811 40.0471 23.7338 40.6684 24.0465C42.0996 24.7599 43.6918 25.0882 45.2884 24.9991C46.1096 24.9263 46.9179 24.7474 47.693 24.4667C48.415 24.2028 49.1153 23.8828 49.7874 23.5097C50.9224 22.8659 52.0164 22.1525 53.0632 21.3735C53.9608 20.7135 54.6758 20.1635 55.1752 19.7873L55.7494 19.3473L55.9012 19.2373C55.9165 19.2246 55.9335 19.2142 55.9518 19.2065Z" fill="#353535"/>
<g opacity="0.24">
<path d="M36.1064 67.6178C37.1492 66.8126 38.6144 67.0062 39.9036 67.279C41.1928 67.5518 42.4908 67.9896 43.7954 67.807C44.7788 67.6684 45.6809 67.1866 46.6555 66.9754C47.6301 66.7642 48.8027 66.9204 49.3417 67.7542C45.0337 69.1423 40.3915 69.0945 36.113 67.6178" fill="#353535"/>
</g>
<path d="M72.488 61.6469L67.758 56.3426L67.7096 62.7908L69.1352 66.9269L54.9628 69.3842L54.3622 58.2016L53.3414 49.6216C53.2808 49.1101 53.3912 48.5929 53.6555 48.1507C53.9197 47.7085 54.323 47.3663 54.8022 47.1775L58.7028 45.6375L64.2028 46.645L66.4138 47.4855C67.3409 47.8385 68.1672 48.4133 68.8206 49.1596L75.4734 56.7673" fill="#B41818"/>
<path d="M67.4268 55.0666C67.6938 55.063 67.9605 55.0439 68.2254 55.0094C68.8635 54.912 69.4579 54.6263 69.9326 54.1889C70.4073 53.7515 70.7405 53.1822 70.8896 52.5542C70.9443 52.2919 70.9847 52.0267 71.0106 51.76C71.0284 51.8319 71.0351 51.9061 71.0304 51.98C71.032 52.1797 71.0113 52.3789 70.9688 52.574C70.8356 53.2273 70.5002 53.8221 70.0102 54.2742C69.5202 54.7263 68.9004 55.0127 68.2386 55.093C68.0409 55.1186 67.841 55.123 67.6424 55.1062C67.5688 55.1047 67.496 55.0913 67.4268 55.0666Z" fill="white"/>
<path d="M67.8447 62.5158C67.8777 62.5158 67.8865 60.2806 67.8645 57.5262C67.8425 54.7718 67.7963 52.5388 67.7633 52.5388C67.7303 52.5388 67.7216 54.7718 67.7436 57.5284C67.7656 60.285 67.8117 62.5158 67.8447 62.5158Z" fill="#353535"/>
<path d="M67.3207 64.1549L58.7583 60.7075C58.4198 60.5712 58.1261 60.3431 57.9104 60.0489C57.6946 59.7546 57.5654 59.4059 57.5373 59.0421L56.9103 50.8317C56.9103 50.8317 56.9851 47.3381 54.8027 47.1687L53.5685 47.6571C51.9647 48.5085 51.5687 50.8449 51.7865 52.6467C52.0967 55.2075 52.2265 58.8331 52.5719 61.0551C52.8579 62.8745 53.8919 64.4739 55.6783 64.9425L66.2251 67.2261L67.3207 64.1549Z" fill="#B41818"/>
<path d="M57.0285 52.0835C57.0428 52.1449 57.0517 52.2075 57.0549 52.2705C57.0681 52.4047 57.0879 52.5851 57.1099 52.8117C57.1539 53.2935 57.2155 53.9711 57.2903 54.8027C57.3651 55.6343 57.4487 56.6485 57.5455 57.7573C57.5675 58.0367 57.5917 58.3205 57.6159 58.6109C57.6329 58.9063 57.6697 59.2003 57.7259 59.4909C57.7856 59.7847 57.9347 60.0529 58.1527 60.2587C58.3873 60.465 58.6541 60.6315 58.9425 60.7515C61.3031 61.7723 63.4789 62.6171 65.0585 63.2089L66.9351 63.8997L67.4455 64.0867C67.5052 64.1064 67.5633 64.1307 67.6193 64.1593C67.5571 64.1479 67.4959 64.131 67.4367 64.1087L66.9197 63.9415C66.4797 63.7919 65.8197 63.5697 65.0321 63.2815C63.4415 62.7095 61.2635 61.8779 58.8941 60.8615C58.5945 60.7356 58.3173 60.5617 58.0735 60.3467C57.8395 60.1246 57.6798 59.8357 57.6159 59.5195C57.5591 59.2246 57.5231 58.9262 57.5081 58.6263C57.4839 58.3337 57.4619 58.0499 57.4399 57.7705C57.3541 56.6705 57.2749 55.6585 57.2199 54.8137C57.1649 53.9689 57.1099 53.3023 57.0747 52.8205C57.0593 52.6005 57.0483 52.4113 57.0417 52.2771C57.0317 52.2131 57.0273 52.1483 57.0285 52.0835Z" fill="#353535"/>
<path d="M52.1305 56.5474C52.1393 56.5834 52.1444 56.6203 52.1459 56.6574L52.1745 56.9742C52.2009 57.2668 52.2339 57.6606 52.2757 58.1402C52.3175 58.6198 52.3835 59.216 52.4693 59.8628C52.5534 60.5632 52.682 61.2576 52.8543 61.9418C52.9352 62.2941 53.0767 62.6298 53.2723 62.934C53.4633 63.2132 53.6775 63.4759 53.9125 63.7194C54.3129 64.1313 54.7753 64.478 55.2831 64.7468C55.7564 64.9873 56.2639 65.1535 56.7879 65.2396C56.7506 65.2443 56.7129 65.2443 56.6757 65.2396C56.5693 65.2325 56.4634 65.2185 56.3589 65.1978C55.9719 65.1257 55.5971 64.999 55.2457 64.8216C54.7236 64.5588 54.248 64.2125 53.8377 63.7964C53.5944 63.5503 53.3735 63.283 53.1777 62.9978C52.9722 62.6851 52.8233 62.3389 52.7377 61.9748C52.563 61.2854 52.4359 60.5849 52.3571 59.8782C52.2779 59.2182 52.2251 58.6418 52.1899 58.149C52.1547 57.6562 52.1349 57.2558 52.1239 56.9786C52.1239 56.851 52.1239 56.7454 52.1239 56.6596C52.1201 56.622 52.1223 56.5842 52.1305 56.5474Z" fill="#353535"/>
<path d="M55.7939 62.2915C55.8164 62.1311 55.8695 61.9765 55.9501 61.8361C56.1266 61.4855 56.3712 61.1735 56.6696 60.9186C56.968 60.6636 57.3143 60.4707 57.6881 60.3511C57.8397 60.2932 58.0011 60.2656 58.1633 60.2697C58.0194 60.3297 57.8725 60.3826 57.7233 60.4281C57.3697 60.5649 57.0416 60.7605 56.7531 61.0067C56.4654 61.2534 56.2207 61.5463 56.0293 61.8735C55.8753 62.1265 55.8115 62.2981 55.7939 62.2915Z" fill="#353535"/>
<path d="M57.4736 56.0479C57.4923 56.0534 57.5101 56.0615 57.5264 56.0721L57.6804 56.1535C57.879 56.2513 58.0832 56.3373 58.292 56.4109C59.0619 56.681 59.8875 56.7522 60.6922 56.6177C61.8875 56.4045 62.9553 55.7406 63.6754 54.7631C64.1058 54.1985 64.3757 53.528 64.4564 52.8227C64.4964 52.4521 64.4574 52.0772 64.342 51.7227C64.2203 51.3608 64.0083 51.036 63.726 50.7789C63.4478 50.5184 63.0974 50.3482 62.7206 50.2905C62.5422 50.2585 62.3588 50.2675 62.1842 50.3166C62.0097 50.3658 61.8486 50.4539 61.713 50.5743C61.5903 50.6945 61.5192 50.8579 61.515 51.0297C61.5188 51.2005 61.5774 51.3656 61.6822 51.5005C61.7915 51.6309 61.9255 51.7383 62.0766 51.8164C62.2276 51.8946 62.3927 51.942 62.5622 51.9559C63.158 52.0302 63.7629 51.9537 64.3214 51.7334C64.8799 51.5132 65.3741 51.1562 65.7588 50.6953C66.0505 50.3366 66.2701 49.925 66.4056 49.4831C66.5068 49.1482 66.5615 48.801 66.5684 48.4513C66.5709 48.2303 66.5547 48.0095 66.52 47.7913C66.5068 47.7231 66.4958 47.6659 66.4892 47.6219C66.4873 47.6021 66.4873 47.5823 66.4892 47.5625C66.5802 47.8469 66.6247 48.144 66.6212 48.4425C66.6235 48.7975 66.5746 49.1509 66.476 49.4919C66.2311 50.3138 65.7024 51.0221 64.984 51.4907C64.2657 51.9592 63.4044 52.1576 62.5534 52.0505C62.3718 52.0345 62.195 51.9827 62.0334 51.8981C61.8718 51.8135 61.7286 51.6978 61.6118 51.5577C61.4923 51.4039 61.426 51.2156 61.4226 51.0209C61.4228 50.8207 61.5019 50.6286 61.6426 50.4863C61.7905 50.3543 61.9661 50.2573 62.1565 50.2025C62.3469 50.1476 62.5473 50.1363 62.7426 50.1695C63.1428 50.2288 63.5151 50.4092 63.8096 50.6865C64.1075 50.9557 64.3304 51.2975 64.4564 51.6787C64.5762 52.0474 64.6167 52.4372 64.5752 52.8227C64.4894 53.5434 64.2104 54.2275 63.7678 54.8027C63.1571 55.6361 62.2902 56.2464 61.2997 56.5404C60.3093 56.8345 59.2497 56.7959 58.2832 56.4307C57.9977 56.3393 57.7255 56.2106 57.4736 56.0479Z" fill="white"/>
<path d="M51.8643 53.859C51.9014 53.7931 51.949 53.7337 52.0051 53.683C52.1457 53.5342 52.3004 53.3993 52.4671 53.2804C53.0287 52.8945 53.6819 52.6631 54.3613 52.6094C54.734 52.5674 55.1109 52.583 55.4789 52.6556C55.7779 52.7177 56.0673 52.8198 56.3391 52.9592C56.5215 53.0511 56.6966 53.157 56.8627 53.276C56.9269 53.3154 56.9848 53.3643 57.0343 53.4212C57.0211 53.4388 56.7659 53.2452 56.3039 53.0318C55.7016 52.7525 55.0337 52.6459 54.3745 52.7238C53.7125 52.776 53.0734 52.9898 52.5133 53.3464C52.0887 53.6302 51.8797 53.8744 51.8643 53.859Z" fill="white"/>
<path d="M53.2314 47.9872C53.4402 48.1838 53.673 48.3531 53.9244 48.491C54.199 48.6318 54.4975 48.7199 54.8044 48.7506C55.1782 48.7881 55.5554 48.7353 55.9044 48.5966C56.2466 48.4507 56.5485 48.2243 56.7844 47.9366C56.9792 47.6966 57.1283 47.423 57.2244 47.1292C57.3035 46.8534 57.3486 46.569 57.3586 46.2822C57.38 46.358 57.3897 46.4367 57.3872 46.5154C57.3909 46.7312 57.362 46.9463 57.3014 47.1534C57.2118 47.4626 57.0623 47.7511 56.8614 48.0026C56.6203 48.3181 56.2998 48.5642 55.9327 48.7156C55.5656 48.8671 55.1649 48.9187 54.7714 48.865C54.4524 48.8289 54.1437 48.7302 53.8628 48.5746C53.6738 48.4708 53.5017 48.3388 53.3524 48.183C53.3004 48.1258 53.2594 48.0594 53.2314 47.9872Z" fill="white"/>
<path d="M60.7002 61.4885C60.7006 61.4337 60.7065 61.3792 60.7178 61.3257C60.7485 61.1729 60.7996 61.0249 60.8696 60.8857C61.1493 60.3732 61.6037 59.9782 62.15 59.7725C62.9541 59.4527 63.8441 59.4209 64.669 59.6823C65.1222 59.8165 65.6414 59.9836 65.989 60.4258C66.0764 60.5388 66.1316 60.6733 66.1486 60.8151C66.1657 60.9569 66.144 61.1006 66.0858 61.231C65.953 61.4855 65.7383 61.6878 65.4764 61.8053C65.2235 61.9304 64.9466 61.9995 64.6646 62.0076C64.3846 62.0212 64.1088 61.9355 63.8858 61.7657C63.7828 61.6778 63.6989 61.5698 63.6392 61.4484C63.5794 61.327 63.545 61.1946 63.5382 61.0594C63.5238 60.8068 63.5635 60.5541 63.6548 60.318C63.9863 59.516 64.6178 58.8751 65.4148 58.5317C65.9436 58.296 66.5228 58.1962 67.1 58.2412C67.3101 58.2572 67.5173 58.3009 67.716 58.371C67.716 58.3864 67.496 58.3139 67.0956 58.2853C66.6175 58.2593 66.1391 58.3312 65.6897 58.4965C65.2403 58.6618 64.8293 58.9171 64.482 59.2467C64.1595 59.5556 63.908 59.9309 63.745 60.3467C63.6597 60.5687 63.6229 60.8066 63.6372 61.0441C63.6436 61.1644 63.6746 61.2821 63.7283 61.39C63.7821 61.4978 63.8574 61.5935 63.9496 61.671C64.1507 61.8256 64.4003 61.9035 64.6536 61.891C64.9181 61.8841 65.1779 61.8196 65.4148 61.7019C65.654 61.5952 65.8506 61.4117 65.9736 61.1805C66.0231 61.0681 66.0415 60.9444 66.0268 60.8225C66.0121 60.7006 65.9648 60.5848 65.89 60.4875C65.7365 60.2937 65.5399 60.1385 65.3158 60.0342C65.0985 59.9303 64.8725 59.8456 64.6404 59.7812C63.8373 59.5213 62.9694 59.5439 62.1808 59.8451C61.6463 60.0384 61.1965 60.4128 60.9092 60.9033C60.814 61.0882 60.7437 61.285 60.7002 61.4885Z" fill="white"/>
<path d="M54.9971 64.5794C54.9971 64.5574 55.3227 64.531 55.8177 64.3594C56.4639 64.1318 57.0428 63.746 57.5017 63.2372C57.9605 62.7284 58.2846 62.1128 58.4445 61.4466C58.5699 60.9362 58.5655 60.604 58.5875 60.6062C58.6029 60.6822 58.6066 60.7601 58.5985 60.8372C58.5934 61.0481 58.5684 61.258 58.5237 61.4642C58.3811 62.1519 58.0576 62.7891 57.5865 63.31C57.1155 63.8309 56.514 64.2167 55.8441 64.4276C55.6435 64.4929 55.4373 64.5393 55.2281 64.5662C55.1521 64.5817 55.0743 64.5862 54.9971 64.5794Z" fill="white"/>
<path d="M52.2158 58.1972C52.2484 58.179 52.2831 58.1649 52.3192 58.1554C52.3896 58.1334 52.4908 58.1026 52.625 58.0674C53.0059 57.9672 53.4 57.9271 53.7932 57.9486C54.0663 57.9693 54.334 58.0354 54.5852 58.1444C54.8778 58.2706 55.1326 58.4708 55.3244 58.7252C55.535 59.0139 55.6371 59.3676 55.6126 59.724C55.5985 59.9137 55.5405 60.0974 55.4432 60.2608C55.3447 60.4331 55.1891 60.5654 55.0032 60.6348C54.9052 60.6682 54.8002 60.6753 54.6986 60.6552C54.597 60.6351 54.5025 60.5886 54.4246 60.5204C54.2926 60.3749 54.221 60.1845 54.2244 59.988C54.2131 59.6375 54.2823 59.289 54.4268 58.9694C54.6276 58.514 54.9748 58.1387 55.4132 57.9031C55.8517 57.6676 56.3562 57.5852 56.8468 57.6692C56.9523 57.6856 57.0561 57.7114 57.157 57.7462C57.2252 57.7726 57.2604 57.788 57.2582 57.7924C57.256 57.7968 57.1108 57.7462 56.8402 57.7132C56.4578 57.6669 56.0699 57.7169 55.7116 57.8584C55.1809 58.0714 54.7561 58.4859 54.5302 59.0112C54.3959 59.3165 54.332 59.6481 54.3432 59.9814C54.3386 60.1497 54.3984 60.3134 54.5104 60.439C54.5735 60.4927 54.6495 60.529 54.7309 60.5445C54.8123 60.5599 54.8963 60.5539 54.9746 60.527C55.1376 60.4668 55.2745 60.3516 55.3618 60.2014C55.4494 60.0531 55.502 59.8869 55.5158 59.7152C55.5389 59.3848 55.4464 59.0566 55.254 58.7868C55.0754 58.5447 54.8365 58.3535 54.561 58.2324C54.3203 58.1231 54.063 58.0547 53.7998 58.03C53.4151 58.0013 53.0282 58.0287 52.6514 58.1114C52.3676 58.1664 52.2202 58.206 52.2158 58.1972Z" fill="white"/>
<g opacity="0.3">
<path d="M64.8556 63.1758C63.9404 62.6588 63.045 62.2606 62.088 61.8272C61.131 61.3938 60.1916 60.8328 59.5646 59.988C58.3832 58.3952 58.5174 56.0962 57.3096 54.5254C57.3888 55.5814 57.4672 56.6381 57.545 57.6956C57.6176 58.6636 57.4702 59.6228 58.0928 60.2806C58.6186 60.835 59.6438 61.2596 60.3698 61.4994C61.8284 61.9812 63.3992 62.6962 64.8556 63.1758Z" fill="#353535"/>
</g>
<path d="M79.7496 75.2429C79.7496 75.2429 86.915 77.2229 87.2032 77.3285C87.6432 77.4803 87.5618 79.0621 86.8908 79.0357C86.5718 79.0247 81.3908 79.2293 80.7308 79.1897C80.0708 79.1501 78.0908 78.3691 78.0908 78.3691L79.7496 75.2429Z" fill="#B41818"/>
<path d="M82.7241 77.9774C82.8126 77.714 82.9185 77.4568 83.0409 77.2074C83.1951 76.9767 83.3641 76.7562 83.5469 76.5474C83.292 76.687 83.0803 76.894 82.9352 77.1458C82.7901 77.3977 82.717 77.6846 82.7241 77.9752V77.9774Z" fill="#353535"/>
<path d="M81.9814 77.6387C82.0166 77.6387 82.0892 77.3065 82.2806 76.9325C82.472 76.5585 82.6964 76.2967 82.6722 76.2725C82.4631 76.4353 82.2927 76.6425 82.1732 76.8791C82.0538 77.1157 81.9883 77.3759 81.9814 77.6409V77.6387Z" fill="#353535"/>
<path d="M81.284 77.4517C81.3191 77.1953 81.375 76.9422 81.4512 76.6949C81.5635 76.4616 81.6937 76.2372 81.8406 76.0239C81.6134 76.1769 81.4383 76.3956 81.3389 76.6507C81.2394 76.9059 81.2202 77.1854 81.284 77.4517Z" fill="#353535"/>
<path d="M81.4037 76.5256C81.4668 76.3556 81.4931 76.1742 81.4807 75.9932C81.4784 75.7961 81.4541 75.5998 81.4081 75.408C81.3805 75.2948 81.3445 75.1837 81.3003 75.0758C81.2795 75.0076 81.2399 74.9465 81.1859 74.8998C81.1497 74.873 81.1053 74.8597 81.0603 74.8621C81.0153 74.8645 80.9726 74.8825 80.9395 74.913C80.8839 74.9664 80.8502 75.0386 80.8449 75.1154C80.8395 75.1784 80.8395 75.2417 80.8449 75.3046C80.8456 75.4226 80.8603 75.54 80.8889 75.6544C80.9365 75.8463 81.0105 76.0307 81.1089 76.2022C81.1877 76.3676 81.2966 76.5168 81.4301 76.6422C81.4477 76.6422 81.3267 76.464 81.1837 76.1714C81.1001 76.0022 81.0373 75.8234 80.9967 75.639C80.9735 75.5313 80.9617 75.4214 80.9615 75.3112C80.9615 75.2012 80.9615 75.0648 81.0275 75.012C81.0405 75.0003 81.0573 74.9938 81.0748 74.9938C81.0923 74.9938 81.1091 75.0003 81.1221 75.012C81.1579 75.0471 81.185 75.0901 81.2013 75.1374C81.2434 75.2408 81.2794 75.3466 81.3091 75.4542C81.3595 75.6368 81.3912 75.824 81.4037 76.013C81.4169 76.321 81.3839 76.5234 81.4037 76.5256Z" fill="#353535"/>
<path d="M81.3968 76.4528C81.2509 76.3919 81.0926 76.3663 80.9349 76.378C80.7636 76.378 80.5929 76.3987 80.4266 76.4396C80.3242 76.4629 80.2251 76.4991 80.1318 76.5474C80.0732 76.5773 80.0258 76.6254 79.9968 76.6845C79.9678 76.7436 79.9589 76.8106 79.9712 76.8752C79.9877 76.937 80.0202 76.9933 80.0654 77.0385C80.1105 77.0837 80.1669 77.1162 80.2286 77.1326C80.3341 77.1591 80.4444 77.1591 80.5499 77.1326C80.7194 77.0939 80.8785 77.0189 81.0163 76.9126C81.1467 76.8253 81.2594 76.7141 81.3484 76.5848C81.2161 76.6622 81.089 76.7482 80.9679 76.8422C80.8348 76.9336 80.6854 76.9985 80.5279 77.0336C80.4405 77.0556 80.349 77.0556 80.2616 77.0336C80.2203 77.0232 80.1825 77.002 80.152 76.9723C80.1215 76.9425 80.0993 76.9053 80.0878 76.8642C80.0812 76.8239 80.0878 76.7825 80.1069 76.7463C80.126 76.7102 80.1564 76.6813 80.1934 76.664C80.2752 76.619 80.3624 76.585 80.4531 76.5628C80.6109 76.5178 80.7732 76.4898 80.937 76.4792C81.2164 76.444 81.3924 76.4726 81.3968 76.4528Z" fill="#353535"/>
<path d="M83.8235 78.0545C83.8542 77.8355 83.902 77.6192 83.9665 77.4077C84.067 77.2111 84.184 77.0235 84.3163 76.8467C84.1076 76.9604 83.9446 77.1428 83.8548 77.3628C83.765 77.5829 83.7539 77.8272 83.8235 78.0545Z" fill="#353535"/>
<path d="M78.8252 78.3865C78.912 78.4414 79.0051 78.4858 79.1024 78.5185C79.3624 78.6172 79.6284 78.6995 79.8988 78.7649C80.7973 78.9609 81.7162 79.0481 82.6356 79.0245C83.7092 79.0113 84.6772 78.9629 85.379 78.9343L86.2084 78.8903C86.3103 78.8886 86.4118 78.8783 86.512 78.8595C86.4109 78.8436 86.3084 78.8385 86.2062 78.8441H85.3768L82.6356 78.8969C81.7247 78.9203 80.8139 78.8466 79.9186 78.6769C79.2322 78.5383 78.834 78.3623 78.8252 78.3865Z" fill="#353535"/>
<path d="M78.6143 78.5494C78.6143 78.5648 78.8189 78.4504 79.1511 78.3052C79.5731 78.1059 80.0428 78.0297 80.5063 78.0852C80.962 78.184 81.3735 78.428 81.6789 78.7804C81.806 78.9307 81.9434 79.0718 82.0903 79.2028C81.9959 79.0279 81.8782 78.8666 81.7405 78.7232C81.5992 78.559 81.4398 78.4114 81.2653 78.2832C81.0466 78.1214 80.7924 78.0142 80.5239 77.9708C80.0376 77.9119 79.545 78.0049 79.1137 78.237C78.9314 78.3136 78.7628 78.4191 78.6143 78.5494Z" fill="#353535"/>
<path d="M72.1399 73.2651C72.1399 73.2651 65.3595 77.7047 65.1175 77.8851C64.7523 78.1601 65.1703 79.4735 65.8039 79.2469C66.1031 79.1391 71.7923 77.5551 72.4039 77.3175C73.0155 77.0799 74.6633 75.7467 74.6633 75.7467L72.1399 73.2651Z" fill="#B41818"/>
<path d="M70.1221 76.7763C70.0404 76.4971 69.8834 76.2459 69.6685 76.0499C69.4535 75.854 69.1888 75.7209 68.9033 75.6653C69.1417 75.8083 69.3703 75.967 69.5875 76.1405C69.7788 76.3411 69.9573 76.5534 70.1221 76.7763Z" fill="#353535"/>
<path d="M70.7255 76.2262C70.6392 75.9751 70.4984 75.7462 70.3131 75.556C70.1279 75.3659 69.9028 75.2191 69.6541 75.1262C69.6365 75.157 69.9335 75.3462 70.2261 75.6366C70.5187 75.927 70.6947 76.2438 70.7255 76.2262Z" fill="#353535"/>
<path d="M71.3425 75.8347C71.3416 75.5579 71.2363 75.2916 71.0477 75.0889C70.8901 74.8653 70.6548 74.7084 70.3877 74.6489C70.5918 74.8082 70.7837 74.9825 70.9619 75.1703C71.1062 75.3814 71.2334 75.6035 71.3425 75.8347Z" fill="#353535"/>
<path d="M70.948 74.9921C70.9656 74.9921 70.8732 74.8007 70.7962 74.4839C70.7499 74.3002 70.7226 74.1122 70.7148 73.9229C70.7072 73.8116 70.7072 73.6999 70.7148 73.5885C70.7139 73.5383 70.7269 73.4889 70.7522 73.4455C70.7617 73.4306 70.7767 73.4199 70.7939 73.4158C70.8112 73.4117 70.8293 73.4145 70.8446 73.4235C70.9216 73.4543 70.9612 73.5863 70.9986 73.6919C71.0309 73.7966 71.053 73.9042 71.0646 74.0131C71.0816 74.2016 71.0757 74.3915 71.047 74.5785C71.0008 74.8997 70.937 75.0955 70.9546 75.1021C71.0452 74.9448 71.1049 74.7715 71.1306 74.5917C71.1728 74.399 71.1876 74.2012 71.1746 74.0043C71.1657 73.8865 71.1443 73.77 71.1108 73.6567C71.0927 73.596 71.0706 73.5364 71.0448 73.4785C71.0154 73.4065 70.9606 73.3478 70.8908 73.3135C70.85 73.2945 70.8038 73.2905 70.7604 73.3022C70.7169 73.3139 70.679 73.3405 70.6532 73.3773C70.6168 73.4385 70.5978 73.5085 70.5982 73.5797C70.5739 73.8931 70.6098 74.2082 70.7038 74.5081C70.7501 74.6849 70.8333 74.8499 70.948 74.9921Z" fill="#353535"/>
<path d="M70.9189 74.9195C70.9189 74.9371 71.0861 74.8579 71.3589 74.7897C71.5184 74.7515 71.6813 74.7294 71.8451 74.7237C71.9386 74.7174 72.0326 74.7233 72.1245 74.7413C72.165 74.7469 72.2027 74.7653 72.232 74.7938C72.2613 74.8223 72.2807 74.8594 72.2873 74.8997C72.2892 74.9435 72.2794 74.9869 72.2589 75.0255C72.2384 75.0642 72.208 75.0967 72.1707 75.1197C72.0951 75.1673 72.009 75.196 71.9199 75.2033C71.7592 75.2191 71.5969 75.2026 71.4425 75.1549C71.2992 75.1012 71.1521 75.0578 71.0025 75.0251C71.1267 75.1243 71.2685 75.1989 71.4205 75.2451C71.5838 75.3077 71.7587 75.3339 71.9331 75.3221C72.0417 75.3164 72.1469 75.2831 72.2389 75.2253C72.2934 75.1919 72.3378 75.1444 72.3676 75.0879C72.3974 75.0314 72.4115 74.9679 72.4083 74.9041C72.4006 74.8386 72.3717 74.7774 72.326 74.7298C72.2804 74.6821 72.2205 74.6507 72.1553 74.6401C72.0523 74.6219 71.9472 74.6174 71.8429 74.6269C71.6719 74.6384 71.5027 74.6701 71.3391 74.7215C71.1857 74.7543 71.0419 74.8221 70.9189 74.9195Z" fill="#353535"/>
<path d="M66.6596 79.0028C66.6596 79.0138 66.774 78.9346 66.8268 78.741C66.8795 78.4881 66.8338 78.2245 66.6992 78.004C66.634 77.886 66.5605 77.7728 66.4792 77.6652C66.4131 77.5735 66.3354 77.4907 66.2482 77.4188C66.1857 77.3672 66.109 77.3357 66.0282 77.3286C65.971 77.3286 65.9424 77.3396 65.9424 77.3462C65.9424 77.3528 66.0634 77.3572 66.1888 77.4848C66.2628 77.5596 66.3284 77.6422 66.3846 77.7312C66.4635 77.8374 66.5369 77.9475 66.6046 78.0612C66.7261 78.2586 66.7787 78.4907 66.7542 78.7212C66.7284 78.8169 66.6968 78.9109 66.6596 79.0028Z" fill="#353535"/>
<path d="M69.0987 77.1834C69.1078 77.0643 69.0911 76.9447 69.0497 76.8327C69.0083 76.7207 68.9432 76.6189 68.8589 76.5344C68.7912 76.436 68.7027 76.3537 68.5997 76.2932C68.4966 76.2328 68.3816 76.1957 68.2627 76.1846C68.4425 76.3122 68.6111 76.455 68.7665 76.6114C68.8931 76.7924 69.0042 76.9837 69.0987 77.1834Z" fill="#353535"/>
<path d="M73.9601 75.9822C73.8547 76.0408 73.7546 76.1086 73.6609 76.1846C73.3922 76.3711 73.1131 76.5423 72.8249 76.6972C72.3984 76.9234 71.9575 77.1211 71.5049 77.289C70.9901 77.4804 70.4049 77.6608 69.8065 77.8368C68.5855 78.1888 67.4811 78.51 66.6847 78.7498L65.7365 79.0468C65.6195 79.0778 65.5054 79.119 65.3955 79.17C65.5154 79.1537 65.6339 79.1279 65.7497 79.093L66.7023 78.8268C67.5053 78.6068 68.6119 78.2988 69.8329 77.9468C70.4423 77.7686 71.0209 77.5838 71.5357 77.3858C71.9939 77.2116 72.4387 77.0043 72.8667 76.7654C73.1541 76.6026 73.4292 76.4187 73.6895 76.2154C73.786 76.1453 73.8765 76.0673 73.9601 75.9822Z" fill="#353535"/>
<path d="M74.2072 76.0723C74.0248 75.992 73.8312 75.94 73.633 75.9183C73.151 75.829 72.6532 75.8905 72.2074 76.0943C71.9664 76.2204 71.7596 76.4031 71.6046 76.6267C71.477 76.8031 71.37 76.9935 71.2856 77.1943C71.1974 77.3724 71.1345 77.562 71.0986 77.7575C71.1982 77.5875 71.2864 77.4111 71.3626 77.2295C71.5461 76.7999 71.8642 76.4417 72.269 76.2087C72.6949 76.0171 73.166 75.9493 73.6286 76.0129C73.9806 76.0415 74.2028 76.0899 74.2072 76.0723Z" fill="#353535"/>
<path d="M86.2264 62.4388C86.2264 62.4388 88.2614 63.1648 88.268 65.4462C88.2856 69.8132 79.4416 74.629 79.4416 74.629L67.6716 66.8322L66.9346 66.533C66.9346 66.533 82.8296 60.5666 86.2264 62.4388Z" fill="#353535"/>
<path d="M73.6377 70.7703C73.7461 70.7103 73.8491 70.6411 73.9457 70.5635C74.1371 70.4227 74.4121 70.2159 74.7487 69.9541C75.4241 69.4349 76.3393 68.6957 77.3271 67.8487C78.3149 67.0017 79.1817 66.2075 79.7977 65.6201C80.1057 65.3275 80.3521 65.0855 80.5215 64.9161C80.613 64.8335 80.6969 64.743 80.7723 64.6455C80.671 64.7164 80.5761 64.7959 80.4885 64.8831L79.7405 65.5585C79.1091 66.1283 78.2335 66.9137 77.2479 67.7585C76.2623 68.6033 75.3559 69.3513 74.6981 69.8881L73.9171 70.5261C73.8176 70.5999 73.7242 70.6816 73.6377 70.7703Z" fill="#717171"/>
<path d="M82.9055 64.0714C82.1358 63.99 81.3652 64.217 80.7627 64.7028C80.7825 64.7358 81.2027 64.4608 81.8055 64.2892C82.4083 64.1176 82.9055 64.1088 82.9055 64.0714Z" fill="#717171"/>
<path d="M81.89 63.3828C81.6177 63.4984 81.3781 63.6793 81.1924 63.9095C81.0066 64.1398 80.8805 64.4122 80.8252 64.7028C80.8604 64.7028 80.988 64.3486 81.285 63.9856C81.582 63.6226 81.9098 63.4136 81.89 63.3828Z" fill="#717171"/>
<path d="M86.8731 77.2163C86.8731 77.2031 86.7323 77.1745 86.5695 77.3087C86.3777 77.4875 86.2573 77.7298 86.2307 77.9907C86.1922 78.2472 86.2288 78.5093 86.3363 78.7453C86.4199 78.9235 86.5123 79.0071 86.5233 78.9983C86.4943 78.9005 86.4583 78.8049 86.4155 78.7123C86.3385 78.4861 86.3159 78.2449 86.3495 78.0083C86.3757 77.7726 86.4723 77.5503 86.6267 77.3703C86.7521 77.2405 86.8753 77.2361 86.8731 77.2163Z" fill="#353535"/>
<path d="M83.5222 55.2998L79.3312 65.9258L61.2846 66.2206L60.9502 65.2438L67.2752 65.015L70.3156 55.588L83.5222 55.2998Z" fill="#717171"/>
<path d="M75.0921 59.9067C75.2307 59.8371 75.3864 59.809 75.5406 59.8258C75.6947 59.8426 75.8407 59.9035 75.9611 60.0013C76.0633 60.0974 76.1341 60.222 76.1643 60.359C76.1945 60.496 76.1828 60.6389 76.1305 60.7691C76.074 60.899 75.9822 61.0106 75.8655 61.091C75.7489 61.1715 75.6121 61.2177 75.4705 61.2245C75.3215 61.234 75.1734 61.1947 75.0488 61.1125C74.9241 61.0304 74.8296 60.9098 74.7797 60.7691C74.7326 60.6117 74.7366 60.4434 74.7911 60.2885C74.8457 60.1335 74.948 59.9998 75.0833 59.9067" fill="#D9D9D9"/>
<path d="M80.5508 75.1616C80.5508 75.1616 63.9232 64.254 63.2456 64.0274C62.568 63.8008 60.918 62.7228 59.2746 63.176C57.6312 63.6292 56.1528 65.1054 55.4158 67.2614C54.9934 68.4934 54.7954 70.5944 54.7008 72.1718C54.5748 74.058 55.186 75.9195 56.4058 77.3638C56.9461 78.0378 57.6639 78.5475 58.4782 78.8356C58.652 78.8906 58.8324 78.9368 59.0172 78.9764C62.161 79.6584 65.3972 78.246 67.1572 75.5576L67.5444 74.968C67.5444 74.968 78.4234 78.9632 78.5928 78.9082L80.5508 75.1616Z" fill="#353535"/>
<path d="M59.9814 72.1586C60.0108 72.1734 60.0409 72.1866 60.0716 72.1982L60.3444 72.306L61.3982 72.713L65.3165 74.1892C66.9797 74.8096 68.9729 75.5488 71.2103 76.3628C73.4477 77.1768 75.9249 78.0678 78.5737 78.9632L78.6199 78.9808L78.6441 78.9346L79.9443 76.453L80.6043 75.188L80.6285 75.1396L80.5823 75.111L67.8993 67.059L64.0888 64.6566L63.0548 64.0098L62.7842 63.8448C62.7226 63.8074 62.6896 63.792 62.6896 63.792L62.7776 63.8558L63.0416 64.0296L64.0646 64.6896L67.8663 67.1294L80.5295 75.2122L80.5075 75.133C80.2985 75.5356 80.0675 75.9646 79.8475 76.398L78.5495 78.8796L78.6221 78.851C75.9821 77.9578 73.4961 77.069 71.2565 76.2616L65.3538 74.1144L61.4136 72.6668L60.3532 72.2796L60.076 72.1828L59.9814 72.1586Z" fill="#717171"/>
<path d="M61.7091 33.4275C61.9929 32.6597 62.6199 32.3275 63.4141 32.1361C63.8136 32.0432 64.2296 32.048 64.6268 32.1503C65.024 32.2526 65.3906 32.4492 65.6955 32.7235C66.0981 33.0909 66.3929 33.6035 66.8901 33.8235C67.7107 34.1953 68.7601 33.6519 69.5301 34.1073C69.7614 34.2436 69.9384 34.4558 70.031 34.7078C70.1235 34.9598 70.1259 35.236 70.0377 35.4896C69.9496 35.7432 69.7763 35.9584 69.5474 36.0987C69.3185 36.2389 69.0481 36.2955 68.7821 36.2589C69.3167 36.5097 69.4157 37.3149 69.0483 37.7769C68.6809 38.2389 68.0011 38.3643 67.4313 38.2037C66.8697 38.0103 66.3714 37.6672 65.9903 37.2115C65.5899 36.7715 65.2379 36.2985 64.8023 35.8915C64.3842 35.4667 63.8294 35.2034 63.2359 35.1479C62.4373 35.1171 61.6959 35.6561 61.2801 36.3359C60.8643 37.0157 60.7037 37.8231 60.5871 38.6151C60.4705 39.4071 60.3825 40.2123 60.0767 40.9515C60.0415 41.0395 59.9887 41.1341 59.8985 41.1539C59.7643 41.1825 59.6675 41.0351 59.6147 40.9097C59.0127 39.4969 58.6943 37.9794 58.6775 36.4437C58.6665 35.5637 58.7677 34.7211 59.3199 34.0237C59.8721 33.3263 61.1459 32.8929 61.7025 33.4165" fill="#353535"/>
<path d="M59.8386 36.9762L58.6154 45.8598C58.5664 46.2185 58.5908 46.5835 58.6874 46.9325C58.7839 47.2815 58.9504 47.6071 59.1768 47.8897C59.4032 48.1723 59.6847 48.4059 60.0042 48.5762C60.3238 48.7465 60.6746 48.85 61.0354 48.8804C61.7185 48.9398 62.3982 48.7342 62.9339 48.3062C63.4696 47.8783 63.8201 47.2607 63.913 46.5814C64.0032 45.9214 64.0802 45.356 64.0956 45.2878C64.0956 45.2878 66.3858 45.3868 66.8566 43.1714C67.0766 42.1 67.3736 39.856 67.6134 37.8232C67.7344 36.7712 67.4554 35.7122 66.8319 34.8564C66.2083 34.0006 65.2858 33.4104 64.2474 33.2032L64.0274 33.1614C61.6844 32.827 60.1004 34.631 59.8386 36.9762Z" fill="#FFBB9D"/>
<path d="M64.0866 45.2569C63.0569 45.0679 62.1066 44.577 61.3564 43.8467C61.3564 43.8467 61.7216 45.5803 63.9766 45.8267L64.0866 45.2569Z" fill="#F4B740"/>
<path d="M66.6542 39.1827C66.6386 39.2655 66.5912 39.3388 66.522 39.387C66.4529 39.4351 66.3676 39.4542 66.2846 39.4401C66.2436 39.4355 66.2041 39.4227 66.1682 39.4025C66.1323 39.3822 66.1009 39.355 66.0759 39.3223C66.0508 39.2896 66.0326 39.2522 66.0223 39.2124C66.0121 39.1725 66.01 39.131 66.0162 39.0903C66.0312 39.0071 66.0784 38.9331 66.1476 38.8845C66.2168 38.8359 66.3024 38.8166 66.3858 38.8307C66.4268 38.8355 66.4664 38.8485 66.5023 38.869C66.5381 38.8895 66.5695 38.9169 66.5946 38.9498C66.6196 38.9826 66.6378 39.0202 66.648 39.0602C66.6583 39.1002 66.6603 39.1418 66.6542 39.1827Z" fill="#353535"/>
<path d="M66.8995 38.8176C66.8511 38.8528 66.6465 38.6262 66.3055 38.558C65.9645 38.4898 65.6785 38.613 65.6455 38.558C65.6125 38.503 65.6873 38.47 65.8127 38.4128C65.9798 38.3385 66.1663 38.3192 66.3451 38.3578C66.5227 38.3918 66.6847 38.482 66.8071 38.6152C66.9017 38.7208 66.9215 38.8044 66.8995 38.8176Z" fill="#353535"/>
<path d="M63.2807 38.6283C63.2657 38.7115 63.2185 38.7854 63.1493 38.834C63.0801 38.8826 62.9945 38.902 62.9111 38.8879C62.8702 38.8827 62.8306 38.8695 62.7948 38.849C62.759 38.8285 62.7276 38.801 62.7024 38.7683C62.6773 38.7356 62.6588 38.6982 62.6482 38.6583C62.6376 38.6184 62.635 38.5768 62.6405 38.5359C62.6571 38.4535 62.7047 38.3806 62.7735 38.3323C62.8423 38.2839 62.927 38.2639 63.0101 38.2763C63.0512 38.2811 63.0909 38.2942 63.1269 38.3146C63.1629 38.335 63.1944 38.3625 63.2196 38.3953C63.2448 38.4281 63.2632 38.4656 63.2737 38.5056C63.2842 38.5456 63.2866 38.5873 63.2807 38.6283Z" fill="#353535"/>
<path d="M63.5401 38.2126C63.4917 38.2456 63.2871 38.019 62.9461 37.9508C62.6051 37.8826 62.3191 38.0058 62.2861 37.9508C62.2531 37.8958 62.3279 37.8628 62.4533 37.8056C62.6208 37.7324 62.8068 37.7132 62.9857 37.7506C63.1633 37.7865 63.3254 37.8764 63.4499 38.0079C63.5423 38.1267 63.5621 38.1972 63.5401 38.2126Z" fill="#353535"/>
<path d="M64.2627 40.9868C64.4538 40.9655 64.6468 40.9692 64.8369 40.9978C64.9271 40.9978 65.0129 40.9978 65.0393 40.9472C65.0672 40.8599 65.0672 40.7661 65.0393 40.6788C64.9997 40.4588 64.9579 40.2124 64.9139 39.9616C64.7445 38.9452 64.6411 38.118 64.6807 38.1114C64.7203 38.1048 64.9007 38.9232 65.0613 39.9396C65.1009 40.1904 65.1405 40.428 65.1757 40.6568C65.2101 40.7732 65.2015 40.8981 65.1515 41.0088C65.1328 41.0366 65.1081 41.0597 65.0791 41.0765C65.0501 41.0933 65.0177 41.1032 64.9843 41.1056C64.9339 41.1127 64.8828 41.1127 64.8325 41.1056C64.6384 41.0899 64.4469 41.05 64.2627 40.9868Z" fill="#353535"/>
<path d="M63.2103 41.0263C63.2675 41.0263 63.1927 41.4047 63.4567 41.7303C63.7207 42.0559 64.1167 42.0955 64.1167 42.1483C64.1167 42.2011 64.0155 42.2011 63.8483 42.1725C63.6305 42.1323 63.4335 42.0171 63.2917 41.8469C63.1574 41.6819 63.092 41.4715 63.1091 41.2595C63.1267 41.1011 63.1861 41.0175 63.2103 41.0263Z" fill="#353535"/>
<path d="M63.8899 36.8902C63.8393 36.9782 63.5071 36.866 63.0957 36.833C62.6843 36.8 62.3411 36.8462 62.3037 36.7516C62.2883 36.7076 62.3631 36.6328 62.5105 36.569C62.7061 36.4918 62.9171 36.4617 63.1265 36.481C63.3372 36.4971 63.5409 36.5635 63.7205 36.6746C63.8547 36.7626 63.9097 36.8506 63.8899 36.8902Z" fill="#353535"/>
<path d="M66.9747 37.8054C66.8999 37.8714 66.6821 37.7438 66.3983 37.6822C66.1145 37.6206 65.8659 37.6316 65.8285 37.5392C65.8109 37.4952 65.8637 37.4248 65.9847 37.372C66.1423 37.3099 66.3153 37.2984 66.4797 37.339C66.6456 37.374 66.7959 37.4611 66.9087 37.5876C66.9901 37.6866 67.0099 37.7724 66.9747 37.8054Z" fill="#353535"/>
<path d="M59.6854 38.6569C59.6502 38.6327 58.2488 37.9001 57.9936 39.4291C57.7384 40.9581 59.3268 40.8987 59.3356 40.8547C59.3444 40.8107 59.6854 38.6569 59.6854 38.6569Z" fill="#FFBB9D"/>
<path d="M58.9702 40.1969C58.9702 40.1969 58.9416 40.2123 58.8932 40.2255C58.8253 40.2417 58.7537 40.2315 58.693 40.1969C58.6039 40.1183 58.5377 40.0172 58.5013 39.9041C58.4649 39.791 58.4597 39.6703 58.4862 39.5545C58.5038 39.4224 58.5512 39.296 58.6248 39.1849C58.6456 39.1393 58.6771 39.0993 58.7165 39.0683C58.7559 39.0373 58.8022 39.0162 58.8514 39.0067C58.8836 39.004 58.9158 39.0126 58.9423 39.0311C58.9688 39.0496 58.988 39.0767 58.9966 39.1079C59.0098 39.1519 58.9966 39.1827 58.9966 39.1849C58.9966 39.1871 59.034 39.1651 59.0318 39.1013C59.0295 39.0621 59.014 39.0249 58.9878 38.9957C58.97 38.976 58.9483 38.9601 58.9241 38.9491C58.8998 38.9381 58.8736 38.9323 58.847 38.9319C58.7825 38.9338 58.7194 38.9521 58.664 38.9853C58.6085 39.0184 58.5625 39.0651 58.5302 39.1211C58.4428 39.2429 58.3862 39.384 58.3652 39.5325C58.3234 39.8427 58.4334 40.1573 58.6446 40.2563C58.6837 40.2752 58.7266 40.285 58.77 40.285C58.8134 40.285 58.8563 40.2752 58.8954 40.2563C58.9614 40.2343 58.9746 40.2013 58.9702 40.1969Z" fill="#F4B740"/>
<path d="M68.1591 37.4667C67.6421 37.4946 67.1259 37.3994 66.6528 37.1891C66.1797 36.9787 65.7633 36.6592 65.4377 36.2567C64.9977 35.6891 64.7051 34.9477 64.0693 34.6045C63.8503 34.4967 63.6121 34.4335 63.3686 34.4184C63.125 34.4033 62.8809 34.4366 62.6503 34.5165C62.1912 34.6806 61.7705 34.9366 61.4139 35.2689C61.6163 36.4833 61.0773 37.6889 60.5514 38.7889C60.5061 38.9186 60.4186 39.0294 60.3028 39.1035C60.096 39.2069 59.8497 39.0441 59.7243 38.8483C59.5485 38.5201 59.4721 38.1478 59.5043 37.7769C59.509 36.9316 59.6809 36.0957 60.0103 35.3173C60.3446 34.5365 60.9007 33.8711 61.6097 33.4033C62.5189 32.8481 63.6081 32.6675 64.6479 32.8995C65.6817 33.14 66.6137 33.6995 67.3121 34.4989C67.6524 34.8532 67.8995 35.2863 68.0315 35.7595" fill="#353535"/>
</g>
<defs>
<clipPath id="clip0_6185_47829">
<rect width="95.8334" height="80" fill="white" transform="translate(0.0830078)"/>
</clipPath>
</defs>
</svg>
