<svg width="136" height="140" viewBox="0 0 136 140" fill="none" xmlns="http://www.w3.org/2000/svg">
<g filter="url(#filter0_d_5354_34447)">
<path d="M115.731 76.6306L112.917 87.5576L129.131 91.7328L131.945 80.8058L115.731 76.6306Z" fill="white"/>
<path d="M129.131 91.7332C129.131 91.7332 129.131 91.661 129.175 91.5291L129.319 90.9452L129.868 88.7475C130.352 86.845 131.04 84.1167 131.881 80.7982L131.928 80.8767L115.712 76.72L115.81 76.6603V76.7011V76.7482L115.785 76.8393L115.737 77.0214L115.646 77.3824L115.458 78.1077C115.337 78.5891 115.214 79.0663 115.091 79.5393C114.846 80.4853 114.605 81.4167 114.369 82.3335C113.898 84.1607 113.427 85.9188 113.012 87.5827L112.959 87.4917L124.616 90.5308L127.931 91.3973L128.82 91.6359L129.049 91.6987L129.131 91.7238L129.055 91.7081L128.832 91.6547L127.953 91.4381L124.622 90.603L112.899 87.6298L112.827 87.611L112.846 87.5388C113.273 85.8748 113.722 84.1167 114.193 82.2864C114.429 81.3717 114.669 80.4403 114.912 79.4922C115.031 79.0181 115.157 78.5503 115.279 78.0606C115.342 77.8188 115.402 77.5771 115.464 77.3353L115.559 76.9743L115.606 76.7922L115.628 76.7011V76.6541V76.6321V76.6132L115.728 76.5536L131.934 80.7449L132 80.7606L131.981 80.8233C131.112 84.1544 130.396 86.8858 129.894 88.7977L129.316 90.9954C129.25 91.2403 129.197 91.4287 129.162 91.5637L129.131 91.7332Z" fill="#F66262"/>
<path d="M131.944 80.8071C131.89 80.8521 131.831 80.89 131.768 80.9201L131.244 81.2184L129.294 82.2953L122.783 85.8084L122.723 85.8398L122.679 85.7864L122.365 85.3689L117.656 79.2154C117.066 78.4368 116.585 77.7995 116.243 77.3317C116.086 77.1182 115.96 76.9455 115.863 76.8168C115.817 76.7578 115.776 76.6947 115.741 76.6284C115.795 76.6801 115.845 76.7357 115.891 76.7948C115.992 76.9235 116.127 77.0868 116.293 77.2909L117.747 79.1369L122.497 85.259L122.811 85.6765L122.707 85.6546L129.241 82.2011L131.212 81.1744L131.752 80.9013C131.813 80.8644 131.877 80.8329 131.944 80.8071Z" fill="#F66262"/>
<path d="M19.9315 102.519C20.0882 102.465 20.2279 102.371 20.3365 102.246C20.4636 102.092 20.5335 101.899 20.5343 101.7C20.5291 101.573 20.5069 101.447 20.4684 101.326C20.437 101.191 20.3993 101.047 20.3616 100.896C20.0477 99.6779 19.627 97.9261 19.0901 95.7661C18.9583 95.2261 18.817 94.6578 18.6726 94.0645L18.4528 93.1603C18.4212 93.0086 18.3781 92.8596 18.3241 92.7145C18.2551 92.5846 18.152 92.476 18.0258 92.4005C17.8958 92.3209 17.7448 92.2826 17.5926 92.2906C17.4305 92.3196 17.2702 92.3573 17.1122 92.4037L16.1138 92.6611L14.0261 93.2042L4.73306 95.606C4.54711 95.6583 4.38725 95.7779 4.28456 95.9415C4.18186 96.1051 4.14365 96.3011 4.17736 96.4913C4.27469 96.8963 4.36888 97.3013 4.4662 97.7032C4.66085 98.509 4.85341 99.3022 5.04387 100.083C5.42062 101.653 5.78166 103.15 6.13015 104.585L6.25887 105.119C6.28975 105.284 6.37091 105.435 6.4912 105.552C6.60736 105.667 6.7588 105.74 6.92131 105.759C7.0889 105.766 7.25618 105.74 7.41422 105.684L9.38584 105.182L12.9209 104.271L18.0478 102.978L19.4417 102.635L19.8059 102.551L19.9315 102.525L19.8091 102.566L19.4512 102.667L18.0635 103.04L12.9523 104.384L9.42037 105.304L7.45189 105.809C7.27705 105.873 7.09132 105.9 6.90561 105.891C6.71064 105.869 6.52848 105.783 6.38759 105.646C6.24645 105.51 6.15011 105.333 6.11131 105.141C6.0705 104.965 6.02655 104.786 5.98259 104.607C5.63411 103.172 5.26678 101.668 4.8869 100.108C4.69853 99.3294 4.50388 98.5383 4.30923 97.7283C4.2119 97.3233 4.11457 96.9152 4.01411 96.5039C3.9737 96.273 4.0208 96.0354 4.1462 95.8375C4.27159 95.6395 4.46629 95.4954 4.69225 95.4333L13.9884 93.0441L16.0762 92.5104L17.0777 92.253C17.2432 92.2039 17.4122 92.1672 17.5831 92.1431C17.763 92.1313 17.942 92.1763 18.0949 92.2718C18.2442 92.3639 18.364 92.4968 18.4402 92.6548C18.4999 92.8072 18.5451 92.9649 18.5752 93.1257C18.6506 93.4397 18.7228 93.738 18.7919 94.0331C18.9331 94.6264 19.0713 95.1947 19.2 95.7378C19.7149 97.901 20.1419 99.656 20.4213 100.88L20.5217 101.31C20.5592 101.436 20.5793 101.566 20.5814 101.697C20.5747 101.906 20.496 102.107 20.3585 102.265C20.2724 102.361 20.1648 102.435 20.0445 102.482C20.0087 102.499 19.9707 102.512 19.9315 102.519Z" fill="#F66262"/>
<path d="M12.6355 98.0093L14.6291 98.6089L13.1347 100.097L11.6402 101.582L11.1411 99.4943L10.645 97.4065L12.6355 98.0093Z" fill="#F66262"/>
<path d="M38.3542 5.11516C38.8278 4.90978 39.2309 4.57022 39.5138 4.1384C39.7966 3.70657 39.9469 3.20138 39.946 2.68516C39.9741 2.346 39.9321 2.00467 39.8226 1.68243C39.7132 1.36019 39.5385 1.06392 39.3096 0.812073C39.0807 0.560221 38.8025 0.358171 38.4921 0.218499C38.1818 0.0788259 37.846 0.00451827 37.5057 0.000199708C37.1654 -0.00411885 36.8278 0.061644 36.514 0.193396C36.2002 0.325148 35.9169 0.52007 35.6817 0.766032C35.4465 1.01199 35.2644 1.30373 35.1468 1.62309C35.0292 1.94246 34.9786 2.2826 34.9981 2.62237C34.9834 3.14261 35.1232 3.65552 35.3998 4.09638C35.6764 4.53724 36.0774 4.88628 36.5521 5.09946C32.7407 5.63946 32.882 9.77108 32.882 9.77108L41.8893 9.89038C41.8893 9.89038 42.1248 5.71481 38.3542 5.11516Z" fill="#F66262"/>
<path d="M88.1689 22.4269V42.3943C88.1689 43.0376 88.6904 43.5591 89.3337 43.5591H118.999C119.642 43.5591 120.164 43.0376 120.164 42.3943V22.4269C120.164 21.7836 119.642 21.2622 118.999 21.2622L89.3337 21.2622C88.6904 21.2622 88.1689 21.7836 88.1689 22.4269Z" fill="#717171"/>
<path d="M90.3569 21.9644V42.8549H117.077V21.9644H90.3569Z" fill="white"/>
<path d="M119.342 32.7246C119.521 32.2883 119.313 31.7894 118.876 31.6102C118.44 31.431 117.941 31.6394 117.762 32.0757C117.583 32.5119 117.791 33.0109 118.227 33.1901C118.664 33.3692 119.163 33.1608 119.342 32.7246Z" fill="#353535"/>
<path d="M89.4466 29.2346V35.5953C89.4458 35.6422 89.4265 35.6869 89.3931 35.7198C89.3596 35.7527 89.3146 35.7711 89.2676 35.7711C89.221 35.7711 89.1763 35.7526 89.1433 35.7196C89.1103 35.6866 89.0918 35.6419 89.0918 35.5953V29.2346C89.0914 29.2113 89.0956 29.1881 89.1043 29.1664C89.1129 29.1447 89.1258 29.1249 89.1422 29.1083C89.1586 29.0916 89.1781 29.0784 89.1996 29.0693C89.2212 29.0603 89.2443 29.0557 89.2676 29.0557C89.3151 29.0557 89.3606 29.0745 89.3942 29.1081C89.4277 29.1416 89.4466 29.1872 89.4466 29.2346Z" fill="#353535"/>
<path d="M117.495 11.1841H101.113V33.6034H117.495V11.1841Z" fill="#F66262"/>
<path d="M113.342 14.0084H96.9595V36.4278H113.342V14.0084Z" fill="#F66262"/>
<path d="M110.535 17.4523H94.1528V39.8716H110.535V17.4523Z" fill="white"/>
<path d="M110.544 39.8638C110.544 39.8638 110.544 39.8262 110.544 39.754C110.544 39.6817 110.544 39.5719 110.544 39.44V38.2124C110.544 37.1419 110.544 35.5815 110.522 33.6099C110.522 29.6635 110.494 24.0689 110.472 17.4476L110.548 17.523L94.1655 17.5418L94.2471 17.4602V39.8795L94.1812 39.8105L106.077 39.8387H109.389H110.259C110.46 39.8387 110.573 39.8387 110.573 39.8387H110.284H109.424L106.127 39.8576L94.1969 39.9015H94.1027V39.8356C94.1027 33.5565 94.0807 25.7893 94.0713 17.4162V17.3346H94.1529H110.535H110.61V17.4099C110.61 24.05 110.591 29.6541 110.585 33.6193C110.585 35.5847 110.585 37.1387 110.566 38.2062C110.566 38.7336 110.566 39.148 110.566 39.418C110.566 39.5499 110.566 39.6535 110.566 39.732C110.564 39.7766 110.556 39.8208 110.544 39.8638Z" fill="#353535"/>
<path d="M104.168 21.9569C104.168 22.0009 102.385 22.0385 100.187 22.0417C97.9893 22.0448 96.2061 22.0071 96.2061 21.9632C96.2061 21.9192 97.9893 21.8784 100.187 21.8784C102.385 21.8784 104.168 21.9098 104.168 21.9569Z" fill="#353535"/>
<path d="M108.476 23.9012C108.476 23.9482 105.729 23.9859 102.341 23.9891C98.9534 23.9922 96.2095 23.9545 96.2095 23.9106C96.2095 23.8666 98.9534 23.8258 102.341 23.8258C105.729 23.8258 108.476 23.8572 108.476 23.9012Z" fill="#353535"/>
<path d="M108.476 25.9335C108.476 25.9775 105.732 26.0152 102.344 26.0183C98.9566 26.0215 96.2095 25.9869 96.2095 25.9398C96.2095 25.8927 98.9566 25.8582 102.344 25.8551C105.732 25.8519 108.476 25.8865 108.476 25.9335Z" fill="#353535"/>
<path d="M108.479 27.9819C108.479 28.0258 105.731 28.0666 102.344 28.0666C98.9563 28.0666 96.2124 28.0352 96.2124 27.9913C96.2124 27.9473 98.9563 27.9065 102.344 27.9034C105.731 27.9002 108.479 27.9222 108.479 27.9819Z" fill="#353535"/>
<path d="M108.479 29.9952C108.479 30.0422 105.735 30.0799 102.347 30.0831C98.9595 30.0862 96.2124 30.0485 96.2124 30.0046C96.2124 29.9606 98.9595 29.9198 102.347 29.9198C105.735 29.9198 108.479 29.9512 108.479 29.9952Z" fill="#353535"/>
<path d="M108.481 32.0314C108.481 32.0754 105.734 32.1131 102.347 32.1162C98.9593 32.1194 96.2153 32.0848 96.2153 32.0377C96.2153 31.9906 98.9593 31.9561 102.347 31.953C105.734 31.9498 108.481 31.9844 108.481 32.0314Z" fill="#353535"/>
<path d="M108.481 34.061C108.481 34.1049 105.738 34.1457 102.35 34.1457C98.9624 34.1457 96.2153 34.1143 96.2153 34.0704C96.2153 34.0264 98.9624 33.9856 102.35 33.9825C105.738 33.9793 108.481 34.017 108.481 34.061Z" fill="#353535"/>
<path d="M102.811 36.1009C102.811 36.1448 101.336 36.1825 99.515 36.1825C97.694 36.1825 96.2153 36.148 96.2153 36.104C96.2153 36.06 97.694 36.0224 99.515 36.0192C100.614 35.9909 101.715 36.0182 102.811 36.1009Z" fill="#353535"/>
<path d="M91.0948 97.7063H45.5748C44.3594 97.7063 43.374 98.6916 43.374 99.9071V128.518C43.374 129.733 44.3594 130.718 45.5748 130.718H91.0948C92.3103 130.718 93.2956 129.733 93.2956 128.518V99.9071C93.2956 98.6916 92.3103 97.7063 91.0948 97.7063Z" fill="#353535"/>
<path d="M92.4859 131.165H44.1843C43.8048 131.166 43.4291 131.091 43.0784 130.946C42.7278 130.801 42.4093 130.588 42.141 130.32C41.8727 130.052 41.6599 129.733 41.5149 129.383C41.3699 129.032 41.2955 128.656 41.2959 128.277H95.3742C95.3742 129.043 95.0699 129.777 94.5282 130.319C93.9866 130.861 93.2519 131.165 92.4859 131.165Z" fill="#353535"/>
<path d="M91.8172 99.0154H44.7148V126.894H91.8172V99.0154Z" fill="#717171"/>
<path d="M63.4136 128.277L64.0854 129.344H73.5323L74.1539 128.277H63.4136Z" fill="#717171"/>
<path d="M89.6539 100.872H46.2876V126.883H89.6539V100.872Z" fill="white"/>
<path d="M68.3273 104.201L68.7417 111.805C68.7481 111.936 68.8046 112.059 68.8993 112.149C68.9939 112.239 69.1197 112.289 69.2503 112.289L82.9072 112.389C82.9761 112.391 83.0447 112.378 83.1087 112.353C83.1727 112.327 83.2309 112.289 83.2796 112.24C83.3283 112.191 83.3667 112.133 83.3922 112.069C83.4178 112.005 83.4301 111.937 83.4284 111.868L83.4724 105.959C83.4728 105.892 83.4598 105.825 83.4343 105.762C83.4088 105.7 83.3711 105.643 83.3236 105.595C83.276 105.548 83.2195 105.51 83.1572 105.484C83.0949 105.458 83.0281 105.444 82.9606 105.444H74.5624C74.4263 105.442 74.2961 105.388 74.1982 105.294L72.754 103.837C72.6575 103.743 72.5279 103.69 72.393 103.689L68.8516 103.661C68.781 103.66 68.7109 103.673 68.6456 103.7C68.5804 103.727 68.5213 103.767 68.4721 103.817C68.423 103.868 68.3847 103.928 68.3598 103.994C68.3349 104.06 68.3238 104.131 68.3273 104.201Z" fill="#EDEDED"/>
<path d="M83.4786 104.551L68.5537 104.442L68.4883 113.361L83.4132 113.471L83.4786 104.551Z" fill="#F9F9F9"/>
<path d="M67.3602 105.234L68.4308 114.543C68.4371 114.622 68.473 114.695 68.5312 114.749C68.5894 114.802 68.6656 114.832 68.7447 114.832L83.287 114.939C83.3298 114.941 83.3727 114.935 83.413 114.92C83.4532 114.906 83.4901 114.883 83.5213 114.853C83.5525 114.824 83.5773 114.789 83.5942 114.749C83.6112 114.71 83.6199 114.667 83.6198 114.625L84.4204 105.332C84.4238 105.287 84.4183 105.243 84.4043 105.201C84.3903 105.159 84.368 105.12 84.3388 105.087C84.3095 105.053 84.2739 105.026 84.234 105.007C84.1941 104.987 84.1507 104.976 84.1064 104.974L67.6899 104.854C67.6412 104.851 67.5923 104.859 67.5472 104.877C67.502 104.896 67.4619 104.925 67.4299 104.962C67.3978 104.999 67.3749 105.042 67.3628 105.09C67.3507 105.137 67.3498 105.187 67.3602 105.234Z" fill="#EDEDED"/>
<path d="M57.788 108.279L58.3593 118.756C58.3689 118.935 58.4467 119.105 58.5768 119.229C58.7069 119.353 58.8795 119.423 59.0595 119.424L77.9123 119.563C78.0051 119.563 78.0971 119.546 78.1831 119.511C78.2691 119.476 78.3475 119.425 78.4137 119.36C78.4798 119.295 78.5326 119.218 78.5688 119.132C78.6051 119.047 78.6242 118.955 78.625 118.862L78.6846 110.7C78.6855 110.606 78.6678 110.514 78.6327 110.427C78.5976 110.341 78.5456 110.262 78.48 110.196C78.4143 110.13 78.3361 110.077 78.25 110.041C78.1639 110.005 78.0715 109.987 77.9782 109.987H66.384C66.1967 109.987 66.0171 109.912 65.8848 109.78L63.8818 107.78C63.8175 107.714 63.7408 107.662 63.6562 107.627C63.5715 107.591 63.4807 107.573 63.3889 107.573L58.5006 107.535C58.4042 107.535 58.3087 107.554 58.2199 107.591C58.1311 107.629 58.0509 107.684 57.9842 107.754C57.9175 107.823 57.8657 107.906 57.832 107.996C57.7982 108.087 57.7833 108.183 57.788 108.279Z" fill="#F66262"/>
<path d="M78.7011 108.76L58.1001 108.609L58.0099 120.919L78.6109 121.07L78.7011 108.76Z" fill="#F9F9F9"/>
<path d="M56.4535 109.703L57.9322 122.553C57.9445 122.664 57.9971 122.766 58.08 122.84C58.1628 122.914 58.27 122.955 58.3811 122.955L78.4553 123.102C78.5701 123.103 78.6809 123.06 78.7658 122.983C78.8507 122.906 78.9034 122.799 78.9136 122.685L80.0188 109.857C80.024 109.794 80.0161 109.731 79.9958 109.672C79.9755 109.612 79.943 109.558 79.9006 109.511C79.8581 109.465 79.8065 109.428 79.7491 109.403C79.6916 109.377 79.6295 109.364 79.5667 109.364L56.9087 109.198C56.8444 109.197 56.7808 109.21 56.7221 109.236C56.6633 109.262 56.6106 109.3 56.5676 109.348C56.5246 109.396 56.4922 109.452 56.4726 109.513C56.4529 109.574 56.4464 109.639 56.4535 109.703Z" fill="#F66262"/>
<path d="M71.8751 113.899C71.8751 113.899 71.9473 113.934 72.0572 114.031C72.2206 114.174 72.3652 114.338 72.4873 114.518C72.9454 115.189 73.1501 116.001 73.0649 116.81C72.9947 117.406 72.8014 117.982 72.4971 118.5C72.1929 119.019 71.7843 119.468 71.2974 119.82C70.7227 120.249 70.0465 120.52 69.3352 120.608C68.5646 120.688 67.7879 120.534 67.1061 120.166C66.4217 119.807 65.8582 119.254 65.4861 118.577C65.1516 117.94 65.0026 117.222 65.056 116.505C65.0961 115.86 65.2876 115.235 65.6148 114.678C65.899 114.196 66.277 113.777 66.7262 113.444C67.3707 112.96 68.1263 112.644 68.9239 112.527C69.1368 112.494 69.3521 112.478 69.5675 112.48C69.7151 112.48 69.7904 112.48 69.7904 112.505C69.7904 112.53 69.4765 112.537 68.9459 112.653C68.1917 112.814 67.4848 113.147 66.8801 113.626C66.4669 113.952 66.1214 114.355 65.8629 114.813C65.5692 115.337 65.3995 115.921 65.3668 116.521C65.3437 117.036 65.431 117.55 65.623 118.028C65.8149 118.507 66.1069 118.938 66.4796 119.295C66.8522 119.651 67.2967 119.923 67.7833 120.094C68.2698 120.264 68.7872 120.328 69.3007 120.282C69.9581 120.206 70.5845 119.96 71.1184 119.569C71.5795 119.245 71.9695 118.829 72.2648 118.349C72.5601 117.869 72.7543 117.333 72.8358 116.775C72.9346 116.012 72.7743 115.238 72.3805 114.577C72.0948 114.119 71.8531 113.921 71.8751 113.899Z" fill="#353535"/>
<path d="M68.1327 111.309C68.1986 111.19 68.9584 111.721 69.8217 112.452L69.9662 112.571L69.8249 112.697L69.7181 112.791C68.8108 113.579 68.0291 114.163 67.9694 114.097C67.9098 114.031 68.5973 113.334 69.5015 112.543L69.6083 112.452V112.7C69.1781 112.33 68.8014 111.987 68.5345 111.736C68.3844 111.61 68.2495 111.467 68.1327 111.309Z" fill="#353535"/>
<path d="M19.8782 66.5285L7.36087 65.0749C7.00265 65.0351 6.65579 64.925 6.34016 64.751C6.02454 64.5769 5.74634 64.3423 5.5215 64.0606C5.29666 63.7789 5.12959 63.4556 5.02986 63.1093C4.93013 62.7629 4.89969 62.4003 4.9403 62.0421L8.56645 30.7473C8.60774 30.3894 8.71925 30.0432 8.89461 29.7285C9.06996 29.4138 9.30571 29.1368 9.58834 28.9134C9.87096 28.6899 10.1949 28.5245 10.5416 28.4265C10.8883 28.3286 11.2509 28.3 11.6086 28.3424L24.1259 29.796C24.848 29.8795 25.5074 30.2461 25.9594 30.8153C26.4115 31.3845 26.6192 32.1098 26.5371 32.832L22.9109 64.1268C22.8267 64.8472 22.46 65.5047 21.8914 65.955C21.3228 66.4054 20.5987 66.6116 19.8782 66.5285Z" fill="#353535"/>
<path d="M23.997 30.8744L21.5701 30.5918C21.4909 30.584 21.4109 30.592 21.3348 30.6153C21.2587 30.6386 21.1879 30.6768 21.1266 30.7275C21.0653 30.7783 21.0147 30.8408 20.9777 30.9112C20.9406 30.9817 20.9179 31.0588 20.9108 31.1381L20.8574 31.5776C20.8504 31.6569 20.8276 31.734 20.7906 31.8045C20.7536 31.8749 20.7029 31.9374 20.6416 31.9881C20.5803 32.0389 20.5096 32.0771 20.4335 32.1004C20.3574 32.1237 20.2774 32.1317 20.1981 32.1239L15.4669 31.5745C15.3098 31.5475 15.1689 31.4617 15.0727 31.3346C14.9765 31.2075 14.9322 31.0486 14.9489 30.8901L14.9991 30.4505C15.0101 30.3717 15.0055 30.2915 14.9854 30.2146C14.9653 30.1376 14.9301 30.0653 14.882 30.002C14.8338 29.9387 14.7736 29.8855 14.7048 29.8455C14.636 29.8056 14.5599 29.7797 14.4811 29.7692L13.6303 29.6688L11.5048 29.4239C11.2534 29.3946 10.9987 29.4153 10.7553 29.4848C10.512 29.5542 10.2847 29.6711 10.0866 29.8286C9.88855 29.9861 9.72354 30.1812 9.60109 30.4027C9.47863 30.6242 9.40114 30.8677 9.37306 31.1192L5.83482 61.6511C5.77918 62.1559 5.92562 62.6621 6.24212 63.0592C6.55862 63.4563 7.01945 63.712 7.52388 63.7703L20.0098 65.2271C20.5156 65.2863 21.0242 65.1424 21.4239 64.8269C21.8236 64.5113 22.0817 64.05 22.1415 63.5443L25.686 33.003C25.7149 32.7523 25.6941 32.4984 25.6249 32.2557C25.5556 32.0131 25.4392 31.7865 25.2824 31.5888C25.1255 31.3912 24.9313 31.2263 24.7107 31.1038C24.4902 30.9812 24.2476 30.9032 23.997 30.8744Z" fill="#FDF1F1"/>
<path d="M16.0979 34.1243L5.75 34.634L6.09352 41.6079L16.4414 41.0982L16.0979 34.1243Z" fill="#F9F9F9"/>
<path d="M16.098 34.1217C15.9881 34.2558 15.8684 34.3818 15.7401 34.4984L14.7198 35.4748C13.8533 36.2943 12.6508 37.4182 11.3071 38.6583L11.26 38.7054L11.2192 38.6552L11.1407 38.6018C9.64315 37.5218 8.29315 36.536 7.3199 35.8171L6.17083 34.9568C6.02623 34.8568 5.88975 34.7455 5.7627 34.624C5.91881 34.7046 6.06793 34.7981 6.20851 34.9034L7.38583 35.7229C8.37792 36.4167 9.73733 37.3868 11.238 38.47L11.3134 38.5233H11.2098C12.5503 37.2832 13.7685 36.1718 14.6632 35.3838L15.7181 34.4419C15.8364 34.3257 15.9634 34.2186 16.098 34.1217Z" fill="#F66262"/>
<path d="M12.8706 36.9681C13.5253 37.5984 14.1418 38.2673 14.7166 38.9712C15.3338 39.6418 15.9094 40.3495 16.4402 41.0903C15.7861 40.4561 15.1697 39.7842 14.5942 39.0779C13.9782 38.4095 13.4027 37.705 12.8706 36.9681Z" fill="#F66262"/>
<path d="M90.2189 84.3551C93.0444 84.3865 93.9141 80.4841 91.3177 79.3633L91.2549 79.3381C90.1972 78.905 89.0513 78.7309 87.9127 78.8303C86.7741 78.9297 85.6757 79.2997 84.709 79.9095C84.4108 78.6468 83.8187 77.4723 82.9808 76.4816C82.143 75.491 81.083 74.7121 79.8873 74.2085C78.6916 73.7049 77.3938 73.4907 76.0996 73.5834C74.8055 73.676 73.5515 74.073 72.4397 74.7419C71.928 69.4235 69.2311 64.2778 64.9049 61.1289C60.5786 57.9799 54.6826 56.9973 49.7001 58.9312C44.7177 60.8652 40.9095 65.7565 40.6614 71.0906C39.2601 70.9467 37.8441 71.0863 36.4978 71.5011C35.1516 71.9158 33.9026 72.5973 32.8252 73.5049C32.7561 73.5614 32.6902 73.6211 32.6211 73.687C28.8066 77.2786 31.4469 83.7335 36.7025 83.7774L90.2189 84.3551Z" fill="#EDEDED"/>
<path d="M53.2665 70.4835C53.1295 70.4944 52.9916 70.4828 52.8584 70.449C53.1289 70.4071 53.4042 70.4071 53.6747 70.449C53.5414 70.4828 53.4036 70.4944 53.2665 70.4835Z" fill="#F66262"/>
<path d="M94.2782 82.5023L94.3316 80.0127L89.6725 79.8777L89.5532 83.5195L89.8389 83.5447C91.123 83.6545 96.3754 84.0062 97.2451 83.7707C98.212 83.507 94.2782 82.5023 94.2782 82.5023Z" fill="#F66262"/>
<g opacity="0.4">
<path d="M96.1966 83.0593C96.1966 83.0593 97.5749 83.4989 97.3928 83.7218C97.2107 83.9447 91.8923 83.7908 89.5439 83.5177V83.4141L95.7476 83.6464C95.7476 83.6464 95.9266 83.0625 96.1966 83.0593Z" fill="white"/>
</g>
<path d="M89.4907 83.4077H89.5692L89.7984 83.4266L90.6461 83.4893C91.3587 83.5333 92.3477 83.5867 93.4403 83.6181C94.5328 83.6495 95.5218 83.6589 96.2407 83.6557C95.5249 83.6557 94.5359 83.6369 93.4434 83.6024C92.3508 83.5678 91.3619 83.527 90.6461 83.4893L89.8015 83.4454H89.5692L89.4907 83.4077Z" fill="#353535"/>
<path d="M95.7635 83.7204C95.807 83.5818 95.8648 83.4481 95.9362 83.3216C96.0273 83.2043 96.1328 83.0988 96.2501 83.0077C96.1031 83.0542 95.9795 83.1554 95.9048 83.2903C95.8059 83.4111 95.7555 83.5644 95.7635 83.7204Z" fill="#353535"/>
<path d="M94.4166 82.9818C94.4166 82.9818 94.4982 82.9128 94.5673 82.8092C94.6363 82.7056 94.6866 82.6114 94.674 82.602C94.6615 82.5925 94.5924 82.671 94.5202 82.7778C94.448 82.8845 94.3977 82.9756 94.4166 82.9818Z" fill="#353535"/>
<path d="M94.0398 82.7706C94.0398 82.7706 94.1246 82.7361 94.2062 82.667C94.2879 82.598 94.3475 82.532 94.3381 82.5195C94.3287 82.5069 94.2533 82.554 94.1686 82.6231C94.0838 82.6922 94.0273 82.7612 94.0398 82.7706Z" fill="#353535"/>
<path d="M93.814 82.3239C93.8907 82.3545 93.9733 82.3673 94.0557 82.3616C94.1377 82.3746 94.2216 82.3682 94.3006 82.3427C94.2236 82.313 94.1412 82.3002 94.0588 82.305C93.9769 82.292 93.893 82.2984 93.814 82.3239Z" fill="#353535"/>
<path d="M93.7383 82.0131C93.817 82.0696 93.9114 82.1003 94.0083 82.101C94.1033 82.1181 94.2011 82.1083 94.2908 82.0727C94.1999 82.0545 94.1073 82.045 94.0146 82.0445C93.9237 82.0252 93.8312 82.0147 93.7383 82.0131Z" fill="#353535"/>
<path d="M94.5796 82.5794C94.6833 82.5991 94.7898 82.5991 94.8935 82.5794C94.9998 82.5678 95.1049 82.5468 95.2075 82.5166C95.2716 82.5004 95.3337 82.4773 95.3927 82.4476C95.4279 82.4272 95.4547 82.3949 95.4681 82.3565C95.473 82.3343 95.4718 82.3112 95.4646 82.2897C95.4574 82.2681 95.4445 82.2489 95.4273 82.2341C95.3145 82.1746 95.1846 82.1561 95.0597 82.1819C94.9348 82.2077 94.8228 82.2761 94.7429 82.3754C94.6938 82.4326 94.6584 82.5003 94.6392 82.5732C94.633 82.6 94.633 82.6279 94.6392 82.6548C94.6698 82.5628 94.7178 82.4775 94.7805 82.4036C94.8511 82.3274 94.9412 82.2721 95.0411 82.2435C95.1603 82.2076 95.2889 82.22 95.399 82.278C95.4461 82.3157 95.4241 82.3691 95.3708 82.4005C95.317 82.4289 95.2601 82.451 95.2012 82.4664C95.0989 82.4998 94.9939 82.524 94.8873 82.5386C94.6926 82.5732 94.5796 82.57 94.5796 82.5794Z" fill="#353535"/>
<path d="M94.6583 82.6077C94.6955 82.5454 94.7099 82.4722 94.6992 82.4005C94.6908 82.3215 94.6651 82.2454 94.6238 82.1776C94.5991 82.133 94.5638 82.0951 94.5212 82.0672C94.4785 82.0394 94.4297 82.0223 94.3789 82.0175C94.3481 82.0236 94.3207 82.0413 94.3026 82.067C94.2845 82.0928 94.277 82.1245 94.2816 82.1556C94.2867 82.2036 94.3028 82.2498 94.3287 82.2906C94.3657 82.3578 94.4111 82.42 94.4637 82.4758C94.5085 82.5315 94.5669 82.5748 94.6332 82.6014C94.6332 82.6014 94.5736 82.5449 94.4951 82.4476C94.4475 82.3917 94.4064 82.3306 94.3726 82.2655C94.335 82.1996 94.3099 82.0865 94.3726 82.074C94.4354 82.0614 94.5234 82.1462 94.5673 82.209C94.607 82.2676 94.6337 82.3339 94.6458 82.4036C94.6539 82.4713 94.6581 82.5395 94.6583 82.6077Z" fill="#353535"/>
<path d="M89.6226 82.1353C89.6226 82.1353 89.7544 82.1353 89.9648 82.1573C90.239 82.194 90.4971 82.3083 90.7085 82.4869C90.9199 82.6655 91.0758 82.9008 91.1578 83.1651C91.1896 83.2757 91.2158 83.3878 91.2363 83.501C91.2416 83.4698 91.2416 83.438 91.2363 83.4068C91.2301 83.3208 91.2154 83.2356 91.1923 83.1525C91.1161 82.877 90.9585 82.6308 90.7402 82.4461C90.5211 82.2622 90.2523 82.1474 89.9679 82.1165C89.8823 82.1085 89.7961 82.1085 89.7105 82.1165C89.6803 82.1174 89.6505 82.1238 89.6226 82.1353Z" fill="#353535"/>
<path d="M90.1626 80.2089C90.1206 80.5264 90.0975 80.8462 90.0935 81.1664C90.0756 81.4801 90.0756 81.7946 90.0935 82.1083C90.1353 81.796 90.1584 81.4815 90.1626 81.1664C90.181 80.8475 90.181 80.5278 90.1626 80.2089Z" fill="#353535"/>
<path d="M91.8423 83.0913C92.0633 83.1514 92.2914 83.181 92.5204 83.1792C92.7491 83.1982 92.9793 83.1865 93.2048 83.1447C93.2048 83.1447 92.8909 83.1447 92.5236 83.1227C92.1562 83.1007 91.8454 83.0756 91.8423 83.0913Z" fill="#353535"/>
<path d="M90.9287 83.063C90.9287 83.063 90.9538 83.129 90.9821 83.2012C91.0103 83.2734 91.026 83.333 91.0417 83.333C91.0574 83.333 91.0668 83.2608 91.0417 83.1792C91.0166 83.0976 90.9413 83.0536 90.9287 83.063Z" fill="#353535"/>
<path d="M90.5991 82.627C90.5991 82.627 90.6148 82.6867 90.6619 82.7369C90.709 82.7871 90.7561 82.8185 90.7687 82.8091C90.7812 82.7997 90.7498 82.7495 90.7027 82.6961C90.6556 82.6427 90.6085 82.6082 90.5991 82.627Z" fill="#353535"/>
<path d="M90.1122 82.416C90.1122 82.4317 90.175 82.4317 90.2441 82.4568C90.3131 82.4819 90.3602 82.5227 90.3728 82.5133C90.3853 82.5039 90.3477 82.4348 90.2629 82.4066C90.1781 82.3783 90.1059 82.4003 90.1122 82.416Z" fill="#353535"/>
<path d="M89.7637 82.3114C89.7637 82.3271 89.7825 82.3491 89.8202 82.3679C89.8579 82.3868 89.8955 82.3836 89.9018 82.3679C89.9081 82.3523 89.8798 82.3271 89.8422 82.3114C89.8045 82.2957 89.77 82.2926 89.7637 82.3114Z" fill="#353535"/>
<path opacity="0.3" d="M89.6318 82.0115L94.2908 82.0711L94.3002 81.5092L89.6035 81.7164L89.6318 82.0115Z" fill="#353535"/>
<path d="M89.3431 82.451L89.3997 79.9645L84.7375 79.8295L84.6182 83.4682L84.907 83.4964C86.1911 83.6032 91.4435 83.9548 92.31 83.7193C93.277 83.4556 89.3431 82.451 89.3431 82.451Z" fill="#F66262"/>
<g opacity="0.4">
<path d="M91.2767 83.014C91.2767 83.014 92.6518 83.4536 92.4728 83.6765C92.2939 83.8994 86.9724 83.7455 84.624 83.4693V83.3657L90.8309 83.6011C90.8309 83.6011 90.991 83.0172 91.2767 83.014Z" fill="white"/>
</g>
<path d="M84.5552 83.3605H84.6368L84.866 83.3825L85.7105 83.4421C86.4263 83.4892 87.4153 83.5394 88.5078 83.574C89.6004 83.6085 90.5893 83.6148 91.3052 83.6116H92.1528H92.3852C92.4111 83.6166 92.4377 83.6166 92.4636 83.6116H92.3852H92.1528H91.3052C90.5893 83.6116 89.6004 83.5897 88.5078 83.5583C87.4153 83.5269 86.4295 83.4798 85.7137 83.4452L84.866 83.4013H84.6368L84.5552 83.3605Z" fill="#353535"/>
<path d="M90.8312 83.672C90.8727 83.5332 90.9296 83.3995 91.0008 83.2733C91.0887 83.1583 91.1887 83.0531 91.299 82.9594C91.1534 83.0101 91.0308 83.1115 90.9537 83.245C90.8622 83.3677 90.8187 83.5195 90.8312 83.672Z" fill="#353535"/>
<path d="M89.4752 82.9223C89.4909 82.9223 89.5568 82.8532 89.629 82.7465C89.7012 82.6397 89.7483 82.5518 89.7357 82.5424C89.7232 82.533 89.6541 82.6115 89.5819 82.7151C89.5097 82.8187 89.4626 82.9223 89.4752 82.9223Z" fill="#353535"/>
<path d="M89.1045 82.7255C89.1045 82.7255 89.1893 82.6909 89.2709 82.6219C89.3525 82.5528 89.4122 82.4837 89.4028 82.4712C89.3933 82.4586 89.318 82.5088 89.2364 82.5779C89.1547 82.647 89.0951 82.7129 89.1045 82.7255Z" fill="#353535"/>
<path d="M88.8784 82.2943C88.9554 82.324 89.0378 82.3369 89.1202 82.332C89.2022 82.3432 89.2857 82.3367 89.3651 82.3132C89.2888 82.2808 89.2058 82.2678 89.1233 82.2755C89.0413 82.2624 88.9574 82.2689 88.8784 82.2943Z" fill="#353535"/>
<path d="M88.8062 81.9801C88.8852 82.0359 88.9793 82.0666 89.0761 82.068C89.1703 82.0871 89.268 82.0761 89.3556 82.0366C89.2654 82.0203 89.174 82.0119 89.0824 82.0115C88.9915 81.9923 88.899 81.9818 88.8062 81.9801Z" fill="#353535"/>
<path d="M89.6475 82.5326C89.746 82.5513 89.8472 82.5513 89.9457 82.5326C90.0522 82.5238 90.1574 82.5038 90.2597 82.473C90.3242 82.4566 90.3864 82.4324 90.4449 82.4007C90.4809 82.382 90.5088 82.3507 90.5234 82.3128C90.5287 82.2904 90.5274 82.2668 90.5196 82.2451C90.5118 82.2234 90.4978 82.2044 90.4794 82.1904C90.3665 82.1315 90.2368 82.1134 90.1121 82.1391C89.9873 82.1648 89.8753 82.2329 89.795 82.3317C89.7479 82.3902 89.7127 82.4574 89.6914 82.5295C89.6852 82.5553 89.6852 82.5822 89.6914 82.608C89.7272 82.5177 89.7759 82.4331 89.8358 82.3568C89.9053 82.2799 89.9959 82.2252 90.0964 82.1998C90.1553 82.1813 90.2174 82.1749 90.2789 82.1808C90.3404 82.1867 90.4 82.2049 90.4543 82.2343C90.4983 82.2689 90.4794 82.3254 90.4261 82.3568C90.3706 82.3839 90.3128 82.406 90.2534 82.4227C90.1503 82.4532 90.0455 82.4773 89.9394 82.4949C89.7605 82.5263 89.6475 82.5232 89.6475 82.5326Z" fill="#353535"/>
<path d="M89.7228 82.548C89.7228 82.548 89.773 82.479 89.7636 82.344C89.7562 82.2648 89.7304 82.1884 89.6882 82.1211C89.6635 82.0765 89.6282 82.0386 89.5856 82.0107C89.5429 81.9828 89.4941 81.9657 89.4433 81.9609C89.4127 81.9663 89.3854 81.9834 89.3673 82.0087C89.3491 82.0339 89.3415 82.0652 89.346 82.0959C89.353 82.1435 89.369 82.1893 89.3931 82.2309C89.4304 82.2988 89.4768 82.3611 89.5312 82.4162C89.5759 82.4715 89.6329 82.5156 89.6976 82.5449C89.6976 82.5449 89.6411 82.4884 89.5595 82.3911C89.514 82.3343 89.4741 82.2733 89.4402 82.209C89.4025 82.143 89.3774 82.03 89.4402 82.0174C89.503 82.0049 89.5878 82.0897 89.6317 82.1493C89.6723 82.2089 89.7001 82.2762 89.7133 82.3471C89.7236 82.4136 89.7268 82.4809 89.7228 82.548Z" fill="#353535"/>
<path d="M84.6841 82.0876C84.6841 82.0876 84.8191 82.0876 85.0294 82.1096C85.3033 82.1487 85.5605 82.2644 85.7716 82.4432C85.9826 82.622 86.1389 82.8568 86.2224 83.1205C86.2852 83.3215 86.2884 83.4565 86.3009 83.4565C86.306 83.4253 86.306 83.3935 86.3009 83.3623C86.2952 83.2762 86.2805 83.191 86.257 83.108C86.1788 82.8324 86.0217 82.5857 85.8049 82.3985C85.5842 82.2197 85.3154 82.1104 85.0326 82.0845C84.947 82.0752 84.8607 82.0752 84.7751 82.0845L84.6841 82.0876Z" fill="#353535"/>
<path d="M85.2273 80.1616C85.1871 80.4793 85.1651 80.799 85.1613 81.1192C85.1409 81.438 85.1409 81.7579 85.1613 82.0767C85.2016 81.759 85.2247 81.4394 85.2304 81.1192C85.2489 80.8002 85.2479 80.4804 85.2273 80.1616Z" fill="#353535"/>
<path d="M86.9097 83.0436C87.1313 83.1005 87.359 83.13 87.5878 83.1315C87.8165 83.1485 88.0464 83.1369 88.2722 83.097C88.2722 83.0781 87.9583 83.097 87.5909 83.075C87.2236 83.053 86.9128 83.0279 86.9097 83.0436Z" fill="#353535"/>
<path d="M85.9966 83.0171C85.9966 83.0171 86.0186 83.0831 86.0468 83.1521C86.0751 83.2212 86.0939 83.2871 86.1096 83.284C86.1253 83.2809 86.1347 83.2118 86.1096 83.1302C86.0845 83.0485 86.006 83.0046 85.9966 83.0171Z" fill="#353535"/>
<path d="M85.6636 82.5777C85.6636 82.5777 85.6824 82.6374 85.7295 82.6876C85.7766 82.7378 85.8237 82.7724 85.8331 82.7598C85.8425 82.7473 85.8174 82.7002 85.7703 82.6499C85.7232 82.5997 85.6761 82.5683 85.6636 82.5777Z" fill="#353535"/>
<path d="M85.1769 82.3675C85.1769 82.3675 85.2428 82.3863 85.3087 82.4114C85.3746 82.4365 85.4249 82.4742 85.4374 82.4648C85.45 82.4554 85.4123 82.3894 85.3307 82.3581C85.2491 82.3267 85.1737 82.3549 85.1769 82.3675Z" fill="#353535"/>
<path d="M84.8286 82.2654C84.8286 82.2654 84.8506 82.3031 84.8883 82.3188C84.9259 82.3345 84.9605 82.3376 84.9668 82.3188C84.973 82.3 84.9479 82.2811 84.9102 82.2654C84.8726 82.2497 84.8349 82.2497 84.8286 82.2654Z" fill="#353535"/>
<path opacity="0.3" d="M84.6998 81.9647L89.3558 82.0212L89.3652 81.4624L84.6685 81.6665L84.6998 81.9647Z" fill="#353535"/>
<path d="M65.8467 73.1887L92.2187 57.7014C92.7896 57.3663 93.425 57.1561 94.0831 57.0847C94.7412 57.0133 95.4069 57.0822 96.0364 57.287C96.8694 57.5443 97.6291 57.9967 98.2521 58.6067C98.8751 59.2166 99.3436 59.9664 99.6186 60.7939C100.001 61.9746 100.015 63.2441 99.6562 64.4326L95.1761 81.7502L87.1829 81.9323L91.5782 67.3084L78.499 76.2183C77.4977 76.942 76.3519 77.4408 75.14 77.6807C73.9282 77.9206 72.6787 77.8958 71.4773 77.6081C70.2759 77.3204 69.1508 76.7766 68.1789 76.0138C67.2071 75.2511 66.4116 74.2874 65.8467 73.1887Z" fill="#353535"/>
<path d="M61.5518 72.9887L87.9081 57.514C88.4789 57.1787 89.1145 56.9686 89.7727 56.8977C90.4309 56.8268 91.0966 56.8967 91.7257 57.1027C92.5587 57.3593 93.3184 57.811 93.9414 58.4205C94.5645 59.0299 95.033 59.7794 95.3079 60.6064C95.6908 61.7872 95.7039 63.0567 95.3456 64.2452L90.8278 81.7041L82.8754 81.748L87.2708 67.121L74.2072 76.0309C73.2053 76.7547 72.0588 77.2532 70.8462 77.4925C69.6337 77.7317 68.3837 77.706 67.182 77.4171C65.9803 77.1281 64.8553 76.5828 63.884 75.8185C62.9128 75.0541 62.1182 74.0888 61.5549 72.9887H61.5518Z" fill="#717171"/>
<path d="M75.19 57.2296C75.19 57.2296 75.8618 64.4097 75.19 65.0973L73.6045 65.9135L70.0537 63.5087L75.19 57.2296Z" fill="#F66262"/>
<path opacity="0.4" d="M75.19 57.2296C75.19 57.2296 75.8618 64.4097 75.19 65.0973L73.6045 65.9135L70.0537 63.5087L75.19 57.2296Z" fill="#353535"/>
<path d="M63.4858 48.1123C64.4905 47.9616 55.838 47.0982 55.546 54.3254C55.254 61.5526 61.5519 73.1908 61.5519 73.1908L73.6045 65.9071C73.6045 65.9071 70.713 63.8758 70.2421 62.5164C69.8057 61.2041 70.6188 48.9128 63.4858 48.1123Z" fill="#F66262"/>
<path d="M57.8663 49.5355C57.499 49.6266 54.7268 52.1162 54.7048 57.0861C54.6765 61.0356 54.9811 69.8043 57.6779 71.1072C58.8992 71.6974 60.3748 71.4902 61.9854 70.4479C66.522 67.5156 74.939 58.2634 74.939 58.2634L71.3411 54.4332C71.3411 54.4332 62.001 63.9334 61.6086 63.5849C61.009 63.0606 61.1 58.1253 60.5914 53.6389C60.2209 50.4523 60.1487 48.9673 57.8663 49.5355Z" fill="#F66262"/>
<path d="M71.2091 62.2001C71.2091 62.2001 71.2091 62.2252 71.1651 62.266L71.0238 62.4418C70.8983 62.5988 70.7099 62.8249 70.4587 63.1106C69.9596 63.6851 69.2218 64.5014 68.2611 65.4621C67.1356 66.5876 65.9424 67.6434 64.6883 68.6236C63.9462 69.2032 63.1716 69.7399 62.3682 70.231C61.5119 70.7823 60.5758 71.1985 59.5928 71.4648C59.335 71.5266 59.0696 71.5509 58.8048 71.537C58.6702 71.5316 58.5371 71.5073 58.4092 71.4648C58.2856 71.4218 58.1658 71.3682 58.0513 71.3047C57.6042 71.0619 57.212 70.7295 56.8991 70.3283C56.3293 69.5666 55.9144 68.7005 55.6778 67.779C55.4545 66.955 55.2929 66.1155 55.1944 65.2674C55.0876 64.4763 54.9997 63.7385 54.9306 63.0697C54.7894 61.7166 54.7297 60.6178 54.7109 59.858C54.7109 59.4781 54.7109 59.183 54.7109 58.9852C54.7109 58.8942 54.7109 58.8188 54.7109 58.756C54.702 58.7537 54.6943 58.7483 54.6891 58.7407C54.684 58.7331 54.6818 58.7239 54.6829 58.7148C54.6841 58.7057 54.6885 58.6974 54.6954 58.6913C54.7023 58.6852 54.7111 58.6819 54.7203 58.6819C54.7295 58.6819 54.7383 58.6852 54.7452 58.6913C54.7521 58.6974 54.7565 58.7057 54.7577 58.7148C54.7588 58.7239 54.7566 58.7331 54.7515 58.7407C54.7463 58.7483 54.7386 58.7537 54.7297 58.756V58.9852C54.7297 59.1956 54.7517 59.4875 54.7705 59.858C54.8082 60.6146 54.8835 61.7103 55.0374 63.0572C55.1159 63.729 55.2101 64.4668 55.3231 65.2549C55.4269 66.0945 55.5917 66.9256 55.816 67.7414C56.0508 68.642 56.4581 69.4886 57.0153 70.2341C57.6055 70.9625 58.5317 71.6344 59.552 71.311C60.5171 71.0477 61.4369 70.6402 62.2803 70.1023C63.0788 69.6156 63.8493 69.0842 64.5878 68.5105C65.843 67.5347 67.0401 66.4864 68.1732 65.371C69.1433 64.4292 69.8936 63.6223 70.4054 63.0603L70.9925 62.4136L71.1463 62.2472L71.2091 62.2001Z" fill="#353535"/>
<path d="M71.3409 54.4317C71.2896 54.5029 71.2329 54.5701 71.1713 54.6326C71.0552 54.7614 70.8888 54.9466 70.6627 55.1915C70.2138 55.6718 69.5513 56.3562 68.7131 57.1913C67.8748 58.0265 66.8608 59.0123 65.7148 60.0954L63.9033 61.7908C63.2597 62.3716 62.6161 62.9806 61.8878 63.5677L61.7685 63.665V63.5049C61.7465 63.1564 61.7245 62.786 61.7025 62.4092C61.5926 60.447 61.4828 58.5759 61.3886 56.8743C61.3321 56.0234 61.3227 55.2134 61.2379 54.4662C61.1751 53.7716 60.9902 53.0935 60.6916 52.4632C60.4446 51.9454 60.0696 51.4992 59.6022 51.1666C59.2436 50.9241 58.8304 50.7741 58.3997 50.7302C58.1268 50.7007 57.8507 50.7242 57.5866 50.7993C57.4045 50.8495 57.3166 50.8966 57.3135 50.8872C57.3953 50.8352 57.4841 50.795 57.5772 50.7679C57.8429 50.6792 58.1235 50.644 58.4029 50.6643C58.8507 50.6988 59.2826 50.8456 59.6587 51.0912C60.147 51.4249 60.5407 51.8791 60.8015 52.4098C61.1144 53.0501 61.31 53.7413 61.3792 54.4505C61.4702 55.2072 61.4859 56.0203 61.5456 56.868C61.6492 58.5696 61.759 60.4376 61.8595 62.403C61.8815 62.7766 61.9035 63.1502 61.9254 63.4987L61.7967 63.4359C62.5 62.8676 63.1593 62.2491 63.7997 61.6746L65.6175 59.9887C66.7697 58.9118 67.7901 57.9354 68.6377 57.1129C69.4854 56.2903 70.1604 55.6153 70.6219 55.1475L71.1525 54.6107C71.2095 54.5452 71.2725 54.4852 71.3409 54.4317Z" fill="#353535"/>
<path d="M73.5512 59.757C73.3406 59.6045 73.1479 59.4286 72.9767 59.2327C72.6376 58.8937 72.1793 58.4196 71.6769 57.889C71.1746 57.3584 70.7351 56.8687 70.4211 56.5108C70.2387 56.3299 70.0737 56.1323 69.9282 55.9205C70.138 56.0741 70.3306 56.2499 70.5028 56.4448C70.8387 56.7808 71.3002 57.258 71.7994 57.7886C72.2986 58.3191 72.7412 58.8058 73.0552 59.1668C73.2404 59.346 73.4066 59.5438 73.5512 59.757Z" fill="#353535"/>
<path d="M60.9834 65.734C61.0197 65.3224 61.1258 64.92 61.2974 64.5441C61.415 64.1499 61.6021 63.7799 61.8499 63.4515C61.7507 63.8464 61.6173 64.232 61.4512 64.6037C61.3301 64.994 61.1736 65.3723 60.9834 65.734Z" fill="#353535"/>
<path d="M60.1768 65.0989C60.7023 64.4721 61.3107 63.9197 61.9851 63.4569C61.7407 63.7845 61.4559 64.0798 61.1375 64.336C60.8523 64.6316 60.5293 64.8881 60.1768 65.0989Z" fill="#353535"/>
<path d="M71.1465 55.5369C71.1622 55.5557 71.0931 55.6248 71.1088 55.7473C71.1115 55.7784 71.1221 55.8083 71.1397 55.8342C71.1573 55.86 71.1813 55.8809 71.2093 55.8948C71.241 55.9139 71.2774 55.924 71.3144 55.924C71.3515 55.924 71.3879 55.9139 71.4196 55.8948C71.4468 55.8698 71.4669 55.838 71.478 55.8028C71.489 55.7675 71.4905 55.7299 71.4824 55.6939C71.4755 55.663 71.4605 55.6346 71.439 55.6114C71.4175 55.5883 71.3902 55.5712 71.36 55.562C71.2469 55.5181 71.1622 55.562 71.1496 55.5463C71.1371 55.5306 71.2061 55.4239 71.3882 55.449C71.442 55.4588 71.4924 55.4825 71.5342 55.5177C71.5761 55.553 71.608 55.5985 71.6268 55.6499C71.6486 55.7157 71.65 55.7865 71.631 55.8532C71.6119 55.9198 71.5733 55.9792 71.5201 56.0235C71.4648 56.0648 71.3983 56.0883 71.3294 56.0911C71.2605 56.0939 71.1924 56.0758 71.1339 56.0392C71.088 56.0091 71.0507 55.9674 71.026 55.9184C71.0012 55.8694 70.9897 55.8147 70.9926 55.7598C71.0146 55.562 71.1402 55.5181 71.1465 55.5369Z" fill="#353535"/>
<g opacity="0.4">
<path d="M60.8709 71.1864C62.9932 70.7371 64.9703 69.7666 66.6239 68.3624C68.2775 66.9582 69.5556 65.1644 70.3428 63.1429C67.4827 66.1349 64.5441 69.1865 60.8521 71.0577" fill="#353535"/>
</g>
<g opacity="0.4">
<path d="M61.2691 53.7631C61.7777 55.8958 62.2874 58.0265 62.7981 60.1551C62.9878 60.7638 63.053 61.4045 62.9896 62.0389C62.953 62.3552 62.8243 62.6539 62.6194 62.8978C62.4146 63.1417 62.1427 63.3201 61.8374 63.4108L61.2095 53.8259" fill="#353535"/>
</g>
<path d="M57.37 42.3398C56.9512 42.1194 56.4815 42.014 56.0088 42.0342C55.536 42.0544 55.077 42.1994 54.6785 42.4547C54.2801 42.7099 53.9563 43.0661 53.7403 43.4871C53.5243 43.9081 53.4237 44.3789 53.4487 44.8514C53.4864 45.5578 53.794 46.3081 53.4801 46.9455C53.0751 47.768 51.7722 48.0569 51.7376 48.9736C51.7157 49.6015 52.3436 50.0787 52.3875 50.6972C52.4252 51.2215 52.0453 51.6673 51.8036 52.132C51.5045 52.7756 51.4324 53.5015 51.5988 54.1914C51.7653 54.8813 52.1606 55.4944 52.7203 55.9308C53.3018 56.3395 53.9953 56.5588 54.7061 56.5588C55.4168 56.5588 56.1103 56.3395 56.6918 55.9308C57.2604 55.4998 57.698 54.9193 57.9558 54.254C58.2136 53.5888 58.2814 52.8649 58.1517 52.1634C58.0073 51.3848 57.6305 50.6281 57.7341 49.8433C57.8401 49.4419 57.9187 49.0339 57.9696 48.622C57.9696 47.4164 56.4783 46.6974 56.2554 45.5107C56.2233 45.2636 56.2468 45.0124 56.3242 44.7755C56.4015 44.5386 56.5308 44.322 56.7027 44.1415C56.8745 43.9609 57.0844 43.821 57.3172 43.732C57.55 43.643 57.7997 43.6071 58.0481 43.627" fill="#353535"/>
<path d="M65.0118 48.6119C65.0495 47.67 65.0997 46.8381 65.0997 46.8381C65.0997 46.8381 67.1812 46.5743 67.2722 44.4489C67.3633 42.3234 67.1498 37.432 67.1498 37.432L63.3353 35.5923L59.6997 38.9704L59.841 48.6684C59.8863 49.3444 60.1946 49.9758 60.6999 50.4271C61.2053 50.8784 61.8673 51.1138 62.5441 51.0827C63.1895 51.0528 63.8004 50.7828 64.2569 50.3257C64.7135 49.8686 64.9827 49.2573 65.0118 48.6119Z" fill="#B79999"/>
<path d="M63.649 40.867C63.649 40.9196 63.6334 40.9711 63.6042 41.0149C63.575 41.0587 63.5335 41.0929 63.4849 41.1132C63.4364 41.1335 63.3829 41.1389 63.3312 41.1289C63.2795 41.1189 63.2319 41.0937 63.1945 41.0567C63.1571 41.0197 63.1314 40.9725 63.1208 40.9209C63.1101 40.8694 63.1149 40.8158 63.1347 40.767C63.1544 40.7182 63.1881 40.6763 63.2316 40.6466C63.275 40.6169 63.3263 40.6007 63.379 40.6001C63.45 40.6001 63.5182 40.6281 63.5688 40.6781C63.6193 40.728 63.6481 40.7959 63.649 40.867Z" fill="#353535"/>
<path d="M63.8879 40.7584C63.8565 40.7961 63.6556 40.6297 63.373 40.6171C63.0905 40.6046 62.8738 40.7521 62.8456 40.7113C62.8173 40.6705 62.8644 40.6297 62.9555 40.5638C63.0786 40.4757 63.2282 40.4325 63.3793 40.4413C63.5305 40.4468 63.6754 40.5033 63.7906 40.6014C63.8753 40.6768 63.9067 40.7427 63.8879 40.7584Z" fill="#353535"/>
<path d="M64.9612 43.2119C65.1118 43.1657 65.2683 43.1413 65.4258 43.1397C65.498 43.1397 65.5671 43.1209 65.5796 43.0706C65.5881 42.9895 65.5729 42.9077 65.5357 42.8352L65.3285 42.2324C65.1349 41.7219 64.9817 41.197 64.8701 40.6626C65.0987 41.1586 65.2907 41.6707 65.4447 42.1947L65.6424 42.8006C65.6877 42.8988 65.6988 43.0094 65.6738 43.1146C65.665 43.1415 65.6494 43.1658 65.6285 43.185C65.6076 43.2043 65.5821 43.2178 65.5545 43.2245C65.5136 43.2353 65.4713 43.2406 65.429 43.2402C65.2725 43.2502 65.1153 43.2408 64.9612 43.2119Z" fill="#353535"/>
<path d="M65.0993 46.8341C64.1119 46.8084 63.1536 46.494 62.3428 45.9299C62.3428 45.9299 62.9927 47.4809 65.0647 47.3553L65.0993 46.8341Z" fill="#B79999"/>
<path d="M56.9588 41.0077C56.9588 42.8475 56.425 45.2617 59.7843 45.9336L60.0983 41.5383C60.0983 41.5383 63.0965 40.6718 63.489 36.9546L63.5078 36.9734C63.7182 37.4537 64.0886 38.4866 63.8626 39.328L66.9016 40.0784L67.2533 40.3923C67.5501 39.6229 67.6128 38.7829 67.4335 37.9779C67.2542 37.173 66.8408 36.439 66.2455 35.8683C64.1577 33.7146 62.3744 35.2749 61.2536 35.1399C60.5724 35.0583 58.4909 34.9986 57.3386 38.4144C57.146 38.9974 57.032 39.6034 56.9996 40.2165L56.9588 41.0077Z" fill="#353535"/>
<path d="M60.1045 41.5489C59.7183 41.1251 59.1155 41.4892 58.8895 41.7341C58.7105 41.9288 58.5996 42.1763 58.5734 42.4394C58.5472 42.7025 58.6071 42.967 58.744 43.1932C58.881 43.4194 59.0877 43.595 59.333 43.6936C59.5783 43.7923 59.849 43.8087 60.1045 43.7403" fill="#B79999"/>
<path d="M59.7184 43.1003C59.7184 43.1223 59.6242 43.1443 59.4704 43.1003C59.3668 43.0762 59.2708 43.0269 59.1909 42.9568C59.1109 42.8867 59.0495 42.798 59.012 42.6985C58.9697 42.5807 58.9753 42.4511 59.0277 42.3374C59.0681 42.2493 59.1336 42.175 59.2161 42.1239C59.3542 42.036 59.4578 42.0486 59.4609 42.0674C59.4641 42.0863 59.3825 42.1239 59.2883 42.215C59.2279 42.2667 59.1841 42.3351 59.1623 42.4116C59.1405 42.4881 59.1418 42.5693 59.1658 42.6451C59.1974 42.7228 59.2442 42.7934 59.3035 42.8527C59.3629 42.912 59.4335 42.9589 59.5112 42.9904C59.6336 43.047 59.7215 43.0783 59.7184 43.1003Z" fill="#B79999"/>
<path d="M59.4421 43.5239C59.3839 43.5352 59.3319 43.5678 59.2964 43.6154C59.261 43.6629 59.2444 43.722 59.2501 43.781C59.2558 43.8401 59.2833 43.8949 59.3272 43.9348C59.3711 43.9747 59.4283 43.9968 59.4876 43.9968C59.547 43.9968 59.6041 43.9747 59.6481 43.9348C59.692 43.8949 59.7194 43.8401 59.7251 43.781C59.7308 43.722 59.7143 43.6629 59.6788 43.6154C59.6433 43.5678 59.5914 43.5352 59.5332 43.5239" fill="#F66262"/>
<path d="M57.2254 44.0493C57.0454 43.7657 56.9376 43.4423 56.9114 43.1074C56.8398 42.7791 56.8516 42.438 56.946 42.1154C57.013 42.4351 57.056 42.7593 57.0747 43.0855C57.1514 43.402 57.2018 43.7244 57.2254 44.0493Z" fill="#F66262"/>
<path d="M71.7681 54.9694L77.4475 48.1095L77.9278 48.5679L72.3144 55.4811L71.7681 54.9694Z" fill="#353535"/>
<path d="M72.2233 54.62C72.2233 54.62 73.115 52.0801 73.3159 51.5401C73.5168 51.0001 73.859 50.0551 73.9972 50.0331C74.1353 50.0111 74.6251 50.0771 74.0254 51.6908C73.4258 53.3045 74.8229 52.2904 74.8229 52.2904L76.0567 50.8776C76.0567 50.8776 77.2937 54.1742 76.6846 55.1757C76.0505 56.1399 75.3541 57.0617 74.6 57.9353L71.8843 55.025L72.2233 54.62Z" fill="#B79999"/>
<path d="M64.5626 43.4688C64.4761 43.4757 64.3928 43.5043 64.3203 43.5521C64.2479 43.5998 64.1887 43.6651 64.1482 43.7419C64.1106 43.8198 64.0937 43.9061 64.0992 43.9925C64.1047 44.0788 64.1324 44.1623 64.1796 44.2348C64.2278 44.3069 64.294 44.3652 64.3716 44.4037C64.4493 44.4423 64.5357 44.4598 64.6223 44.4546C64.7251 44.4503 64.8225 44.4078 64.8954 44.3353C64.9487 44.2668 64.9849 44.1868 65.0013 44.1017C65.0177 44.0166 65.0137 43.9288 64.9896 43.8455C64.9738 43.7415 64.928 43.6444 64.8578 43.5661C64.8224 43.5285 64.7765 43.5024 64.7261 43.4912C64.6758 43.48 64.6232 43.4842 64.5752 43.5033" fill="#B79999"/>
<path d="M65.0995 44.0303C65.0995 44.0743 64.7855 44.1371 64.4339 43.955C64.0823 43.7729 63.9441 43.4715 63.985 43.4527C64.0258 43.4338 64.2016 43.6567 64.5093 43.8106C64.8169 43.9644 65.0995 43.9927 65.0995 44.0303Z" fill="#353535"/>
<path d="M66.6694 40.8515C66.6706 40.8868 66.6648 40.922 66.6524 40.9551C66.6399 40.9882 66.621 41.0184 66.5968 41.0441C66.5726 41.0698 66.5435 41.0905 66.5112 41.1048C66.4789 41.1192 66.4441 41.127 66.4088 41.1278C66.3377 41.1278 66.2695 41.0998 66.219 41.0498C66.1684 40.9999 66.1396 40.932 66.1388 40.8609C66.1347 40.8237 66.1386 40.786 66.15 40.7503C66.1615 40.7146 66.1804 40.6818 66.2054 40.6539C66.2304 40.626 66.2611 40.6036 66.2953 40.5884C66.3295 40.5731 66.3666 40.5652 66.4041 40.5652C66.4415 40.5652 66.4786 40.5731 66.5128 40.5884C66.5471 40.6036 66.5777 40.626 66.6027 40.6539C66.6277 40.6818 66.6466 40.7146 66.6581 40.7503C66.6696 40.786 66.6734 40.8237 66.6694 40.8609V40.8515Z" fill="#353535"/>
<path d="M66.9269 40.7283C66.8923 40.7659 66.6945 40.5995 66.4089 40.587C66.1232 40.5744 65.9128 40.722 65.8814 40.6812C65.85 40.6404 65.9003 40.5995 65.9944 40.5336C66.1166 40.446 66.265 40.4028 66.4151 40.4112C66.5663 40.4167 66.7113 40.4731 66.8264 40.5713C66.9143 40.6466 66.9426 40.7126 66.9269 40.7283Z" fill="#353535"/>
<path d="M63.6774 39.8302C63.6774 39.8773 63.4074 39.8616 63.0997 39.9213C62.792 39.9809 62.5534 40.0908 62.5283 40.0531C62.5032 40.0155 62.723 39.8271 63.0683 39.7612C63.4137 39.6952 63.6868 39.7894 63.6774 39.8302Z" fill="#353535"/>
<path d="M80.3543 77.4041C78.8347 76.5082 77.0558 76.155 75.3092 76.4026C73.5626 76.6501 71.9519 77.4837 70.7411 78.7667C70.3067 78.0763 69.7263 77.4896 69.0406 77.0478C68.3549 76.6061 67.5807 76.32 66.7725 76.2099C65.9643 76.0997 65.1418 76.1681 64.3629 76.4103C63.584 76.6524 62.8677 77.0624 62.2644 77.6113C61.9504 75.2944 60.8547 73.0182 58.9679 71.6462C57.081 70.2743 54.3748 69.9383 52.3749 71.147L49.5493 78.2424L59.668 82.3457L73.0612 83.3253L80.3543 77.4041Z" fill="#EDEDED"/>
<path d="M52.3625 71.1354C52.3405 71.104 52.6262 70.8215 53.2824 70.5546C54.2353 70.1818 55.2712 70.0733 56.2806 70.2407C56.9897 70.3456 57.6775 70.5629 58.3182 70.8843C59.0608 71.2654 59.7303 71.7744 60.2961 72.3881C61.5876 73.8361 62.4078 75.6429 62.6476 77.5683L61.9789 77.3266C62.8095 76.5704 63.8349 76.0615 64.9394 75.8573C66.1583 75.6271 67.4188 75.7921 68.5373 76.3282C69.5718 76.8227 70.4432 77.6026 71.049 78.5761L70.4556 78.5165C71.4871 77.4536 72.7901 76.6935 74.223 76.3188C75.3366 76.0319 76.5 75.9954 77.6294 76.212C78.355 76.3476 79.0544 76.5977 79.7015 76.953C80.1473 77.201 80.3545 77.3862 80.3294 77.4176C80.3043 77.449 80.0594 77.3454 79.5947 77.1727C78.9358 76.9237 78.2498 76.753 77.5509 76.6641C76.4891 76.5339 75.4119 76.6237 74.3863 76.9279C73.0881 77.32 71.9163 78.0478 70.9893 79.0376L70.6754 79.3892L70.4085 78.978C69.8618 78.141 69.0904 77.4751 68.1826 77.0566C67.2149 76.6016 66.1281 76.4643 65.0776 76.6641C64.1233 76.8414 63.2354 77.2756 62.5094 77.9199L61.9381 78.4348L61.8407 77.6751C61.6339 75.9014 60.91 74.2276 59.7592 72.8622C59.264 72.2898 58.6734 71.8076 58.0136 71.4368C57.4394 71.1189 56.8201 70.8903 56.177 70.7587C55.2425 70.5581 54.2734 70.585 53.3515 70.8372C52.7267 71.0067 52.3939 71.1888 52.3625 71.1354Z" fill="#F66262"/>
<path d="M48.6178 29.8875C48.8205 30.0028 48.9902 30.1681 49.1107 30.3678C49.4804 30.899 49.6474 31.545 49.5817 32.1887C49.527 32.6645 49.3741 33.1237 49.1325 33.5371C48.8909 33.9506 48.5659 34.3093 48.1783 34.5905C47.7194 34.9342 47.1779 35.1508 46.6085 35.2184C45.9933 35.2828 45.3729 35.1602 44.8284 34.8667C44.2808 34.5805 43.8305 34.1379 43.5349 33.5952C43.2682 33.0866 43.1497 32.5134 43.1927 31.9407C43.2256 31.4275 43.3794 30.9294 43.6417 30.4871C43.8674 30.1031 44.1685 29.7688 44.527 29.5044C45.0375 29.1236 45.6356 28.8774 46.2663 28.7886C46.4931 28.742 46.7271 28.742 46.9539 28.7886C46.9539 28.8169 46.7121 28.8231 46.2914 28.9173C45.6996 29.0513 45.1458 29.3175 44.6714 29.6959C44.3465 29.9537 44.0764 30.274 43.8771 30.6378C43.6467 31.0476 43.5155 31.5056 43.4941 31.9752C43.4614 32.4896 43.5699 33.0031 43.8081 33.4602C44.0806 33.9416 44.4854 34.3346 44.9745 34.5928C45.4636 34.851 46.0166 34.9635 46.5677 34.917C47.0814 34.8561 47.571 34.6648 47.9899 34.3613C48.3522 34.1057 48.6588 33.7791 48.8909 33.4012C49.123 33.0234 49.2757 32.6023 49.3399 32.1636C49.4191 31.5653 49.2964 30.9577 48.9914 30.4369C48.7842 30.0695 48.5958 29.9094 48.6178 29.8875Z" fill="#F66262"/>
<path d="M45.6633 27.8445C45.7229 27.7346 46.3351 28.1427 47.0195 28.7204L47.164 28.8397L47.0195 28.9653L46.9348 29.0406C46.219 29.6685 45.5911 30.1112 45.5314 30.0453C45.4718 29.9793 46.0055 29.4174 46.7213 28.7895L46.8061 28.7172V28.9621C46.3814 28.6371 45.9977 28.2618 45.6633 27.8445Z" fill="#F66262"/>
<path d="M54.7868 39.0485C54.7868 39.0485 54.6989 39.0328 54.5106 38.9889L53.6597 38.7911C52.9125 38.6184 51.776 38.3641 50.3695 38.0156H50.4417C49.2987 38.7512 47.9737 39.1544 46.6147 39.1804C45.8097 39.187 45.0084 39.0716 44.238 38.8382C43.396 38.5738 42.6088 38.1589 41.9148 37.6138C41.141 37.0138 40.4932 36.2671 40.0084 35.4165C39.5235 34.5658 39.2112 33.6279 39.0892 32.6564C38.9611 31.6021 39.0552 30.5327 39.3655 29.5169C39.6971 28.4666 40.2555 27.502 41.0012 26.6913C42.0125 25.5851 43.3348 24.8105 44.7944 24.4693C46.2539 24.1281 47.7825 24.2362 49.1795 24.7795C50.5765 25.3228 51.7765 26.2759 52.622 27.5136C53.4676 28.7512 53.919 30.2157 53.9172 31.7146C53.9206 33.0695 53.5478 34.3987 52.8403 35.5542V35.4632C53.4839 36.6248 53.9706 37.5415 54.2939 38.1506C54.454 38.4457 54.5765 38.6749 54.6613 38.835C54.7039 38.9083 54.7427 38.9837 54.7774 39.0611C54.7774 39.0611 54.7178 38.97 54.6236 38.8099C54.5294 38.6498 54.385 38.4143 54.206 38.1161C53.845 37.5102 53.3238 36.6531 52.6865 35.5511L52.6614 35.5071L52.6865 35.4632C53.3122 34.406 53.6564 33.2062 53.6863 31.9781C53.7163 30.75 53.4309 29.5348 52.8575 28.4484C52.2841 27.3621 51.4417 26.4408 50.4109 25.7726C49.3801 25.1045 48.1952 24.7117 46.9694 24.6318C45.9039 24.5607 44.8361 24.73 43.8448 25.1272C42.8536 25.5245 41.9644 26.1395 41.2429 26.9268C40.576 27.6522 40.0661 28.5075 39.7452 29.4392C39.4244 30.3709 39.2996 31.3588 39.3786 32.3411C39.4576 33.3233 39.7387 34.2785 40.2043 35.147C40.6699 36.0154 41.31 36.7783 42.0843 37.3877C42.7489 37.9161 43.5028 38.3212 44.3102 38.5839C45.0525 38.8142 45.8249 38.9327 46.6021 38.9355C47.9214 38.9243 49.2124 38.5519 50.335 37.8586L50.3695 37.8367H50.4072C51.7635 38.1946 52.8372 38.5022 53.5938 38.7126L54.4635 38.9543C54.6707 39.0108 54.7806 39.0422 54.7868 39.0485Z" fill="#353535"/>
<path d="M40.3258 104.664C40.1643 104.641 40.0054 104.602 39.8518 104.548C39.6948 104.501 39.5033 104.45 39.2804 104.378L38.5143 104.108C36.8965 103.502 35.3362 102.751 33.8521 101.866C32.9103 101.311 31.9056 100.655 30.8633 99.9042C29.821 99.1539 28.7441 98.2905 27.6673 97.3235C26.5401 96.3135 25.465 95.2467 24.4461 94.1275C23.3594 92.9206 22.3376 91.6567 21.3851 90.3412C20.4409 89.0173 19.569 87.6433 18.773 86.2253C18.0417 84.9005 17.3804 83.5381 16.7919 82.1439C15.129 78.1835 14.1196 73.9795 13.8031 69.6957C13.778 69.0898 13.7592 68.6189 13.7466 68.2892C13.7342 68.1262 13.7342 67.9625 13.7466 67.7994C13.7844 67.9591 13.8065 68.1221 13.8125 68.2861C13.8376 68.6157 13.8785 69.0835 13.9287 69.6832C14.1065 71.3923 14.379 73.0903 14.745 74.7692C15.2916 77.2562 16.0705 79.6864 17.0714 82.0278C17.6676 83.4048 18.334 84.7502 19.0681 86.0589C20.6497 88.8753 22.5386 91.5077 24.7004 93.9077C25.749 95.0694 26.8227 96.1274 27.8839 97.0944C28.945 98.0613 30.0188 98.909 31.0391 99.6782C32.0595 100.447 33.0578 101.097 33.9871 101.659C35.4503 102.557 36.9843 103.334 38.574 103.982L39.3275 104.281L39.8863 104.479C40.0376 104.528 40.1846 104.59 40.3258 104.664Z" fill="#353535"/>
<path d="M37.6133 105.382C37.6133 105.294 38.9978 104.999 40.7528 104.723L40.6523 104.987L40.5958 104.918C39.4499 103.505 38.574 102.312 38.6462 102.255C38.7184 102.199 39.7011 103.298 40.8439 104.714L40.8972 104.779L41.0793 105.002L40.7968 105.043C39.048 105.319 37.6258 105.467 37.6133 105.382Z" fill="#353535"/>
<path d="M113.499 50.4072C113.499 50.4072 113.524 50.4512 113.555 50.5422C113.587 50.6333 113.628 50.7746 113.684 50.9472C113.741 51.1199 113.806 51.3491 113.879 51.6128C113.951 51.8765 114.02 52.1873 114.102 52.5327C114.535 54.4943 114.793 56.4905 114.874 58.4978C114.934 59.7724 114.927 61.1695 114.874 62.6671C114.821 64.1646 114.648 65.7595 114.39 67.4266C114.133 69.0937 113.785 70.8267 113.323 72.6037C112.834 74.4329 112.251 76.2353 111.574 78.0037C110.884 79.7669 110.1 81.4919 109.226 83.1713C108.783 83.975 108.363 84.7725 107.895 85.5228C107.427 86.2732 106.969 87.0015 106.504 87.7048C104.834 90.186 102.926 92.4992 100.809 94.6118C99.3824 96.0295 97.8672 97.355 96.2722 98.5801L94.9411 99.522L94.5894 99.7637C94.5078 99.8171 94.467 99.8422 94.4639 99.8359C94.4945 99.7976 94.5305 99.7638 94.5706 99.7355L94.9003 99.4686L96.1937 98.4671C97.7518 97.2076 99.2381 95.8617 100.646 94.4359C102.726 92.3126 104.604 90.0003 106.256 87.529C106.714 86.8257 107.198 86.1131 107.628 85.3502C108.058 84.5872 108.504 83.8118 108.94 83.0143C109.803 81.3508 110.576 79.6426 111.257 77.8969C111.929 76.1402 112.51 74.3505 113 72.5346C113.464 70.7702 113.81 69.0466 114.08 67.3921C114.35 65.7375 114.491 64.1521 114.591 62.6639C114.692 61.1758 114.689 59.7881 114.642 58.5198C114.584 56.5167 114.362 54.5217 113.979 52.5547C113.907 52.2062 113.841 51.8985 113.785 51.6316C113.728 51.3648 113.665 51.145 113.621 50.9598C113.577 50.7745 113.546 50.6458 113.524 50.5454C113.51 50.5004 113.502 50.4541 113.499 50.4072Z" fill="#353535"/>
<path d="M115.925 52.6034C115.86 52.663 114.692 51.4763 113.298 49.9348L113.574 49.8751L113.543 49.9693C112.896 51.9911 112.287 53.608 112.211 53.5797C112.136 53.5515 112.582 51.8938 113.232 49.872L113.263 49.7746L113.351 49.5046L113.539 49.715C114.93 51.2596 115.991 52.5437 115.925 52.6034Z" fill="#353535"/>
<path d="M91.2461 17.4113C91.1896 17.3831 91.1359 17.3495 91.086 17.3108L90.6496 16.9906L89.9369 16.4569C89.6543 16.2465 89.309 16.0425 88.9228 15.7882C86.7424 14.4129 84.4283 13.2621 82.0159 12.3535C80.4901 11.7759 78.7916 11.2013 76.9393 10.6896C76.0131 10.4384 75.0555 10.1873 74.0509 9.97063C73.5517 9.85761 73.0431 9.75086 72.5282 9.65668C72.2708 9.60645 72.0102 9.55935 71.7496 9.51854L70.949 9.41807C66.31 8.74576 61.5983 8.74576 56.9593 9.41807C52.3116 10.0827 47.7729 11.3622 43.4625 13.2232C39.9422 14.7415 36.6038 16.6508 33.5102 18.9151L32.5683 19.6341C32.2544 19.8664 31.9404 20.0862 31.6736 20.3342L30.1038 21.6842L29.7396 21.9982L29.41 22.3121L28.7821 22.918L27.6927 23.9823L26.283 25.5521L25.9094 25.9571C25.8689 26.0045 25.8236 26.0476 25.7744 26.0858C25.8053 26.0317 25.8422 25.9811 25.8843 25.9351L26.2328 25.5113L27.5985 23.9007L28.6722 22.8144L29.3001 22.1865L29.6141 21.8726L29.9751 21.5586L31.5449 20.1835C31.818 19.9292 32.1257 19.7063 32.4333 19.4708C32.741 19.2354 33.0613 18.9905 33.3752 18.7393C36.4633 16.4416 39.8046 14.5054 43.3338 12.9689C47.6572 11.0819 52.2148 9.78516 56.884 9.11354C61.5526 8.4296 66.2961 8.4296 70.9647 9.11354L71.7685 9.21714C72.0322 9.2611 72.2959 9.30819 72.5565 9.36156C73.0745 9.46203 73.5862 9.57191 74.0854 9.67552C75.0901 9.90156 76.0539 10.1559 76.9832 10.4164C78.8418 10.9407 80.5434 11.531 82.0724 12.1243C84.4953 13.0544 86.811 14.2428 88.9793 15.6689C89.3561 15.9326 89.7046 16.1461 89.9808 16.3659L90.6778 16.9247L91.1017 17.2732C91.1543 17.3143 91.2026 17.3606 91.2461 17.4113Z" fill="#353535"/>
<path d="M25.8747 22.8157C25.9626 22.8157 25.8151 24.4891 25.5388 26.5486L25.3159 26.3759L25.4069 26.3383C27.3691 25.5251 28.9891 24.9349 29.0237 25.0165C29.0582 25.0981 27.4947 25.8265 25.5325 26.6397L25.4415 26.6773L25.1777 26.7872L25.2154 26.5047C25.4948 24.4451 25.7868 22.8063 25.8747 22.8157Z" fill="#353535"/>
</g>
<defs>
<filter id="filter0_d_5354_34447" x="0" y="0" width="136" height="139.165" filterUnits="userSpaceOnUse" color-interpolation-filters="sRGB">
<feFlood flood-opacity="0" result="BackgroundImageFix"/>
<feColorMatrix in="SourceAlpha" type="matrix" values="0 0 0 0 0 0 0 0 0 0 0 0 0 0 0 0 0 0 127 0" result="hardAlpha"/>
<feOffset dy="4"/>
<feGaussianBlur stdDeviation="2"/>
<feComposite in2="hardAlpha" operator="out"/>
<feColorMatrix type="matrix" values="0 0 0 0 0 0 0 0 0 0 0 0 0 0 0 0 0 0 0.25 0"/>
<feBlend mode="normal" in2="BackgroundImageFix" result="effect1_dropShadow_5354_34447"/>
<feBlend mode="normal" in="SourceGraphic" in2="effect1_dropShadow_5354_34447" result="shape"/>
</filter>
</defs>
</svg>
