<svg width="16" height="16" viewBox="0 0 16 16" fill="none" xmlns="http://www.w3.org/2000/svg">
<path d="M11.3359 14.1666H4.66927C2.23594 14.1666 0.835938 12.7666 0.835938 10.3333V5.66665C0.835938 3.23331 2.23594 1.83331 4.66927 1.83331H11.3359C13.7693 1.83331 15.1693 3.23331 15.1693 5.66665V10.3333C15.1693 12.7666 13.7693 14.1666 11.3359 14.1666ZM4.66927 2.83331C2.7626 2.83331 1.83594 3.75998 1.83594 5.66665V10.3333C1.83594 12.24 2.7626 13.1666 4.66927 13.1666H11.3359C13.2426 13.1666 14.1693 12.24 14.1693 10.3333V5.66665C14.1693 3.75998 13.2426 2.83331 11.3359 2.83331H4.66927Z" fill="#717171"/>
<path d="M7.9992 8.57998C7.4392 8.57998 6.87254 8.40665 6.4392 8.05331L4.35253 6.38665C4.1392 6.21331 4.0992 5.89998 4.27254 5.68665C4.44587 5.47331 4.75921 5.43332 4.97254 5.60665L7.0592 7.27332C7.56587 7.67998 8.42586 7.67998 8.93253 7.27332L11.0192 5.60665C11.2325 5.43332 11.5525 5.46665 11.7192 5.68665C11.8925 5.89998 11.8592 6.21998 11.6392 6.38665L9.55254 8.05331C9.12587 8.40665 8.5592 8.57998 7.9992 8.57998Z" fill="#717171"/>
</svg>
