<svg width="24" height="24" viewBox="0 0 24 24" fill="none" xmlns="http://www.w3.org/2000/svg">
<g clip-path="url(#clip0_10404_5059)">
<rect x="1.25" y="1.25" width="21.5" height="21.5" rx="10.75" fill="#CB1B1B"/>
<path fill-rule="evenodd" clip-rule="evenodd" d="M6.11604 11.8865C9.24988 10.5211 11.3396 9.62096 12.3852 9.18606C15.3706 7.94433 15.9909 7.72863 16.3953 7.72151C16.4842 7.71994 16.683 7.74198 16.8118 7.84649C16.9206 7.93474 16.9505 8.05395 16.9648 8.13762C16.9791 8.22129 16.997 8.41188 16.9828 8.56081C16.821 10.2606 16.121 14.3857 15.7649 16.2895C15.6142 17.0951 15.3175 17.3652 15.0302 17.3916C14.4059 17.4491 13.9319 16.9791 13.3272 16.5827C12.3811 15.9625 11.8466 15.5764 10.9282 14.9712C9.86684 14.2718 10.5549 13.8874 11.1597 13.2592C11.318 13.0947 14.0686 10.5929 14.1218 10.3659C14.1285 10.3376 14.1347 10.2318 14.0718 10.1759C14.009 10.12 13.9162 10.1391 13.8492 10.1543C13.7544 10.1758 12.2429 11.1749 9.31483 13.1514C8.88581 13.446 8.49721 13.5895 8.14904 13.582C7.76521 13.5737 7.02687 13.365 6.47799 13.1866C5.80477 12.9677 5.26971 12.852 5.3163 12.4804C5.34057 12.2868 5.60715 12.0888 6.11604 11.8865Z" fill="white"/>
</g>
<defs>
<clipPath id="clip0_10404_5059">
<rect width="24" height="24" fill="white"/>
</clipPath>
</defs>
</svg>
