<svg width="40" height="40" viewBox="0 0 40 40" fill="none" xmlns="http://www.w3.org/2000/svg">
<rect width="40" height="40" rx="20" fill="#28A8EA"/>
<path fill-rule="evenodd" clip-rule="evenodd" d="M9.05173 19.7889C14.8821 17.2487 18.77 15.574 20.7153 14.7649C26.2695 12.4547 27.4236 12.0534 28.1759 12.0402C28.3413 12.0373 28.7112 12.0783 28.9509 12.2727C29.1532 12.4369 29.2089 12.6587 29.2355 12.8143C29.2621 12.97 29.2953 13.3246 29.2689 13.6017C28.968 16.7641 27.6656 24.4386 27.003 27.9806C26.7227 29.4794 26.1707 29.9819 25.6362 30.0311C24.4748 30.138 23.5928 29.2635 22.4679 28.5261C20.7077 27.3723 19.7132 26.654 18.0046 25.528C16.03 24.2268 17.31 23.5116 18.4354 22.3428C18.7299 22.0369 23.8472 17.3823 23.9462 16.96C23.9586 16.9072 23.9701 16.7104 23.8532 16.6065C23.7362 16.5025 23.5637 16.5381 23.4391 16.5663C23.2626 16.6064 20.4505 18.465 15.003 22.1423C14.2048 22.6904 13.4818 22.9574 12.8341 22.9434C12.12 22.928 10.7463 22.5397 9.72514 22.2077C8.47264 21.8006 7.47717 21.5853 7.56386 20.8939C7.60901 20.5337 8.10496 20.1654 9.05173 19.7889Z" fill="white"/>
</svg>
