<svg width="20" height="20" viewBox="0 0 20 20" fill="none" xmlns="http://www.w3.org/2000/svg">
<path d="M17.4991 5.60839C17.4824 5.60839 17.4574 5.60839 17.4324 5.60839C13.0241 5.16673 8.62408 5.00006 4.26574 5.44173L2.56574 5.60839C2.21574 5.64173 1.90741 5.39173 1.87408 5.04173C1.84074 4.69173 2.09074 4.39173 2.43241 4.35839L4.13241 4.19173C8.56574 3.74173 13.0574 3.91673 17.5574 4.35839C17.8991 4.39173 18.1491 4.70006 18.1157 5.04173C18.0907 5.36673 17.8157 5.60839 17.4991 5.60839Z" fill="white"/>
<path d="M7.08265 4.76675C7.04932 4.76675 7.01598 4.76675 6.97432 4.75842C6.64098 4.70008 6.40765 4.37508 6.46598 4.04175L6.64932 2.95008C6.78265 2.15008 6.96598 1.04175 8.90765 1.04175H11.091C13.041 1.04175 13.2243 2.19175 13.3493 2.95841L13.5326 4.04175C13.591 4.38342 13.3576 4.70842 13.0243 4.75842C12.6826 4.81675 12.3576 4.58342 12.3076 4.25008L12.1243 3.16675C12.0076 2.44175 11.9826 2.30008 11.0993 2.30008H8.91598C8.03265 2.30008 8.01598 2.41675 7.89098 3.15841L7.69932 4.24175C7.64932 4.55008 7.38265 4.76675 7.08265 4.76675Z" fill="white"/>
<path d="M12.674 18.9584H7.32402C4.41569 18.9584 4.29902 17.3501 4.20735 16.0501L3.66569 7.6584C3.64069 7.31673 3.90735 7.01673 4.24902 6.99173C4.59902 6.97506 4.89069 7.2334 4.91569 7.57506L5.45735 15.9667C5.54902 17.2334 5.58235 17.7084 7.32402 17.7084H12.674C14.424 17.7084 14.4574 17.2334 14.5407 15.9667L15.0824 7.57506C15.1074 7.2334 15.4074 6.97506 15.749 6.99173C16.0907 7.01673 16.3574 7.3084 16.3324 7.6584L15.7907 16.0501C15.699 17.3501 15.5824 18.9584 12.674 18.9584Z" fill="white"/>
<path d="M11.3844 14.375H8.60938C8.26771 14.375 7.98438 14.0917 7.98438 13.75C7.98438 13.4083 8.26771 13.125 8.60938 13.125H11.3844C11.726 13.125 12.0094 13.4083 12.0094 13.75C12.0094 14.0917 11.726 14.375 11.3844 14.375Z" fill="white"/>
<path d="M12.0846 11.0417H7.91797C7.5763 11.0417 7.29297 10.7584 7.29297 10.4167C7.29297 10.0751 7.5763 9.79175 7.91797 9.79175H12.0846C12.4263 9.79175 12.7096 10.0751 12.7096 10.4167C12.7096 10.7584 12.4263 11.0417 12.0846 11.0417Z" fill="white"/>
</svg>
