<svg width="24" height="25" viewBox="0 0 24 25" fill="none" xmlns="http://www.w3.org/2000/svg">
<path d="M21.0036 7.23001C20.9836 7.23001 20.9536 7.23001 20.9236 7.23001C15.6336 6.70001 10.3536 6.50001 5.12358 7.03001L3.08358 7.23001C2.66358 7.27001 2.29358 6.97001 2.25358 6.55001C2.21358 6.13001 2.51358 5.77001 2.92358 5.73001L4.96358 5.53001C10.2836 4.99001 15.6736 5.20001 21.0736 5.73001C21.4836 5.77001 21.7836 6.14001 21.7436 6.55001C21.7136 6.94001 21.3836 7.23001 21.0036 7.23001Z" fill="#505050"/>
<path d="M8.50074 6.22C8.46074 6.22 8.42074 6.22 8.37074 6.21C7.97074 6.14 7.69074 5.75 7.76074 5.35L7.98074 4.04C8.14074 3.08 8.36074 1.75 10.6907 1.75H13.3107C15.6507 1.75 15.8707 3.13 16.0207 4.05L16.2407 5.35C16.3107 5.76 16.0307 6.15 15.6307 6.21C15.2207 6.28 14.8307 6 14.7707 5.6L14.5507 4.3C14.4107 3.43 14.3807 3.26 13.3207 3.26H10.7007C9.64074 3.26 9.62074 3.4 9.47074 4.29L9.24074 5.59C9.18074 5.96 8.86074 6.22 8.50074 6.22Z" fill="#505050"/>
<path d="M15.2104 23.25H8.79039C5.30039 23.25 5.16039 21.32 5.05039 19.76L4.40039 9.69001C4.37039 9.28001 4.69039 8.92001 5.10039 8.89001C5.52039 8.87001 5.87039 9.18001 5.90039 9.59001L6.55039 19.66C6.66039 21.18 6.70039 21.75 8.79039 21.75H15.2104C17.3104 21.75 17.3504 21.18 17.4504 19.66L18.1004 9.59001C18.1304 9.18001 18.4904 8.87001 18.9004 8.89001C19.3104 8.92001 19.6304 9.27001 19.6004 9.69001L18.9504 19.76C18.8404 21.32 18.7004 23.25 15.2104 23.25Z" fill="#505050"/>
<path d="M13.6581 17.75H10.3281C9.91813 17.75 9.57812 17.41 9.57812 17C9.57812 16.59 9.91813 16.25 10.3281 16.25H13.6581C14.0681 16.25 14.4081 16.59 14.4081 17C14.4081 17.41 14.0681 17.75 13.6581 17.75Z" fill="#505050"/>
<path d="M14.5 13.75H9.5C9.09 13.75 8.75 13.41 8.75 13C8.75 12.59 9.09 12.25 9.5 12.25H14.5C14.91 12.25 15.25 12.59 15.25 13C15.25 13.41 14.91 13.75 14.5 13.75Z" fill="#505050"/>
</svg>
