<svg width="25" height="25" viewBox="0 0 25 25" fill="none" xmlns="http://www.w3.org/2000/svg">
<path d="M12.5 14.25C12.09 14.25 11.75 13.91 11.75 13.5V8.25C11.75 7.84 12.09 7.5 12.5 7.5C12.91 7.5 13.25 7.84 13.25 8.25V13.5C13.25 13.91 12.91 14.25 12.5 14.25Z" fill="#ED2E2E"/>
<path d="M12.5 17.75C12.23 17.75 11.98 17.65 11.79 17.46C11.7 17.36 11.63 17.25 11.57 17.13C11.52 17.01 11.5 16.88 11.5 16.75C11.5 16.49 11.61 16.23 11.79 16.04C12.16 15.67 12.84 15.67 13.21 16.04C13.39 16.23 13.5 16.49 13.5 16.75C13.5 16.88 13.47 17.01 13.42 17.13C13.37 17.25 13.3 17.36 13.21 17.46C13.02 17.65 12.77 17.75 12.5 17.75Z" fill="#ED2E2E"/>
<path d="M12.5002 23.25C11.8302 23.25 11.1502 23.08 10.5502 22.73L4.61017 19.3C3.41017 18.6 2.66016 17.31 2.66016 15.92V9.07999C2.66016 7.68999 3.41017 6.39999 4.61017 5.69999L10.5502 2.27C11.7502 1.57 13.2402 1.57 14.4502 2.27L20.3902 5.69999C21.5902 6.39999 22.3402 7.68999 22.3402 9.07999V15.92C22.3402 17.31 21.5902 18.6 20.3902 19.3L14.4502 22.73C13.8502 23.08 13.1702 23.25 12.5002 23.25ZM12.5002 3.24998C12.0902 3.24998 11.6702 3.35998 11.3002 3.56998L5.36017 6.99998C4.62017 7.42998 4.16016 8.21999 4.16016 9.07999V15.92C4.16016 16.77 4.62017 17.57 5.36017 18L11.3002 21.43C12.0402 21.86 12.9602 21.86 13.6902 21.43L19.6302 18C20.3702 17.57 20.8302 16.78 20.8302 15.92V9.07999C20.8302 8.22999 20.3702 7.42998 19.6302 6.99998L13.6902 3.56998C13.3302 3.35998 12.9102 3.24998 12.5002 3.24998Z" fill="#ED2E2E"/>
</svg>
